<svg xmlns="http://www.w3.org/2000/svg" viewBox="0 0 12.7 12.7"><path d="M3.2559098 287.45242a.20581238.20581238 0 0 0-.2060444.19073 2.6221886 2.6221886 0 0 0 .3098668 1.44545.17249327.17249327 0 1 1-.3209692.11664 1.81538 1.81538 0 0 0-.8484831-1.19428.20581238.20581238 0 0 0-.3109671.18546 1.3335919 1.3335919 0 0 0 .7123537 1.12442.17271577.17271577 0 0 1 .019004.29425 15.634587 15.634587 0 0 1-1.66986025 1.0314.17271577.17271577 0 0 1-.0790171.0205.36108798.36108798 0 0 0-.30056485.16604.20581238.20581238 0 0 0-.0320069.11506.48230636.48230636 0 0 0 .12612721.31527.31396327.31396327 0 0 0 .37268039.0699l.3926847-.19598a.17271577.17271577 0 0 1 .062013-.0173 6.6583736 6.6583736 0 0 0 1.4718175-.29792 3.0933087 3.0933087 0 0 0 .6518407.0268 2.269897 2.269897 0 0 0 1.3756968.59372.1186403.1186403 0 0 1 .1060228.14977l-.010002.0226.029006.5165a.4761896.4761896 0 0 0 .010002.0452l.061013.39198a.60531925.60531925 0 0 1 0 .18495l-.1191257.76817a.1186403.1186403 0 0 1-.086019.0967l-.1641344.0431-.083018.18337h.8116751a.31396327.31396327 0 0 0 .3125674-.28111l.078017-.7377a.87569653.87569653 0 0 1 .1250269-.36781 1.819273 1.819273 0 0 0 .2617565-.7624.1186403.1186403 0 0 1 .1291279-.10559 8.8257978 8.8257978 0 0 0 1.9789267-.03.37361822.37361822 0 0 1 .3203693.1156l.4697011.50285a.33494208.33494208 0 0 1 .081017.30684l-.226049.93684a.1186403.1186403 0 0 1-.050011.0714l-.2563552.16709-.087019.18654h1.0358234a.31396327.31396327 0 0 0 .3130685-.29108l.08402-1.15227a.58892163.58892163 0 0 0 .08002-.43455.10760809.10760809 0 0 1 .03901-.10666.98087253.98087253 0 0 0 .380381-.72878 2.8160613 2.8160613 0 0 0-1.6514565-2.89878 3.139405 3.139405 0 0 0-3.1063696-.13873 5.0296481 5.0296481 0 0 0-1.501725 1.01829.17271577.17271577 0 0 1-.083018.0457l-.3432741.0767a.17271577.17271577 0 0 1-.1985453-.23109 1.38717 1.38717 0 0 0-.3220705-1.49432.20581238.20581238 0 0 0-.143931-.05941Zm-.3316715 2.37862a.16264287.16264287 0 0 1 .1654357.16444.16264287.16264287 0 1 1-.3252702 0 .16264287.16264287 0 0 1 .1598345-.16444z" transform="translate(0 -284.29998)"/><path d="m7.7734849 291.85046-.088019-.0978a8.9549278 8.9549278 0 0 0 .7523625-.0642.24448845.24448845 0 0 1 .2718587.28504l-.041009.22648-.064014 1.01081a.31396329.31396329 0 0 1-.3131676.29396H7.2345684l.09002-.17903.265457-.16606a.1186403.1186403 0 0 0 .053012-.0749l.2078449-.93784a.33494208.33494208 0 0 0-.077017-.29628zM3.7489162 293.20031a.40356504.40356504 0 0 1-.2227481.13524l-.1000215.18155h.9082959a.41262406.41262406 0 0 0 .1366295-.0609.20581238.20581238 0 0 0 .086019-.14086l.134529-.95594a.60531928.60531928 0 0 1 .09302-.24913.4761896.4761896 0 0 0 .062013-.13612l.111024-.40386a2.3990267 2.3990267 0 0 1-1.1559494-.40052 4.2453976 4.2453976 0 0 0 .050011.89928 1.9572054 1.9572054 0 0 1 .010002.56415 6.1682018 6.1682018 0 0 1-.089019.51609.1186403.1186403 0 0 1-.024005.051zM12.170833 293.16432a2.2109097 2.2109097 0 0 1-1.845698-1.21469 1.1100023 1.1100023 0 0 0 .380882-.60178 3.3907749 3.3907749 0 0 0 .625635 1.25528.87569653.87569653 0 0 0 .37008.27209 1.5194657 1.5194657 0 0 1 .469101.2891z" transform="translate(0 -284.29998)"/></svg>