<?xml version="1.0" encoding="UTF-8"?>
<svg width="1200pt" height="1200pt" version="1.1" viewBox="0 0 1200 1200" xmlns="http://www.w3.org/2000/svg">
 <path d="m946.56 649.94v203.5c0 82.227-44.68 156.57-103.25 215.14-79.977 79.977-188.86 131.41-243.3 131.41-54.441 0-163.33-51.438-243.3-131.41-58.574-58.574-103.25-132.92-103.25-215.14v-203.5zm-740.43-63.078c-17.273 0-31.539-13.891-31.539-31.539 0-214.39 169.34-330.79 367.96-346.56 0.75-36.047 10.137-79.598 25.906-116.39 9.0117-21.027 20.273-40.926 33.418-55.945 15.02-18.023 33.043-30.789 54.066-34.918 14.27-3.0039 28.91-1.5 43.93 4.5039l104.38 44.68c6.7578 2.2539 12.391 7.1328 16.145 13.891 10.137 17.648 1.8789 35.293-14.645 44.305-40.176 22.527-91.613 51.816-97.621 102.5 169.71 33.418 317.27 161.83 317.27 343.93 0 17.648-14.27 31.539-31.539 31.539h-787.73z" fill-rule="evenodd"/>
</svg>
