<svg xmlns="http://www.w3.org/2000/svg" xmlns:xlink="http://www.w3.org/1999/xlink" version="1.1" x="0px" y="0px" viewBox="-11 -10 120 120" style="enable-background:new 0 0 100 100;" xml:space="preserve"><g><path d="M14.4,13.1c-0.1-1.4-0.2-3.7-2.2-3.5c0,0-2,1.4-3.2,2.1c-1.2,0.7-5,1-5.7,1.4c-0.7,0.4-2,1.3-1.2,3.9c0,0,0.8-0.8,1.6-0.9   c0.9-0.1,8.5-0.8,8.5-0.8S14.5,14.5,14.4,13.1z"></path><path d="M97.8,66.7c-2.8-2.9-9.3-6-13.1-8.1c4.4-0.1,12.7,5.2,12.7,5.2s-3.9-5.9-7.8-8.1c-0.8-0.4-4.5-1.7-5.8-1.8   c-5.3-0.6-8.8-1.7-13.4-4.4c-1-0.6-1.7-1-1.7-1l4.9,1C70,46,67.7,45,65.8,43.7c-2-1.3-7.7-3.3-7.7-3.3c1.1-0.2,3.1,0.1,3.1,0.1   c-4.5-3.5-12.3-4.7-16.9-4c-4.6,0.7-8.3-1.9-8.3-1.9l-10.2,4.1c-0.3,0.1-0.4,0.5-0.1,0.7c1.7,1.6,2.7,5.6,3,7.9   c0.2,1.6,2.8,3.4,4.2,4.2c3.2,1.8,6,4.5,7.3,5.9c0.5,0.6,1.2,1,2,1.1c6.8,1.1,20.9-0.7,28.5,0.5c6.6,1.1,21.5,6.5,26.6,8.7   C97.8,67.9,98.3,67.2,97.8,66.7z"></path><path d="M40.8,74.9l-0.4,7c0,0-0.6,0.2-1.3,0.5l-0.1,3.8c0.2,0,0.3-0.1,0.5-0.1c2.8-0.7,3.9-1.5,3.9-4.1c0-2.6,0-10.9,0-10.9   C42.6,74.5,40.8,74.9,40.8,74.9z"></path><path d="M32.1,89c0,0,0.6-0.3,1.4-0.7l0.2-6.1c-1.9-0.4-3.8-0.8-3.8-0.8s-1.5,2.2-5,2.6c0,0,1.1,1.5,1.1,4.4   C26.1,88.4,30.4,87.9,32.1,89z"></path><path d="M38.5,58.1c-3.6-4-8.4-5.4-10.3-8c-2-2.6-1.1-4.6-2.8-7.8c-0.9-1.7-1.9-2.8-2.6-3.4c-0.3-0.3-0.2-0.8,0.2-0.9   c3.2-0.7,6.9-2.9,8.5-3.5c1.7-0.7,3.3-1.1,3.3-1.1s-3.9-4.5-4.6-10.1c-0.7-5.7,2.8-10.5-0.9-16c-3.7-5.4-10.7-3.5-13.1-2.4   c-2.4,1.1-3.7,3.9-3.7,3.9s1.7-2,2.8,3.5c0.4,2.2-0.9,3.1-1.5,3.4c0.8-0.2,3.3-0.3,3.9,8.2c0.7,10.2-6.5,11.9-5.9,22.5   c0.7,10.7,11.3,13.5,14.8,17c3.5,3.5,4.4,5.9,6.7,8.5c0.6,0.7,1.2,1.1,1.7,1.4l-0.2,1.5c-0.1,0.7-0.1,1.3,0,2l0.3,1.6l-0.4,10.9   c0,0-2.2,0.9-3.3,0.9c-1.1,0-7.2-1.3-7.2-1.3s-1.5,2.2-5,2.6c0,0,1.1,1.5,1.1,4.4c0,0,4.4-0.4,6.1,0.7c0,0,4.6-2.4,7.4-3   s3.9-1.5,3.9-4.1c0-2.6,0-10.9,0-10.9s1.2-2.2,0.9-4.6c0,0,0,0,0,0c1.5,0.2,3-1.5,3-3.9c0-2.4-2.4-8.5-2.4-8.5l3.7,6.3   c3.3,0.2,19.4,0.4,21.3-2c2-2.4,10.4-4.8,10.4-4.8C61.3,58.4,42.4,62.4,38.5,58.1z M20.1,10.1c-0.5,0-1-0.3-1-0.8c0,0,0,0,0,0   c-0.8-0.7-1.8-0.8-1.8-0.8c2.8,0,6.9-0.7,6.9-0.7s-1.6,0.8-3,1.3c0,0,0,0.1,0,0.1C21.2,9.7,20.7,10.1,20.1,10.1z"></path><path d="M13.9,15.6c-0.2,0-0.2,0.1-0.2,0.1S13.8,15.7,13.9,15.6z"></path></g></svg>