<svg xmlns="http://www.w3.org/2000/svg" viewBox="0 0 100 100" xml:space="preserve"><path d="M91.391 84.569c-.601-.599-1.677-1.438-2.077-2.076-.398-.638-1.756-1.316-2.516-1.636-.758-.319-2.194-.919-2.834-1.438-.639-.52-1.756-1.676-2.075-2.235-.319-.559-2.075-1.717-2.075-1.717.119-.278.119-1.118.119-1.118s1.039.56 1.358 1.078c.318.519 1.477 1.038 1.477 1.038-.121-.718-1.357-3.193-1.357-3.193 1.636-.639 4.63.319 4.63.319-.56-1.677-4.111-2.994-4.111-2.994.079-.439 3.353-.639 3.353-.639-.958-1.438-4.869-1.077-4.869-1.077.199-.439.957-.959.957-.959s-1.276 0-2.234.559c-.959.56-1.598-.239-2.236-1.197s-3.433-5.19-4.712-6.547c-1.276-1.357-2.872-1.198-3.751-.559-.877.639-1.437 5.27-1.437 5.27-4.87-6.547-7.665-7.745-8.464-8.224-.799-.479-2.236-2.396-2.236-2.396 1.278-.159 2.236.959 2.236.959-.16-1.677-1.676-2.716-2.236-2.875-.559-.16-2.634-.878-1.516-1.197 1.117-.319 2.395.798 2.395.798-1.117-2.155-3.354-2.235-4.471-2.315-1.118-.079-6.946-2.235-8.782-2.475s-2.874.798-2.874.798c-2.795-.878-4.151.08-4.392.08C16.3 32.314 22.767 20.338 30.592 12.434c7.824-7.904 20.039-5.908 34.251-4.87 14.211 1.038 23.153-4.471 23.153-4.471s-2.234-1.836-7.506-.878C64.491 5.124 33.785-9.282 19.414 11.316c-15.957 22.872.26 42.948 3.524 46.595.163 1.326.029 2.268.029 2.268-1.876-3.153-3.792-3.354-4.831-3.354s-3.114 1.317-2.994 3.074c.12 1.757-.2 5.708-.319 7.624-.12 1.917.439 4.112.599 5.429.16 1.317.2 3.474.2 3.474.998-1.317 1.158-3.433 1.836-2.994 1.317 1.277.838 4.671.838 4.671 1.278-1.317 1.677-4.351 1.677-4.351.759.438 1.676 3.153 1.676 3.153.479-1.118.28-3.793.28-3.793.718.12 1.277 1.317 1.277 1.317.24-.958-.439-3.154-.439-3.154 4.111 4.512 5.27 2.716 6.427 1.158 1.158-1.557 1.956-5.35 1.956-5.35.359 2.755 4.191 6.188 6.467 8.024 2.275 1.836 7.864 4.91 7.864 4.91-2.475 2.516-.638 4.231 1.198 6.507 1.835 2.275 3.792 3.153 4.51 3.514.719.359.439 1.316.439 1.316-.678.439-1.517 1.876-1.517 1.876.319-.358 1.557-.479 1.557-.479s-.958 2.555-.958 3.274c0 .718.399 1.356.399 1.356 0-.639.679-1.956 1.196-2.476.52-.518.76 1.238.879 2.596.121 1.356 1.397 2.675 1.397 2.675s.2-1.797.159-3.153c-.039-1.358.839-1.757 1.518-1.798.678-.039.439.72 1.238 1.237.797.52.918 1.478.918 1.478.438-.719.119-2.275-.121-3.034-.238-.757-.318-2.514-.318-2.514.398-.2 2.275-.439 2.275-.439-.159-.4-.998-.998-2.635-1.438s-2.515-2.874-2.914-3.513c-.4-.639-2.436-2.715-2.436-2.715 1.598-.04 3.912-1.277 3.912-1.277s1.678 1.637 3.514 1.598c1.238.039 2.436.837 3.273 1.636s5.03 3.872 8.263 3.633c3.234-.239 7.346 1.237 8.663 1.677s3.992.639 5.469.559c1.079-.059 5.19.16 6.349-2.634 1.199-3.353.28-4.31-.317-4.91z"/></svg>