<svg xmlns="http://www.w3.org/2000/svg" viewBox="0 0 100 100" xml:space="preserve"><path d="M80.049 70.646c-.747-.616-1.772-2.329-2.726-4.516-1.463-3.279-2.939-7.597-4.517-11.329-.786-1.866-1.601-3.592-2.507-5.004-.908-1.406-1.868-2.563-3.264-3.152-1.08-.437-2.195-.614-3.265-.614-2.931.031-5.586 1.236-7.213 2.156-.156-1.084-.383-2.122-.664-3.086 2.666-1.189 7.528-3.754 10.912-8.018 2.385-3.029 4.362-7.187 6.307-10.707.964-1.764 1.911-3.355 2.825-4.523.9-1.185 1.78-1.865 2.374-2.024.744-.225 1.166-1.005.937-1.755-.224-.731-.999-1.158-1.744-.932-1.541.473-2.699 1.605-3.787 2.985-1.606 2.085-3.056 4.861-4.553 7.658-1.481 2.789-2.998 5.584-4.563 7.562-2.051 2.62-4.964 4.629-7.355 5.942-.894.489-1.71.893-2.382 1.192-.479-.957-1.044-1.781-1.667-2.429 3.379-1.727 5.792-6.071 5.792-11.19 0-2.223-1.025-4.309-2.382-6.094.323-.094.664-.203 1.016-.359.756-.339 1.559-.864 2.189-1.704.64-.833 1.033-1.976 1.033-3.289C60.822 14.85 59.52 11.628 56.117 7c-.457-.62-1.346-.749-1.965-.298-.62.466-.755 1.346-.289 1.965 3.252 4.38 4.196 7.227 4.173 8.752-.01.788-.203 1.248-.466 1.604-.388.529-1.089.876-1.763 1.051-.325.089-.63.132-.849.153-.106.013-.192.02-.244.023l-.053.003c-.094.005-.2.013-.291.03-2.2-2.101-4.374-3.398-4.374-3.398s-2.163 1.298-4.371 3.399c-.086-.019-.185-.031-.291-.038 0 0-.014.013-.114.004-.342-.02-1.305-.147-2.022-.567-.706-.458-1.204-.906-1.236-2.265-.017-1.527.919-4.372 4.18-8.751.456-.624.328-1.501-.3-1.966-.621-.455-1.496-.325-1.957.298-3.412 4.628-4.709 7.85-4.728 10.416-.01 1.316.394 2.456 1.023 3.29.942 1.239 2.21 1.778 3.21 2.057-1.356 1.791-2.374 3.873-2.374 6.104 0 5 2.307 9.281 5.565 11.078-.634.633-1.213 1.459-1.711 2.423-2.515-1.175-6.746-3.532-9.47-7.021-2.099-2.646-4.076-6.717-6.05-10.332-.997-1.803-1.996-3.49-3.077-4.892-1.077-1.376-2.241-2.516-3.784-2.979-.745-.236-1.525.185-1.741.934-.225.745.202 1.521.944 1.752.589.149 1.463.842 2.372 2.022 1.369 1.754 2.809 4.452 4.287 7.25 1.499 2.801 3.051 5.703 4.839 7.98 3.267 4.11 7.91 6.653 10.631 7.888-.289.955-.518 1.971-.677 3.057-1.652-.901-4.154-1.966-6.925-1.997-1.066 0-2.173.178-3.259.613-1.84.794-2.987 2.547-4.144 4.662-1.689 3.197-3.181 7.458-4.67 11.259-1.442 3.782-3.032 7.147-4.188 8.08-.586.511-.648 1.39-.141 1.979.278.322.664.484 1.06.484.322 0 .655-.112.924-.341 1.394-1.246 2.398-3.172 3.443-5.49 1.537-3.47 3.008-7.788 4.527-11.378.753-1.795 1.533-3.405 2.285-4.593.756-1.199 1.516-1.911 1.955-2.06.701-.284 1.439-.414 2.21-.412 1.716 0 3.559.649 4.941 1.336.692.339 1.27.683 1.674.935.018.012.034.015.051.034-.007.152-.007.301-.007.454 0 1.494.135 2.919.377 4.251-.7.298-1.947.87-3.331 1.707-2.086 1.281-4.524 3.14-5.808 5.822-.503 1.084-.701 2.211-.701 3.303.006 2.026.626 3.934 1.19 5.7.557 1.771 1.059 3.414 1.051 4.727.003.299-.025.586-.069.859-.115.709-.771 2.066-1.727 3.497-1.432 2.162-3.475 4.616-5.161 6.5-1.682 1.895-2.989 3.214-2.989 3.214-.544.554-.536 1.438.019 1.988.273.266.636.406.981.406.372 0 .729-.141.997-.421.021-.014 2.402-2.427 4.909-5.424 1.263-1.498 2.541-3.134 3.593-4.722 1.035-1.599 1.853-3.078 2.14-4.553.086-.447.122-.899.122-1.346-.018-1.957-.638-3.803-1.192-5.572-.56-1.763-1.057-3.437-1.049-4.854-.008-.763.13-1.444.439-2.113.817-1.821 2.843-3.488 4.71-4.61.929-.558 1.796-.998 2.436-1.284.056-.028.091-.041.131-.062.729 2.202 1.801 3.955 3.059 5.021-3.485 1.645-5.992 6.073-5.992 11.29 0 6.611 4.021 11.977 8.98 11.974 4.97 0 8.997-5.362 8.991-11.977.003-5.321-2.605-9.824-6.205-11.387 1.236-1.101 2.272-2.857 2.98-5.043.763.327 2.146.978 3.559 1.92 1.647 1.078 3.276 2.56 4.009 4.158.312.665.432 1.351.432 2.113.014 1.418-.481 3.092-1.049 4.854-.55 1.77-1.174 3.622-1.179 5.572-.003.446.027.898.109 1.351.277 1.469 1.104 2.949 2.147 4.546 3.12 4.724 8.465 10.113 8.491 10.147.27.28.638.421.997.421.359-.001.72-.144.991-.404.552-.552.552-1.437.008-1.988 0 0-.578-.583-1.463-1.535-1.333-1.433-3.346-3.689-5.081-5.95-1.744-2.232-3.163-4.624-3.335-5.736-.041-.268-.067-.552-.067-.851-.008-1.315.489-2.955 1.055-4.721.557-1.771 1.184-3.674 1.189-5.706 0-1.085-.192-2.219-.701-3.296-1.271-2.69-3.725-4.548-5.8-5.825-1.613-.982-3.043-1.592-3.63-1.834.224-1.301.353-2.688.353-4.127 0-.087-.012-.168-.009-.244.84-.592 4.062-2.549 6.983-2.516.771.011 1.507.12 2.207.412.606.184 1.718 1.438 2.718 3.373 1.547 2.897 3.04 7.117 4.529 10.969 1.554 3.869 2.928 7.332 4.972 9.18.269.229.589.341.919.341.391 0 .786-.162 1.06-.484.511-.582.449-1.473-.126-1.976z"/></svg>