<svg xmlns="http://www.w3.org/2000/svg" viewBox="0 0 12.7 12.7"><path d="M9.8624084 288.06583a.16116677.16116677 0 0 0-.00801 0 .31603229.31603229 0 1 0 .2193236.57393.29835133.29835133 0 0 1 .21318-.0485l-.274355-.44926a.16116677.16116677 0 0 0-.1496-.0772zm.016029.2353a.10814261.10814261 0 0 1 .1100627.10958.10814261.10814261 0 1 1-.2158512 0 .10814261.10814261 0 0 1 .1057885-.10958zM3.3137185 295.97428l-.3604531-1.39522a.2531362.2531362 0 0 1-.010097-.11421l.1781062-.86699a5.4337446 5.4337446 0 0 0 .363987-.66688 4.1800577 4.1800577 0 0 0 .65659.1215l-.6424546 1.37239a.66655785.66655785 0 0 0-.041397.44953l.2791745 1.08056a.0385409.0385409 0 0 1-.037358.0482h-.3555057a.0385409.0385409 0 0 1-.037358-.0289zM7.2824382 293.88157v2.35764h.2325276a.0385409.0385409 0 0 0 .039377-.0386v-1.36973a.35999319.35999319 0 0 1 .015145-.10507 7.6977849 7.6977849 0 0 0 .3167343-1.71594 4.6165459 4.6165459 0 0 1-.3548999.14645 3.1277121 3.1277121 0 0 1-.2233396.61447.2531362.2531362 0 0 0-.025242.11073zM8.9010442 286.09355a2.6914719 2.6914719 0 0 0-1.3747701-.33725.9869801.9869801 0 0 1-.8905311-.51155 1.1009002 1.1009002 0 0 0 1.0072493 1.15408 1.9792008 1.9792008 0 0 1 1.6815085 1.26263.35999319.35999319 0 0 1 .085822-.0473l.4396114-.17018a2.4129344 2.4129344 0 0 0-.9485873-1.35041zM8.5448317 287.97047a.0385409.0385409 0 0 0-.020193.0608 1.1570087 1.1570087 0 0 0 .5011004.37264.35999319.35999319 0 0 1 .010097-.009 1.9460398 1.9460398 0 0 0 .129339-.37575.90900858.90900858 0 0 0-.6148905-.0485zM1.447743 291.28076a.78578091.78578091 0 0 0 .660124-.37055 2.0732581 2.0732581 0 0 1 .6623448-1.13161 1.0486188 1.0486188 0 0 0-1.0305728.76705 1.5954962 1.5954962 0 0 1-.337836.63415.06093228.06093228 0 0 0 .04544.10097z" transform="translate(0 -284.29998)"/><path d="M10.230581 287.4675a1.4803563 1.4803563 0 0 0 .29755.16097 1.8002502 1.8002502 0 0 0-1.3295363-1.90005 2.37949 2.37949 0 0 1-1.3117665-.89932 1.5923191 1.5923191 0 0 0 .3463176.89321 2.7983288 2.7983288 0 0 1 .7251468.28048 2.5197915 2.5197915 0 0 1 .9931139 1.40717.35999319.35999319 0 0 1 .2791745.0575zM10.941693 289.46213l.08885.14544a.15214881.15214881 0 0 0 .282002-.0775.79906266.79906266 0 0 0 0-.0646l-.02928-.0919a.51844.51844 0 0 0-.33925.0886z" transform="translate(0 -284.29998)"/><path d="M11.275996 289.76015a.79906266.79906266 0 0 1-.06058.14289.2531362.2531362 0 0 1-.372569.0829l-.74635-.54967a.35999319.35999319 0 0 0-.2176857-.0701.55970086.55970086 0 0 1-.4855515-.27045l-.2531249-.41881a.2531362.2531362 0 0 1-.013126-.23725 2.0528968 2.0528968 0 0 0 .163365-.53076.2531362.2531362 0 0 1 .1583167-.19507l.4841379-.18734a.2531362.2531362 0 0 1 .2360615.0287 1.5872132 1.5872132 0 0 0 .477777.22671.2531362.2531362 0 0 1 .172452.16567l.426284 1.3173a.62529699.62529699 0 0 0-.359746.10604l-.782497-1.28366a.26802376.26802376 0 0 0-.2636252-.12627.42288929.42288929 0 1 0 .2940162.7683.19149434.19149434 0 0 1 .2714.0584l.533713.87565a.2590058.2590058 0 0 0 .33713.0969z" transform="translate(0 -284.29998)"/><path d="M4.7040375 289.45479a3.4876657 3.4876657 0 0 0 1.5443951.10644 2.0925243 2.0925243 0 0 1 1.1145775.13035l.2750348.11248a.66655785.66655785 0 0 0 .6891014-.11375l.8530723-.74048.1209588.20106a.66655785.66655785 0 0 0 .5788452.32209.2531362.2531362 0 0 1 .1526624.0493l.327235.24066a4.5096889 4.5096889 0 0 1-2.8004277 3.26884 3.1277121 3.1277121 0 0 0 .06058-.50288.05344983.05344983 0 1 0-.1068234-.004 3.0208551 3.0208551 0 0 1-.3017911 1.19951.35999319.35999319 0 0 0-.036348.15748v2.55037a.0385409.0385409 0 0 1-.038368.0386h-.2820016a.0385409.0385409 0 0 1-.038367-.0328l-.2721068-1.83149-.058561-1.0249a.78918373.78918373 0 0 0-.076735-.29617 4.1645656 4.1645656 0 0 1-.1314593-1.54878.05342853.05342853 0 0 0-.1060156-.011 4.2714225 4.2714225 0 0 0 .071687 1.33014.78918373.78918373 0 0 0-.7273681-.19737 4.0732007 4.0732007 0 0 1-1.9804726-.026 5.4337446 5.4337446 0 0 0 .397912-1.41473.05352123.05352123 0 0 0-.1060157-.0147 5.3268876 5.3268876 0 0 1-1.2927846 2.80213.35999319.35999319 0 0 0-.09087.23904v1.4767l.1399406.35904a.0385409.0385409 0 0 1-.036348.0525H2.199445a.0385409.0385409 0 0 1-.03635-.0245l-.158317-.40707v-1.19125a.35999319.35999319 0 0 0-.03231-.1468.43980682.43980682 0 0 1 .141354-.53401.35999319.35999319 0 0 0 .13994-.21622 8.0142131 8.0142131 0 0 0 .1682117-1.42989 2.128137 2.128137 0 0 1-.2127377-1.44132 1.9664011 1.9664011 0 0 1 2.4936888-1.4862z" transform="translate(0 -284.29998)"/></svg>