<svg xmlns="http://www.w3.org/2000/svg" viewBox="0 0 100 100" style="enable-background:new 0 0 100 100" xml:space="preserve"><path d="m14.9 44.5 1.4-.6c-2.1-1.6-2.8-5-2.8-5s-4.2-4.2-5-3.8c-.8.4 1 1.9 1.4 4.5.4 2.6 5 4.9 5 4.9zM40 63.8s2.1 3.5 1.8 6.2c-.3 2.7-2 2.6-2 2.6-3.8 1.4-3.6 3.8-3.6 3.8 1.5-1.2 4.2-2.1 4.2-2.1-2.7 1.7-1.8 3.9-1.8 3.9.8-1.2 3.8-2.7 3.8-2.7-.8.8-2 3-1.5 3 .2 0 1-.4 1.9-.8 1.5-.7 2.7-1.9 3.4-3.3.5-1 1-2.2 1.5-3.6 1.2-3.6 2-8.6 2-8.6-4.1 2.7-9.7 1.6-9.7 1.6zM31.5 61.5s1.5 3 .3 5.1c-1.2 2.1-2 1.5-3.2 2.3-1.2.8-.6 3.2-.3 2.3.3-.9 3.3-.9 3.3-.9l-.5 2.1 1.5-.5c1.5-.5 2.3-3 2.3-3 1.5-1.5 2.6-5.3 2.6-5.3-2.3-.1-6-2.1-6-2.1zM69.5 53.1c-2.9.6-6.4 1.2-6.4 1.2 2.4 5.6 3.2 4.6 4.7 5.6 1 .6-.9.8-2 1.4-3.7 2.1-2 3.5-2 3.5.3-.5 2.3-1.8 2.3-1.8-1.4.8-.6 3.5-.6 3.5l.6-.6 2.9-1.7c-.6.8-.2 2.1-.2 2.1l1.8-.5c3-2 1.7-4.7 2.4-6 .8-1.4.8-7 .8-7s-1.4-.3-4.3.3zM55.9 57.8s.8 2.9.8 3.6c0 .8-1.8.9-2.9 2.6l.3.9s2-1.4 3-1.5l.3 1.7 2-1.7c.8-.7 1.2-1.7 1.1-2.7l.9-5.7c.1-.1-3.4.4-5.5 2.8zM97.9 50.4c-.6-.6-6.6-.1-8.9-.5-3.8-.6-6.8-4.1-6.8-4.1 0 5.9-5 5.7-5 5.7 5.4 2.4 13.8 1.2 16.3.8s5-1.3 4.4-1.9z"/><path d="M23.5 50.6c-.5-2.6-1.2-4.6-1.7-5.9-.1-1.3-.6-4.5-1.3-6.2-.8-1.7-3-3.5-4.1-4.3-.3-.2-.6 0-.7.3-.2 1.2-.7 3.6-.7 4.4.2 2.3 3.2 5.4 3.2 5.4l.2.1c-2.1 1-4.7 2.4-5.1 2.8-.5.5-8.3 6.6-11 8.8-.5.4-.5 1.1-.1 1.6.8.8 1.9 1.8 2.8 1.9 1.4.2 9.1-1.6 12.7-1.4 3.6.2 6.2 1.2 8.7-.8.1-.1-2.1-2.1-2.9-6.7zM16.7 52c-.8.1-1.5-.2-1.6-.8-.1-.6.5-1.1 1.3-1.3.4-.1.7 0 1 .1.3.1.6.4.6.7 0 .6-.6 1.2-1.3 1.3zM80.5 46.5c1.5-6.9-3-15.1-11.1-20.6 1.1 1.8 2.3 4.4 3.1 7.7 2.1 8.8-.9 15.1-.9 15.1.5-3.5.6-7.9-.9-15.1-.9-4.2-4-8-6.4-10.5-1.7-.6-3.4-1.1-5.1-1.3 10.4 13.8 5.3 27.1 5.3 27.1 1.9-13.9-4.8-23.6-8.1-27.3-1.8-.1-3.7 0-5.4.2 1.6 1.7 3.3 4.4 5.2 8.4C61.6 41.9 58 51 58 51c.8-8.2-.5-13.5-3.6-20.6-1.9-4.3-4.5-6.9-6.3-8.3-2.5.4-4.8.9-6.9 1.2-.6.1-1.2.2-1.8.4 2.7 1.4 6.3 4.3 9.2 10.4 5.3 11.2 2.1 22.4 2.1 22.4s.9-10.3-3.3-20.4c-3-7.1-9.2-9.7-12.7-10.7-3.9 1.8-6.6 3.9-6.6 3.9-2.6 1.2-6.2 7.5-6.2 7.5s1.7 4.7 2 6.9c.1.6.2 1.2.4 1.7.4 1.6 1.2 4.4 1.7 6.5.7 2.5 4 7.1 5.6 7.9 1.6.8 10.8 4.6 18.9 0 .9-.5 3.4-2.6 3.4-2.6 9.9-9.7 25-3 26.6-10.7z"/></svg>