<?xml version="1.0" encoding="UTF-8"?>
<svg width="1200pt" height="1200pt" version="1.1" viewBox="0 0 1200 1200" xmlns="http://www.w3.org/2000/svg">
 <g>
  <path d="m614.34 451.17c14.5 6.6289 35.25 0.47656 51.836-16.113 14.227-14.246 18.676-47.992 19.629-69.25-20.836 0.73438-52.879 4.9062-67.09 19.117-1.5391 1.5391-2.9844 3.1328-4.375 4.7422z"/>
  <path d="m647.54 631.66c15.969-2.7266 32.43-11.883 46.324-25.781 12.359-12.359 21.094-36.055 25.25-68.535 1.7227-13.348 2.3047-25.582 2.4883-34.297-28.656 0.34766-78.332 5.457-99.922 27.047-2.6016 2.6016-5.0547 5.3086-7.3438 8.1094v88.312c9.3242 5.3984 20.898 7.2305 33.203 5.1445z"/>
  <path d="m581.7 384.93c-14.102-14.102-46.52-18.293-67.109-19.098 0.89062 21.516 5.3008 54.895 19.648 69.234 16.582 16.59 37.324 22.742 51.828 16.113v-61.504c-1.375-1.6172-2.8281-3.2109-4.3672-4.7461z"/>
  <path d="m980.95 500.25c-6.9922-94.355-26-184.37-56.523-267.62 0.36719-3.8086 1.1523-8.8633 1.9766-14.137 3.6094-22.961 7.707-49.02-6.3359-62.879-6.9922-6.9023-17.211-10.254-31.238-10.254-11.078 0-23.383 1.9961-35.301 3.9375-10.508 1.7227-20.453 3.3516-27.996 3.3516-3.332 0-5.2539-0.32812-6.2617-0.60547-47.375-12.93-129.35-20.641-219.27-20.641-89.941 0-171.91 7.707-219.28 20.637-1.0078 0.27344-2.9219 0.60547-6.2617 0.60547-7.543 0-17.484-1.6289-28.008-3.3516-11.902-1.9414-24.215-3.9375-35.301-3.9375-14.023 0-24.242 3.3516-31.227 10.254-14.035 13.863-9.9531 39.918-6.3438 62.879 0.83203 5.2734 1.6211 10.328 1.9766 14.137-30.516 83.258-49.531 173.27-56.508 267.62-5.6484 76.191-3.5078 155.36 6.3633 235.33 15.09 122.24 43.203 207.35 49.812 226.25-1.0547 5.5312-2.9023 16.078-4.0117 27.504-2.5547 26.348 0.10938 41.895 8.6406 50.445 6.8672 6.8477 16.855 10.18 30.543 10.18 10.922 0 23.109-2.0312 34.891-4.0117 10.547-1.7773 20.5-3.4609 28.117-3.4609 3.6719 0 5.668 0.40234 6.6914 0.73438 56.57 18.273 212.67 25.105 219.3 25.398h0.60547 0.60547c6.6094-0.29297 162.73-7.125 219.29-25.398 0.84375-0.27344 2.8398-0.73438 6.6836-0.73438 7.6172 0 17.578 1.6836 28.125 3.4609 11.773 1.9766 23.969 4.0117 34.883 4.0117 13.695 0 23.695-3.332 30.543-10.18 8.5508-8.5508 11.207-24.098 8.6602-50.445-1.1172-11.426-2.9648-21.973-4.0273-27.504 6.6289-18.895 34.734-104 49.824-226.25 9.8672-79.961 12.008-159.14 6.3711-235.32zm-232.22 362.31h-297.46c-7.8086 0-14.125-6.3164-14.125-14.137 0-22.484 18.566-42.516 52.297-56.434 26.414-10.895 60.305-17.449 96.625-18.789v-115.82c-6.8125 1.9961-14.023 3.0195-21.496 3.0195-5.0547 0-10.227-0.47656-15.465-1.4102-21.984-3.9727-43.332-15.785-61.734-34.184-17.164-17.176-28.629-45.797-34.066-85.09-3.8906-28.125-3.1953-51.434-3.168-52.406 0.23828-7.3984 6.125-13.348 13.512-13.66 0.95312-0.054688 23.629-0.97266 51.113 2.6914 30.23 4.0469 54.117 11.918 71.301 23.457v-19.062c-4.1094 0.87891-8.3672 1.3359-12.734 1.3359-3.8438 0-7.7656-0.34766-11.727-1.043-16.938-2.9648-33.316-11.957-47.352-26-13.184-13.184-21.883-34.938-25.844-64.691-2.8008-20.984-2.1875-38.434-2.168-39.168 0.28125-7.3438 6.1172-13.238 13.441-13.605 0.71484-0.019531 17.723-0.80469 38.258 1.832 28.031 3.6094 48.973 11.719 62.266 24.113 13.293-12.395 34.223-20.508 62.273-24.113 20.527-2.6367 37.539-1.8477 38.25-1.832 7.3242 0.36719 13.164 6.2617 13.441 13.605 0.039063 0.73438 0.64062 18.184-2.1602 39.168-3.9727 29.754-12.672 51.508-25.855 64.691-14.043 14.043-30.414 23.035-47.352 26-3.9531 0.69531-7.8906 1.043-11.719 1.043-4.375 0-8.625-0.45703-12.746-1.3359v19.133c17.102-11.336 40.887-18.934 70.988-22.648 27.449-3.4062 50.133-2.2344 51.086-2.1992 7.2695 0.40234 13.055 6.2422 13.367 13.512 0.039062 0.98828 0.97266 24.297-2.6367 52.387-5.0352 39.293-16.242 67.875-33.309 84.926-18.254 18.273-39.551 29.918-61.559 33.656-4.9453 0.84375-9.832 1.2656-14.613 1.2656-8.1289 0-15.969-1.2109-23.328-3.5352v115.98c36.164 1.3711 69.891 7.9102 96.203 18.77 33.379 13.77 51.91 33.527 52.297 55.719 0.019531 0.23828 0.019531 0.47656 0.019531 0.71484-0.003907 7.8281-6.3203 14.145-14.121 14.145z"/>
  <path d="m578.56 529.98c-21.809-21.828-71.41-27.504-100.13-28.18 0.89844 29.59 6.957 81.059 28.93 103.03 14.102 14.102 30.707 23.457 46.766 26.348 11.82 2.125 22.918 0.64062 31.941-4.1367v-88.805c-2.3359-2.8359-4.8555-5.6211-7.5078-8.2578z"/>
  <path d="m600 801.2c-37.922 0-73.359 6.0039-99.785 16.918-11.691 4.8164-20.965 10.453-27 16.188h253.55c-6.0234-5.7305-15.309-11.371-26.992-16.188-26.418-10.91-61.848-16.918-99.77-16.918z"/>
 </g>
</svg>
