<svg xmlns="http://www.w3.org/2000/svg" viewBox="0 0 100 49.496" xml:space="preserve"><path fill="#0B0D0E" d="M97.812 10.418c-6.567-6.472-17.59-7.133-22.887-7.452-.619-.037-1.252-.075-1.72-.118.173-.086.354-.161.461-.204.288-.117.516-.21.735-.428.199-.19.569-.546.521-1.073-.031-.365-.259-.69-.673-.966C74.075.06 73.871 0 73.645 0c-1.481 0-3.701 2.784-4.543 4.131-1.195 1.912-5.515 5.47-7.454 6.141-1.057.365-2.182.55-3.345.55-1.84 0-3.342-.466-4.041-.727.58-4.484-1.51-7.688-2.214-8.768-.084-.129-.147-.223-.178-.282-.214-.428-.538-.492-.712-.492l-.365.051-.185.198c-.596.636-.897 3.669-.928 4.52-.184.107-.645.256-1.162.256-.435 0-.61-.107-.629-.128-.428-.994-2.164-3.25-2.36-3.504l-.268-.345-.417.131c-1.229.387-1.372 2.731-.546 8.958.037.275.067.502.087.665-3.128 2.678-8.551 2.69-8.903 2.711-3.359-.161-11.126-3.261-13.734-4.75-.73-.417-1.521-.638-2.287-.638-1.228 0-2.146.553-2.182 1.315-.015.324.121 1.094 1.713 1.245.009.001.019.001.027.003C12.297 11.718 2.757 22.4.593 26.15c-.587 1.016-.724 1.607-.474 2.039.15.26.417.408.735.408h.001c.225-.001.473-.072.781-.227 2.833-1.417 5.509-2.755 7.949-2.755 1.125 0 2.147.279 3.126.853 2.44 1.431 1.471 5.003 1.005 6.721-.222.814-.313 1.153-.002 1.465l.207.193h.261c.381 0 .568-.272.784-.588.485-.706 1.494-2.178 3.872-2.178.862 0 1.833.196 2.886.584 3.982 1.462 4.208 4.838 4.305 6.279.032.473.076 1.119.72 1.119.457 0 .644-.401.781-.692.212-.456.325-.733.412-.946.247-.605.251-.617 2.421-3.73 1.088-1.562 2.677-2.352 4.724-2.352 1.496 0 2.686.441 2.727.456 2.753.886 3.584 4.631 3.592 4.666.041.21.134.701.657.701h.003l.592-.1.041-.543.005-.01c.179-.338.761-1.297 1.297-1.651.437-.287.896-.434 1.369-.434 1.229 0 2.215.971 2.264 1.018 2.478 2.1 4.181 9.256 4.198 9.329l.872 3.72.363-3.804c1.043-10.951 5.432-11.507 6.301-11.507.138 0 .224.012.238.014l.855.16-.119-.862c-.048-.347-1.093-8.525 5.202-10.356.51-.148 1.004-.223 1.466-.223 3.362 0 4.771 3.983 5.303 5.483.208.59.334.945.813.945h.002l.275-.005.185-.191c.222-.231.212-.489.19-1.111-.12-3.202 2.721-7.033 5.959-8.039.447-.139.995-.209 1.628-.209 3.635 0 8.797 2.294 8.85 2.316l1.648.739-.836-1.602c-.123-.234-.302-.537-.513-.893-1.235-2.081-3.535-5.954-1.456-8.315.822-.934 2.095-1.408 3.78-1.408 2.19 0 4.283.814 4.305.822L100 12.574l-2.188-2.156z"/></svg>