<svg xmlns="http://www.w3.org/2000/svg" viewBox="0 0 100 100" xml:space="preserve"><path d="M71.143 75.281c-.492-.276-1.052-.396-1.592-.543-1.357-.363-2.773-1.159-3.116-2.517-.128-.481-.108-.991-.089-1.494.157-4.343-.345-8.679-.747-13.003-.005-.046-.022-.791-.044-1.836-1.294 1.331-2.928 2.327-4.465 3.145-.021.83-.074 1.248-.128 1.655-.058.433-.117.882-.139 1.995-.028 1.403-.076 2.9-.298 4.418-.088.586-.205 1.17-.32 1.754-.254 1.271-.492 2.475-.425 3.672.008.16.018.219.024.246.078.105.488.266.732.363.161.064.32.127.481.201 1.766.811 3.098 2.634 3.558 4.855.036.158.062.317.087.474l.029.19h8.563c-.059-.217-.128-.422-.196-.64-.363-1.138-.872-2.347-1.915-2.935zm-40.525 1.078c-.393-.156-.845-.215-1.189-.471-.422-.334-.58-.933-.521-1.475.05-.529.274-1.043.482-1.543 1.415-3.547 1.67-7.441 1.858-11.255.005-.1.01-.202.015-.303h-.027c-1.985 0-3.762.125-5.408.384-.627 1.885-1.467 3.682-2.505 5.355-.134.215-.272.436-.411.654-1.22 1.93-2.482 3.924-1.83 5.621.242.645.776 1.23 1.343 1.853.261.286.522.573.762.866.568.691 1.046 1.463 1.423 2.295l.232.516h7.634c-.325-1.071-.845-2.084-1.858-2.497zm64.195-29.938c-.255-.386-.659-.62-1.033-.857-2.535-1.641-4.461-4.207-5.317-7.107-.235-.776-.393-1.582-.807-2.28-.313-.549-.767-.991-1.208-1.436-1.639-1.309-3.049-3.152-4.438-4.717-.093-.105-.188-.212-.247-.339-.209-.447-.012-1.099-.04-1.582-.034-.583-.121-1.15-.258-1.716-.069-.285-.158-.579-.363-.796-.179-.197-.423-.304-.679-.374-.194-.05-.395-.075-.595-.075-.694 0-1.396.293-1.854.812-.344.383-.55.855-.687 1.346-4.07-.354-8.218-.304-12.092-1.533-2.112-.667-4.089-1.7-6.144-2.506-3.658-1.428-7.577-2.119-11.502-2.119-2.941 0-5.885.388-8.727 1.146-1.809.481-3.607 1.11-5.475 1.179-.112.004-.224.006-.336.006-1.292 0-2.577-.249-3.862-.438-1.544-.229-3.13-.361-4.713-.361-4.269 0-8.506.963-11.791 3.595-2.949 2.358-4.817 5.828-5.996 9.407-2.152 6.545-2.202 13.772-.137 20.347.609 1.906 1.376 3.774 1.759 5.739.609 3.099.196 6.292.216 9.458.02 2.566.325 5.129.905 7.637h14.076c-.325-.718-.747-1.406-1.248-2.014-.816-1.004-1.858-1.868-2.311-3.079-.963-2.505.934-5.091 2.35-7.37 1.121-1.81 1.995-3.765 2.605-5.801 2.107-.391 4.233-.53 6.37-.53 4.625 0 9.297.657 13.938.845.256.01.51.02.767.02.295 5.229 1.426 10.41 3.362 15.275.295.748.609 1.494.825 2.271.029.127.07.256.089.383h13.212c-.021-.127-.04-.256-.069-.383-.345-1.66-1.317-3.294-2.86-4.002-.679-.303-1.523-.5-1.828-1.18-.107-.225-.127-.471-.139-.717-.108-1.907.473-3.775.757-5.662.207-1.406.256-2.83.286-4.255.049-2.469.274-1.917.274-4.385 1.612-.835 3.579-1.907 4.964-3.401.728-.786 1.789-2.674 2.526-3.449.664-.703 1.104-1.37 2.056-1.709.853-.303 1.787-.317 2.684-.325 2.409-.017 4.821-.034 7.233-.054h.174c1.003 0 1.705.076 2.646.525.857.408 1.646.958 2.566 1.228.472.14.955.192 1.444.192.867 0 1.751-.17 2.605-.339 1.475-.296 3.058-.649 4.089-1.741.413-.442.747-1.003 1.298-1.257.206-.1.443-.149.609-.295.346-.294.317-.854.071-1.227zm-9.593-6.14c-.518 0-.938-.42-.938-.938s.42-.938.938-.938.938.42.938.938-.421.938-.938.938z"/></svg>