<svg xmlns="http://www.w3.org/2000/svg" viewBox="-2 -3 55 55" xml:space="preserve"><path fill-rule="evenodd" clip-rule="evenodd" d="M41.233 13.384c0-.6.487-1.086 1.086-1.086.601 0 1.086.486 1.086 1.086 0 .601-.486 1.086-1.086 1.086-.6 0-1.086-.486-1.086-1.086M23.51 16.156c-3.679 1.939-6.937 5.763-7.768 13.151l-.117 1.259c-3.2-.323-7.284-.027-10.349.913-.94.289-1.834.651-2.681 1.154-4.57 2.684-2.778 9.248 2.824 8.91 3.784-.24 8.671-3.032 11.538-5.337l.195-.158c.62.704 1.42 1.269 2.402 1.676-.187.296-.31.568-.379.904-.322 1.539.857 3.003 2.413 3.003 5.182.137 10.566.001 15.77.001.404 0 .606-.314.606-.686.003-.665.037-1.279 0-1.853-.006-1.471-1.032-2.892-2.484-3.258-.533-.143-.748-.128-1.239-.128-.226-.002-.453 0-.679 0 1.87-.638 7.799-6.574 8.179-6.576l3.39-.014c.405 0 .795-.162 1.084-.454.566-.568.644-1.892.258-2.586-.146-.269-.338-.426-.589-.56l-1.956-.941c.149-.617.367-2.594 1.211-3.058 1.213-.621 1.885-1.095 2.635-2.056v.585c0 .488.396.884.885.884s.884-.396.884-.884v-3.183c.131-.193.244-.375.32-.618.183-.586.161-2.1.054-2.717-.094-.496-.308-.944-.761-1.275-.184-.128-.371-.229-.573-.334-.653-.341-1.422-.655-2.06-.924-1.031-.436-2.064-.794-3.152-1.059-1.03-.247-2.075-.413-3.123-.583-.331-.054-.513-.185-.776-.369-.227-.161-.463-.327-.735-.455-1.217-.505-2.157-.111-2.637.71-.493.847-.315 1.789-.635 2.62-.355.821-1.585 1.247-3.242 1.641-2.378.543-5.676 1.03-8.713 2.655z"/></svg>