<svg xmlns="http://www.w3.org/2000/svg" data-name="Layer 1" viewBox="0 0 64 64"><path d="M41.57 27.73c-2.06-2.06-3.38-2.95-4.69-3.15h-.29a5.75 5.75 0 0 0 .8-5 7.78 7.78 0 0 0 2.28-5 1.26 1.26 0 1 0-1 0 6.78 6.78 0 0 1-1.71 4 5.78 5.78 0 0 0-10.21 0 6.83 6.83 0 0 1-1.71-4 1.24 1.24 0 1 0-1 0 7.82 7.82 0 0 0 2.29 5 5.76 5.76 0 0 0 .78 5c-1.56.08-3.1 1.26-5 3.18-3.24 3.24-7.72 10.63-5.34 13a3.34 3.34 0 0 0 2.42.8 14.19 14.19 0 0 0 6.37-2v.34a26.43 26.43 0 0 0 12.68 0v-.32a14.12 14.12 0 0 0 6.3 2 3.34 3.34 0 0 0 2.42-.8c2.33-2.42-2.16-9.78-5.39-13.05Zm-23.41 11.6c-.74-.74 1.56-6.4 5.34-10.18 1.87-1.87 3-2.61 3.84-2.61s1.37.54 2.22 1.39a3.92 3.92 0 0 1 1.25 2.21 4.71 4.71 0 0 0 0 .73v.12c-.2 1.19-1.09 2.55-2.71 4.18-3.45 3.43-9.1 5.04-9.94 4.16Zm13.78-1.69a15 15 0 0 1-3.21-.36c.27-.23.53-.46.78-.7s.67-.7 1-1a12.7 12.7 0 0 0 2.73 0c.32.36.64.7 1 1s.53.49.81.73a14.34 14.34 0 0 1-3.11.33Zm13.56 1.69c-.89.89-6.5-.72-9.93-4.16-1.82-1.81-2.57-3.17-2.74-4.34a4.75 4.75 0 0 0 0-.62 3.84 3.84 0 0 1 1.27-2.29c1.14-1.14 1.77-1.39 2.25-1.39h.23c.81.13 1.91.92 3.58 2.59 3.78 3.81 6.08 9.47 5.34 10.21ZM25.6 42a6.14 6.14 0 0 0 5 5.53L32 51l1.56-3.61A6.12 6.12 0 0 0 38.12 42a26 26 0 0 1-6.19.67A26.92 26.92 0 0 1 25.6 42Z"/></svg>