<?xml version="1.0" encoding="UTF-8"?>
<svg width="1200pt" height="1200pt" version="1.1" viewBox="0 0 1200 1200" xmlns="http://www.w3.org/2000/svg">
 <path d="m917.65 835.73c-119.73-17.125-211.77-120.09-211.77-244.56 0-78.094 36.57-149.65 96.082-195.6-27.465-33.938-43.141-76.699-43.141-122.04 0-107.21 86.91-194.12 194.12-194.12 107.21 0 194.12 86.91 194.12 194.12 0 45.344-15.68 88.105-43.141 122.04 59.508 45.949 96.082 117.51 96.082 195.6 0 124.46-92.035 227.43-211.77 244.56v249.56c0 19.492-15.801 35.297-35.293 35.297-19.492 0-35.293-15.805-35.293-35.297zm-794.12-279.85h423.53c19.492 0 35.293 15.801 35.293 35.293v141.18c0 19.492-15.801 35.297-35.293 35.297h-423.53c-19.496 0-35.297-15.805-35.297-35.297v-141.18c0-19.492 15.801-35.293 35.297-35.293zm388.23 352.94h-352.94v176.47c0 19.492-15.801 35.297-35.293 35.297-19.496 0-35.297-15.805-35.297-35.297v-176.47h-52.941c-19.492 0-35.293-15.801-35.293-35.293 0-19.496 15.801-35.297 35.293-35.297h600c19.492 0 35.297 15.801 35.297 35.297 0 19.492-15.805 35.293-35.297 35.293h-52.941v176.47c0 19.492-15.801 35.297-35.293 35.297-19.492 0-35.293-15.805-35.293-35.297z"/>
</svg>
