<?xml version="1.0" encoding="UTF-8"?>
<svg width="1200pt" height="1200pt" version="1.1" viewBox="0 0 1200 1200" xmlns="http://www.w3.org/2000/svg">
 <g>
  <path d="m648.19 675c4.5 0 8.0625-8.4375 8.0625-18.75v-262.5c0-10.312-3.5625-18.75-8.0625-18.75h-96.375c-4.5 0-8.0625 8.4375-8.0625 18.75v262.5c0 10.312 3.5625 18.75 8.0625 18.75z"/>
  <path d="m337.5 75h-56.25c-24.863 0-48.711 9.8789-66.293 27.457-17.578 17.582-27.457 41.43-27.457 66.293v64.125c-16.711 7.293-30.934 19.301-40.922 34.555-9.9922 15.254-15.32 33.086-15.328 51.32v494.62c27.473-41.418 67.891-72.574 114.94-88.605 47.047-16.027 98.078-16.027 145.12 0 47.047 16.031 87.465 47.188 114.94 88.605v-494.62c0.003906-21.613-7.457-42.562-21.125-59.305-13.668-16.742-32.699-28.246-53.875-32.57v-58.125c0-24.863-9.8789-48.711-27.457-66.293-17.582-17.578-41.43-27.457-66.293-27.457z"/>
  <path d="m750 168.75v64.125c-16.711 7.293-30.934 19.301-40.922 34.555-9.9922 15.254-15.32 33.086-15.328 51.32v494.62c27.473-41.418 67.891-72.574 114.94-88.605 47.047-16.027 98.078-16.027 145.12 0 47.047 16.031 87.465 47.188 114.94 88.605v-494.62c0.003906-21.613-7.457-42.562-21.125-59.305-13.668-16.742-32.699-28.246-53.875-32.57v-58.125c0-24.863-9.8789-48.711-27.457-66.293-17.582-17.578-41.43-27.457-66.293-27.457h-56.25c-24.863 0-48.711 9.8789-66.293 27.457-17.578 17.582-27.457 41.43-27.457 66.293z"/>
  <path d="m318.75 1125c49.727 0 97.418-19.754 132.58-54.918 35.164-35.164 54.918-82.855 54.918-132.58s-19.754-97.418-54.918-132.58c-35.164-35.164-82.855-54.918-132.58-54.918s-97.418 19.754-132.58 54.918c-35.164 35.164-54.918 82.855-54.918 132.58 0 32.914 8.6641 65.246 25.121 93.75 16.457 28.504 40.125 52.172 68.629 68.629 28.504 16.457 60.836 25.121 93.75 25.121z"/>
  <path d="m881.25 1125c49.727 0 97.418-19.754 132.58-54.918 35.164-35.164 54.918-82.855 54.918-132.58s-19.754-97.418-54.918-132.58c-35.164-35.164-82.855-54.918-132.58-54.918s-97.418 19.754-132.58 54.918c-35.164 35.164-54.918 82.855-54.918 132.58 0 32.914 8.6641 65.246 25.121 93.75 16.457 28.504 40.125 52.172 68.629 68.629 28.504 16.457 60.836 25.121 93.75 25.121z"/>
 </g>
</svg>
