<svg xmlns="http://www.w3.org/2000/svg" viewBox="0 0 90 90" xml:space="preserve"><path fill-rule="evenodd" clip-rule="evenodd" d="M81.505 33.921c.017.011.031.034.042.068v.025c.394 1.146.746 2.237 1.059 3.273s.699 1.794 1.16 2.273l.025.025c.386.325.688.597.907.815.202.202.334.341.396.42.296.499.477 1.067.537 1.706-.045.309-.089.58-.134.814-.051.219-.107.412-.168.581l-.37.891c-.112.325-.221.644-.328.958-.095.324-.182.645-.26.957-.012.135-.034.271-.067.412-.017.158-.034.297-.051.42l-.017.025c-.078-.027-.165-.066-.261-.117-.717-.403-1.269-.908-1.655-1.513-.375-.622-.594-1.345-.655-2.168-.012-.175-.003-.409.024-.706.018-.291.034-.633.05-1.025l.019-.487c.128-.235.145-.608.05-1.118-.123.543-.28 1.188-.471 1.933-.028.123-.059.25-.093.378-.201.762-.342 1.423-.42 1.983-.078.42-.117.785-.117 1.092 0 .701.14 1.41.42 2.127.279.7.7 1.406 1.26 2.117.343.421.614.762.815 1.025.19.252.317.424.378.514.343.549.514 1.069.514 1.563 0 .252-.157.768-.471 1.546-.291.773-.743 1.815-1.354 3.127l-1.975 4.126c-.454.947-.698 1.98-.731 3.102-.011.324-.018.691-.018 1.101 0 .387.016.829.043 1.327-.027.746-.269 1.274-.723 1.589-.526.354-1.498.529-2.916.529-.902 0-1.804-.069-2.706-.21-1.132-.202-1.697-.456-1.697-.765 0-.672.341-1.669 1.025-2.992.123-.246.285-.548.487-.907.201-.37.45-.796.747-1.277.28-.482.605-1.028.975-1.639.421-.712.835-1.426 1.244-2.144.403-.717.79-1.431 1.16-2.143 0-.096.018-.191.05-.286v-.185l.025-.16c-.017-.549-.273-1.038-.773-1.47-.297-.253-.879-.611-1.747-1.076l-.487-.275c-.173-.096-.321-.183-.445-.261-.062.174-.132.345-.21.513-.078.174-.165.339-.26.496-.403.633-1.057 1.361-1.958 2.185-.544.454-1.018.868-1.421 1.244-.404.37-.745.687-1.026.949-.962.952-1.719 1.911-2.269 2.874-.402.685-.75 1.376-1.042 2.076-.313.684-.571 1.376-.772 2.076-.112.358-.222.753-.328 1.185-.123.42-.241.88-.354 1.378-.246.64-.627 1.076-1.143 1.312-.571.229-1.604.345-3.101.345h-2.169c-1.069-.045-1.6-.207-1.587-.488-.013-.402.114-.885.378-1.445.246-.576.635-1.238 1.168-1.982.342-.499.798-1.107 1.369-1.824.561-.694 1.238-1.487 2.034-2.378l3.193-3.731c.078-.09.14-.168.185-.235l.303-.396c.096-.123.19-.237.286-.344-.174-1.199-.563-2.188-1.168-2.968-.605-.789-1.438-1.358-2.496-1.705-.595-.202-1.373-.347-2.337-.438-.078-.017-.148-.025-.21-.025h-.908v-.067c-.717-.05-1.51-.075-2.378-.075-.297 0-.739.057-1.328.168-.594.091-1.341.244-2.243.462-.7.175-1.261.306-1.682.396-.419.095-.691.143-.815.143h-.066l-3.487 1.109c-.267-.803-1.105-2.063-2.513-3.782.56 3.184.804 4.844.73 4.984-.762 1.322-2.289 2.784-4.58 4.387-1.725 1.193-3.179 1.956-4.361 2.286.095.185.205.348.328.487.375.437.953.7 1.731.79.218.017.474.042.765.075.28.017.607.039.983.067.526.112.798.44.815.983 0 .247-.053.667-.16 1.261-.111.588-.26 1.342-.445 2.261-.218.991-.406 1.736-.563 2.235-.156.481-.28.723-.369.723-.403 0-.916-.264-1.538-.79-.639-.516-1.386-1.3-2.244-2.353-.918-1.093-1.619-1.99-2.101-2.689-.23.28-.454.537-.672.772-.219.247-.429.465-.63.655l-.21.673c-.392 1.104-.773 1.843-1.143 2.219l-2.916.37c-1.087.14-2.011.21-2.773.21-.734 0-1.101-.21-1.101-.631 0-.089.227-.462.681-1.117.465-.65 1.157-1.592 2.076-2.823.902-1.228 1.585-2.16 2.05-2.8.448-.621.681-.955.698-1-.017-.201-.165-.45-.446-.747l-.949-.866c-.936-.84-1.404-1.585-1.404-2.235 0-.482.241-.994.723-1.538.123-.14.319-.328.588-.563.264-.235.588-.507.975-.815.745-.594 1.274-1.075 1.588-1.445.448-.561.681-1.112.697-1.655-.297-.051-.647-.13-1.05-.236-.7-.201-2.084.079-4.151.841-.51.185-.953.435-1.328.748-.403.964-.622 1.91-.655 2.841-.028 1.462-.558 3.126-1.588 4.991-1.025 1.883-1.919 2.824-2.681 2.824-.028 0-.3-.706-.815-2.118-.561-1.495-1.028-2.406-1.403-2.731-1.272-1.092-1.908-2.725-1.908-4.899 0-.156.008-.313.025-.47h-.471c-.157.05-.467.167-.933.353-.42.157-.745.235-.975.235-1.092 0-2.02-.958-2.781-2.874-.886-2.191-1.46-3.373-1.723-3.547-.98-.666-1.781-1.784-2.403-3.354-.577-1.479-.866-3.002-.866-4.571 0-.56.499-2.351 1.496-5.37 1.025-3.015 1.577-4.648 1.655-4.9.437-1.26 1.759-2.084 3.967-2.47.762-.124 1.989-.216 3.681-.278 1.697-.062 2.989-.739 3.874-2.034.499-.745.966-1.358 1.403-1.84 1.681-1.944 2.854-3.244 3.521-3.899 3.092-3.015 6.709-4.521 10.849-4.521 3.67 0 8.895 1.779 15.673 5.336 1.771.936 4.274 2.298 7.514 4.085 2.627 1.417 4.579 2.319 5.857 2.706.342.112 1.086.269 2.235.47h4.085c4.694-.297 8.373 1.771 11.033 6.202.028.041.06.096.093.163zm-68.728 2.681c-.017.028-.031.068-.042.119-.313.571-.47 1.185-.47 1.84 0 .358.117.731.353 1.118.28.465.63.698 1.05.698.964 0 1.74-.543 2.328-1.63.543-.992.815-2.182.815-3.572 0-.667-.185-1.731-.555-3.193-.252-.886-.454-1.538-.605-1.958.149 1.188-.059 2.598-.626 4.231-.567 1.632-1.316 2.415-2.248 2.347z"/></svg>