<?xml version="1.0" encoding="UTF-8"?>
<svg width="1200pt" height="1200pt" version="1.1" viewBox="0 0 1200 1200" xmlns="http://www.w3.org/2000/svg">
 <g>
  <path d="m325 475v84l-80.539-99.727c-3.5938-4.4219-8.5859-7.4844-14.156-8.6914-5.5664-1.207-11.383-0.48438-16.484 2.0508l-100 50c-7.9883 3.9961-13.238 11.949-13.773 20.867-0.53516 8.9141 3.7266 17.438 11.18 22.359 7.4531 4.9219 16.969 5.4922 24.957 1.5l82-41.016 106.82 132.29v79.164l-142.99-41.773v-0.003906c-5.6211-1.668-11.648-1.3008-17.023 1.0391-5.3711 2.3398-9.7461 6.5039-12.352 11.754l-50 100c-2.9688 5.9297-3.457 12.797-1.3594 19.086 2.0977 6.293 6.6094 11.492 12.539 14.457 3.4648 1.7461 7.2891 2.6484 11.168 2.6406 4.6484 0 9.2031-1.293 13.156-3.7344s7.1523-5.9336 9.2344-10.09l40.672-81.348 140.38 41.008c4.7305 35.551 15.422 70.051 31.625 102.04-2.4648 0.82031-4.7891 2.0273-6.875 3.582l-118.82 95.703v-0.003906c-4.6992 3.7852-7.8711 9.1445-8.9297 15.086s0.066406 12.062 3.168 17.238l50 83.348c4.5195 7.5469 12.668 12.16 21.461 12.156 4.5273 0.015625 8.9688-1.2188 12.84-3.5625 5.6875-3.4062 9.7852-8.9336 11.391-15.363 1.6094-6.4258 0.59375-13.23-2.8203-18.914l-38.793-64.695 101.83-82.031c0.29297-0.23828 0.41016-0.58594 0.69141-0.83203 54.633 76.785 134.76 121.39 189.81 132.38v-596.97h-225c-6.6328-0.003906-12.992 2.6289-17.684 7.3164-4.6875 4.6914-7.3203 11.051-7.3164 17.684z"/>
  <path d="m1047.4 688.82c-2.6133-5.2461-6.9883-9.4023-12.359-11.738-5.375-2.3398-11.398-2.7148-17.016-1.0547l-142.98 41.773v-79.16l106.8-132.29 82 41.016v-0.003907c7.9883 3.9961 17.504 3.4258 24.957-1.4961 7.4531-4.9219 11.715-13.449 11.18-22.363-0.53516-8.918-5.7852-16.871-13.773-20.863l-100-50c-5.1055-2.5352-10.918-3.2539-16.484-2.0508-5.5664 1.207-10.559 4.2734-14.156 8.6875l-80.527 99.73v-84.008c0.003906-6.6328-2.6289-12.992-7.3164-17.684-4.6914-4.6875-11.051-7.3203-17.684-7.3164h-225v596.97c55.051-11 135.18-55.598 189.8-132.38 0.28125 0.25 0.39844 0.59766 0.69141 0.83203l101.86 82.031-38.793 64.695c-3.4141 5.6836-4.4258 12.488-2.8203 18.914 1.6094 6.4297 5.707 11.957 11.391 15.363 3.8711 2.3438 8.3164 3.5781 12.84 3.5625 8.7969 0.003907 16.945-4.6094 21.461-12.156l50-83.348c3.1016-5.1758 4.2305-11.297 3.168-17.238-1.0586-5.9414-4.2305-11.301-8.9297-15.086l-118.82-95.703v0.003907c-2.0898-1.5508-4.4141-2.7539-6.8867-3.5703 16.207-31.996 26.898-66.5 31.625-102.05l140.38-41.008 40.664 81.348c2.082 4.1562 5.2812 7.6484 9.2344 10.09s8.5078 3.7344 13.156 3.7344c3.875 0.007812 7.6953-0.89453 11.156-2.6367 5.9336-2.9648 10.441-8.1641 12.539-14.457 2.0977-6.2891 1.6094-13.156-1.3555-19.086z"/>
  <path d="m325 150.01c48.406 0 121.94 84.891 130.14 136.31v0.003906c-31.16 31.145-52.684 70.613-61.98 113.68h413.68c-9.2969-43.066-30.82-82.539-61.988-113.68 8.2031-51.418 81.738-136.31 130.15-136.31 8.9297 0 17.184-4.7656 21.652-12.5 4.4648-7.7344 4.4648-17.266 0-25-4.4688-7.7344-12.723-12.5-21.652-12.5-66.812 0-147.85 82.836-173.17 153.75-30.637-18.801-65.879-28.75-101.82-28.75-35.941 0-71.188 9.9492-101.82 28.75-25.32-70.914-106.36-153.75-173.17-153.75-8.9336 0-17.188 4.7656-21.652 12.5-4.4648 7.7344-4.4648 17.266 0 25 4.4648 7.7344 12.719 12.5 21.652 12.5z"/>
 </g>
</svg>
