<?xml version="1.0" encoding="UTF-8"?>
<svg width="1200pt" height="1200pt" version="1.1" viewBox="0 0 1200 1200" xmlns="http://www.w3.org/2000/svg">
 <g>
  <path d="m850.16 717.86-60.277-1.4688-57.402-25.82c-2.7031-1.2148-5.8398-1.0742-8.4375 0.375l-60.609 34.023c8.9102-7.9336 16.555-17.422 22.754-28.086l37.473-28.371c1.7617-1.332 2.9961-3.25 3.4844-5.4062l27.676-122.29 35.82-48.695c3.0664-4.168 2.1719-10.039-2-13.109-4.168-3.0664-10.039-2.1758-13.105 2l-36.977 50.27c-0.76563 1.0391-1.3047 2.2266-1.5938 3.4844l-27.352 120.86-9.6953 7.3398c2.8672-11.34 4.4102-23.301 4.4102-35.621 0-67.297-46.004-122.05-102.55-122.05-56.555 0-102.57 54.75-102.57 122.05 0 12.227 1.5156 24.102 4.3398 35.371l-9.3594-7.0859-27.352-120.86c-0.28516-1.2578-0.82812-2.4453-1.5898-3.4844l-36.965-50.27c-3.0664-4.1719-8.9336-5.0664-13.105-2s-5.0664 8.9375-2 13.105l35.801 48.695 27.676 122.29c0.48828 2.1562 1.7188 4.0703 3.4844 5.4062l36.98 27.996c6.0508 10.508 13.488 19.906 22.164 27.801l-59.527-33.359c-2.5938-1.457-5.7188-1.5898-8.4297-0.37109l-57.406 25.82-60.148 1.4688c-5.1758 0.125-9.2695 4.4258-9.1445 9.6016 0.12891 5.1758 4.4102 9.2148 9.6055 9.1445l62.043-1.5156c1.2461-0.03125 2.4805-0.3125 3.6172-0.82422l54.824-24.66 67.031 37.562c-0.48828 1.8086-0.88672 3.6523-1.2148 5.5195l-73.293-3.2852c-2.3477-0.125-4.6172 0.66406-6.4102 2.1523l-69.238 57.5-37.891 16.438c-4.75 2.0586-6.9297 7.582-4.8711 12.332 1.5312 3.5352 4.9844 5.6445 8.6055 5.6445 1.2461 0 2.5078-0.25 3.7266-0.77734l39.121-16.969c0.81641-0.35547 1.5742-0.82422 2.2578-1.3906l67.477-56.043 70.141 3.1445c0.26172 1.9961 0.62109 3.9609 1.0703 5.8984l-54.855 37.234c-1.9062 1.2969-3.2734 3.2461-3.8281 5.4805l-22.215 88.836-28.832 25.41c-3.8867 3.4258-4.2578 9.3477-0.83594 13.234 1.8555 2.1016 4.4414 3.1758 7.0391 3.1758 2.1992 0 4.4141-0.76953 6.1953-2.3398l31.023-27.336c1.4219-1.2578 2.4336-2.9141 2.8945-4.7578l22.055-88.191 48.555-32.957c10.871 18.109 30.723 30.262 53.367 30.262 22.695 0 42.57-12.258 53.387-30.5l48.793 33.184 22.039 88.199c0.46094 1.8477 1.4805 3.5156 2.9102 4.7734l31.145 27.336c1.7812 1.5625 3.9805 2.3281 6.1797 2.3281 2.6055 0 5.1953-1.082 7.0508-3.1914 3.4141-3.8906 3.0312-9.8164-0.85937-13.23l-28.945-25.406-22.203-88.824c-0.55859-2.2344-1.918-4.1836-3.8242-5.4805l-55.191-37.539c0.41797-1.8242 0.74609-3.6836 1-5.5703l70.527-3.1719 67.48 56.043c0.6875 0.57031 1.4492 1.0391 2.2695 1.3945l39.242 16.969c1.2148 0.52344 2.4727 0.76953 3.7188 0.76953 3.625 0 7.0781-2.1172 8.6094-5.6562 2.0508-4.7539-0.13281-10.273-4.8828-12.328l-38.012-16.434-69.23-57.5c-1.7969-1.4922-4.082-2.2812-6.4141-2.1523l-73.672 3.3125c-0.30859-1.7969-0.6875-3.5664-1.1445-5.3086l67.348-37.801 54.816 24.656c1.1328 0.51172 2.3672 0.78906 3.6172 0.82422l62.168 1.5156c5.2148 0.21094 9.4766-3.9648 9.6016-9.1445 0.11719-5.1719-3.9805-9.4688-9.1523-9.5977zm-249.25 2.1055c0.28906-0.007812 0.57812-0.050781 0.86719-0.050781 0.09375 0 0.18359 0.015625 0.28125 0.015625-0.38281 0.003906-0.76563 0.015625-1.1484 0.035156zm42.391-2.8594c-6.6484-6.0078-14.492-10.449-22.973-13.102-0.097657-0.03125-0.19141-0.058593-0.28906-0.089843-0.80469-0.24609-1.6211-0.47656-2.4375-0.69531-0.22266-0.058594-0.44531-0.11719-0.67188-0.17188-0.69922-0.17578-1.4062-0.33984-2.1133-0.48828-0.3125-0.066406-0.625-0.13672-0.93359-0.19531-0.64062-0.12891-1.2812-0.24219-1.9258-0.34375-0.36328-0.0625-0.73047-0.125-1.0938-0.17969-0.62109-0.089844-1.2461-0.16797-1.8672-0.23828-0.38281-0.046875-0.76172-0.097657-1.1445-0.13281-0.66406-0.066406-1.332-0.10938-2-0.15234-0.33984-0.023437-0.67578-0.054687-1.0234-0.070312-0.87109-0.042969-1.7422-0.0625-2.6172-0.066406 0.13281 0 0.26172-0.007813 0.39453-0.007813 1.0195 0 2.0352 0.027344 3.0469 0.078125 0.34375 0.015625 0.68359 0.050782 1.0273 0.070313 0.66797 0.042969 1.332 0.085937 1.9961 0.15234 0.38672 0.039063 0.76953 0.085938 1.1523 0.13281 0.625 0.074219 1.2422 0.14844 1.8594 0.23828 0.37109 0.050782 0.73828 0.12109 1.1094 0.17969 0.63672 0.10938 1.2773 0.21875 1.9102 0.34375 0.32031 0.0625 0.63672 0.13281 0.94922 0.19922 0.70312 0.14844 1.4023 0.3125 2.0977 0.48828 0.23047 0.054687 0.46094 0.11719 0.6875 0.17969 0.8125 0.21484 1.6133 0.44141 2.4141 0.6875 0.10547 0.03125 0.20703 0.0625 0.3125 0.097657 8.3164 2.5977 16.012 6.9297 22.574 12.766-0.15234 0.09375-0.29297 0.21484-0.44141 0.32031zm13.23-86.574c-5.1758 0-9.375-4.1992-9.375-9.375 0-30.09-19.48-54.566-43.414-54.566-5.1758 0-9.375-4.1992-9.375-9.375s4.1992-9.375 9.375-9.375c34.281 0 62.164 32.891 62.164 73.316 0 5.1758-4.1953 9.375-9.375 9.375z"/>
  <path d="m362.36 612.55c1.9258 0 3.8711-0.59375 5.543-1.8203 4.1719-3.0664 5.0664-8.9375 2-13.105l-26.684-36.293-20.719-91.762c-0.48828-2.1641-1.7266-4.082-3.4961-5.418l-27.516-20.781c-2.1289-3.6602-4.4727-7.1328-7.0312-10.41l32.289 18.109c1.4219 0.79688 3 1.1992 4.5859 1.1992 1.3086 0 2.6172-0.27344 3.8438-0.82422l42.84-19.242 44.961-1.082c5.1758-0.125 9.2695-4.4219 9.1445-9.6016-0.125-5.1758-4.4219-9.2734-9.6016-9.1445l-46.848 1.1289c-1.25 0.03125-2.4805 0.30859-3.6172 0.82422l-40.262 18.082-47.961-26.898c0.039062-0.16797 0.089843-0.33203 0.12891-0.5l53.289 2.2891c0.13672 0.007813 0.26953 0.007813 0.40234 0.007813 2.1836 0 4.3008-0.76172 5.9883-2.1602l51.906-43.074 28.402-12.395c4.7422-2.0703 6.9102-7.5977 4.8438-12.344-2.0703-4.7422-7.5938-6.9141-12.344-4.8438l-29.621 12.93c-0.80469 0.35156-1.5625 0.81641-2.2344 1.3789l-50.148 41.613-50.078-2.1484c-0.070313-0.40625-0.10938-0.82812-0.19141-1.2305l40.016-27.195c1.9023-1.293 3.2656-3.2422 3.8242-5.4727l16.633-66.289 21.238-18.727c3.8828-3.4258 4.2539-9.3477 0.82812-13.234-3.4258-3.8828-9.3477-4.2578-13.23-0.82812l-23.418 20.652c-1.4219 1.2539-2.4297 2.9102-2.8906 4.75l-16.469 65.652-33.848 23c-8.8398-13.207-23.906-21.93-40.988-21.93-17.09 0-32.148 8.7773-40.953 22.047l-34-23.117-16.484-65.652c-0.46094-1.8359-1.4688-3.4922-2.8906-4.7461l-23.418-20.652c-3.8828-3.4258-9.8047-3.0508-13.23 0.82813-3.4258 3.8828-3.0547 9.8086 0.82812 13.234l21.238 18.727 16.645 66.289c0.55859 2.2305 1.918 4.1758 3.8242 5.4688l40.238 27.359c-0.066406 0.34766-0.10156 0.70703-0.16016 1.0586l-50.34 2.1641-50.148-41.613c-0.67578-0.5625-1.4297-1.0273-2.2344-1.3789l-29.621-12.93c-4.7422-2.0703-10.273 0.097656-12.344 4.8438-2.0703 4.7422 0.097656 10.27 4.8438 12.344l28.402 12.395 51.906 43.074c1.6875 1.3984 3.8047 2.1602 5.9883 2.1602 0.13281 0 0.26562-0.003906 0.40234-0.007812l53.539-2.3008c0.027344 0.13281 0.070312 0.25391 0.10156 0.38672l-48.184 27.027-40.262-18.082c-1.1367-0.51172-2.3672-0.79297-3.6172-0.82422l-46.832-1.1289c-5.1992-0.21484-9.4766 3.9688-9.6016 9.1445-0.125 5.1758 3.9688 9.4727 9.1445 9.6016l44.949 1.082 42.84 19.242c1.2227 0.55078 2.5352 0.82422 3.8398 0.82422 1.5859 0 3.168-0.40234 4.5859-1.1992l32.73-18.359c-2.5586 3.2539-4.9023 6.707-7.0352 10.34l-27.953 21.102c-1.7695 1.332-3.0078 3.2539-3.4961 5.418l-20.703 91.75-26.809 36.285c-3.0781 4.1641-2.1992 10.035 1.9688 13.109 1.6758 1.2383 3.6289 1.8359 5.5625 1.8359 2.875 0 5.7109-1.3164 7.5508-3.8047l27.98-37.871c0.77344-1.0469 1.3203-2.2422 1.6094-3.5078l20.379-90.324 1.7578-1.3281c-1.3242 6.8984-2.0469 14.043-2.0469 21.355 0 52.016 35.676 94.332 79.52 94.332 43.914 0 79.645-42.32 79.645-94.332 0-7.2305-0.69922-14.297-2-21.121l1.4492 1.0938 20.395 90.324c0.28516 1.2617 0.82812 2.4492 1.5938 3.4883l27.848 37.871c1.8242 2.4922 4.6641 3.8125 7.5469 3.8125zm-108.12-177.31c-0.054688 0.035156-0.10938 0.066406-0.16406 0.10156-1.1719 0.77734-2.3711 1.5078-3.6016 2.1836-0.39453 0.21875-0.80469 0.41406-1.2109 0.625-0.90625 0.46484-1.8203 0.91797-2.7578 1.3281-0.5625 0.24609-1.1328 0.47266-1.7031 0.69922-0.82031 0.32422-1.6445 0.62891-2.4766 0.90625-0.64062 0.21484-1.2852 0.41797-1.9375 0.60938-0.82422 0.23828-1.6562 0.44531-2.4922 0.64062-0.65625 0.15234-1.3086 0.30859-1.9727 0.4375-0.94141 0.17969-1.8945 0.30859-2.8477 0.43359-0.57031 0.074219-1.1328 0.17188-1.707 0.22656-1.5508 0.14844-3.1094 0.23828-4.6797 0.23828-0.17188 0-0.33984-0.011718-0.50781-0.015624 1.4648-0.007813 2.9219-0.085938 4.3633-0.22266 0.57422-0.054687 1.1328-0.14844 1.7031-0.22656 0.95703-0.125 1.9102-0.25391 2.8555-0.4375 0.66406-0.125 1.3125-0.28125 1.9648-0.43359 0.83984-0.19531 1.6758-0.40625 2.5-0.64453 0.64844-0.1875 1.2891-0.39062 1.9258-0.60547 0.83984-0.27734 1.668-0.58594 2.4922-0.91016 0.56641-0.22656 1.1289-0.44922 1.6836-0.69531 0.94141-0.41406 1.8633-0.86719 2.7812-1.3359 0.39453-0.20703 0.80078-0.39844 1.1875-0.61328 1.2422-0.68359 2.457-1.418 3.6406-2.207 0.039062-0.027344 0.085938-0.050781 0.125-0.074218 1.3555-0.91406 2.6875-1.8711 3.9531-2.9219 0.13281 0.10156 0.25781 0.21484 0.39062 0.32031-1.1289 0.91016-2.3008 1.7812-3.5078 2.5938z"/>
  <path d="m1160.9 418.59-46.832 1.1289c-1.2539 0.03125-2.4922 0.3125-3.6367 0.82812l-40.242 18.18-47.934-26.977c0.042969-0.17969 0.097656-0.34766 0.13672-0.53125l53.234 2.4258c0.14453 0.007813 0.28516 0.007813 0.42578 0.007813 2.1836 0 4.3086-0.76563 5.9961-2.1719l51.887-43.191 28.375-12.254c4.75-2.0508 6.9414-7.5664 4.8906-12.324-2.0547-4.75-7.5703-6.9492-12.324-4.8906l-29.617 12.789c-0.82422 0.35547-1.5938 0.82812-2.2812 1.4023l-50.137 41.73-50.102-2.2852c-0.066406-0.40234-0.10938-0.81641-0.18359-1.2148l40.016-27.207c1.9062-1.293 3.2656-3.2383 3.8242-5.4688l16.645-66.312 21.23-18.699c3.8867-3.4219 4.2617-9.3438 0.83984-13.234-3.4258-3.8828-9.3477-4.2617-13.234-0.83984l-23.418 20.625c-1.4219 1.2539-2.4336 2.9102-2.8984 4.7539l-16.484 65.676-33.863 23.023c-8.8242-13.156-23.828-21.84-40.832-21.84-17.105 0-32.188 8.7422-41.027 21.977l-34.07-23.16-16.465-65.676c-0.46094-1.8438-1.4727-3.5-2.8984-4.7539l-23.422-20.625c-3.8867-3.4219-9.8125-3.043-13.23 0.83984-3.4258 3.8867-3.0508 9.8125 0.83594 13.234l21.238 18.699 16.625 66.312c0.5625 2.2305 1.9219 4.1797 3.8242 5.4727l40.258 27.363c-0.066406 0.34375-0.10156 0.69922-0.16016 1.043l-50.348 2.3008-50.137-41.73c-0.6875-0.57422-1.457-1.0469-2.2812-1.4023l-29.617-12.789c-4.7617-2.0469-10.273 0.14063-12.328 4.8906-2.0508 4.7539 0.14453 10.273 4.8945 12.324l28.375 12.25 51.887 43.191c1.6914 1.4062 3.8086 2.1719 5.9961 2.1719 0.14453 0 0.28516-0.003907 0.42969-0.007813l53.473-2.4414c0.03125 0.14453 0.078125 0.28125 0.10938 0.42578l-48.137 27.098-40.246-18.18c-1.1445-0.51953-2.375-0.80078-3.6289-0.82812l-46.852-1.1289c-5.1133-0.14844-9.4727 3.9688-9.6016 9.1445-0.125 5.1758 3.9727 9.4727 9.1445 9.6016l44.953 1.082 42.832 19.348c1.2305 0.55469 2.5469 0.82812 3.8594 0.82812 1.5898 0 3.1758-0.40625 4.6016-1.2031l32.645-18.371c-2.5117 3.2031-4.8242 6.6055-6.9258 10.18l-27.992 21.141c-1.7617 1.332-2.9961 3.25-3.4883 5.4062l-20.848 91.809-26.582 36.418c-3.0508 4.1836-2.1328 10.047 2.0469 13.102 1.6719 1.2148 3.6016 1.8008 5.5195 1.8008 2.8906 0 5.7461-1.332 7.5781-3.8477l27.723-37.984c0.75-1.0312 1.2852-2.207 1.5664-3.4531l20.516-90.359 1.7734-1.3398c-1.3281 6.9062-2.0547 14.062-2.0547 21.391 0 52.012 35.723 94.332 79.641 94.332 43.84 0 79.504-42.32 79.504-94.332 0-7.2461-0.70703-14.324-2.0039-21.16l1.4688 1.1094 20.379 90.348c0.28516 1.2578 0.82422 2.4414 1.5898 3.4844l27.859 37.984c1.8359 2.5039 4.6836 3.8281 7.5664 3.8281 1.9219 0 3.8672-0.58984 5.5391-1.8125 4.1758-3.0625 5.0781-8.9297 2.0117-13.105l-26.707-36.406-20.703-91.789c-0.48828-2.1641-1.7305-4.082-3.4961-5.4219l-27.547-20.797c-2.1016-3.6094-4.418-7.0469-6.9375-10.281l32.211 18.125c1.4219 0.80078 3.0078 1.2031 4.5977 1.2031 1.3164 0 2.6328-0.27344 3.8594-0.82813l42.836-19.348 44.934-1.082c5.1758-0.125 9.2695-4.4219 9.1445-9.6016-0.12109-5.168-4.3516-9.3164-9.5898-9.1406zm-160.73 24.508c-0.23828 0.14453-0.46875 0.29688-0.71094 0.43359-0.92188 0.52344-1.8672 1.0039-2.8203 1.4688-0.40234 0.19531-0.80078 0.39844-1.2109 0.58203-0.875 0.39844-1.7656 0.76172-2.6719 1.1094-0.52344 0.20312-1.0508 0.39453-1.5859 0.58203-0.83594 0.28906-1.6758 0.55859-2.5273 0.80078-0.66016 0.19141-1.3203 0.35156-1.9922 0.51172-0.76563 0.18359-1.5312 0.37109-2.3125 0.51953-0.86328 0.16406-1.7305 0.28125-2.6055 0.39844-0.625 0.085938-1.2383 0.19141-1.8711 0.25-1.5391 0.14844-3.0859 0.23828-4.6445 0.23828-0.17188 0-0.34375-0.011719-0.51172-0.015625 1.4531-0.007812 2.8984-0.085937 4.3359-0.22266 0.63672-0.058594 1.25-0.16406 1.8789-0.25 0.87109-0.11719 1.7383-0.23438 2.5938-0.39844 0.78906-0.14844 1.5547-0.33594 2.3281-0.51953 0.66016-0.16016 1.3203-0.32031 1.9727-0.50781 0.85938-0.24219 1.707-0.51953 2.5469-0.80859 0.52734-0.17969 1.0469-0.37109 1.5625-0.57031 0.91016-0.34766 1.8086-0.71875 2.6953-1.1211 0.39453-0.17969 0.78516-0.375 1.1758-0.56641 0.96484-0.47266 1.9219-0.95312 2.8516-1.4844 0.22656-0.13281 0.44141-0.27344 0.66406-0.40625 2.2852-1.3516 4.4727-2.8516 6.5-4.543 0.13672 0.10156 0.26172 0.21875 0.39844 0.32422-1.8984 1.5469-3.918 2.9414-6.0391 4.1953z"/>
 </g>
</svg>
