<svg xmlns="http://www.w3.org/2000/svg" viewBox="0 0 90 90" xml:space="preserve"><path d="M73.744 47.593c-.889.205-2.146 1.406-1.332 2.876.73 1.318 2.021 1.587 3.516 1.255 2.875-.638 4.752 1.023 6.668 3.007 1.236 1.28-.145-9.153-8.852-7.138z"/><path d="M76.373 52.391c0-.033.002-.077.004-.119-1.852.405-3.449.067-4.355-1.567-1.016-1.831.555-3.328 1.66-3.584 1.07-.248 2.049-.34 2.949-.314-.264-.966-1.855-2.869-2.152-3.165-.364-.364-10.586-10.442-15.879-14.865s-11.021-1.813-12.689-1.45c-1.667.363-22.767 9.426-22.767 9.426s-4.062 1.612-5.009 2.099h-.001c-1.179.061-3.51-.932-3.815-1.236-.305-.305-1.488-1.211-2.018-1.772-.743-.786-.22-1.647.371-2.533.287-.43 2.993-3.89 3.735-4.565.459-.417 6.223-.142 7.314-.131 2.923.028 3.801-.726 3.984-3.71s-2.79-3.61-3.217-4.036c-.427-.426 0-.792-.669-1.096-.67-.305-2.558 0-3.289.304-.731.304-2.375.792-2.253 1.461.122.67 1.34 2.01 3.106 2.436s2.192.122 2.619-.487c.426-.608.974-.122 1.522 0s.792.914.731 1.522c-.061.609-.25 1.298-1.4 1.827-.297.137-6.924.073-8.142.012-1.218-.061-1.846.597-2.516 1.328s-2.862 2.802-4.689 4.872-.608 3.41 0 4.506c.609 1.096 3.795 3.763 5.196 5.103.695.666 1.4.913 1.934.994-.011.111-.019.21-.019.28 0 .797 1.087 10.659 0 11.601-1.088.942-2.697-.371-3.675.606-.552.553.33 3.157.993 4.213.662 1.054 1.405 1.982 1.423 3.68.02 1.855-.885 4.627-.068 4.627h5.626c.782 0-.028-2.408-1.293-2.77-.991-.282-.617-2.719-.361-3.55.481-1.566 1.677-1.832 2.828-2.829 1.626-1.411 3.187-1.149 4.183-.452 1.45 1.015.857 2.71.785 3.942-.073 1.233 8.288 4.3 8.795 4.881.345.394-.577 1.787.536 2.255.525.22 2.119.09 3.721.043 1.163-.035 1.151-.948.158-2.183-.682-.847-3.68-3.8-4.695-4.815-1.015-1.015-1.409-1.265-1.409-2.21 0-.943 1.305-3.263 1.74-3.916.435-.652 2.285-4.351 3.616-4.351 1.661 0 7.141 2.115 7.405 3.046s-4.572 10.228-4.64 10.73c-.068.504.181 3.586.331 3.767s2.134.077 4.382.077c1.215 0 .212-1.282-.319-1.815-.4-.401-1.161-.514-1.233-1.384-.073-.871 5.954-8.75 6.607-9.692.652-.943 1.418-2.254 2.361-2.109.941.145 1.48.088 1.912.572.434.484-.045 12.396.75 13.413.301.385 4.305.106 5.102.106.799 0 .73-1.096-.314-1.992-.98-.84-1.191-1.804-1.191-1.804s.24-6.682.24-8.277 1.16-1.806 1.928-2.019c.82-.228 2.648-.658 2.576.717-.035.652.072 3.474.072 7.033 0 2.683 4.061 0 4.061 0s3.463-3.893 5.275-5.923c1.814-2.029 1.756-2.705 1.611-4.446-.01-.099-.034-.205-.065-.312z"/></svg>