<svg xmlns="http://www.w3.org/2000/svg" xml:space="preserve" style="shape-rendering:geometricPrecision;text-rendering:geometricPrecision;image-rendering:optimizeQuality" viewBox="0 0 807 805" fill-rule="evenodd" clip-rule="evenodd"><defs><style>.fil0{fill:#000;fill-rule:nonzero}</style></defs><path class="fil0" d="M437 335C454 212 485 33 628 2c26-6 41 1 52 25 30 63 40 223 13 292-20 51-51 63-89 94 41-7 112-36 148-8 23 17 67 149 53 194-13 40-152 3-183-4 7 23 10 52 10 72-20-4-45-18-63-34-5 32-17 174-59 172-47-2-156-88-164-115-14-44 37-101 58-137-42 25-64 50-118 52-75 2-222-62-270-112-19-19-21-36-7-58 78-123 256-92 377-66 1-7 3-11 3-20 1-6-3-14 1-21l6-4c9-3 15 5 22 7 8 2 12 2 19 4z"/><path class="fil0" d="M401 311c-9-20-18-39-25-57-19-47-36-96-30-147 14-135 145-95 95-60-13 9-30 0-31-15-31 13-44 45-47 77-6 47 11 95 28 138 10 24 21 48 32 72l-2-1c-1 0-3-1-4-2-5-2-10-5-16-5zM376 327c-15-14-29-29-44-42-37-34-78-66-128-78-131-33-139 104-88 69 13-9 10-29-4-35 23-24 57-26 88-18 47 11 86 43 120 75 19 16 38 34 56 53v-3c1-1 0-2 0-4-1-5-1-11 0-17z"/></svg>