<?xml version="1.0" encoding="UTF-8"?>
<svg width="1200pt" height="1200pt" version="1.1" viewBox="0 0 1200 1200" xmlns="http://www.w3.org/2000/svg">
 <path d="m1021.3 337.2c-67.441 0-122.4 54.957-122.4 122.4v314.4h-94.801v-545.76c0-54.719-21.121-105.84-59.762-144.48-127.99-128-348.48-36.781-348.48 144.48v239.76h-94.559v-194.4c0-67.441-54.961-122.4-122.4-122.4-66.133 0-122.64 53.125-122.64 122.4v252.72c0 102.96 84 186.72 186.96 186.72h152.64v438.96c0 13.199 10.801 24 24 24h360.24c13.441 0 24-10.801 24-24v-132.96h152.88c102.96 0 186.72-83.762 186.72-186.72l-0.003906-372.71c0-67.902-54.512-122.4-122.4-122.4zm-872.55 187.01c0 6.6328-5.3672 12-12 12s-12-5.3672-12-12v-47.25c0-6.6328 5.3672-12 12-12s12 5.3672 12 12zm12.074-206.2c0 6.6328-5.3672 12-12 12-6.6328 0-12-5.3672-12-12v-47.273c0-6.6328 5.3672-12 12-12 6.6328 0 12 5.3672 12 12zm34.191 52.172v-47.25c0-6.6328 5.3672-12 12-12s12 5.3672 12 12v47.25c0 6.6328-5.3672 12-12 12s-12-5.3672-12-12zm29.484 197.3c0 6.6328-5.3672 12-12 12s-12-5.3672-12-12v-133.8c0-6.6328 5.3672-12 12-12s12 5.3672 12 12zm99.703 43.57c0 6.6328-5.3672 12-12 12s-12-5.3672-12-12v-47.25c0-6.6328 5.3672-12 12-12s12 5.3672 12 12zm88.523 24.211c0 6.6328-5.3672 12-12 12-6.6328 0-12-5.3672-12-12v-47.25c0-6.6328 5.3672-12 12-12 6.6328 0 12 5.3672 12 12zm249.82-476.81c0-6.6328 5.3672-12 12-12s12 5.3672 12 12v47.25c0 6.6328-5.3672 12-12 12s-12-5.3672-12-12zm-145.64 693.56c0 6.6328-5.3672 12-12 12s-12-5.3672-12-12v-47.273c0-6.6328 5.3672-12 12-12s12 5.3672 12 12zm0-237.28c0 6.6328-5.3672 12-12 12s-12-5.3672-12-12v-47.25c0-6.6328 5.3672-12 12-12s12 5.3672 12 12zm0-173.65c0 6.6328-5.3672 12-12 12s-12-5.3672-12-12v-47.273c0-6.6328 5.3672-12 12-12s12 5.3672 12 12zm-10.734-186.52v-47.273c0-6.6328 5.3672-12 12-12s12 5.3672 12 12v47.273c0 6.6328-5.3672 12-12 12s-12-5.3672-12-12zm40.641 786.35c0 6.6328-5.3672 12-12 12s-12-5.3672-12-12v-47.25c0-6.6328 5.3672-12 12-12s12 5.3672 12 12zm43.758-157.69c0 6.6328-5.3672 12-12 12-6.6328 0-12-5.3672-12-12v-125.84c0-6.6328 5.3672-12 12-12 6.6328 0 12 5.3672 12 12zm6.5625-271.59c0 6.6328-5.3672 12-12 12-6.6328 0-12-5.3672-12-12v-47.273c0-6.6328 5.3672-12 12-12 6.6328 0 12 5.3672 12 12zm10.219-206.55c0 6.6328-5.3672 12-12 12-6.6328 0-12-5.3672-12-12v-174.16c0-6.6328 5.3672-12 12-12 6.6328 0 12 5.3672 12 12zm71.531 635.84c0 6.6328-5.3672 12-12 12-6.6328 0-12-5.3672-12-12v-119.86c0-6.6328 5.3672-12 12-12 6.6328 0 12 5.3672 12 12zm7.6641-283.52c0 6.6328-5.3672 12-12 12s-12-5.3672-12-12v-47.25c0-6.6328 5.3672-12 12-12s12 5.3672 12 12zm18.891-209.55c0 6.6328-5.3672 12-12 12s-12-5.3672-12-12v-47.25c0-6.6328 5.3672-12 12-12s12 5.3672 12 12zm0-164.06c0 6.6328-5.3672 12-12 12s-12-5.3672-12-12v-47.25c0-6.6328 5.3672-12 12-12s12 5.3672 12 12zm106.08 511.55c0 6.6328-5.3672 12-12 12s-12-5.3672-12-12v-47.25c0-6.6328 5.3672-12 12-12s12 5.3672 12 12zm91.5 44.25c0 6.6328-5.3672 12-12 12s-12-5.3672-12-12v-47.25c0-6.6328 5.3672-12 12-12s12 5.3672 12 12zm92.625-119.25c0 6.6328-5.3672 12-12 12s-12-5.3672-12-12v-47.273c0-6.6328 5.3672-12 12-12s12 5.3672 12 12zm6.8438-173.09c0 6.6328-5.3672 12-12 12s-12-5.3672-12-12v-47.273c0-6.6328 5.3672-12 12-12s12 5.3672 12 12zm6.4219-123.02c0 6.6328-5.3672 12-12 12s-12-5.3672-12-12v-47.25c0-6.6328 5.3672-12 12-12s12 5.3672 12 12zm43.172 296.11c0 6.6328-5.3672 12-12 12s-12-5.3672-12-12v-133.8c0-6.6328 5.3672-12 12-12s12 5.3672 12 12zm17.227-232.9c0 6.6328-5.3672 12-12 12-6.6328 0-12-5.3672-12-12v-47.25c0-6.6328 5.3672-12 12-12 6.6328 0 12 5.3672 12 12z"/>
</svg>
