<svg xmlns="http://www.w3.org/2000/svg" viewBox="0 0 100 100" xml:space="preserve"><path d="M44.646 78.761c-1.371.43-2.104 1.585-1.999 2.414.109.824 1.011 1.335 2.484 1.401l.254.004c2.991 0 4.839-1.93 5.495-2.76.144-.183.191-.426.123-.649-1.924-6.378-5.442-17.95-6.417-20.868-.084-.25-.297-.434-.556-.479l-.664-.121c-.369-.071-.729.158-.826.52-.464 1.748-.856 3.358-1.167 4.789-.817 3.833 4.725 8.633 4.781 8.682.092.08.165.184.207.298.427 1.171.939 3.584.144 5.197-.38.767-1.022 1.31-1.859 1.572zM89.094 40.942c-.244-.148-.549-.141-.781.022-.233.161-.349.443-.296.722.092.488.175.999.247 1.533.014.109.055.214.116.305 3.438 5.077 7.21 9.548 8.971 10.629.114.071.244.106.374.106.112 0 .226-.027.327-.08.223-.115.369-.337.387-.586.013-.182.019-.413.006-.708-.234-5.549-5.959-9.864-9.351-11.943zM89.386 56.042c-.062-.329-.344-.573-.681-.584-.314-.001-.633.216-.715.539-.581 2.278-1.421 3.343-2.163 4.284-1.143 1.448-1.625 2.359-.046 7.32.489.888 4.627 8.766-.333 12-.562.366-1.036.711-1.411 1.023-.222.187-.312.488-.225.764.088.276.333.474.62.498.339.029.742.045 1.193.045 1.045 0 2.311-.081 3.564-.227.346-.04.613-.325.631-.673.207-3.854 1.161-10.958 1.449-13.042.023-.171-.016-.344-.109-.489-.619-.948-1.106-2.709-1.372-4.954-.005-.049-.007-.097-.002-.146.165-1.92.03-4.06-.4-6.358z"/><path d="M5.938 30.725c.025 0 .043-.225.07-.225h.104c1.422 0 2.966.92 4.13 2.074 1.878 1.863 2.839 4.48 2.78 7.353-.11 5.423 1.892 8.464 12.771 8.695 8.863.188 9.257 6.408 9.604 11.869.124 1.979.252 4.038.753 5.828 2.016 7.212-2.701 13.04-2.908 13.29-.067.083-.156.148-.278.197-1.235.509-2.271.979-3.082 1.394-.289.149-.443.476-.372.795.071.318.349.548.675.56.341.011.7.016 1.063.016 1.126 0 2.276-.045 3.004-.073l.201-.007c2.957-.119 4.802-8.953 4.678-13.691-.034-1.28.247-3.318.858-6.177.01-.028.018-.056.023-.084 1.07-4.905 2.773-10.407 2.966-11.021.114-.371.52-.582.896-.469.375.119.587.523.469.898-.267.846-.636 2.072-1.038 3.488-.056.193-.026.401.08.573.106.171.28.29.477.325 2.777.518 5.597.78 8.379.78 9.451 0 16.264-2.978 18.754-4.259.326-.166.473-.552.341-.895-1.896-4.903-1.796-8.339.308-10.503.266-.272.736-.282 1.012-.014.282.275.288.729.014 1.011-3.829 3.94 2.062 13.686 5.226 18.922 3.617 5.986-2.144 18.45-2.2 18.575-.093.195-.265.338-.471.391-.967.25-1.719.474-2.302.668-.321.107-.522.425-.484.762.039.335.309.599.646.63.616.056 1.308.084 2.012.084 1.753 0 3.987-.174 4.997-.66.262-.125.421-.396.404-.687-.196-3.281 2.807-10.866 3.73-13.112.063-.153.071-.324.023-.482-1.594-5.205-.902-6.431.455-8.15 1.193-1.512 2.828-3.583 2.468-12.352C86.663 34.74 81.8 32.687 77.094 30.7c-1.814-.764-3.689-1.555-5.296-2.903-5.832-4.903-9.813-5.695-13.514-2.86-3.713 2.844-5.511 2.439-8.581 2.094-.916-.104-1.961-.221-3.214-.291l-.208-.005c-3.264 0-8.464 4.125-12.687 7.476-3.022 2.396-4.938 3.882-6.181 4.215-1.646.44-3.491.017-5.038-1.142-2.015-1.511-3.209-4.03-3.275-6.91-.106-4.707-1.789-6.525-1.987-6.723-.196-.19-.282-.483-.24-.652.059-.146.363-1.449-.083-2.54-.122-.3-.435-.483-.748-.44-.321.038-.576.286-.623.605-.064.443-.101.919-.101 1.34 0 .204-.086.398-.236.532-.133.119-.32.164-.552.18-1.545-.173-2.111.391-2.932 1.137-.815.739-1.74 1.577-3.567 1.577-.421 0-.876-.046-1.354-.135-.423-.081-.834-.122-1.22-.122-2.357 0-3.46 1.533-3.701 2.302-.091.235-.126.408-.116.559.02.281.203.525.467.622.2.074.37.235.443.418.053.135.078.496.046.652-.077.362.243.639.598.748.454.139 1.296.269 2.744.291zm60.867 1.525c.203-.766.996-1.211 1.75-1.016 1.373.366 2.755.814 4.111 1.333.738.282 1.107 1.108.825 1.847-.219.57-.761.919-1.336.919-.171 0-.343-.031-.512-.095-1.262-.482-2.548-.898-3.823-1.238-.764-.203-1.218-.986-1.015-1.75zm-31.321 4.839c.479-.396 11.97-9.604 28.685-6.519.777.144 1.291.89 1.147 1.667-.144.778-.892 1.298-1.667 1.147-15.376-2.835-26.248 5.833-26.356 5.919-.265.217-.585.321-.902.321-.415 0-.827-.179-1.109-.525-.499-.612-.41-1.512.202-2.01z"/></svg>