<?xml version="1.0" encoding="UTF-8"?>
<svg width="1200pt" height="1200pt" version="1.1" viewBox="0 0 1200 1200" xmlns="http://www.w3.org/2000/svg">
 <path d="m1142.6 618.74c-2.8594-7.7344-10.5-12.703-18.75-12.188l-61.312 2.4375c-37.5 1.3125-76.5 4.5-114.38 9 74.625-100.5 132.14-212.63 170.26-331.87l5.8125-18.75c2.2969-7.2656 0-15.188-5.8125-20.062-5.8125-4.8281-13.922-5.7188-20.625-2.25l-76.5 39.75c-78.703 40.641-153.94 87.703-225 140.63-32.297-124.03-89.016-240.37-166.87-342.19l-14.25-18.75c-3.5625-4.7344-9.0938-7.5-15-7.5s-11.438 2.7656-15 7.5l-14.25 18.75c-77.859 101.81-134.58 218.16-166.87 342.19-71.062-52.922-146.29-99.984-225-140.63l-77.25-39.375c-6.75-3.7031-15.094-2.9062-21 2.0156s-8.2031 12.984-5.8125 20.297l5.8125 18.75c38.203 119.39 95.859 231.66 170.63 332.26-37.5-4.5-76.312-7.6875-114.38-9l-62.062-2.4375c-8.25-0.51562-15.891 4.4531-18.75 12.188-2.8594 7.5938-0.51563 16.125 5.8125 21.188l11.812 9.375c78.609 63 165.56 114.8 258.37 153.94-26.109 10.5-51.609 22.547-76.312 36l-33.75 18.75c-7.125 3.8906-10.969 12-9.4219 20.016 1.5469 7.9688 8.0625 14.062 16.172 15.047l10.875 1.125c74.016 9.1875 148.92 9.1875 222.94 0-12.469 25.594-22.172 52.406-28.875 80.062l-6.1875 24.75c-1.8281 7.3125 0.89062 15 6.8906 19.547s14.156 5.0156 20.672 1.2656l7.125-4.125c34.641-20.203 66.938-44.156 96.375-71.438l-13.688 179.63c-0.42188 5.25 1.3594 10.406 4.9219 14.25s8.5781 6 13.828 6h69.75c5.25 0 10.266-2.1562 13.828-6s5.3438-9 4.9219-14.25l-13.875-180c29.578 27.422 62.109 51.469 96.938 71.812l7.125 4.125c2.8594 1.6406 6.0938 2.4375 9.375 2.4375 4.0781 0 8.0156-1.3125 11.25-3.75 5.7188-4.4062 8.4375-11.672 6.9375-18.75l-5.0625-25.5c-6.6094-27.75-16.312-54.656-28.875-80.25 74.016 9.1875 148.92 9.1875 222.94 0l10.875-1.125c8.1094-0.98437 14.625-7.0781 16.172-15.047 1.5469-8.0156-2.2969-16.125-9.4219-20.016l-33.75-18.75c-24.703-13.453-50.203-25.5-76.312-36 92.812-39.094 179.76-90.844 258.37-153.74l11.812-9.375c6.6562-5.1562 9-14.156 5.8125-21.938z"/>
</svg>
