<svg xmlns="http://www.w3.org/2000/svg" viewBox="0 0 100 100" xml:space="preserve"><path d="M80.388 69.774c5.34 0 7.77 2.463 8.908 5.636 1.128.121 3.331-.019 5.704-2.339 0 0-3.294-2.751-6.176-4.034-2.976-1.322-6.468-2.247-10.231.132-2.62-2.07-4.952-3.012-4.952-3.012 4.548-2.462 7.78-6.33 9.812-9.405.013.008.023.011.036.019 2.163-3.229 4.584-6.108 7.583-8.613-2.065 2.032-3.735 4.254-5.282 6.7-.493.779-.952 1.581-1.418 2.379 5.681 2.392 9.003-10.787 9.003-10.787-8.903.26-13.828 6.402-10.597 9.729-5.971 6.464-13.367 9.192-20.769 9.842-1.075-1.77-3.094-2.796-5.226-2.553-.262-1.346-.579-2.891-.965-4.466 5.38-2.573 9.425-5.654 12.582-9.965 6.265-8.55 0-14.646 0-21.249 0-6.602-2.285-7.957-2.285-7.957 2.285-2.534 1.101-4.402 1.101-4.402.931-1.27.084-2.539.084-2.539 1.101-1.61 0-3.979 0-3.979-4.825 6.18-12.188 2.286-16.294 12.617 0 0-3.346 1.803-4.764 5.536 0 0 1.031 1.545 4.764 2.575v2.576c-3.175 0-11.207 7.097-13.228 13.7 0 0-2.468 1.514-2.523 4.317.766-.402 1.577-.752 2.504-1.022.29-.086.593.083.675.371.084.289-.081.592-.371.677-1.369.398-2.489.951-3.524 1.687-.614.507-1.38 1.406-1.591 2.826 1.718-.771 3.858-1.056 6.097-1.338.324-.048.569.174.61.471.036.3-.176.573-.474.609-2.878.363-5.568.745-7.17 2.163-.449.512-.953 1.373-1.243 2.831-1.435-.669-2.262-1.113-2.262-1.113-7.399-4.102-13.007-4.046-16.775-4.046-3.767 0-2.091 3.335-3.208 4.229-1.119.886-5.523 4.361-2.455 3.811 5.989-.874 10.819-3.048 17.892-.597.963.332 1.966.686 2.982 1.043-3.484 2.644-9.012 7.075-14.834 12.697-2.078 2.006-2.138 4.806-.777 6.035.354-1.583 1.439-3.136 3.257-4.582l12.146-11.808c.22-.207.559-.203.772.013.209.216.205.56-.011.771L15.309 77.804c-2.432 1.937-3.397 3.896-2.908 5.858.004.021-.013.038-.008.06.248.829.817 1.756 2.015 2.341.227-2.62 2.184-5.41 3.153-6.379L27.58 68.102l1.736-1.805c.209-.216.554-.227.772-.015.216.207.222.554.015.77l-1.716 1.784-10.029 11.588c-1.168 1.173-3.329 4.567-2.757 6.936.713 1.367 2.565 3.311 6.667-.484 5.651-5.229 13.316-20.957 13.372-21.069 6.057 1.94 12.444 3.568 18.434 3.858.326-1.977 2.73-6.063 7.797-3.632-4.974-1.653-5.487 1.898-6.425 3.676 2.526.032 4.979-.171 7.28-.753 5.947-1.503 11.05-.23 14.651 1.395 5.397 3.198 7.211 6.794 8.709 12.777-1.06-3.283-1.995-6.402-4.512-8.879-1.128-1.108-3.34-2.156-4.834-2.899-2.136 3.85-2.375 11.391 12.785 15.735-.146-1.108-.199-2.368-.243-3.71-.197-5.862-.419-12.508-8.894-12.508-.301 0-.546-.246-.546-.546 0-.301.245-.547.546-.547zM55.931 21.567c.732 0 1.329.276 1.329.616s-.597.616-1.329.616c-.734 0-1.331-.276-1.331-.616s.596-.616 1.331-.616zm-3.913 44.207c-3.351-.415-6.548-1.113-9.452-1.924 3.338-.991 6.358-1.983 9.073-3.046.967 1.183 1.977 2.299 2.887 3.251-1.031.409-1.918.976-2.508 1.719zm-16.845-3.936c-.745 0-1.447-.051-2.095-.153-.296-.046-.5-.323-.455-.622.047-.296.311-.488.625-.452 7.35 1.143 22.091-4.72 27.657-12.521 2.062-2.891 3.653-7.354 2.559-10.81-.626-1.981-2.38-3.758-4.238-4.412-.143-.05-.217-.206-.166-.348.049-.142.196-.2.348-.167 1.698.376 4.372 2.304 5.098 4.597 1.287 4.074-.655 8.888-2.711 11.771-5.282 7.4-18.548 13.117-26.622 13.117z"/></svg>