<svg xmlns="http://www.w3.org/2000/svg" viewBox="0 0 100 100" style="enable-background:new 0 0 100 100" xml:space="preserve"><path d="M10.459 17.573s-2.549 4.089.231 9.082c0 0 .096 4.924 4.886 5.46-.226 3.722-2.383 6.314-2.837 7.716-3.959 11.24 2.593 17.407 2.593 17.407 1.631 5.589-.363 21.937-.363 21.937-.233 1.863-2.393 2.922-2.393 2.922-3.128-.88-2.713 2.324-2.713 2.324-.234 2.094 4.641 1.302 4.641 1.302 2.559-.232 4.087-4.5 4.087-4.5.464-2.561 4.657-14.669 4.657-14.669 1.164 1.629-3.046 18.394-3.046 18.394-.924 1.826-2.95 1.976-2.95 1.976-3.167-.101-2.152 2.914-1.687 3.613.466.698 2.547.288 4.693.163 1.63 0 4.1-2.644 4.1-2.644 2.56-1.863 5.876-16.147 6.343-13.818.059.295.193.606.382.923 1.301 2.181 5.204 4.665 5.204 4.665-6.519-1.397-6.619 2.448-6.619 2.448-.081 2.926 3.935 1.732 8.432 2.223-2.313.417-7.655 5.736 5.073 4.927 4.854-1.025 8.34-1.254 11.509-.286 6.053.234 7.229-1.819 7.229-1.819 2.794-.932 13.905-.621 13.905-.621 8.939-.32 11.532-.341 5.518 3.077-1.614.918-11.03 5.114-5.428 5.224 8.716.171 26.852-9.255 9.93-12.912-8.692-1.445-8.064.294-16.252-.864-4.658-1.164-3.726-4.657-3.726-4.657 3.259-11.643-7.452-25.38-7.452-25.38-6.286-11.409-13.271-12.341-15.6-13.505-1.651-.826-3.989-1.696-5.501-2.687-.219-1.421-.618-2.956-1.235-4.613 0 0-3.494-10.478-6.055-11.875 0 0-.465-9.314-6.053-13.504 0 0-4.373 3.812-3.958 6.751 0 0-4.029.095-5.125 1.863 0 0-6.286-5.589-7.684-4.657.002-.001 3.495 6.285 3.264 8.614zm14.664-8.84c1.546 1.38 2.738 3.818 2.033 6.834-1.074-.971-1.577-1.723-2.849-2.191-.182-1.95-.019-3.362.816-4.643zm-4.924 9.697c-.099 1.422.928 2.871-2.711 4.581-.231-2.804.741-3.461 2.711-4.581z"/></svg>