<?xml version="1.0" encoding="UTF-8"?>
<svg width="1200pt" height="1200pt" version="1.1" viewBox="0 0 1200 1200" xmlns="http://www.w3.org/2000/svg">
 <path d="m1054.3 944.59c-94.934 107.45-260.41 167.5-454.25 165.34-193.87 2.1484-359.35-57.859-454.27-165.3 39.441-45.668 222.23-94.543 449.84-94.543 2.9766 0.011719 5.957 0.011719 8.9336 0 227.48 0 410.27 48.855 449.74 94.504zm-260.71-699.58c-40.867-30.332-80.848-61.738-119.28-94.844l-66.43-57.227c-4.5-3.8789-11.164-3.8789-15.664 0l-66.234 57.066c-38.422 33.105-78.398 64.508-119.26 94.828-156.8 116.34-350.91 296.74-346.38 455.55-3.1836 83.105 19.855 155.66 62.887 215.77 59.352-58.715 258.76-102.07 472.43-102.07 2.9531 0.011719 5.9062 0 8.8633 0 213.59 0 412.96 43.332 472.33 102.03 43.035-60.109 66.078-132.66 62.898-215.73 4.5625-158.75-189.39-339.03-346.16-455.38z"/>
</svg>
