<?xml version="1.0" encoding="UTF-8"?>
<svg width="1200pt" height="1200pt" version="1.1" viewBox="0 0 1200 1200" xmlns="http://www.w3.org/2000/svg">
 <path d="m363.84 720c-16.27 16.859-29.723 36.227-39.84 57.359l-129.24 42.961c-6.0938 2.0312-12.727 1.7188-18.602-0.875-5.8711-2.5977-10.566-7.293-13.164-13.168s-2.9102-12.504-0.875-18.598l49.68-148.92-140.4-70.199c-5.7227-2.8555-10.176-7.7422-12.484-13.707-2.3086-5.9648-2.3086-12.578 0-18.543 2.3086-5.9648 6.7617-10.852 12.484-13.707l140.52-70.441-49.797-148.92c-2.0352-6.0898-1.7227-12.723 0.875-18.598s7.293-10.566 13.164-13.164c5.875-2.5977 12.508-2.9102 18.602-0.875l149.16 49.68 70.078-140.28c2.8555-5.7227 7.7422-10.176 13.707-12.484 5.9688-2.3125 12.578-2.3125 18.543 0 5.9648 2.3086 10.855 6.7617 13.711 12.484l70.441 140.4 148.92-49.68h-0.003907c6.0977-2.0977 12.762-1.8242 18.668 0.76172 5.9062 2.5898 10.621 7.3047 13.211 13.211 2.5859 5.9062 2.8594 12.57 0.76172 18.668l-50.52 150.6c-17.777 2.3008-35.246 6.5664-52.082 12.719-17.039-37.758-45.969-68.902-82.375-88.676-36.402-19.773-78.277-27.09-119.23-20.828-40.949 6.2617-78.727 25.754-107.56 55.504-28.832 29.746-47.133 68.113-52.113 109.24-4.9766 41.129 3.6445 82.754 24.543 118.52 20.902 35.77 52.938 63.711 91.211 79.562zm73.32-317.4c27.402 0.078126 54.203 8.0391 77.203 22.934 23.004 14.895 41.234 36.094 52.516 61.066-31.18 19.223-57.645 45.203-77.441 76.027-19.793 30.824-32.41 65.699-36.918 102.05-14.914 5.082-29.238 11.762-42.719 19.922-46.719-9.1289-85.777-41.004-104.09-84.941-18.309-43.934-13.441-94.117 12.973-133.71 26.414-39.598 70.875-63.371 118.47-63.344zm705.72 468c0.22266 43.344-16.828 84.988-47.387 115.73-30.562 30.738-72.105 48.035-115.45 48.066h-461.52c-55.422-1.6836-106.16-31.512-134.58-79.125-28.422-47.609-30.598-106.43-5.7773-156.01 24.82-49.582 73.211-83.086 128.36-88.867 0-4.9219-1.5586-9.6016-1.5586-14.762v0.003906c-0.11328-43.477 14.711-85.668 41.992-119.52 27.277-33.855 65.352-57.309 107.86-66.445s86.859-3.3984 125.64 16.254c38.777 19.656 69.633 52.031 87.395 91.711 21.926-14.109 48.215-19.809 74.016-16.051 25.801 3.7578 49.367 16.727 66.355 36.504 16.988 19.777 26.246 45.035 26.07 71.105 0 3.2383-1.0781 6.2383-1.3203 9.4805 31.938 10.898 59.684 31.48 79.383 58.879 19.703 27.398 30.375 60.254 30.535 94z"/>
</svg>
