<?xml version="1.0" encoding="UTF-8"?>
<svg width="1200pt" height="1200pt" version="1.1" viewBox="0 0 1200 1200" xmlns="http://www.w3.org/2000/svg">
 <path d="m816.68 600c107.55-26.176 217.27-62.773 264.38-109.8 58.574-58.574 58.574-153.52 0-212.1-31.875-31.875-74.477-45.75-116.1-42.977 2.7734-41.699-11.102-84.301-42.977-116.1-58.574-58.574-153.52-58.574-212.1 0-47.098 47.031-83.695 156.75-109.87 264.23-26.176-107.48-62.773-217.2-109.8-264.3-58.574-58.574-153.52-58.574-212.1 0-31.875 31.875-45.75 74.477-42.977 116.1-41.77-2.7773-84.297 11.098-116.17 42.973-58.574 58.574-58.574 153.52 0 212.1 47.102 47.102 156.82 83.699 264.38 109.88-107.55 26.176-217.27 62.773-264.38 109.8-58.574 58.574-58.574 153.52 0 212.1 31.875 31.875 74.477 45.75 116.1 42.977-2.7734 41.699 11.102 84.301 42.977 116.1 58.574 58.574 153.52 58.574 212.1 0 47.098-46.957 83.695-156.75 109.87-264.3 26.176 107.55 62.773 217.27 109.8 264.38 58.574 58.574 153.52 58.574 212.1 0 31.875-31.875 45.75-74.477 42.977-116.1 41.699 2.7734 84.301-11.102 116.1-42.977 58.574-58.574 58.574-153.52 0-212.1-47.031-47.098-156.75-83.695-264.3-109.87z"/>
</svg>
