<svg xmlns="http://www.w3.org/2000/svg" viewBox="0 0 12.7 12.7"><path d="M3.7223828 287.81374a.84217795.84217795 0 0 0-.2492387.036 4.3049317 4.3049317 0 0 1-1.48446.1778 1.1914619 1.1914619 0 0 1 .2038547.75605.05339307.05339307 0 0 1-.1058517-.008 1.0846759 1.0846759 0 0 0-.4061609-.92551.03616403.03616403 0 0 0-.048508.004.6968303.6968303 0 0 0-.1835385.54488.0535926.0535926 0 0 1-.106359.0104.80361637.80361637 0 0 1 .00988-.20335.83844599.83844599 0 0 0-.61474078.86401.35191666.35191666 0 0 1-.12253702.29094.2451306.2451306 0 0 0-.0464252.3191.78622882.78622882 0 0 0 .34622716.29459.2451306.2451306 0 0 0 .26488284-.0448 2.1650433 2.1650433 0 0 1 .3196374-.24611.35191666.35191666 0 0 1 .1537986-.0527.8512475.8512475 0 0 0 .4677231-.1976.05380697.05380697 0 0 1 .069865.0818.95803355.95803355 0 0 1-.186662.12307 2.3591838 2.3591838 0 0 1 .6767834.33525 1.5816763 1.5816763 0 0 1 .052672-.31285.05345128.05345128 0 1 1 .1027282.0282 1.4748901 1.4748901 0 0 0 .1574559 1.14659.35191666.35191666 0 0 1 .024561.3139 7.6117051 7.6117051 0 0 0-.4562435 1.59346.35191666.35191666 0 0 1-.3467344.29251H1.95219a.22527994.22527994 0 0 0 0 .45051h.1027282a.41120512.41120512 0 0 1 .1647709-.33008.05351795.05351795 0 0 1 .064659.085.30441904.30441904 0 0 0-.1214959.24508h.2909387a.2451306.2451306 0 0 0 .1694695-.0683 4.3377236 4.3377236 0 0 0 .704441-.87911 4.2887744 4.2887744 0 0 1 .7810868-1.37811.2451306.2451306 0 0 0 .036494-.25965.9533284.9533284 0 0 1-.010412-.7691.05342315.05342315 0 0 1 .09803.0422.84654232.84654232 0 0 0 .010412.68305.35191666.35191666 0 0 1 .031288.12201 7.0736119 7.0736119 0 0 0 1.7118075.006.54365427.54365427 0 0 0 .1595384-.0443 2.83421 2.83421 0 0 1 .8665957-.23464.65044093.65044093 0 0 1 .2351696.0182 2.1258871 2.1258871 0 0 0 .9776532.0267 3.3208502 3.3208502 0 0 0-.4828332-.29198.05351731.05351731 0 0 1 .04744-.0959 3.4276363 3.4276363 0 0 1 1.1309446.89684.2451306.2451306 0 0 0 .2033741.0892 1.3348818 1.3348818 0 0 1 .9281039.30292.65044034.65044034 0 0 1 .233088.56001 2.5520208 2.5520208 0 0 0 .124085 1.04701h-.0067a.27361772.27361772 0 0 0 .528191-.1314.25504677.25504677 0 0 1-.24454-.12462.05339307.05339307 0 0 1 .09178-.0542.1482607.1482607 0 0 0 .265924-.12982 3.6388618 3.6388618 0 0 1-.246649-1.63725.2451306.2451306 0 0 0-.225772-.26384 1.1730703 1.1730703 0 0 1-.5902336-.21274.65044034.65044034 0 0 1-.1840458-.20073.05339307.05339307 0 0 1 .091756-.0543.54365427.54365427 0 0 0 .1538254.16789 1.0662843 1.0662843 0 0 0 .455709.18408 1.4170722 1.4170722 0 0 1-.243499-.79724 2.0139147 2.0139147 0 0 0-2.5069628-2.02883 26.532789 26.532789 0 0 0-1.4182525.31179 2.5757479 2.5757479 0 0 1-2.1451187-.33317.84217795.84217795 0 0 0-.4624905-.14184zm-2.455359 1.06528a.11548748.11548748 0 0 1 .1178385.11679.11548915.11548915 0 1 1-.2309783 0 .11548748.11548748 0 0 1 .1131398-.11679z" transform="translate(0 -284.29998)"/><path d="M4.1451419 292.81829a1.3389232 1.3389232 0 0 0-.2317678-1.21994 4.1819884 4.1819884 0 0 1 .2783837-.36921.35191667.35191667 0 0 0 .072648-.14348 7.180398 7.180398 0 0 0 .5389081.0469 1.7097563 1.7097563 0 0 0 .039351.83746.54365427.54365427 0 0 1-.032288.39748 2.6905313 2.6905313 0 0 0-.2330795.71721.2451306.2451306 0 0 1-.2464993.2026 1.2793072 1.2793072 0 0 0-.3942172.0545.2451306.2451306 0 0 1-.1532674-.004.52104239.52104239 0 0 1-.065585-.0287.27443878.27443878 0 0 1 .1327847-.13192.0535052.0535052 0 0 0-.045405-.0969.38122485.38122485 0 0 0-.1709249.15751.1372446.1372446 0 0 1 .017153-.15449.41445785.41445785 0 0 1 .3828155-.18995.10678607.10678607 0 0 0 .1102839-.0755zM7.0043517 293.2873a1.2793072 1.2793072 0 0 0-.3941163.0545.2451306.2451306 0 0 1-.1525611-.004.52104239.52104239 0 0 1-.066594-.0287.27443878.27443878 0 0 1 .1327847-.13192.0535052.0535052 0 1 0-.045405-.0969.38122485.38122485 0 0 0-.170925.15751.1372446.1372446 0 0 1 .017153-.15449.41445785.41445785 0 0 1 .3609201-.19114.35191667.35191667 0 0 0 .2782828-.12377l.2945278-.3463a.65044036.65044036 0 0 0 .074666-.73532 2.1193826 2.1193826 0 0 1-.257901-.87744.54365427.54365427 0 0 1 .1454981.0182 2.2326732 2.2326732 0 0 0 .9769161.0376 1.6880615 1.6880615 0 0 0-.013117 1.13295.2451306.2451306 0 0 1-.056504.25109l-.9437199.96407a.2451306.2451306 0 0 1-.1801069.0737zM.79636418 287.92838a.03616403.03616403 0 0 0-.0484321.0442.72580543.72580543 0 0 0 .20845988.32845.94523205.94523205 0 0 1 .23096064-.14804 1.5009458 1.5009458 0 0 0-.39129111-.22458zM11.690966 289.93213a1.056206 1.056206 0 0 1-.791058 1.58884 3.5320756 3.5320756 0 0 0 .03128.42227 1.192629 1.192629 0 0 0 .590468-.0655.54365427.54365427 0 0 0 .199177-.13176 1.613319 1.613319 0 0 0 .212597-1.96013.1416308.1416308 0 0 0-.242262.14626z" transform="translate(0 -284.29998)"/></svg>