<svg xmlns="http://www.w3.org/2000/svg" viewBox="0 0 90 90" xml:space="preserve"><path fill-rule="evenodd" clip-rule="evenodd" d="M82.988 15.105c-1.346-.502-3.39-.623-4.785-.923-.845-.183-2.021-.638-2.148-.891-.143-.284 2.882-.985 3.237-1.048.729-.13 2.509-.421 5.499-.115.184.019.337-.156.115-.334-.436-.353-.894-.687-1.303-.855-3.778-1.552-5.217-1.354-5.732-1.345-.591.01-1.427.245-1.969.078-.555-.172-1.132-.583-2.533-1.135-1.811-.712-3.311-.445-4.006-.369-1.664.181-2.978.494-4.487 1.221-.775.374-1.426 1.001-2.064 1.568-.705.624-1.56 1.908-2.046 2.732-.687 1.169-1.309 2.415-1.855 3.656-.502 1.139-1.039 2.265-1.471 3.433s-.967 2.316-1.515 3.435c-.386.787-1.097 1.667-1.707 2.294-1.329 1.368-2.294 3.656-3.533 5.174-.717.878-2.189 1.899-3.127 2.599-1.14.851-2.217 1.784-3.362 2.626-.765.563-1.494 1.197-2.299 1.701-.977.611-1.994 1.176-3.012 1.713-1.408.743-2.701 1.705-4.076 2.508-1.463.856-2.927 1.768-4.31 2.75-.936.666-2.094 1.539-2.892 2.358-1.425 1.462-2.411 2.379-4.301 3.225-1.495.669-2.797 1.751-4.248 2.512-1.093.572-2.064 1.365-3.048 2.103-.542.404-1.034.896-1.508 1.377-.154.156-.308.313-.455.477-.054.059-.125.128-.165.198.26-.095.514-.266.754-.398.617-.34 1.655-.815 2.274-1.15 1.371-.74 5.596-2.323 5.978-2.471.652-.203.725.081.643.325-.176.531-10.495 6.363-11.185 6.732-2.064 1.104-3.962 2.53-5.974 3.727-.323.193-1.366.968-1.552 1.257-.08.126-.151.262-.167.408-.009.003-.017.007-.025.011-.227.094-.086.434.141.34.48-.199.97-.41 1.464-.628.387-.002-.022.434.752.35.613-.066 1.405-.41 2.04-.553.856-.193 1.749-.207 2.604-.391.505-.11.949-.396 1.391-.649 1.565-.899 3.122-1.817 4.675-2.736 1.137-.671 2.307-1.295 3.46-1.937.971.09 1.945.194 2.917.251.92.054 3.2.067 4.054-.07 1.888-.305 3.745-.813 5.584-1.326.847-.236 3.509-.442 4.353-.249.438.1 2.004 1.128 2.592 1.399.694.32 2.233.35 3.025.336.532-.01 1.83.206 2.315.411.433.183.995.833 1.251 1.23.242.375.246 1.014.197 1.441-.108.986-.001 2-.12 2.979-.103.844-.383 1.681-.432 2.531-.026.507.105.988.113 1.486.005.308.852 1.293.979 1.687.219.68.537 1.345.704 2.038.117.492.25.98.365 1.475.24 1.028.391 2.33.516 3.393.108.912.15 1.84.206 2.755.019.31.015.636.047.942.002.024.035.068.05.084l-.062.072c.033.2-.581.587-.729.737-.311.315-1.062.207-1.478.215-.365.006-.78.001-1.142-.075-.541-.112-1.064-.265-1.626-.254-.551.009-1.007.291-1.363.695-.183.207-.527.882-.556 1.154-.021.204.041.348.243.42.112-.133.172-.268.238-.428.343-.844 1.786-1.521 2.548-.859-.034.217-.115.824-.03 1.004.091.19.481.337.677.366.268.04.679-.228.946-.301.306-.082.552-.063.767.176.176.196.741.148 1.002.184.55.071 1.47.119 1.957.296.445.161.97.194 1.438.259.318.043 1.112.272 1.333.271.145-.001.327.006.385-.16.013-.04-.011-.066-.004-.107.022-.142.171-.387.324-.417.352-.072.562.648.591.897.179-.188.355-.44.458-.68.355.014.744.04 1.094-.019.289-.05.561-.1.856-.062.438.056.9.125 1.343.118.227-.004.434-.295.508-.481.107-.264.063-.493.427-.49.292.001.896.117 1.145.264.275.16.51.56.638.85.084.19.113.372.058.576.531-.083.193-1.171.021-1.438-.228-.354-1.002-.779-1.403-.885-.68-.178-1.872.033-2.607.046l-1.528.027c-.413.007-2.341-.294-2.723-.473-.325-.152-.733-.381-1.011-.607-.226-.187-.397-.716-.497-.995-.039-.104-.167-.259-.229-.355-.206-.323-.524-.82-.61-1.188-.236-1.002-.305-2.065-.477-3.082-.186-1.089-.263-2.196-.448-3.282-.063-.372-.13-.755-.137-1.137-.005-.319.221-.922.324-1.235.24-.731.199-1.557.479-2.272.172-.442.101-2.089.125-2.678.028-.632-.084-1.833.002-2.351.07-.414 1.7-3.763 2.281-4.318 1.242-1.187 1.5-.81 1.684-.863l-.11 2.356c-.016.362-.05.735-.044 1.098.007.409-.539 1.715-.608 2.276-.045.365.029 1.254.115 1.615.095.397.633 1.576.874 1.904.32.44.826.73 1.143 1.166.606.836 1.342 1.576 2.014 2.355.36.415.692.868 1.046 1.292.457.545.96 1.084 1.376 1.66.356.492.643 1.294 1.062 1.689.21.197.477.741.541 1.023.129.568-.036 1.276-.339 1.766-.134.217-.425.302-.657.369-.18.051-.592.108-.776.063-.218-.053-.472-.201-.681-.294-.747-.331-1.122-.362-1.742.235-.403.386-.145 1.218-.136 1.71.166-.292.62-1.364 1.01-1.306.175.026.35.062.524.093l.274 1.079c1.114.77.938.234 1.556.024.3-.104.621-.095.927-.17.282-.068.603-.328.873-.333 1.015-.018 1.234 1.184 1.723 1.423.221.109.926.186 1.147.082.089-.042.277-.138.303-.261l.571.552c.178-.138.389-.266.618-.266.536-.001 1.121-.051 1.649.006.373.041.765.191 1.138.185.692-.012.228-.742.712-.841.197-.04.511.561.586.716l.413.249c-.199-.407-.384-.821-.584-1.228-.152-.314-.503-.463-.837-.496-.36-.036-.678.114-1.03.12-.368.006-3.08-1.028-3.379-1.276-.361-.299-1.012-1.576-1.335-2.042-.235-.338-.573-.643-.835-.968-.468-.578-.918-1.175-1.375-1.762-.26-.333-.549-.662-.787-1.009-.474-.688-.848-1.446-1.345-2.121-.56-.756-1.057-1.555-1.595-2.323-.132-.189-.457-.71-.426-.942.071-.547.264-1.265.421-1.799.131-.444.023-1.102.015-1.574-.013-.681-.043-1.395.052-2.07.076-.559.466-2.021.732-2.493.303-.537 1.08-1.504 1.541-1.904.691-.598 1.509-.978 2.15-1.655.875-.925 1.433-2.225 2.078-3.314.795-1.344 1.53-2.722 2.344-4.054.795-1.301 1.522-2.661 2.239-4.009.739-1.394 1.088-3.212 1.664-4.708.338-.876.521-1.826.758-2.734.101-.39.195-.799.36-1.168.376-.839.584-1.888.728-2.795.11-.696-.601-2.527-.749-3.352-.122-.687-.193-1.381-.338-2.063-.203-.96-.44-4.328-.241-5.26.116-.545.396-1.901.627-2.34.288-.549.749-1.049 1.115-1.55.638-.871 2.698-2.695 3.654-3.192.496-.259 1.379-.765 1.904-.874.701-.146 1.698-.193 2.428-.221.694-.026 1.491.023 2.186.011.302-.005.562-.229.319-.501-.152-.172-1.36-.619-1.676-.737z"/></svg>