<svg xmlns="http://www.w3.org/2000/svg" viewBox="0 0 100 100" style="enable-background:new 0 0 100 100" xml:space="preserve"><path d="m24.7 21.4-2.1-1.1-4.4-3.3-.4-6.1.2.1.3 1.5.4 4.4 4 2.8-.8-3.7L20 9.5l.4.2 1.8 5.5.7 2.9.6 1.7 1.7.8.1-3.4v-2.8l-.3-3.3-1-4.3.2-.3 1.3 4.4.4 3.3V19l.1 1.5 6.3-4.1.8-2.5-.2-5.9-4.8-5.7h.3l5.2 5.6.3 5.8-.7 3-7.4 4.8-1.4 3.7.4 2.2 4.1-2.4 4 .1-1.9 3.5-3.6.7.7 8.3 5.8 8.5 1.7.8 2.1.1 26.5-.7 7.5-.3 7.9 2.1c.1 0 .2.1.3.2l2.5 5.8v.1l-1 7.2-.3 2.6-.8 3.3c0 .1 2 8.7 2 8.7l-.4 3.9-4.3 16.2v1.3l-.3.3h-3.2l-.2-.4 1.4-2 .6-1 1-1.9.7-10.6-1.8-3-2.4-1.9-4.5-5.9-2.6-5.8-1-2.9-.5.1.9 2.9 1.1 2.6-11.8-2-7.8.2v-3.6l1-3.7h-.5l-1 3.7v5l-.9 7.5.5 8.5 1.7 9.6 1 2.2.4 1.4-.4.3-3.4.7-.4-.4.5-2.1-.1-2.5-3.2-9.4-3.8-7.6-4.3-7.1-3.5-4-4.2-8.4-2.3-3.8L19.4 37l-8.8-.2L9.1 35l.6-1.6 7.6-4.2 2.6-1.7h2.7l2.1-6.1-2 6.1"/><path d="m27.1 93.4-1.1 2-1.4 2 .2.4H28l.3-.3v-1.3l.5-2.3 5.7-9.7 3.6-7.9-4.1-7.2-1.1-1-2.1 14.7-3.7 10.6M63.1 93.3c0 .1 0 .1 0 0l-1.1 2-1.4 2 .2.4H64l.3-.3v-1.3l.5-2.3 5.7-9.7L74 78l-1.2-.9-4.9-6.5-.5-1.4-.5 13.4-3.8 10.7"/></svg>