<svg xmlns="http://www.w3.org/2000/svg" viewBox="0 0 100 100" xml:space="preserve"><path d="M41.211 66.99c-1.324.795-2.325.208-3.652-.143-1.159-.307-2.012.215-3.093.415-3.808.703-4.025-3.804-6.871-4.94-.652 1.725-.341 3.469-.473 5.251-.193 2.607-.387 5.223-.743 7.813-.56 4.072.531 8.405-.541 12.437-.436 1.638-.921 4.173-2.301 5.308-.729.6-4.071.923-4.634.154-.555-.757-4.172-.088-5.248-.577-2.605-1.186-.587-2.683.811-4.02 1.321-1.264 3.002-1.959 3.552-3.849.589-2.023.697-5.281.108-7.256-.539-1.804.259-3.785-.028-5.666-.45-2.95-1.142-5.399-.833-8.471.281-2.792 1.143-5.112.116-7.936-.671-2.289-1.181-4.18-.513-6.576 1.041-3.735 1.141-8.359 2.772-11.862.322-.691 1.466-1.533 1.159-2.169-.555-1.146-1.106-2.456-1.959-3.415-1.297-2.214-2.139-4.813-2.139-7.392-1.927 4.623-7.325-2.666-7.684-5.057-.569-1.7-2.505-4.643-1.041-6.332 1.055-1.217 3.26-1.841 4.643-2.556 1.383-.714 3.28-1.37 4.428-2.449.604-.568 1.4-.985 2.223-1.107 1.393-.208 2.91 1.547 3.763 1.164 2.437-1.097 5.128-1.045 7.741-1.273 2.116-.185 4.977-.139 6.643 1.368.988-1.483 2.445-1.926 3.987-1.045 1.877 1.072 2.519 1.837 4.761 2.279 3.583.707 5.606 2.585 5.32 6.228-.271 3.466-.338 7.121-1.199 10.505-.273 1.075-1.071 3.065-2.175 1.386-1.178-1.792-2.719-4.363-2.816-6.515-.354 1.611-.566 3.224-.819 4.848-.135.867-1.794 5.189-1.686 5.376.464.801.312 1.535 1.246 1.546 1.255.015 2.511.093 3.759.23 2.294.251 4.538 1.324 6.81 1.417 3.792.155 7.759-3.421 11.009-5.113 5.195-2.705 10.775-4.849 16.688-5.006 2.262-.06 4.73.108 6.821 1.033.615.271 3.963.885 3.268 1.343-2.685 1.769-5.897 1.982-9.061 2.216-3.927.29-7.888 1.644-11.278 3.605-2.785 1.61-5.255 3.743-7.208 6.303-.014.3.766 1.163.917 1.41.841 1.379 1.593 2.816 2.221 4.304 1.571 3.726 1.928 7.771 3.485 11.535 1.726 4.171 1.51 8.864 3.404 12.91 1.173 2.505.429 6.677.453 9.402.018 1.992.019 4.009.251 5.99.156 1.328.75 2.546.818 3.897.173 3.408-6.095 1.481-7.902 1.418-2.582-.091.695-6.548.876-7.778.307-2.097.086-4.357-.257-6.45-.314-1.923-1.27-3.171-1.104-5.189.156-1.914-.942-2.85-2.382-3.732-1.922-1.18-3.786-2.9-4.379-5.152-3.215 1.435-7.592 1.813-7.685 6.17-.081 3.818-.125 7.668-.497 11.471-.309 3.161-1.449 7.744-.167 10.719.604 1.398 1.759 4.397.081 5.488-.792.567-1.628-.009-2.454.232-1.307.382-2.806.462-4.063-.137-.585-.047-1.263.226-1.877.203-.779-.028-2.122-.957-2.541-.667-1.686 1.163-.082-4.642.03-4.901.492-1.141.984-2.42.984-3.68-.268-.421-1.957.047-2.139-.68-.715-.102-1.58.136-2.313.118-.896-.021-1.377-.45-2.076-.63-2.116-.546-.543-2.363.368-3.329.843-.893 1.688-.832 2.613-1.39.716-.432 1.273-1.727 1.797-2.357 1.124-1.756 1.552-3.764 1.912-5.789.355-1.978-.987-3.376-2.007-4.906z"/></svg>