<svg xmlns="http://www.w3.org/2000/svg" viewBox="0 0 300 300" xml:space="preserve"><path d="M8.4 294c1.2.6 2.5-2.8 4.3-4.3 1.8-1.2 8.9-5.3 12.5-6.5 3.9-.9 6.2-2.5 7.4-4.3 1.2-1.5 1.7-8 1.7-8s.6 3.9 1.2 5.4c.6 1.8 2.7 1.8 5.4 1.8S54 277 54 277s1.8-.1 3.6 1.4c1.5 1.5 2.7 4.8 4.8 4.5 2.1-.6.9-5.7.9-5.7s-1.8-12-5.4-19.8c-3.6-7.5-11.1-11.4-12.3-15.9s16.5-35.7 18.6-39.9c1.8-3.9 11.4-21 19.8-29.4 8.1-8.4 36-27.3 51-33.9 15-6.6 42-27.3 46.2-31.8 4.2-4.5 8.1-7.2 10.5-10.8.6-.6.9-1.5 1.2-2.7l-1.8 6.6s-3 5.1-6 8.7c-3 3.6-7.2 6.9-7.5 8.7-.6 1.5-.3 1.8 1.5 2.1 1.8.3 15-3.3 20.1-5.4 4.8-2.1 11.7-6.3 16.5-13.2 4.8-6.9 6.3-27 6.6-29.4v-1.2.9s15.3-9.6 18.9-12.6c3.6-3 7.8-6.3 9.9-7.8s12-9 14.1-10.8c1.8-1.8 28.5-15 28.5-15s1.5-.6 3-3.6-.6-5.4-2.7-6.9-6-2.1-9.9-1.5c-4.2.9-9.9 1.8-14.4 0-4.2-1.8-18.3-9.5-25.2-9.5 0 0-15.7-.7-19.6.5-2.4.6-3.2 2.7-3.2 2.7L219 5.1s-25.8 3.9-33.9 6-29.4 9.6-29.4 9.6-30 14.4-33.6 16.8c-3.6 2.4-18.6 11.4-18.6 11.4s-8.4 3-12.6 3.3c-4.2.6-24.3 2.4-28.8 3.9-4.5 1.2-12.3 4.2-15.6 6.9-3.3 2.7-12.3 8.1-11.7 11.4.6 3.3.6 3.9 4.2 4.5 3.9.6 20.7 2.7 20.7 2.7s2.4.3 4.2 3.3c1.8 3-1.2 6-1.5 9-.3 3-27.9 45.6-31.2 54.6 0 0-7.8 15-10.8 32.1s-1.2 39.3 0 50.1c1.2 10.5 3 13.5 3.6 16.2 0 3-9.6 10.5-12 16.5-2.1 6-5.5 27.3-5.5 27.3s.3 3.4 1.9 3.3zM231.6 29.7c-.9-.9-.6-3.3.6-4.2 1.2-1.2 5.7-.9 6.6 0 .9.9-.9 3.6-2.1 4.8-1.2.9-4.2.3-5.1-.6z"/></svg>