<svg xmlns="http://www.w3.org/2000/svg" viewBox="0 0 100 100"><path d="M80.1346528 39.6637266c0 1.1155716.9042206 2.0197922 2.0197922 2.0197922s2.0197921-.9042206 2.0197921-2.0197922-.9042205-2.0197922-2.0197921-2.0197922-2.0197922.9042206-2.0197922 2.0197922M45.4530439 89.5577638c-.7584724.036841-1.5201764.0555847-2.2847889.0555847-15.0498754 0-31.0059104-7.2689897-38.168255-24.1815982 6.9251402-.585255 12.9305479-1.288789 18.1920257-2.135809 7.0815529 4.3847264 13.4165906 3.1505526 13.4165906 2.6596623-6.9548715-.9591589-11.6003935-4.3091054-13.535516-5.9737373-19.08687438-17.2975001-8.2740382-44.3152097-8.2184535-44.3145633l.0003231.0006463c.7717222 1.1381933 1.6475041 2.2020582 2.5943827 3.1983813C24.527997 26.3120924 34.594318 29.854 44.0721524 32.9903333c4.744411 1.569944 9.7841964 3.6159127 13.7736899 6.7690506.8512212.7571797 6.5218281 6.0687484 5.1008639 11.9768829-.0662492.1981012 3.1020776-3.7600451.3383556-9.6229363 3.8065811-4.3992689 8.2656359-8.6440641 14.1223868-9.622613.7468384-.1247424 1.4910914-.1838819 2.2304969-.1838819 2.8629342 0 5.6515401.8861232 8.2187767 2.2747707C91.7686557 36.697379 94.7001013 41.8444558 95 41.8444558c-9.7082522.0006463-13.1341429 21.1137762-21.8331454 34.1936271-5.3697387 8.0743212-16.1205269 12.9512306-27.7138107 13.5196809m-.3655016-59.6355756c-5.9533778-1.9700245-11.4798524-3.9280918-16.3047319-6.5567302 1.7460699-7.9217864 4.9741826-13.43016362 4.9648107-13.3648839.598828 1.2377286 1.3114107 2.4172872 2.1044619 3.5399685 5.9268781 8.3916709 15.3749811 13.3522805 24.299554 17.8268473 1.9771342.9911524 3.9988653 2.0828096 5.9417438 3.3114896-1.5382737 1.3104412-2.9618232 2.7546734-4.292947 4.2334844-4.7993494-4.6057725-11.3040497-7.199832-16.7128915-8.9901757" fill="#000" fill-rule="evenodd"/></svg>