<svg xmlns="http://www.w3.org/2000/svg" viewBox="0 0 100 100" xml:space="preserve"><path d="M75.815 99.438c-3.794-.435-6.573-3.66-9.062-6.207-3.22-3.293-6.265-6.772-8.972-10.503-2.072-2.854-3.967-5.858-5.494-9.042-1.382-2.881-2.797-6.086-2.915-9.323-.094-2.567.66-5.18 1.447-7.647-1.598.899-3.109 1.411-4.264 1.461-4.345 3.718-10.07 8.342-16.443 13.23C15.704 82.461 3.453 90.68 2.752 89.764c-.703-.915 10.409-10.617 24.817-21.671 6.373-4.89 12.321-9.223 17.037-12.457.348-1.102 1.234-2.429 2.517-3.738-2.588.12-5.308.172-7.763-.583-3.096-.954-5.825-3.151-8.249-5.231-2.68-2.3-5.09-4.909-7.31-7.65-2.902-3.58-5.475-7.423-7.821-11.385-1.815-3.065-4.21-6.584-3.646-10.361.241-1.622.999-3.734 2.445-4.661 1.475-.946 3.599-.451 5.039.334 1.555.847 2.656 2.251 3.698 3.646 2.189 2.93 4.222 5.976 6.322 8.969 6.203 8.836 12.689 17.833 21.168 23.872.583-.347 1.155-.64 1.708-.883-.187-.193-.334-.349-.353-.37-5.522-5.637-11.421-11.181-15.891-17.729-2.621-3.841-4.318-8.157-5.6-12.606-.889-3.085-1.693-6.315-1.761-9.545-.034-1.579.305-3.548 1.098-4.928 1.234-2.145 3.954-2.883 6.147-1.776 1.994 1.007 2.967 3.239 3.834 5.17 1.537 3.424 2.389 7.118 3.619 10.655 2.077 5.978 4.062 11.993 6.083 17.992 1.416 4.2 2.944 8.377 4.237 12.619.401-.116.785-.198 1.139-.239.156-1.02.78-2.138 1.77-3.089-.004-.006-.01-.011-.016-.018-.736-.961-.625-2.283.247-2.952.874-.67 2.179-.435 2.916.525.139.18.235.374.315.572 1.296-.251 2.464.015 3.097.84.634.825.589 2.022.01 3.209.172.128.333.272.471.452.737.961.626 2.282-.248 2.953-.873.67-2.178.435-2.915-.527-.005-.006-.008-.013-.013-.019-1.175.71-2.417 1.022-3.442.908-.132.332-.31.68-.525 1.04 3.762 2.348 7.4 4.906 11.09 7.36 5.27 3.505 10.566 6.983 15.802 10.537 3.098 2.104 6.444 3.884 9.354 6.256 1.642 1.338 3.545 2.854 4 5.041.501 2.407-.916 4.842-3.308 5.478-1.539.409-3.528.226-5.045-.216-3.103-.902-6.014-2.515-8.764-4.173-3.966-2.391-7.694-5.147-10.726-8.674-5.166-6.013-8.992-13.146-13.007-19.94-.015-.024-.128-.208-.266-.437-.378.472-.811.947-1.296 1.42 3.638 9.755 10.647 18.35 17.575 26.631 2.347 2.804 4.762 5.555 7.025 8.429 1.077 1.368 2.148 2.797 2.562 4.518.386 1.594.313 3.772-.981 4.952-1.267 1.155-3.504 1.339-5.133 1.154z"/></svg>