<svg xmlns="http://www.w3.org/2000/svg" viewBox="0 0 100 100" xml:space="preserve"><path d="m52.19 84.788-3.998-4.903.357 4.761-1.774 2.903-6.252.305-2.939 2.838 3.064-1.071 4.435.347 3.708 2.015-1.532-3.144 2.822-.726z"/><path fill="none" d="m67.734 94.006.056-.07-.113-.006z"/><path d="m44.115 54.575-.645-6.369-6.772-13.786-9.312-9.392-13.101-2.725 11.323 5.79-11.037-1.768 12.587 5.032-11.123.505 11.477 2.351-10.121 2.686 11.93-.504-7.788 6.479 9.085-3.775-7.022 6.749.041.06 8.022-2.217 3.305 8.063-.121 8.908zM34.594 72.333 36 69.104l-3.038-.216.484-3.36-2.54 1.867.392-1.71-1.413 1.362-1.33 4.539 1.322 4.385 2.346 1.314-1.088-1.587 1.613-3.572z"/><path d="m67.677 74.907-10.019-7.03 12.3-5.064 7.453-22.911 8.304-1.219-8.466-3.199 7.941-1.44-8.343-2.752 8.642-2.99-9.53-.315 5.162-5.193-6.612 1.968 4.009-6.492-6.428 3.832 3.729-8.835-5.503 5.932 3.279-10.48-5.779 8.545 3.628-12.109-6.341 11.327-12.201 13.343-2.66 12.738L44.76 55.14l-8.466 5.723-2.691 2.597 3.688-2.329-1.325 3.312 5.367-2.193-3.558 4.86 5.856-.103-4.434 3.264 3.507 3.386-5.536-.959 2.754 2.274 4.838.484 3.305 2.741v.002l4.673 5.722-.022.039.025-.039 2.741 6.102-3.265.847-.887 1.855 1.774-.565 2.459-.444 2.378.928 2.377 2.102-.563-1.635-2.338-2.499-.362-1.773 1.16-1.583 1.217-6.56 2.42 5.402.039 7.537 2.836-5.99 3.063 6.291.86-5.968 3.816 6.038.806-5.125 3.977 5.66-.43-5.283 7.848 5.587h1.048L71.714 78.509z"/></svg>