<svg xmlns="http://www.w3.org/2000/svg" viewBox="0 0 100 100" xml:space="preserve"><path d="M79.776 15.284c-.376-.963-1.444-1.555-1.964-1.604-1.001-.094-1.221-3.101-1.221-3.101-1.065-4.16-1.521-.073-1.521-.073-.721 4.455-3.833 4.745-4.775 4.745-.94 0-1.232-6.771-2.101-8.943-.869-2.172-1.015 10.352-1.015 10.352-1.158 4.271-5.284 6.722-5.284 6.722.146-1.964-.651-7.084-1.664-9.111-1.015-2.027-.869-.217-.869-.217.478 3.63.628 6.142.646 7.816l-.562.218c-1.874.168-2.172-.325-2.172-.325s.435-1.557.145-3.946c-.29-2.389-.796.58-.796.58-1.448 7.167-6.845 6.732-6.845 6.732-.884-1.342-1.483-2.721-1.888-4.042-.02-.13-.033-.235-.038-.302-.029-.348-.104-.474-.185-.501-.945-3.74-.383-6.81-.383-6.81-2.535 2.726-1.32 7.662-.205 10.699.215.999.641 1.901 1.122 2.653v.206s-.003.004-1.136 1.78c-2.369-2.206-4.824-6.383-5.077-6.94-.362-.797-.435 0-.435 0-.341 2.724 1.061 5.119 2.712 6.906-1.595-.991-3.334-3.015-3.904-5.024-.986-3.475-1.112-1.445-1.112-1.445-1.304 5.647 5.391 8.526 5.391 8.526-9.529-.724-8.405-6.719-8.405-6.719.146-3.515-.677-1.52-.677-1.52-2.461 8.976 6.007 10.133 9.075 10.318.895.054.983.834.917 1.436-.477.357-.737.626-.737.626s-2.896 3.475-4.777 3.909c-1.882.434-3.981 3.835-1.448 4.849 2.534 1.014 2.462-.072 3.91.724 1.447.796 2.967.869 3.185 2.1.101.574-4.199 2.171-9.411.723-5.212-1.447-10.641-.145-12.885 2.968-.34.472-.669.962-.974 1.484-.954-.282-2.142.051-2.356 1.483-.227 1.508.238 2.225.957 2.274-.443 2.516-.135 5.779 1.649 10.395.298.771.559 1.469.786 2.107-.267 2.673-.795 6.669-1.62 7.52-1.079 1.111-.763 3.008.072 3.858-.133 1.21.547 2.114.979 4.032.652 2.896.652 9.772.652 9.772s1.954 1.52 2.895.29c0 0-.021-.086-.057-.242 1.466.608 2.26.589 3.098.241.702-.291.65-.868.65-.868-3.53-1.81-2.099-11.003-2.315-12.74-.218-1.737.072-3.185 1.592-4.271 1.226-.875 4.85-5.277 6.208-6.952 2.126.774 5.168 1.069 9.211-.432 0 0-.796 8.977.217 11.872 1.014 2.895.362 11.003-1.303 11.727 0 0 1.448 2.678 4.126.797 0 0-1.158-8.615-.289-10.424.869-1.811 1.448-7.746 1.448-8.397 0-.652.217-4.343.578-4.343.362 0 6.66-2.751 7.818-.724 1.158 2.026 4.416 17.3 4.271 18.459-.145 1.158-.145 2.605-.289 2.895-.146.29 2.823 1.882 3.619.58.797-1.303-.072-1.303-.65-2.606-.58-1.303-1.304-2.824-1.376-5.574-.072-2.751.289-4.706.289-4.706s-1.013-2.896-.868-4.85c.145-1.955.361-7.167 1.447-8.904 1.086-1.738 5.057-7.095 1.479-13.03-3.577-5.936-5.025-9.7-6.473-10.279-1.448-.58-4.127-4.488-4.055-4.923 0 0 4.778-.941 4.127-6.081 0 0 .145-1.23-1.014-.216-.969.847-3.424 3.487-5.066 3.176-.282-.053-.555-.089-.824-.117.523-.925 1.614-2.248 3.066-2.625 5.284-1.376 13.971-9.7 14.405-10.641.435-.941 5.429-3.186 5.429-3.186 2.501-.752 3.258.362 3.692 1.158.435.797 1.945.058 1.158-1.954zM24.695 72.502c.169 1.391-.112 2.146-.626 2.929.224-.956.437-1.969.626-2.929zm-.005 8.222.281-.793c.033.352.104.654.226.879.644 1.188.73 7.308.732 10.41-.594-2.854-1.485-7.742-1.239-10.496zm22.902-49.188c.272.17.511.305.696.398.347.174.25.609.091.97-.354.112-.687.237-.993.373-.031-.558.067-1.178.206-1.741zm.816 7.153c-.286.054-1.091.103-.963-.161 0 0 .044-.106.127-.264.341-.647 1.449-1.853 2.57-.934 0 0 .107.112.141.2.225.601-.93.981-1.875 1.159zm1.473-8.564c-.496.134-1.066-.038-1.669-.411l.882-1.709c.503.564.966.941 1.221 1.068.941.468-.434 1.052-.434 1.052zm9.965-5.345c-2.1 3.185-6.795 3.823-6.795 3.823-1.288-.095-2.281-.883-3.04-1.926.117.009.302.005.604-.027 4.418-.483 5.937-3.403 5.937-3.403.306.43 2.249.556 3.445-.081-.042 1.16-.151 1.614-.151 1.614z"/></svg>