<?xml version="1.0" encoding="UTF-8"?>
<svg width="1200pt" height="1200pt" version="1.1" viewBox="0 0 1200 1200" xmlns="http://www.w3.org/2000/svg">
 <path d="m902.29 312.83c-100.14 0-223.92 42.543-324.96 143.58l-22.672 22.672-22.672 98.242-22.672-45.344c-48.52 70.098-73.051 145.23-75.336 211.84l339.12-317.87 0.47266-0.47266c1.8516-1.7539 4.3086-2.8555 6.8516-3.0664 4.4727-0.30859 9.6211 2.0664 10.973 6.3438 2.0273 6.3984 0.82812 10.461-3.418 14.441l-461.46 432.64h84.547l85.488-97.062c85.668-11.406 182.87-59.824 263.08-140.04 32-31.996 60.633-64 82.188-99.188l-75.574-15.113 90.688-15.113c35.402-67.242 45.344-133.88 45.344-196.48z"/>
</svg>
