<?xml version="1.0" encoding="UTF-8"?>
<svg width="1200pt" height="1200pt" version="1.1" viewBox="0 0 1200 1200" xmlns="http://www.w3.org/2000/svg">
 <path d="m431.39 1039.4s181.82 20.398 429.09-154.92c-100.85-4.3203-192.36-17.641-199.27-34.32 42.91 20.762 133.34 21.242 224 16.441 52.738-39.773 102.45-83.332 148.73-130.32 265.58-268.8 131.76-724.8 131.76-724.8-53.562 97.605-126.69 183.36-214.91 252-37.203 28.281-76.281 54.059-116.97 77.16-27.227 42.695-47.668 89.277-60.605 138.12 8.4922-42.594 20.906-84.328 37.094-124.68-334.06 183.24-728.97 231.72-564.37 610.92-46.18-98.879-58.785-99.359-94.664-156 0 0 12.121 58.562 19.395 94.082 12.121 54.48 64.848 90.238 64.848 90.238l-235.03 172.68 20.727 28.199 232.61-174s65.941 72.961 240.61 76.441c-41.332-28.609-85.379-53.164-131.52-73.32zm280.24-436.32 304.36-208.92-22.305 19.801c-32.484 25.801-53.695 40.68-88.969 65.641-76.727 54.121-157.57 105-223.64 160.44-186.3 157.32-387.88 322.92-387.88 322.92s283.03-256.8 418.43-359.88z"/>
</svg>
