<?xml version="1.0" encoding="UTF-8"?>
<svg width="1200pt" height="1200pt" version="1.1" viewBox="0 0 1200 1200" xmlns="http://www.w3.org/2000/svg">
 <path d="m398.45 856.84c3.0391 17.316 7.1484 33.723 23.711 39.688-4.3906-66.051 11.012-122.05 77.895-160.08-1.3398 22.93 6.8008 45.867 22.113 68.801-9.4648-67.211 74.742-100.56 103.2-161.4 27.25 35.883 42.285 77.461 31.613 130.97 17.105-21.836 38.242-40.328 67.996-51.602-11.871 56.449-15.844 110.28 15.801 152.14 4.8164-22.629 22.992-38.902 56.93-47.617-8.8633 35.93 0.54297 70.402 15.227 109.27h-442.5c1.125-29.418 9.5977-56.734 28.016-80.16zm-45.152-202.67c0-39.562 30.938-71.949 69.926-74.262 1.7734-16.094 7.7539-30.93 16.824-43.383-27.914-15.535-46.816-45.336-46.816-79.523 0-50.195 40.746-90.93 90.938-90.93 9.0469 0 17.785 1.3281 26.035 3.793 14.844-20.98 38.359-35.41 65.305-38.055 25.191-24.945 59.836-40.359 98.062-40.359 59.031 0 109.54 36.77 129.83 88.648-7.3047 4.5273-13.555 10.586-18.285 17.734 10.375-8.7227 23.766-13.988 38.383-13.988 32.938 0 59.68 26.734 59.68 59.672 0 10.957-2.9609 21.23-8.1328 30.062 1.2188-1.1523 2.3828-2.3398 3.5039-3.582 24.551 16.285 40.762 44.176 40.762 75.816 0 20.527-6.8203 39.477-18.312 54.699-2.8711-10.051-8.9102-19.293-17.879-26.094-18.473-13.98-43.547-13.172-60.977 0.46484 16.754-4.332 35.238-1.2461 50.098 9.9961 9.0859 6.8789 15.605 15.91 22.207 38.016l0.53516 8.6758-0.42188 10.246c-4.6523 45.77-43.406 81.57-90.457 81.57 0-30.242-22.152-55.34-51.098-59.969 0.78516-3.5273 1.2109-7.1953 1.2109-10.965 0-27.598-22.402-49.996-49.996-49.996-14.973 0-28.41 6.5898-37.574 17.02-14.688-18.012-37.059-29.527-62.094-29.527-44.199 0-80.082 35.871-80.082 80.074 0 3.4414 0.21484 6.8242 0.62891 10.141-1.3594 0.17188-2.7227 0.3125-4.1016 0.42188-8.918-3.4375-18.617-5.3281-28.738-5.3281-34.535 0-63.992 21.898-75.227 52.555-36.02-5.1719-63.738-36.188-63.738-73.645zm185.32-87.047c12.051-8.6445 27.465-9.2422 39.809-2.8359-10.754-13.277-30.152-16.027-44.219-5.9492-12.258 8.7852-16.594 24.52-11.484 37.988 0.54297-11.238 6.0195-22.145 15.895-29.203zm167.66-95.719c-21.664-8.207-45.492-0.35938-58.371 17.629 14.848-8.875 33.457-11.125 50.879-4.5273 21.324 8.0859 35.195 27.293 37.508 48.531 7.832-25.051-5.1562-52.207-30.016-61.633zm-130.27-74.703c-27.16-1.8047-51.254 15.168-59.566 39.801 13.641-15.051 33.785-23.953 55.637-22.508 26.734 1.7734 48.902 18.617 58.766 41.707 0.23828-30.844-23.664-56.914-54.836-59z" fill-rule="evenodd"/>
</svg>
