<?xml version="1.0" encoding="UTF-8"?>
<svg width="1200pt" height="1200pt" version="1.1" viewBox="0 0 1200 1200" xmlns="http://www.w3.org/2000/svg">
 <path d="m854.27 460.17c-4.7031-8.3438-9.5625-12.379-13.957-12.379-5.2734 0-9.8672 5.8008-12.703 16.91-9.2891 36.375-27.332 81.777-55.125 81.777-2.8047 0-5.707-0.46875-8.7148-1.4453-64.625-21.113-46.32-122.36-49.055-172.05-7.0234-127.34-49.91-271.2-143.43-364.74-5.6094-5.6094-10.336-8.2461-14.062-8.2461-6.207 0-9.6211 7.332-9.6836 20.461-0.23438 51.223-21.047 158.25-142.89 341.43-119.67 179.92-239.57 413.83-146.4 631.39 56.98 133.05 192.1 206.71 327.18 206.71 0.48438 0 0.96875-0.03125 1.4531-0.03125 0.3125 0 0.62109 0.03125 0.9375 0.03125 0.29688 0 0.58984-0.042969 0.88281-0.042969 0.19141 0 0.37891 0.042969 0.57031 0.042969 1.0703 0 2.1367-0.125 3.2109-0.16016 88.113-1.6797 175.63-34.711 240.85-103.25 135.97-142.88 153.44-336.9 80.289-512.97-17.215-41.461-36.945-83.68-59.363-123.45zm-160.66 656.41c-5.5664 6.1094-11.676 11.504-18.086 16.457 12.777-33.352 11.277-71.137-2.0742-106.39-4.418-11.656-9.4766-23.539-15.223-34.715-1.207-2.3477-2.4531-3.4844-3.5781-3.4844-1.3555 0-2.5312 1.6328-3.2539 4.7578-2.3867 10.23-7.0117 23.004-14.141 23.004-0.71875 0-1.4648-0.13281-2.2344-0.40625-16.57-5.9375-11.875-34.414-12.574-48.387-1.793-35.82-12.801-76.281-36.777-102.59-1.4375-1.5859-2.6523-2.3281-3.6016-2.3281-1.5938 0-2.4688 2.0625-2.4844 5.7578-0.058593 14.406-5.3906 44.504-36.633 96.02-30.113 49.66-60.152 113.92-38.695 174.12-25.551-16.234-46.004-39.906-57.895-68.902-45.109-110.04 21.637-235.78 75.766-320.79 35.551-55.832 56.496-100.86 68.426-136.53 16.594 35.773 27.051 79.031 29.449 124.59 0.21484 4.0859 0.082031 10.098-0.0625 16.461-0.74609 33.348-2.1406 95.426 51.828 113.84 5.4844 1.8672 11.133 2.8164 16.789 2.8164 11.125 0 24.156-3.3555 36.262-14.789 1.6484 3.9453 3.2812 7.9609 4.9062 12.039 36.359 91.438 22.859 184.69-36.113 249.43z"/>
</svg>
