<svg xmlns="http://www.w3.org/2000/svg" viewBox="0 0 100.001 73.523" xml:space="preserve"><path fill="#010101" d="M98.451 18.334c-10.415 3.28-20.449 11.383-22.965 13.89-4.629-.955-12.014-1.729-10.541-4.236 1.474-2.518 3.022-3.483 5.529-3.283C69.7 20.457 51.557.191 48.085 0c-3.082 1.549-10.802 10.999-10.802 14.862-8.491 1.542-21.999 1.157-36.861 20.259 0 0-1.348 2.896.775 5.406 2.121 2.505 14.278 11.964 14.278 11.964s14.665-4.821 11-25.472c0 0 7.721 16.014-5.984 28.17 4.438 1.156 7.335 1.934 9.842 1.74 3.279 4.819 9.65 10.617 9.84 16.594 0 0 5.215-2.313 5.022-13.121-4.056-1.156-7.144-2.506-3.674-3.088 3.482-.575 13.517-.768 17.954-1.924 5.405 8.1 10.034 9.832 13.125 10.414-.968-5.594-1.934-11.381-.968-14.471-3.09.381-6.952-1.35-4.438-3.089 2.508-1.743 3.855-3.854 8.293-1.541 4.438 2.315 17.371 10.801 24.515 9.642-4.059-6.751-18.919-15.628-1.551-38.011zM13.163 38.213c-2.354 0-4.248-1.905-4.248-4.249 0-2.344 1.894-4.247 4.248-4.247 2.343 0 4.235 1.903 4.235 4.247s-1.892 4.249-4.235 4.249z"/></svg>