<svg xmlns="http://www.w3.org/2000/svg" viewBox="0 0 100 100" xml:space="preserve"><path d="m77.8 15.688-.335-1.031C78.94 9.858 74.897 5 68.979 5h-1.657c-6.704 0-11.542 6.419-9.696 12.863L63.051 36.8c.547 1.91-.887 3.813-2.874 3.813-1.651 0-2.99-1.338-2.99-2.99v-2.158c0-6.667-5.405-12.072-12.072-12.072-.232 0-1.224.063-1.44.088-12.078 1.212-21.795 12.484-21.795 25.33 0 2.636.397 5.178 1.136 7.57l9.269-7.73h9.043L27.838 59.9c-.438.365-.602.971-.408 1.508.194.536.708.897 1.279.897h17.443L46.157 95h13.638v-.002c0-1.552-1.258-2.811-2.811-2.811h-8.372V62.305h8.419v10.02h.004c1.551 0 2.808-1.257 2.808-2.808v-6.86c0-1.553-1.259-2.813-2.813-2.813h-8.419V48.651h11.656c6.032 0 10.385-5.777 8.722-11.576l-5.788-20.178c-.882-3.076 1.427-6.141 4.627-6.141 2.658 0 4.813 2.155 4.813 4.813v5.616c0 .838-.169 1.666-.496 2.437l-.432 1.018 2.288-.901c3.198-1.257 4.861-4.785 3.799-8.051zM46.151 59.844H31.748l13.423-11.193h.981v11.193z"/></svg>