<?xml version="1.0" encoding="UTF-8"?>
<svg width="1200pt" height="1200pt" version="1.1" viewBox="0 0 1200 1200" xmlns="http://www.w3.org/2000/svg">
 <path d="m1140 601.2c0-91.199-92.398-148.8-184.8-147.6 58.801-64.801 92.398-170.4 27.602-234-64.801-64.801-170.4-39.602-236.4 26.398-3.6016-87.598-55.203-186-145.2-186-91.199 0-148.8 93.602-147.6 186-64.801-58.801-170.4-92.398-234-27.602-64.801 64.801-39.602 170.4 26.398 235.2-87.598 3.6016-186 55.203-186 145.2 0 91.199 93.602 148.8 184.8 147.6-58.801 64.801-92.398 170.4-27.602 234 64.801 64.801 170.4 39.602 236.4-26.398 3.6016 87.598 55.203 186 145.2 186 91.199 0 148.8-93.602 147.6-186 64.801 58.801 170.4 92.398 234 27.602 64.801-64.801 39.602-170.4-26.398-235.2 87.598-3.6016 186-55.203 186-145.2zm-540 180c-100.8 0-181.2-81.602-181.2-181.2 0-100.8 81.602-181.2 181.2-181.2 99.602 0 181.2 80.398 181.2 181.2s-80.398 181.2-181.2 181.2z"/>
</svg>
