<?xml version="1.0" encoding="UTF-8"?>
<svg width="1200pt" height="1200pt" version="1.1" viewBox="0 0 1200 1200" xmlns="http://www.w3.org/2000/svg">
 <path d="m960 720c-147.65 0-274.46 88.922-330 216.1v-241.45c43.297 28.234 94.211 34.285 134.82 10.836 50.496-29.16 69.586-94.871 51.852-160.38 65.594-17.402 112.97-66.781 112.97-125.09 0-58.309-47.375-107.7-112.97-125.09 17.734-65.512-1.3555-131.22-51.852-160.38-50.496-29.16-116.95-12.828-164.82 35.281-47.867-48.109-114.31-64.441-164.82-35.281-50.496 29.16-69.586 94.871-51.852 160.38-65.594 17.375-112.97 66.766-112.97 125.07s47.375 107.7 112.97 125.09c-17.734 65.508 1.3555 131.22 51.852 160.38 40.609 23.445 91.523 17.398 134.82-10.836v241.45c-55.535-127.16-182.35-216.09-330-216.09h-120c0 198.83 161.17 360 360 360h240c198.83 0 360-161.17 360-360zm-480-300c0-66.277 53.723-120 120-120s120 53.723 120 120-53.723 120-120 120-120-53.723-120-120z"/>
</svg>
