<?xml version="1.0" encoding="UTF-8"?>
<svg width="1200pt" height="1200pt" version="1.1" viewBox="0 0 1200 1200" xmlns="http://www.w3.org/2000/svg">
 <path d="m1012.5 562.5v175.12c0 213.38-184.88 387.38-412.5 387.38s-412.5-174-412.5-387.38v-175.12c0.007812-12.008 5.7656-23.281 15.484-30.328 9.7188-7.0508 22.227-9.0195 33.641-5.2969l21.75 7.125c127.88 42 233.62 154.12 304.12 275.25v-211.88c-73.242-10.438-140.21-47.09-188.49-103.16-48.273-56.062-74.57-127.74-74.012-201.72v-180c-0.0625-10.051 3.918-19.707 11.039-26.801 7.1211-7.0898 16.793-11.027 26.844-10.926 10.055 0.10547 19.641 4.2383 26.617 11.477l104.25 107.62 104.25-107.62c7.3047-6.8828 16.965-10.715 27-10.715s19.695 3.832 27 10.715l104.25 107.62 104.25-107.62c6.9766-7.2383 16.562-11.371 26.617-11.477 10.051-0.10156 19.723 3.8359 26.844 10.926 7.1211 7.0938 11.102 16.75 11.039 26.801v180c0.55859 73.98-25.738 145.66-74.012 201.72-48.273 56.066-115.25 92.719-188.49 103.16v211.88c70.5-121.12 176.25-233.25 304.12-275.25l21.75-7.125c11.414-3.7227 23.922-1.7539 33.641 5.2969 9.7188 7.0469 15.477 18.32 15.484 30.328z"/>
</svg>
