<svg xmlns="http://www.w3.org/2000/svg" viewBox="0 0 100 100" xml:space="preserve"><path d="M67.438 51.178c.285 1.389.799 3.051 1.324 4.525 1.237-1.975 3.35-3.938 3.463-4.038.237-.226.625-.235.862 0 .237.226.274.589.062.838-.338.625.025 4.25.362 6.838 1.325-2.463 3.787-5.075 4.163-5.463.148-.149.375-.226.587-.174.214.049.388.198.451.411.349 1.051 1.462 4.726 2.235 7.338.589-2.949 1.576-6.426 1.627-6.625.087-.273.361-.499.611-.45.275 0 .525.188.601.45.187.688 1.649 2.812 3.163 4.852-.088-.477-.188-.964-.288-1.438-2.087-9.702.426-16.94 8.339-22.59-13.626-3-25.438 2.639-27.562 15.526zM16.396 39.727c-2.263 3.688-.55 8.933 1.4 12.757.975 1.899 2.506 4.342 3.05 6.385 1.36 5.105 3.63 6.302 2.317 11.488-1.05 4.139-1.38 9.246-4.13 12.485-.738.861-2.063 1.337-3.2 1.712-1.125.375-2.438.213-3.513.65-.625.262-1.388 1.35-1.275 1.898.15.713 1.062 1.764 1.7 1.812 2.726.2 5.488.225 8.213 0 .9-.074 1.938-.977 2.525-1.787 3.063-4.213 5.927-14.613 6.714-15.914 1.05 7.639 5.7 11.312 13.063 12.801-2.413.649-4.238 1-5.938 1.662-.701.275-1.15 1.213-1.712 1.852.75.449 1.437 1.05 2.25 1.312.736.237 1.587.124 2.387.124 9.113-.012 18.226.126 27.327-.124 3.212-.088 6.574-.688 9.574-1.8 7.312-2.713 10.64-8.576 10.787-16.076.063-2.851-.137-5.751-.549-8.601-1-1.325-2.938-3.876-4.025-5.663-.562 2.113-1.487 5.824-1.575 7.663-.013.3-.249.551-.55.588-.023 0-.051.013-.075.013-.274 0-.513-.188-.601-.449-.012-.076-1.861-6.238-2.711-8.99-1.525 1.738-3.951 4.826-3.926 6.478 0 .274-.176.524-.438.612-.275.074-.563-.025-.713-.262 0 0-.025-.127-.063-.34h-.036v-.162c-.251-1.399-.889-5.389-.889-7.976-.926 1-2.088 2.413-2.524 3.562-.088.238-.312.4-.575.4-.273 0-.486-.15-.588-.387-.176-.438-.588-1.477-1-2.738-.013.438-.025.875-.013 1.312.063 3.188.688 6.361 1.013 9.562.477 4.462-.012 8.812-1.838 12.938-.412.938-1.05 1.775-1.611 2.714 0-3.663.162-7.112-.024-10.55C64.012 59.9 58.148 52.75 48.635 48.25c-1.388-.663-2.8-1.238-4.237-1.788-6.176-2.337-9.551-7-9.801-13.688-.138-3.838-.988-7.426-3.438-10.475-1.413-1.763-3.075-3.125-5.413-3.538-.212-.038-.426-.125-.637-.226-.013-.024-.038-.062-.051-.1-.712-1.587-2.925-5.325-8.587-7.463-.712-.25-1.413.425-1.188 1.138l1.263 3.913.862 2.65c.425 1.338-1.175 2.763-1.975 3.663-.725.825-1.413 1.725-1.613 2.838-.525 2.925-2.212 4.612-4.663 5.838-1.312.649-2.613 1.312-3.925 1.975 0 0-.525.3 0 .8 1.938 1.963 4.199 2.75 6.938 2.075.75-.188 1.613-.212 2.362-.062 2.926.577 3.364 1.477 1.864 3.927zm.125-12.125c-.7 0-1.275-.575-1.275-1.275 0-.701.575-1.275 1.275-1.275s1.275.575 1.275 1.275c0 .699-.575 1.275-1.275 1.275z"/></svg>