<svg xmlns="http://www.w3.org/2000/svg" viewBox="0 0 50 50" xml:space="preserve"><path d="M12.6193 21.0986c3.4376.768 7.4988 1.4781 10.9673 1.1696-3.3424 1.1243-7.6143.6006-11.0837-.1293-2.2134-.4968-5.8475-1.5827-9.1453-2.6933 3.0977 2.1768 9.761 5.6461 9.761 5.6461-2.0703 3.8835-8.6949 2.7117-8.6949 2.7117-1.2587-.1798-1.7585.2458-1.9537.6624-.1967.4198-.0217.9121.4035 1.0967.5206.226 1.1361.1337 1.1361.1337 2.78-.9168 4.3771.5028 4.3771.5028-3.3715 1.1238-2.366 1.9519-2.366 1.9519.8716 1.001 5.2347-1.7449 5.2347-1.7449 1.597-1.0352 3.0462-.4437 3.0462-.4437.9168.6211 2.3068.3549 2.3068.3549 1.6266-.2366.7098-1.6857.7098-1.6857-.562-.9169.1183-1.9815.1183-1.9815 5.353 1.8928 11.9186-.1775 11.9186-.1775.0879 1.7802-.9021 4.1647-1.4165 5.2723-.2003.431-.6141.7267-1.0889.7493-2.8358.1352-6.7075-1.8343-7.4885-1.6866-.9031.1708-1.005 1.4008-.1797 1.8054.3845.1885.7689.2477.7689.2477 2.5139-.1478 2.9575.562 2.9575.562 0 1.0055-6.0037 1.7153-6.0037 1.7153-3.2532 0-3.8447 1.2125-3.8447 1.2125 1.4196.9168 4.8206.1479 4.8206.1479 3.4898-.8281 5.5305.8577 5.5305.8577-2.6025 1.1534-1.0647 1.7449-1.0647 1.7449 1.7449.4732 4.525-1.8336 4.525-1.8336.9464-1.4196 4.2291-2.0998 4.2291-2.0998 2.4261-.3662 3.2581-4.1334 3.5103-5.8181.063-.4206.3324-.7764.7228-.9449 1.3878-.5991 2.8353-2.9374 2.8353-2.9374-.207 2.1589.9168 3.756.9168 3.756 1.3309 2.4251 3.963 2.0702 3.963 2.0702-.7389.7725-3.8849 1.7056-6.3166 2.7692.0168-.0167.0334-.0334.0502-.0502-1.1322.4911-1.8482.9241-2.306 1.282-.2282.1813-.3237.433-.3126.679.0101.2366.1222.4655.3072.6231.0069.0059.0113.0139.0184.0197.0043.0034.0101.005.0144.0083.1297.0997.2911.1667.4803.1768 2.2644.1165 4.9867-1.69 4.9867-1.69.0077.0206.0189.0318.0269.0516.0538.1342.1152.2483.1818.3489.0224.0338.0441.0692.0678.0994.0762.0969.1592.1755.2484.2371.0271.0187.0555.0334.0837.049.0931.0516.1903.092.2945.112.0162.0031.033.0045.0494.0068.108.0157.222.0133.3397-.0004.0245-.0029.0482-.0042.0731-.0083.1296-.0211.2641-.0586.4026-.1098.0162-.0061.0328-.0129.0491-.0193 2.2053-.8614 5.3716-5.1763 5.3716-5.1763 3.3386-4.746 1.8978-8.4631-2.3986-8.512-.4541-.0051-.8899-.2133-1.17-.5707-1.0334-1.3183-3.3222-2.3627-3.3222-2.3627-.5309-.236-.8707-.7588-1.0778-1.2236-1.5271-3.4268-20.557-4.3179-20.6595-4.3364-4.9094-.0296-7.6894-2.2477-7.6894-2.2477-2.6321-1.8041-4.17.9464-4.17.9464-.9929 1.7268-4.4826.3356-5.4797 2.704-.6257 1.4862.4501 2.8391.808 3.233 3.8327 1.056 8.2703 2.2583 10.6197 2.7664zm2.2037-4.9057c0 1.5948-1.2929 2.8878-2.8877 2.8878-1.5948 0-2.8876-1.293-2.8876-2.8878 0-3.8233 5.7753-3.8182 5.7753 0zM5.3435 14.155c.3134 0 .5674.254.5674.5673 0 .3134-.254.5674-.5674.5674-.7512 0-.7501-1.1347 0-1.1347z"/><path d="M14.305 16.4563c-1.1465-1.6045-3.2685-1.8404-4.7393-.5269 1.1464 1.6045 3.2683 1.8404 4.7393.5269zm-2.3696-1.1666c.2619 0 .4742.2123.4742.4741 0 .262-.2123.4743-.4742.4743s-.4742-.2123-.4742-.4743c-.0001-.2618.2123-.4741.4742-.4741z"/></svg>