<svg xmlns="http://www.w3.org/2000/svg" viewBox="0 0 100 100" style="enable-background:new 0 0 100 100" xml:space="preserve"><path d="M80.3 67c-3.4-3.1-5.6-7.5-5.6-12.5 0-3.1-1.5-18.6-12.8-18.9-9.1 0-8.6 2.1-17.1 2.1-4.6 0-8.3-3.7-8.3-8.3 0-1.7.5-3.4 1.5-4.7 2.5-.7 4.5-2.7 5.2-5.3 10.1-.6 17.7 7.3 21.4 6.4 1.3-.3.8-.6.7-.5-1.1.3-2.9-.9-10.1-5.8-2-1.4-4-2.3-5.9-2.8 9.1.7 16.5 6.1 20 4.8 1.4-.6.9-.8.8-.7-1.2.5-3.6-.7-12.6-5.4-7.5-4-13.9-3-18.5-1.6-.1 0-.1-.1-.2-.1-1.9-1.3-3.5-.7-4.4-1.2-.8-.4-3.9-2-5.3-2.9-.5-.3-1-.6-1.6-.6-1.2 0-2.3 1.2-2.3 2.4 0 .2.5 1.5.5 1.5.7 2.3 1.7 4.3 2.9 5.9-4.1 4.1-6.6 9.9-6.6 16.3 0 5.8 2.1 11.1 5.6 15.1-3.4 3.4-8.5 8.9-9.4 9.8-1.3 1.3-1.6 4.2-.8 5.1.6.6 11.5 10.3 12.7 11.5.4.4.7.1 1-.1.3-.2.5-.8.5-.8-.5-.3-9.2-8.6-10.4-9.8-1.3-1.3-1.8-3.3 1.5-5.3 2.2-1.4 7.2-3.4 10.3-4.7 1.4 4.4 3.8 11.7 5.2 15 2.1 4.9 5.2 21.3 5.6 21.6.4.3 1.1 0 1.4 0 .3 0-3.4-18.7-4.1-19.3-1.8-1.8-1.7-12.8-.7-17.7 3 1.2 6.3 1.8 9.7 1.8 2.9 0 5.8-.5 8.4-1.4 2.5 4.9 5.7 11.2 6.2 12 .7 1.3 1.4 3.6 0 7.3-1.4 3.7-7.5 16.9-7.1 17.2.3.3 1.2 0 1.2 0S69 72.7 69.6 71.3c.8-1.6 1-2.1.4-3.1-1.7-3.1-2.4-6.4-2.3-9.7C72 65.1 77.9 68 79 70.4c1.3 3.1 3.3 21.7 3.6 22 .3.3 1.4 0 1.4 0S81.8 68.3 80.3 67z"/></svg>