<svg xmlns="http://www.w3.org/2000/svg" xmlns:xlink="http://www.w3.org/1999/xlink" version="1.1" x="0px" y="0px" viewBox="0 0 100 100" style="enable-background:new 0 0 100 100;" xml:space="preserve"><g><path d="M22.7,82.3c0.1,0.8,0.3,1.3,0.3,1.3S22.8,83.1,22.7,82.3z"></path><path d="M30.8,80.3c-0.6-1-0.7-2.1-0.7-2.1c0.3-3,0-6.1,0-6.1c0-2.1-1.3-7.7-1.3-7.7c-0.3,8.6-2.9,9-3,12.6   c-0.1,3.6,1.4,7.9,0.8,10.2c-0.9,3.7-1.1,4.6-0.7,5.6c0.4,1,0.6,2.6,0.6,2.6c-0.4,2.6,1,2.6,1,2.6c2.4,0.1,2.9-0.9,2.3-1   c-0.6-0.1-1-1.7-1-1.7c-0.3-2.4,1-11.4,1-11.4L30.8,80.3z"></path><path d="M54.9,66.4c0,0-0.1,4.1,0,8.7C55,79.7,56.7,87,56.7,87l1.9-2.7l-0.7-4.9c0,0,0.9-3,0.6-3.7c-0.3-0.7,0-4.3,0-4.3L54.9,66.4   z"></path><path d="M60.1,89.1l-1.5,2.6l0.8,4.1c0,0-0.4,1.9,0.8,1.9c1.1,0,3.9,0.8,1.6-1.9L60.1,89.1z"></path><path d="M77.2,17.1c-1.5-2.7-1.9-2.7-1.7-5.1c0.1-0.8-0.1-1.6-0.3-2.2c1.3-0.5,2.2-2.6,1.6-2.6c-0.7,0-2.2,1-2.2,1   c-0.2-0.6-0.3-1.3-0.1-2c0.3-1,0.6-2,0.9-2.7c0.4-0.2,0.6-0.5,0.6-1c0-0.6-0.5-1-1-1c-0.6,0-1,0.5-1,1c0,0.2,0.1,0.4,0.1,0.5   l-1,2.7l-2.3-0.2l-0.3-2.8c0.3-0.2,0.4-0.5,0.4-0.8c0-0.6-0.5-1-1-1c-0.6,0-1,0.5-1,1c0,0.4,0.2,0.7,0.5,0.9v3.3   c0,0-1.9,2.1-2.5,2.1S64.7,6.2,63.3,6c0,0-1.5,2.5,1.7,4.2L63.7,12c0,0-4.1,5.9-5.8,12.2c-1.6,6.3-7.4,12.4-8.3,16   c-1,3.6-15.2,7.4-20.4,9.1s-5.5,10.9-5.5,14.1c0,2.4,0,6.1,0,8c0,0-1.3,1.1-1.3,2.5c0,1.3,1.9,3,0.7,4.6c-0.8,0.9-0.6,2.7-0.3,3.8   c-0.1-0.9,0.1-2.1,1.2-3.1c2.1-1.9,1.1-6.7,1.1-6.7s-1.1-19.1,4.4-19.2c0,0-1,4.2,0.4,9.7c1.3,5.5,1.7,9.3,1.5,12.2   c-0.2,2.9-0.8,3,1.5,6.9c2.3,3.8,6.5,15.1,6.5,15.1v0.6c0,0.6,0.4,1,1,1.1c1.3,0.2,3.4,0.4,3.7-0.1c0.5-0.8-2-2.5-2-2.5   s-6.5-13.7-5.3-18.9c1.1-5.1,4-8.8,5.3-13.5c0,0,7.1,0.8,11.8-0.4c0,0,7.2,9.3,9.1,12.6c0,0,0.2,1.3-1.1,4.4   c-1.3,3-7.2,11.6-7.2,11.6s-1.3,0.8-1.3,1.3c0,0.6,1.7,2.7,2.5,2.5c0.8-0.2,0.8-2.9,0.8-2.9s8.2-11.8,10.1-14.3   c1.9-2.5-5-16.2-5-17.9c0-0.9,1.5-3.4,2.3-6.3c0.7-2.5,3-3.4-2.1-9.1c0,0,2.8-11.7,4.7-22.2l0,0c0,0,0,0,0,0   c0.1-0.8,0.3-1.6,0.4-2.3c0,0,0,0,0,0c0.4-2.4,1.9-3.8,1.9-3.8c0.2,0.1,0.4,0.2,0.7,0.4c0.7,0.5,3.2,1.1,3.2,1.1l2.7,1.4   C75.3,19.8,78.8,19.8,77.2,17.1z M35.8,52.2l-1.7,1.6c-0.2,0.2-0.4,0.2-0.6,0l-1-0.8c-0.2-0.2-0.2-0.5,0-0.7l1-1   c0.1-0.1,0.3-0.2,0.4-0.1l1.7,0.3C36,51.5,36.1,52,35.8,52.2z M63.8,14.3c0.1-0.2,1.3-0.7,1.6-0.8c0,0,0.1,0,0.1,0l0,1.4   c0,0,0,0,0,0l-1.6,1c0,0-0.1,0-0.1,0C63.7,15.5,63.8,14.5,63.8,14.3z M63.3,18.5c0,0,0.1,0,0.1,0l0.5,2.1c0,0,0,0,0,0.1l-2.1,2.1   c0,0-0.1,0-0.1,0c-0.1-0.5-0.5-2-0.5-2.4C61.2,20,62.9,18.8,63.3,18.5z M60.2,26.5c0.1,0,0.1,0,0.2,0.1l0.5,2.4c0,0,0,0.1,0,0.1   l-2,2.4c-0.1,0.1-0.2,0-0.2,0c-0.1-0.6-0.5-2.3-0.5-2.7C58.2,28.2,59.7,26.9,60.2,26.5z M50.7,41.9c0-0.1,0-0.2,0.1-0.2l1.8-2.5   c0.1-0.2,0.4-0.2,0.5-0.1l0.9,0.7c0.1,0.1,0.2,0.2,0.2,0.3v2.2c0,0.1-0.1,0.3-0.2,0.3l-2.7,1.8c-0.3,0.2-0.6,0-0.6-0.3V41.9z    M40.1,55.1l-1.3,1.1c-0.1,0.1-0.1,0.1-0.2,0l-1.1-0.4c-0.2-0.1-0.2-0.3-0.1-0.4l1.2-1c0.1,0,0.1-0.1,0.2,0l1.2,0.3   C40.2,54.7,40.3,54.9,40.1,55.1z M44.1,51.5l-0.3,0.3c-0.3,0.3-0.7,0.5-1.1,0.4l-4.4-0.8c-0.6-0.1-1-0.6-1-1.2c0-0.6,0.4-1.1,1-1.2   l2.3-0.4c0.2,0,0.4,0,0.6,0l1.4,0.5l0.9,0.3C44.3,49.9,44.6,50.8,44.1,51.5z M44.3,46l0.6-0.5c0.1-0.1,0.2-0.1,0.3-0.2l0.7-0.3   c0.4-0.2,0.9,0.1,0.9,0.6v1.2c0,0.4-0.4,0.7-0.8,0.6l-1.5-0.4C44,47,43.9,46.3,44.3,46z M48.6,52.8l-1.1,0.5c-0.4,0.2-0.8,0-1-0.3   L46,52.1c-0.2-0.3-0.1-0.7,0.1-0.9l0.4-0.4c0.3-0.3,0.7-0.4,1.1-0.2l1.2,0.8c0.2,0.1,0.4,0.4,0.4,0.7C49,52.3,48.9,52.6,48.6,52.8z    M55.4,48.7l-2.9,2.5c-0.3,0.3-0.8,0.4-1.3,0.2l-1.6-0.8c-0.4-0.2-0.7-0.6-0.6-1.1l0-0.7c0-0.5,0.4-1,0.9-1.1l1.8-0.4   c0.1,0,0.3-0.1,0.4-0.1l1.6-1c0.6-0.3,1.3-0.2,1.6,0.4l0.3,0.6C55.9,47.7,55.8,48.3,55.4,48.7z M55.1,38.4l-0.6-0.5   c-0.2-0.2-0.3-0.4-0.3-0.7v-1.2c0-0.1,0-0.3,0.1-0.4l0.7-1.4c0.3-0.6,1.1-0.7,1.5-0.1c0.2,0.2,0.4,0.4,0.7,0.4h0   c0.4,0,0.8,0.3,0.9,0.7l0.2,1.2c0.1,0.3-0.1,0.7-0.4,0.9l-1.7,1.2C55.8,38.7,55.4,38.7,55.1,38.4z M59.5,41.9c0,0.1,0,0.2-0.1,0.2   l-1.8,1.7C57.4,44,57,43.9,57,43.6v-2.5c0-0.1,0.1-0.2,0.1-0.3l1.8-1.3c0.2-0.2,0.5,0,0.5,0.3V41.9z M62.7,34.7l-1,2.2   c0,0.1-0.1,0.1-0.2,0L60.8,36c0,0,0,0,0,0v-2.4c0,0,0,0,0,0l1.1-1.1c0.1-0.1,0.2,0,0.2,0L62.7,34.7C62.7,34.7,62.7,34.7,62.7,34.7z    M64.2,26l-0.9,1.9c0,0.1-0.1,0.1-0.1,0c-0.4-0.3-1.7-1.3-1.7-1.8c0-0.5,1.9-2.1,2.5-2.6c0.1-0.1,0.2,0,0.2,0.1L64.2,26   C64.2,25.9,64.2,26,64.2,26z M69.1,12.5c0,0-0.4-0.1,0.7-0.5c1-0.4,1.7,0.5,1.7,0.5C69.9,13.5,69.1,12.5,69.1,12.5z"></path></g></svg>