<svg xmlns="http://www.w3.org/2000/svg" viewBox="0 0 100 100" xml:space="preserve"><path d="m41.98 66.739-10.773 9.133 1.154 18.409H28.52l-3.951-21.992 6.66-5.647 10.751.097zM95 30.729c-.001-1.626-.648-3.184-1.797-4.334l-7.106-7.106c-1.456-1.456-3.415-2.287-5.467-2.339l-8.22-8.22c-1.933-1.933-4.556-3.02-7.29-3.02h-8.028l7.198 2.843c1.756.694 3.288 1.856 4.429 3.361l3.809 5.025h-8.467l1.448 2.139c1.476 2.18 3.938 3.486 6.57 3.486h.419L63.874 36.71H25.653c-4.206 0-8.232 1.708-11.154 4.733l-.127.132L5 36.835v2.517c0 1.472.446 2.91 1.281 4.124l3.21 4.67 2.541 12.389-2.812 4.219 4.026 29.536h3.842l-.006-18.416 13.382-11.346 25.16.226v29.53l3.713-.003 1.918-20.492 8.691-8.662c5.295-5.277 8.856-12.044 10.207-19.396l2.19-11.914h3.516l3.516 7.031h2.812v-7.045c1.576-.138 2.815-1.46 2.813-3.074zM65.781 72.254l4.784 22.029h3.842l-4.381-26.259-4.245 4.23z"/></svg>