<svg xmlns="http://www.w3.org/2000/svg" xml:space="preserve" style="shape-rendering:geometricPrecision;text-rendering:geometricPrecision;image-rendering:optimizeQuality" viewBox="0 0 743 762" fill-rule="evenodd" clip-rule="evenodd"><path d="M565 59c-14 52-18 110-21 168-1 13 0 23 0 37 0 41-21 60-59 61-17 0-33-2-50-1-42 2-87 14-133 31-18 6-33 10-51 15-71 18-141 37-207 59-15 5-17 5 0 8 11 3 24 5 38 6 11 0 14-1 2 3-21 9-40 19-57 31-9 6-9 5 1 4 25-5 50-8 75-9 15-1 13-2 0 4-30 13-61 26-90 41-9 5-22 9-3 15 4 1 9 2 15 2 9 1 15 0 24 0 32-2 63 3 94 12 15 4 27 9 41 14 51 18 103 27 153 26-7 9-10 19-6 30-2 25-6 47-15 64-3 4-3 10-8 10-4 0-15 6-19 13-2 5-2 8 1 4 9-7 19-3 21 3 1 3-1 12-1 16s1 7 1 10c1 4 1 4 3 7 3 4 5 7 8 10 2 3 2 3 6 5 6 3 12 4 19 4 21 1 39-2 51-7 5-1 12-5 3-8-7-3-23-3-42-2-20-3-27-14-25-30 1-6 2-7 5-12 2-4 3-9 4-15 0-4 0-6 1-9l13-59c10-6 15-15 16-27 0-7 0-5 8-5l36-1c4 0 3 0 2 3-4 12 0 22 9 31l13 66c1 4 2 7 2 11 0 5 0 9-1 13-8 6-11 12-9 18 2 8 3 4 5 0 5-7 11-9 19-1 6 6 3 5 11 7 31 5 64 4 99-3 2-1 4-1 2-4-1-3-7-4-16-5-23 0-44-1-62-4-11-2-8-3-14-13l-7-15c-5-9-7-13-9-23-5-20-8-39-9-57 7-7 7-16 0-25-3-4-4-3 2-4 88-22 146-77 174-166 4-13 7-26 10-39 9-49 3-90-16-124-4-9-4-8-5-18-2-42 0-84 4-126 3-15 17-23 37-27 6-1 9-1 14-1 7 0 15 0 22-1 4-1 8-1 13-1l25-1c4-1 12 1 11-4s-5-8-11-11c-4-1-7-2-11-4-12-7-22-14-32-21-8-7-8-8-14-16-28-35-78-27-102 16-4 8-6 13-8 21z"/></svg>