<svg xmlns="http://www.w3.org/2000/svg" viewBox="0 0 100 100"><path style="opacity:1;fill-rule:evenodd;stroke:none;stroke-width:1px;stroke-linecap:butt;stroke-linejoin:miter;stroke-opacity:1" d="M10.866862 979.40321a.92143615.92143615 0 0 0-.18427.014.92143615.92143615 0 0 0-.7342162 1.0999c.6431562 3.2139 1.9047122 6.2586 3.6954742 8.9774-2.654985-1.3487-5.0429302-3.1869-7.0223832-5.4388a.92143615.92143615 0 0 0-1.298521-.1023.92143615.92143615 0 0 0-.08492 1.3187c2.868239 3.263 6.5279442 5.7264 10.6213732 7.1707-6.0658332 13.24489 6.330818 20.59259 11.699639 19.41439 2.666375-2.4243 2.362859-5.6086 1.975113-8.8147 2.523203 2.5586 5.118665 4.7084 7.752241 6.5012l-3.257815 8.3411-1.455435 3.7257h-2.872141c-2.041702 0-3.685372 1.6437-3.685372 3.6854h9.075377l2.371026-6.0723 3.005881-7.699c2.174724 1.2359 4.36546 2.2448 6.55738 3.0477l-1.760635 4.5102-2.437244 6.2393H54.779061c0-2.0417-1.643677-3.6854-3.685377-3.6854h-2.870643l.47362-1.2122 1.848454-4.7348c10.482492 2.8343 20.732805 1.2793 28.822228-1.9463l-2.441561 11.5787h4.540501v-3.6854h.0014v3.6854h6.55452c0-2.0417-1.643678-3.6854-3.685377-3.6854h-2.866243l2.064389-9.7936c5.69386-2.9432 9.839827-6.6112 11.464975-9.6914-2.800841-.1411-5.939522-.3607-9.28686-.6392l3.856687-18.29449a1.8428723 1.8428723 0 0 0-1.811015-2.2485 1.8428723 1.8428723 0 0 0-1.115691.3886c-.07002.049-8.25141 5.787-16.589957 11.5514-3.048904 2.1076-5.976396 4.1144-8.659189 5.9398-14.928869-1.9715-30.893385-4.647-44.182768-7.7048a.92165043.92165043 0 0 0-.05328-.068c-2.728005-3.1035-4.592026-6.8691-5.402846-10.9208a.92143615.92143615 0 0 0-.888213-.7529zm73.409519 11.059-2.26161 10.72649c-1.204417-.1115-2.467228-.2416-3.71993-.3686l.0044.01-9.957709 10.5277 9.070918-11.84499h.0014l6.862578-9.0493zm-65.287294 9.3027c1.015951-.061 1.969203.59809 2.242885 1.61959.312773 1.1673-.380226 2.3663-1.547568 2.6791-1.167319.3127-2.367731-.3789-2.680528-1.5462-.312773-1.1673.38025-2.3677 1.547568-2.68049.145921-.039.292511-.063.437643-.072z" transform="translate(0 -952.36216)"/></svg>