<svg xmlns="http://www.w3.org/2000/svg" xml:space="preserve" style="shape-rendering:geometricPrecision;text-rendering:geometricPrecision;image-rendering:optimizeQuality" viewBox="0 0 846.66 846.66" fill-rule="evenodd" clip-rule="evenodd"><path d="M607.14 382.13c-11.55 2.66-28 2.66-45.47.08 34.75-8.18 66.65-28.43 87.85-38.52-13.74 5.3-35.46 7.65-57.94 6.15 49.98-9.87 86.31-59.58 109.55-83.04-14.98 12.99-45.4 25.84-75.31 30.58 36.14-18.37 68.6-48.96 87.36-67.89-9.51 8.27-36.07 18.45-48.38 17.07 31.29-19.38 60.64-44.4 77.68-61.59-7.16 6.2-27.79 15.42-35.6 11.41 30.88-19.42 69.44-146.3 86.3-163.35-108.21 125.7-206.94 154.62-389.31 174.47-58.3 6.35-111.69-48.81-130.18 55.32-9.42 52.98-.34 77.83-16.43 104.57-31.16-1.61-60.04-8.78-69.8-31.5-15.22-35.47 22.59-89.04 40.63-113.12 26.82-35.78 95.35-92.53 20.44-142.92-39.44-26.53-106.89-27.01-145.62 53.97-16.47 96.27-32.95 192.54-49.42 288.81 30.48-67.88 60.97-135.76 91.45-203.64 65.31-49 16.08 60.09-2.85 98.62-76.86 156.51-2.49 224.71 117.05 279.04 56.79 25.76 30.57 168.91 27.44 216.97h39.52c-4.01-63.3-6.23-117.1 4.26-180.14 3.81-22.91 70.8-25.1 98.94-26.02 17.77-.54 51.53-27.37 67.89-37.68-88.55-18.94-58.5-72.22-77.61-124.54 17.82-12.32 37.96-28.02 60.82-39.09 46.44 9.35 97.1-14.87 126.74-24.02zM164.5 430.22c40.01 0 110.29 106.73 97.23 106.73-85.62 0-115.88-106.73-97.23-106.73z"/></svg>