<svg xmlns="http://www.w3.org/2000/svg" viewBox="0 0 100 100" style="enable-background:new 0 0 100 100" xml:space="preserve"><path d="M98.8 43.7c-.7-1.8-.8-2.9-1.5-7s-4.6-6.8-4.6-6.8c-.3-.4-.6-.7-.9-1-6.3-6.1-17.5-11.9-30.2-8.6-12.7 3.4-24.2 4.1-30.9 5.4s-8.6-.4-10.4 2.2c-.5.8-2.8 1.9-5.2 3-2.4 1.1-1.5 3.4-1.5 3.4-.7.9-8.4 6-10.4 6.9-2 .9-2.2 2.2-2.2 2.2.6 8.5 5 11.2 9.5 11.7 3.6-1.7 3.2-4.8 3.3-7.9.2-3.6 5.2-7.6 5.2-7.6-4.5 5.6-3.9 8-3.9 8 .1 4.2-.9 6.4-1.9 7.5 4.3-.3 8.1-2 8.2-2 4.1 6 9 5 9 5l.1.1c6.4-5.9 4.6-16.2 4.6-16.2 2.4 9.8-.6 15.2-2.9 17.7 2.4 2 3.5 2 3.5 2 .6.4 1.3.7 1.9 1.1.3.9.6 2.1.8 3.4 0 0-.8 6.3-2.3 8.8 0 0-3.4.6-3.4 3.2 0 0-.2 1.2 2.2.5v1.1s4.2.7 6.7.6c1.2-.1 2.1-.9 2.4-2 .7-2.4 2-7.2 2.8-11.7.2-.9.4-2 .7-2.7.4-1.3 2.1-3.2 2.1-3.2-1.1 2.9-1.4 5.1-1.5 6.3 14 3.5 25.2-.9 28.6-2.5 6.3-5 7.8-10.5 7.8-10.5.1 4.6-3 8.8-5.6 11.4 2.3 2.3 4.6 3.3 4.9 7.2.4 4.7-5.2 4.3-3.2 6.7 2 2.4 6.9 1.3 8 .9 1.1-.4 1.5-1.5 1.5-1.5.2-1.7 1.9-7.3 1.5-9.7-.4-2.4 0-6 0-6 2.9-5.3 4.7-15.9 3.8-24.3.6 1.2 1.1 2.6.9 3.9-.4 3.2-.3 3.3.6 4.3 1.1 1 2.7-1.5 1.9-3.3zm-94.6.4c-.4.6-1.1 1.5-1.6 1.2-.7-.6.1-2.5.8-2.6.2 0 .4 0 .5.1.5.3.5.9.3 1.3zM16 34.5s-.1-1.2.6-1.7 1.6.3 1.8 1.3c-.1 0-1 1-2.4.4zm8.9-3.6c-.4 0-2.4-.7-2.4-.7s-.7-2.5 0-2.1c.7.3 2.8 2.8 2.4 2.8zM20.4 26.3s-2.4-1.2-2.7-1 .6 2.7.6 2.7 1.6-.8 2.1-1.7z"/><path d="m37.1 66.4-.5-2-2.6-1.6-4.8-3.4s1.8 9.1 1.5 10.1c-.4 1-1.5 1.2-2.7 2-1.2.7 0 1.8 0 1.8 3.8 1.2 7.6 0 7.6 0l1.5-6.9zM69 68.6l.1 3s.4.8-1.2 1.3-1.3 1.4-1.3 1.4c.7 1.7 6.5.9 7.3.7.8-.2 3.1-5.5 3.1-6.4 0-.9-.6-2-.6-2-2.6 1.4-7.4 2-7.4 2z"/></svg>