<?xml version="1.0" encoding="UTF-8"?>
<svg width="1200pt" height="1200pt" version="1.1" viewBox="0 0 1200 1200" xmlns="http://www.w3.org/2000/svg">
 <g>
  <path d="m137.2 610.6c4.1992 0 8.3984-1.1992 12-4l298.4-220.4 298.4 220.4c9 6.6016 21.398 4.8008 28-4.1992 35.398-47.801 25.199-115.4-22.602-150.8l-239.8-177c-38.199-28.398-89.602-28.398-128 0l-239.8 177c-47.801 35.398-58 103-22.602 150.8 3.8008 5.3984 10 8.1992 16 8.1992z"/>
  <path d="m715.4 946.8c11 0 20-9 20-20v-280.8c-4.6016-1.6016-9-4.1992-13-7.1992l-274.8-202.8-274.6 202.8c-4 3-8.3984 5.6016-13.199 7.3984v280.6c0 11 9 20 20 20h180.4v-177.4c0-11 9-20 20-20h134.8c11 0 20 9 20 20v177.4z"/>
  <path d="m609.6 253.4c-11 0-20 9-20 20v9l132 97.398v-106.4c0-11-9-20-20-20z"/>
  <path d="m958.4 810.8v116c0 11 9 20 20 20s20-9 20-20v-116c61.602-5.8008 101.6-42.199 101.6-172.4 0-106.2-36.199-373.4-121.6-373.4-85.398 0-121.6 267.2-121.6 373.4 0.003906 130.2 39.805 166.6 101.6 172.4z"/>
 </g>
</svg>
