<svg xmlns="http://www.w3.org/2000/svg" viewBox="0 0 12.7 12.7"><path d="M11.694618 287.86579a.22585056.22585056 0 0 0-.06674.009 9.7021963 9.7021963 0 0 0-4.7476111 3.13701.06390023.06390023 0 0 1-.098419-.0809 9.829599 9.829599 0 0 1 .7928805-.85395 28.10964 28.10964 0 0 0-3.082137-.10462 1.4629893 1.4629893 0 0 0-1.3719845 1.04734.35325354.35325354 0 0 1-.1939709.22226 8.7209725 8.7209725 0 0 0-2.39335046 1.59254.01236456.01236456 0 0 0-.002896.003.01236456.01236456 0 0 0 0 .0107.01236456.01236456 0 0 0 .0191104.004 6.0968516 6.0968516 0 0 1 2.80164786-1.25773.35325354.35325354 0 0 1 .2137473.0305 4.605785 4.605785 0 0 0 1.9697648.46601.64280554.64280554 0 0 1 .2567458.056 4.5637849 4.5637849 0 0 1 1.419471 1.00156.80495476.80495476 0 0 0 .4354574.23355 17.381204 17.381204 0 0 0 1.6621157.22394.35325354.35325354 0 0 1 .3229084.37213 9.5499557 9.5499557 0 0 0 .014188 1.29279.92502754.92502754 0 0 0 .3811948.69224.11667197.11667197 0 0 0 .148714.0153 5.0122006 5.0122006 0 0 1-.4105555-1.22156.06370145.06370145 0 1 1 .1249707-.0243 4.8847977 4.8847977 0 0 0 .4128428 1.21588.15056705.15056705 0 0 1 .02316.007.38218477.38218477 0 0 0 .29462-.008 4.0386773 4.0386773 0 0 1-.458072-1.36067.06370146.06370146 0 0 1 .12555-.0188 3.9112744 3.9112744 0 0 0 .470522 1.36521.15056705.15056705 0 0 1 .01969.008.28102732.28102732 0 0 0 .363619-.0814.15056705.15056705 0 0 1 .01651-.0197 5.9636365 5.9636365 0 0 0-.678073-1.33521.0639963.0639963 0 0 1 .106294-.0713 6.0910394 6.0910394 0 0 1 .692783 1.36463.15056705.15056705 0 0 1 .02143.004.19656094.19656094 0 0 0 .236391-.13235.15056705.15056705 0 0 1 .01071-.0243 24.36897 24.36897 0 0 0-.787784-1.31656.06383752.06383752 0 0 1 .107424-.069 24.496374 24.496374 0 0 1 .783267 1.30695.15056705.15056705 0 0 1 .02027-.003.2890185.2890185 0 0 0 .256195-.20417 56.714649 56.714649 0 0 0-1.021337-1.33975.06403683.06403683 0 0 1 .100649-.0792 56.842052 56.842052 0 0 1 1.020236 1.33918.15056705.15056705 0 0 1 .01129 0 .16928226.16928226 0 0 0 .07523-.29239 10.110977 10.110977 0 0 1-2.2044461-3.11323 30.455804 30.455804 0 0 1-.3020028.43658.64280554.64280554 0 0 1-.9947561.0701 4.9306668 4.9306668 0 0 0-.9455612-.7861.06370145.06370145 0 0 1 .067842-.10688 5.05807 5.05807 0 0 1 .9704627.80588h-.00666a.51540267.51540267 0 0 0 .7973974-.056 30.328401 30.328401 0 0 0 2.3989681-4.0458.22585056.22585056 0 0 0-.200197-.32575zm-7.5159028 3.08553a.16973678.16973678 0 0 1 .1747447.16968.16973678.16973678 0 0 1-.3393261 0 .16973678.16973678 0 0 1 .1645814-.16968z" transform="translate(0 -284.29998)"/><path d="M6.9300262 289.89907a15.730669 15.730669 0 0 1 3.9538498-4.52648.34167147.34167147 0 0 1 .550139.29362 8.1570523 8.1570523 0 0 1-.504942 2.31004 9.8295991 9.8295991 0 0 0-3.2236856 1.98435 28.237042 28.237042 0 0 0-.7753612-.0615z" transform="translate(0 -284.29998)"/></svg>