<?xml version="1.0" encoding="UTF-8"?>
<svg width="1200pt" height="1200pt" version="1.1" viewBox="0 0 1200 1200" xmlns="http://www.w3.org/2000/svg">
 <path d="m150 100c-15.906 0-30.863 7.5664-40.285 20.383-9.4219 12.816-12.184 29.348-7.4375 44.531l125 400c6.5234 20.875 25.855 35.086 47.723 35.086 21.871 0 41.203-14.211 47.723-35.086l60.66-194.11 67.199 436.8c3.7539 24.391 24.738 42.395 49.418 42.395s45.664-18.004 49.422-42.395l68.547-445.58 34.598 103.79c6.8047 20.414 25.914 34.188 47.434 34.188s40.629-13.773 47.434-34.188l32.438-97.305 95.605 688.37c3.4336 24.723 24.57 43.121 49.523 43.121s46.09-18.398 49.523-43.121l125-900c1.9922-14.324-2.3203-28.805-11.812-39.711-9.4961-10.906-23.25-17.168-37.711-17.168z"/>
</svg>
