<svg xmlns="http://www.w3.org/2000/svg" viewBox="0 0 100 100" xml:space="preserve"><path d="M49 4.89c-15.72 0-28.56 12.34-28.92 26.77-.08 3.23 2.18 5.82 4.91 6.57 1.03 2.24 3.19 3.63 5.3 4.97 2.55 1.61 4.75 3 4.69 5.57-.04 1.71-.8 2.83-1.76 4.26-.99 1.48-2.11 3.15-2.68 5.81-.73 3.39 1.23 6.2 3.13 8.91 1.26 1.81 2.57 3.68 3.05 5.68.49 2.09-.46 3.59-1.56 5.34-1.62 2.55-3.45 5.45-.08 10.12.19.28.5.42.81.42.2 0 .41-.06.59-.19.44-.32.54-.95.22-1.4-2.58-3.57-1.38-5.47.15-7.89 1.17-1.85 2.5-3.95 1.81-6.86-.56-2.38-1.98-4.4-3.35-6.37-1.81-2.57-3.37-4.8-2.82-7.34.49-2.28 1.46-3.72 2.39-5.11 1.05-1.57 2.05-3.04 2.1-5.33.08-3.7-2.95-5.62-5.62-7.31-1.52-.97-2.97-1.89-3.91-3.06 1.56-.12 2.95-.7 4.01-1.67 1.21.92 2.64 1.49 4.15 1.65.67 3.06 2.62 4.53 4.37 5.82 1.74 1.29 3.11 2.3 3.31 4.69.27 3.15-.96 4.78-2.26 6.51-1.1 1.46-2.24 2.97-2.37 5.3-.21 3.58 1.44 5.64 2.9 7.46 1.33 1.66 2.59 3.23 2.59 5.98 0 4.35-2.1 6.33-3.96 8.08l-.49.46c-.4.38-.41 1.02-.03 1.42.2.2.46.3.72.3.25 0 .5-.09.7-.28l.47-.45c1.94-1.82 4.59-4.32 4.59-9.53 0-3.45-1.61-5.46-3.03-7.23-1.41-1.76-2.63-3.28-2.47-6.1.1-1.72.97-2.87 1.98-4.21 1.4-1.86 2.99-3.97 2.66-7.88-.28-3.29-2.32-4.8-4.12-6.13-1.51-1.11-2.94-2.17-3.53-4.25 1.72-.23 3.31-.99 4.58-2.17 1.43 1.16 3.14 1.89 4.96 2.15.14 3.55 1.31 5.12 2.36 6.67.95 1.4 1.77 2.61 1.82 5.15.06 2.63-.91 4.85-1.84 6.99-.86 1.97-1.68 3.83-1.68 5.9 0 4.39 1.33 6.48 2.62 8.49 1.18 1.86 2.3 3.62 2.26 7.45-.03 3.23-1.27 4.82-2.47 6.36-1.65 2.12-3.37 4.31-.77 9.78.18.36.53.57.91.57.14 0 .29-.03.43-.09.5-.24.71-.84.47-1.33-2.07-4.36-1.03-5.69.54-7.7 1.27-1.63 2.85-3.66 2.89-7.56.05-4.43-1.29-6.52-2.58-8.55-1.18-1.85-2.3-3.6-2.3-7.41 0-1.64.73-3.31 1.51-5.08.97-2.23 2.08-4.73 2.01-7.8-.07-3.14-1.13-4.66-2.16-6.18-.97-1.42-1.87-2.7-2.02-5.58 2.26-.12 4.37-.95 6.08-2.41 1.2 1.2 2.72 1.99 4.37 2.29-.39 1.86-1.07 2.83-1.78 3.85-.95 1.35-1.93 2.75-2.22 5.91-.29 3.18 1.05 5.16 2.24 6.9 1.14 1.68 2.13 3.13 1.9 5.6-.2 2.22-1.1 3.94-1.96 5.6-1.24 2.37-2.52 4.82-1.71 8.51.1.47.52.79.98.79.07 0 .14-.01.21-.02.54-.12.88-.66.76-1.2-.65-2.98.36-4.91 1.53-7.16.91-1.74 1.94-3.72 2.18-6.34.29-3.18-1.05-5.16-2.24-6.9-1.14-1.68-2.12-3.13-1.9-5.6.24-2.62 1-3.7 1.87-4.94.8-1.14 1.69-2.43 2.15-4.87 1.72-.11 3.35-.73 4.7-1.8 1.01 1 2.3 1.59 3.77 1.76-.91 1.21-2.15 2.12-3.36 3.01-2.17 1.6-4.43 3.26-4.21 6.46.13 2.01 1.25 3.69 2.32 5.32 1.35 2.04 2.62 3.97 2.13 6.54-.3 1.6-1.32 3.04-2.41 4.57-1.77 2.5-3.78 5.33-3.44 9.73.15 1.83.83 3.14 1.43 4.3 1.13 2.17 2.1 4.05-.88 9.48-.26.48-.09 1.09.4 1.36.15.08.32.12.48.12.35 0 .69-.19.88-.52 3.49-6.37 2.17-8.91.89-11.37-.56-1.08-1.09-2.1-1.2-3.52-.29-3.68 1.42-6.09 3.08-8.43 1.15-1.63 2.35-3.32 2.74-5.34.64-3.37-.99-5.84-2.43-8.02-.98-1.48-1.9-2.87-2-4.36-.13-2 1.21-3.09 3.41-4.71 1.64-1.21 3.48-2.58 4.6-4.74 3.38-.61 5.5-3.92 5.38-6.5C77.19 16.54 64.72 4.89 49 4.89z"/></svg>