<svg xmlns="http://www.w3.org/2000/svg" viewBox="0 0 50 50" xml:space="preserve"><path d="M33.2593 42.4447c-.5645.2307-1.2424.9446-1.1116 1.3687.0952-.3816.5947-.5551.9792-.6445.1423-.0341.258-.0491.422-.0759.0082-.0013.016-.0073.0242-.0091 1.0294-.1147 4.2916-.595 5.0891-2.1481 0 0 .6891-.1133 1.1467-.6746.4792.1005 1.3865.1973 1.4974.8578.1723-.5149-.3416-1.0648-.7624-1.4045-.1179-.0978-.2596-.1936-.3803-.2753.0389-.221.0555-.4641.0186-.7535 0 0-.32-3 .08-5.13h-2.13c.21 1.59.23 4.66-2.23 6.18 0 0-3.1056.1158-4.2063.499-.3799-.144-1.0265.0919-1.48.3143-.3564.1685-.7399.4834-.7642.8767.3983-.6481 1.4337-.3106 1.931-.2369.0228.0388.0503.0697.0895.0768 0 0-.2.0739-.3816.1939-.5148-.0608-1.4434.5831-1.3976 1.0775.1424-.3398.5815-.3999.9482-.3968.3138.0004.3928.0575.5388.0013.0193-.0074.033-.0218.0502-.0319.4872.0161 1.4988.0169 2.4221-.1939 0 0-.2527.2294-.393.529zM23.6322 37.2657s3.28-1.92 4.5-3.21l-.09-.05c-.57-.32-1.55-.4301-1.88-.45l-.22-.01-.03-.02c-.35.45-1.06 1.04-2.46 1.71 0 0-2.9 1.13-3.27 2.18 0 0-5.2307-.3787-6.1996.6899-.2654.0275-.6078.1273-1.0522.3453-.3564.1685-.7399.4834-.7642.8767.2025-.3295.5629-.3849.8912-.3894.1686.0005.3376.017.5054.0445.4338.0681.5308.164.7448.1177.0556-.012.1052-.037.1517-.067.22-.0233.4731-.0866.753-.2378 0 0 2.54-.18 2.98 0 0 0-.8455.5415-1.8666.6849-.0903-.046-.1973-.0577-.2993-.0184l-.0086.0034c-.5056.1945-1.2624.5443-1.2125 1.0831.1735-.4138.7442-.4057 1.1335-.3894.0013.0065.0034.0165.0034.0165s.0552-.0039.1469-.0118c.0908.0029.1669.0031.2031-.0108.0057-.0022.0093-.007.0148-.0094.9525-.0942 3.5609-.4244 5.3396-1.311.0383.0484.0869.0919.1595.1198.1459.0562.2249-.0009.5387-.0013.3668-.0031.8058.057.9482.3968.0259-.2803-.2102-.5448-.4434-.7028-.1197-.0837-.2468-.1555-.3774-.2184-.0531-.0264-.145-.0644-.23-.0985.3604-.3963.9599-.9898 1.39-1.0626zM48.9323 20.4157c.77-5.76-5.34-10.3-5.34-10.3-6.54-5.43-14.34-3.65-14.34-3.65-4.94.42-10.09 3.76-12.67 5.67-.75.55-1.46 1.15-2.1 1.8101-1.78 1.85-4.2 1.75-4.2 1.75-4.72.68-4.86 4.16-4.86 4.16-.09.97-.48 2.42-.76 3.37h.11l.3.29c.03.01.06.01.1.01.16 0 .41-.08.8-.41l.75-.64.65.73c.25.3.58.89.61 1.63 1.41-.9 2.27-.65 2.27-.65.5699.59 2.29.8 2.29.8 2.46 0 3.38 1.07 3.38 1.07 1.87 1.63 5.7 2.55 9.26 3.08.17 1.08.56 3.1801 1.03 3.42 0 0 1.41.07 2.32.58 0 0 1.24-.6899 1.46-3.49 1.79.13 3 .15 3 .15 4.16-.21 4.96 2.76 4.96 2.76h2.58l1.34-3.41c6.91-2.9701 7.06-8.7301 7.06-8.7301zM8.3495 21.9351c-.3614 0-.6546-.2931-.6546-.6546 0-.3616.2932-.6547.6546-.6547.3616 0 .6548.2931.6548.6547 0 .3615-.2933.6546-.6548.6546zm34.9007-6.5296c-1.1411-.1993-2.314-.6516-3.7278 0 .5921-1.0145 2.5525-1.1788 3.7278 0zM40.4797 10.54c-1.1411-.1993-2.314-.6516-3.7278 0 .5848-1.0021 2.5379-1.1934 3.7278 0zm-4.7821 2.1009c.9453-.4202 2.205-.0626 2.9182.6531-.4026-.0704-1.2921-.3168-1.8958-.329-.6114-.0339-1.2106.0426-1.8321.329.1774-.3041.4832-.5139.8097-.6531zm2.1905 3.407c-1.1411-.1995-2.314-.6516-3.7278 0 .5755-.9863 2.5294-1.2025 3.7278 0zm-2.6967-4.5813c-1.1411-.1995-2.314-.6516-3.7278 0 .6968-1.1943 2.7642-.9665 3.7278 0zm-5.9417 7.385c-1.321-.231-2.3677-.627-3.7278 0 .6984-1.1975 2.7692-.9619 3.7278 0zm-7.201-2.8037c.5737-.9834 2.5092-1.2228 3.7278 0-1.141-.1994-2.3141-.6516-3.7278 0zm5.1228.4149c.5982-1.025 2.5663-1.1655 3.7278 0-1.141-.1994-2.3139-.6516-3.7278 0zm2.9435-2.1375c.5738-.9833 2.5086-1.2229 3.7278 0-.3429-.0599-.6547-.1491-.9695-.2087-.9548-.1413-1.7375-.2617-2.7583.2087zm.6425-4.4955c-1.1411-.1995-2.314-.6516-3.7278 0 .5835-.9997 2.5356-1.1964 3.7278 0zm-1.0679 2.3711c-1.3329-.2327-2.3702-.6257-3.7278 0 .5848-1.0021 2.5379-1.1934 3.7278 0zm-.5685 1.6792c-1.321-.2309-2.3677-.6269-3.7278 0 .609-1.044 2.5757-1.1561 3.7278 0zm-7.873-.9462c.9427-.419 2.2034-.0642 2.9182.6531-1.1411-.1993-2.314-.6516-3.7278 0 .1774-.304.4832-.5138.8096-.6531zm.0272 5.0878c-1.3209-.2307-2.3677-.6269-3.7278 0 .5847-1.0021 2.5384-1.1936 3.7278 0zm-3.4827 4.3256c.5865-1.0049 2.5422-1.1898 3.7278 0-1.141-.1993-2.3139-.6516-3.7278 0zm3.7279-2.5886c.601-1.0298 2.5869-1.145 3.7278 0-1.1411-.1994-2.314-.6516-3.7278 0zm2.5773 6.1104c.6013-1.0302 2.5869-1.1449 3.7278 0-1.1411-.1993-2.314-.6516-3.7278 0zm0-3.8148c.5956-1.0204 2.5544-1.1775 3.7278 0-1.0109-.1768-2.2944-.6607-3.7278 0zm3.7279-1.2136c.1774-.304.4832-.5138.8096-.6531.9432-.4193 2.2027-.0646 2.9182.6531-1.011-.1766-2.2944-.6607-3.7278 0zm2.2893 2.403c.7002-1.2 2.7698-.9614 3.7278 0-1.0109-.1767-2.2944-.6606-3.7278 0zm.1383-5.222c.5864-1.0046 2.5419-1.1901 3.7278 0-1.321-.2307-2.3676-.6269-3.7278 0zm7.6348 2.7046c-1.011-.1767-2.2944-.6606-3.7278 0 .6977-1.1955 2.7601-.9711 3.7278 0zm-3.0002 5.1428c.6053-1.0372 2.5709-1.161 3.7278 0-1.321-.2307-2.3676-.6269-3.7278 0zm2.3214-7.2613c.5833-.9998 2.5356-1.1964 3.7278 0-1.141-.1995-2.3141-.6516-3.7278 0zm2.9717 3.4465c.5859-1.004 2.5406-1.1909 3.7278 0-1.1411-.1995-2.314-.6516-3.7278 0z"/><path d="M2.4323 33.2857c1.67-4.9 4.41-7.56 4.41-7.56.44-1.11-.22-1.85-.22-1.85-.81.69-1.4.74-1.77.64-.29-.0699-.44-.24-.49-.29-.01 0-.01-.01-.01-.01.12 1.61-1.02 3.3-1.02 3.3-2.92 6.64-2.27 8.13-2.27 8.13 1.09.03 1.37-2.36 1.37-2.36z"/></svg>