<svg xmlns="http://www.w3.org/2000/svg" viewBox="20 52 700 700" style="enable-background:new 20 52 700 700" xml:space="preserve"><path d="M256.78 633.62c9.93 1.49 19.86 2.66 29.81 1.36-.54-8.81-1.47-17.23-1.46-25.64.01-8.4.96-16.8 1.5-25.19.44.02.88.05 1.33.07.08.56.24 1.11.22 1.67-.69 16.53 2.94 32.15 9.86 47.09 6.1 13.17 15.69 22.7 29.19 28.21 1.83.75 3.61 1.6 5.52 2.45-.65 1.65-1.13 2.85-1.59 4.07-6.06 16.11-12.14 32.2-18.12 48.34-.63 1.71-.63 3.65-.92 5.48l1.11.3c1.54-2.27 3.15-4.51 4.61-6.83 6.14-9.76 12.17-19.59 18.39-29.29 1.1-1.71 2.9-2.97 4.37-4.44.42.18.83.35 1.25.53 0 2.5.39 5.08-.07 7.49-1.64 8.6-3.7 17.12-5.34 25.72-.68 3.58-.68 7.29-.99 10.94.52.23 1.03.46 1.55.7 1.43-1.05 3.17-1.85 4.24-3.19 3.1-3.87 6.16-7.81 8.82-11.99 6.52-10.22 12.75-20.61 19.25-30.84.76-1.2 2.63-2.7 3.72-2.52 2.94.5 5.73 1.85 8.72 2.91-2.89 10.45-5.68 20.54-8.48 30.64.54.24 1.07.48 1.61.71 1.34-1.6 2.92-3.07 3.99-4.84 4.08-6.74 7.95-13.61 12.03-20.35.64-1.06 1.97-2.41 2.98-2.42 11.28-.02 22.56.2 34.43.37-1.69-2.36-3.24-5.56-5.71-7.67-2.63-2.25-6.15-3.47-9.45-5.23.68-.43 1.35-.96 2.1-1.31 5.69-2.67 11.66-3.5 17.93-2.94 1.73.15 3.55-.6 5.33-.94-.77-1.79-1.2-3.86-2.38-5.32-4.16-5.16-9.75-8.24-16.06-10.1-1.56-.46-3.08-1.04-5.78-1.95 9.06-4.28 16.52-2.53 24.35.11-6.43-5.96-12.87-11.93-19.31-17.9.04-.27.03-.58.14-.83 19.07-41.16 38.17-82.32 57.19-123.51 1.02-2.2 2.28-2.99 4.66-2.94 3.05.06 6.11-.32 9.17-.51.22-.64.43-1.28.65-1.92-3.46-2.43-6.81-5.03-10.41-7.23-3.74-2.29-7.72-4.2-11.59-6.27.08-.32.17-.65.25-.97 10.47-.94 20.94-1.88 32.72-2.93-7.12-10.64-18.11-14.02-26.7-20.4.1-.45.21-.89.31-1.34 9.25.77 18.51 1.55 28.66 2.4-1.16-1.98-1.7-3.32-2.59-4.36-7.25-8.46-15.36-15.84-26.97-17.25-10.68-1.3-21.43-1.97-32.15-2.88-2.31-.2-4.74.18-6.93-.4-20.47-5.48-39.92-2.75-58.61 6.84-1.22.63-2.48 1.18-3.72 1.76 5.04-5.22 10.51-9.73 16-14.22 9.08-7.42 10.93-20.51 4.15-30.15-.61-.86-1.62-1.88-2.55-2-4.42-.54-8.86-.88-13.31-1.14-20.66-1.19-40.35-6.2-58.97-15.22-4.93-2.39-9.5-5.5-14.23-8.28l.6-1.2c2.1.83 4.23 1.61 6.31 2.48 18.63 7.77 37.78 13.45 58.21 12.02 33.21-2.32 58.81-17.03 73.69-47.67 3.33-6.85 5.1-14.46 7.64-21.85 29.43-5.08 48.17-23.35 52.01-50.93 3.14-22.54-7.43-44.98-26.2-55.68-18.88-10.76-43.31-8.36-61.14 6.04-4.3 3.47-8.49 7.07-13.01 10.84-29.17-20.08-62.73-27.61-98.26-21.34-4.61-7.91-8.11-15.76-13.23-22.34-13.91-17.87-32.16-26-54.8-20.52-19.36 4.69-33.69 16.46-42.85 34.11-10.2 19.64-7.25 41.17 7.39 57.84 7.57 8.61 16.71 15.01 27.35 19.18 2.79 1.09 3.66 2.26 3.19 5.4-2.05 13.48-.95 26.78 3.18 39.8 3.53 11.12 9.22 21.07 16.75 30.32-1.55.81-2.79 1.49-4.06 2.11-7.72 3.79-16.22 6.51-23.04 11.52-43.43 31.91-67.01 74.82-68.28 128.96-.92 39.04 13.94 72.25 40.19 100.73 16.61 18.07 35.63 31.91 60.64 35.67zm188.39-134.54c3.93 1.62 7.13 2.95 11.19 4.63-4.27 6.59-8.47 13.09-12.68 19.59-.66-.28-1.33-.55-1.99-.83-1.03-7.98 2-15.46 3.48-23.39zm-14.02-250.11c9.28-12.22 20.7-12.99 31.48-1.94 5.92 6.07 9.31 13.32 9.67 20.23-.01 8.38-3.04 13.48-8.9 16.63-2.79 1.5-5.9 2.53-8.99 3.31-6.39 1.6-6.02 1.27-8.84-4.65-4.49-9.45-9.44-18.7-14.54-27.84-1.27-2.29-1.46-3.66.12-5.74zM393.85 293c5.43-.13 10.01 4.32 10.12 9.82.11 5.47-4.31 10.08-9.76 10.19-5.48.11-10-4.31-10.08-9.84-.08-5.58 4.18-10.04 9.72-10.17zm-76.57 36.92c1.68-13.02 3.88-25.97 5.38-39 .47-4.11 2.06-5.63 5.81-5.74 2.04-.06 4.08-.2 5.61-.28 10.23.1 19.17 2.76 27.48 7.79 2.17 1.31 3.02 2.49 2 5.23-4.99 13.38-9.77 26.84-14.51 40.31-.8 2.29-1.96 3.06-4.41 3.07-9.15.05-17.63-2.25-25.37-7-1.16-.72-2.17-2.99-1.99-4.38zm-.16 166.84c16.99 18.37 38.74 24.86 62.95 20.12 9.77-1.91 19.13-7.06 28.02-11.94 9.15-5.03 17.48-11.54 26.58-17.67 1.06 1.53 2.21 3.18 3.69 5.32-8.21 4.38-8.64 12.7-10.73 20.17-1.02 3.65-1.75 7.38-2.82 11.01-1.97 6.62-2.47 12.66.58 19.6 4.75 10.79 2.13 22.13-1.37 32.96-5.66 17.5-14.34 33.19-28.4 45.42 7.74 3.39 15.3 6.7 22.85 10-.2.69-.41 1.39-.61 2.08-14.2-6.11-28.88-9.03-44.57-8.47 1.2-.86 2.39-1.73 3.59-2.58 23.67-16.73 35.26-39.83 35.84-68.57.15-7.32-1.7-14.11-7.32-19.49-6.92-6.6-15.23-5.96-23.51-4.57-39.01 6.55-74.07-17.83-81.32-56.49 5.38 7.83 10.16 16.2 16.55 23.1zM293.8 272.37c5.42.03 10.04 4.61 10.11 10.03.07 5.6-4.67 10.39-10.26 10.35-5.38-.03-10.02-4.66-10.09-10.09-.09-5.67 4.55-10.33 10.24-10.29zm-47.62-25.88c-.73.78-2.54 1.28-3.54.97-13.92-4.36-19.47-16.21-13.93-29.67 3.21-7.8 8.33-14.01 15.98-17.83 7.57-3.78 15.21-2.61 20.58 3.86 3.55 4.28 6.13 9.37 8.36 12.86-9.74 10.61-18.53 20.27-27.45 29.81z"/><path d="M511.72 247.24c1.04 2.76 1.21 5.05.12 7.87-4.41 11.43-8.48 22.99-12.75 34.47-16.83 45.25-32.69 90.9-53.48 134.58-1.23 2.58-2.43 5.18-3.72 7.92 7.79.29 7.64.14 10.53-6.12 7.75-16.82 15.26-33.76 23.7-50.23 6.96-13.56 15.12-26.5 22.74-39.71.36.2.72.39 1.09.59-17.24 30.4-32.79 61.59-45.75 94.82 3.71 0 6.79-.31 9.77.09 2.93.39 4.08-.89 5.18-3.29 3.81-8.36 7.44-16.83 11.83-24.89 5.92-10.89 12.38-21.48 18.82-32.08 1.38-2.27 3.65-4 5.52-5.98.52.32 1.03.64 1.55.96-3.9 23.92-13.6 46.16-21.13 68.97 6.4 2.59 12.57 5.09 19.17 7.76 43.34-101.22 83.61-203.6 119.88-307.62-7.16 12.41-14.31 24.82-21.47 37.22 2.48-19.46 8.35-38.22 8.9-57.75-.78-.22-1.57-.45-2.35-.67-15.9 29.52-25.16 61.83-38.18 92.66 10.73-41.57 21.46-83.15 32.41-125.58-8.68 3.5-16.53 6.5-24.21 9.91-1.66.74-3.35 2.74-3.87 4.5-3.27 11.05-6.21 22.19-9.26 33.31-3.28 11.92-6.56 23.84-9.88 35.93-4.95-.44-9.54-.84-14.08-1.25-5.5 18.14-10.86 35.8-16.22 53.46-3.3-12.38-11.71-20.76-20.1-29.35-3.68-3.77-7.1-8.54-8.65-13.48-3.6-11.48-10.18-21.26-15.9-31.55-.99-1.79-2.07-3.53-3.11-5.29-.58 1.06-.51 1.77-.34 2.45 9.08 36.39 20.06 72.22 33.24 107.37zm52.24 4.7c-10.84 36.39-19.14 73.41-33.46 109.36-1-10.34 25.74-88.83 33.46-109.36z"/></svg>