<svg xmlns="http://www.w3.org/2000/svg" viewBox="0 0 32 32.000001"><path d="M21.02539 1023.6123c-.68545 0-1.25002.5649-1.25 1.2507 0 .1301.0268.253.0644.3713l-.96289.9635c-.22806-.2061-.46969-.3987-.73242-.5628-.81592-.5114-1.72698-.768-2.63867-.77-.91169 0-1.82281.2508-2.64063.7582-.26804.1668-.51402.3624-.74609.5726l-.95898-.9595c.0376-.1184.0645-.2412.0645-.3713.00002-.6859-.56455-1.2508-1.25-1.2508-.68544 0-1.25001.5649-1.25 1.2508-.00001.6858.56456 1.2507 1.25 1.2507.18838 0 .36253-.051.52344-.127l.94336.9439c-.52249.6859-.89624 1.4953-1.08008 2.3686h.0117c.0666 0 .13337.001.19922.012 3.39459.5469 6.51138.7161 9.78711.012.0917-.02.18574-.026.27929-.019-.18468-.874-.55981-1.6824-1.08398-2.3686l.94726-.9478c.16091.076.33506.127.52344.127.68544 0 1.25001-.5649 1.25-1.2507.00001-.6859-.56456-1.2508-1.25-1.2508z" transform="translate(0 -1020.3622)"/><path style="opacity:1;fill-opacity:1;stroke:none;stroke-width:1;stroke-linecap:round;stroke-linejoin:round;stroke-miterlimit:4;stroke-dasharray:none;stroke-dashoffset:0;stroke-opacity:1" d="M10.41211 1030.2999c-3.702 1.7834-5.41093 5.3544-5.41211 9.2517 0 5.569 4.09794 9.5611 9.9375 9.8047v-18.5913c-1.49138-.052-2.98926-.2177-4.52539-.4651zm10.1582 0c-1.56853.3372-3.10124.4753-4.63281.4807v18.5816C21.84327 1049.1707 26 1045.16 26 1039.5516c-.004-3.9008-1.72113-7.4727-5.42969-9.2517zM12 1033.3701a1 1.000605 0 0 1 1 1.0006 1 1.000605 0 0 1-1 1.0006 1 1.000605 0 0 1-1-1.0006 1 1.000605 0 0 1 1-1.0006zm7 0a1 1.000605 0 0 1 1 1.0006 1 1.000605 0 0 1-1 1.0006 1 1.000605 0 0 1-1-1.0006 1 1.000605 0 0 1 1-1.0006zm-9.5 4.2526a1.5 1.5009075 0 0 1 1.5 1.5009 1.5 1.5009075 0 0 1-1.5 1.5009 1.5 1.5009075 0 0 1-1.5-1.5009 1.5 1.5009075 0 0 1 1.5-1.5009zm12 0a1.5 1.5009075 0 0 1 1.5 1.5009 1.5 1.5009075 0 0 1-1.5 1.5009 1.5 1.5009075 0 0 1-1.5-1.5009 1.5 1.5009075 0 0 1 1.5-1.5009zm-10 5.5033a1.25 1.2507562 0 0 1 1.25 1.2508 1.25 1.2507562 0 0 1-1.25 1.2507 1.25 1.2507562 0 0 1-1.25-1.2507 1.25 1.2507562 0 0 1 1.25-1.2508zm8 0a1.25 1.2507562 0 0 1 1.25 1.2508 1.25 1.2507562 0 0 1-1.25 1.2507 1.25 1.2507562 0 0 1-1.25-1.2507 1.25 1.2507562 0 0 1 1.25-1.2508z" transform="translate(0 -1020.3622)"/></svg>