<?xml version="1.0" encoding="UTF-8"?>
<svg width="1200pt" height="1200pt" version="1.1" viewBox="0 0 1200 1200" xmlns="http://www.w3.org/2000/svg">
 <path d="m105.34 833.26c1.8594-3.4688 3.8047-6.9492 5.8672-10.402 8.0156-13.945 17.566-27.758 28.5-40.98 21.77-26.617 49.559-49.957 79.703-69.324 30.289-19.223 63.133-34.199 96.191-46.922 33.086-12.84 66.781-23.004 99.926-32.988 33.145-9.9961 66.047-19.008 97.766-29.027 31.812-9.7578 62.555-20.16 91.68-31.609 29.125-11.387 56.578-23.891 81.805-37.297 25.199-13.477 48.238-27.742 68.688-42.254 20.438-14.52 38.484-29.016 53.773-42.781 3.7812-3.4805 7.4648-6.8398 11.016-10.094 3.4336-3.3828 6.7422-6.6484 9.9258-9.7695 6.5508-6.1211 12.047-12.238 17.305-17.543 10.141-10.848 17.855-19.656 23.09-25.895 5.2578-6.168 8.0625-9.4453 8.0625-9.4453 1.0781-1.2461 2.9648-1.3906 4.2227-0.3125 1.0938 0.92578 1.3438 2.4961 0.68359 3.7188 0 0-2.1016 3.7695-6.0234 10.859-3.7422 7.1172-10.094 17.316-18.336 30.254-8.3984 12.758-18.961 28.164-32.699 44.629-13.621 16.535-29.773 34.766-49.223 52.945-19.391 18.227-41.809 36.602-66.961 54.047-25.02 17.699-53.004 33.863-82.477 49.297-29.605 15.109-60.887 29.102-92.832 42-31.992 12.793-64.477 25.008-96.527 36.828-32.039 11.82-63.371 24.086-92.855 37.055-29.508 12.973-56.617 27.719-80.258 43.836-6.7812 4.7539-13.234 9.6602-19.379 14.688-3.5391 2.1016-7.0547 4.2344-10.535 6.4336-30.145 19.367-57.91 42.719-79.691 69.336-10.934 13.211-20.484 27.023-28.5 40.969-8.2695 13.848-14.746 27.898-20.531 41.461-11.16 27.289-17.832 53.027-22.188 75.742-4.3555 22.754-6.3125 42.492-7.7266 58.691-1.1289 16.176-1.7266 28.824-1.7773 37.402-0.085937 4.2969-0.15625 7.5977-0.17969 9.8047 0.14453 0.55078-0.38281 1.043 0.3125 1.4648 1.2617 0.42188 7.0312 0.78125 13.957 1.0664 3.4922 0.14453 6.5508 0.25391 9.1797 0.35938 4.1406 0.10938 7.6094 0.20312 10.367 0.26562 5.543 0.13281 8.3281 0.20312 8.3281 0.20312 1.7891 0.035156 4.0312 0.046875 5.8438 0h0.097656s2.7969-0.058594 8.3398-0.20312c2.7734-0.058594 6.2383-0.14453 10.379-0.23828 2.6289-0.097656 5.6992-0.21484 9.1914-0.32422 6.9258-0.25391 12.719-0.53906 13.992-0.89844 0.70703-0.35938 0.20312-0.79297 0.37109-1.2734 0.023437-1.9453 0.058593-4.8242 0.10938-8.5938-0.011719-7.5469 0.43359-18.492 1.2852-32.316 1.1055-13.754 2.6289-30.434 6.0352-48.875 3.4922-18.395 8.4492-38.688 16.273-59.375 4.1523-10.211 8.6523-20.734 14.449-30.875 0.37109-0.68359 0.78125-1.3555 1.1758-2.0508 841.29 270.1 920.69-894.95 920.69-894.95-103.58 322.6-980.41 103.61-1019.9 773.26z"/>
</svg>
