<?xml version="1.0" encoding="UTF-8"?>
<svg width="1200pt" height="1200pt" version="1.1" viewBox="0 0 1200 1200" xmlns="http://www.w3.org/2000/svg">
 <path d="m983.43 488.56c39.918-19.625 87.672-53.125 88.5-101.12 0.63672-38.375-30.859-61.133-53.859-77.734-8.8477-5.6875-16.938-12.48-24.07-20.215-4.6875-6.3477-2.2969-15.039 6.7656-36.426 11.18-26.465 32.031-75.684-27.051-109.77-59.355-34.422-96.09 6.1562-118.07 30.328-12.625 13.867-24.562 27-36.77 28.078h0.003906c-12.145-2.8125-23.633-7.9375-33.84-15.09-14.48-9.3555-30.113-16.793-46.508-22.125-13.191-3.9531-27.191-4.3477-40.586-1.1523-13.391 3.1992-25.703 9.8789-35.684 19.367-22.965 21.973-32.941 54.254-26.387 85.352 6.5 31.984-2.6875 54.297-13.988 61.477-7.2031 4.6875-16.234 2.9805-26.781-4.7852-37.816-28.078-75.418-33.789-103.2-15.875-29.957 19.434-40.875 62.453-29.199 115.09l2.6367 11.23c4.543 18.895 12.133 50.488 3.6367 61.281-4.3945 5.5664-16.383 6.3945-23.145 6.3945v-0.003907c-19.359-0.93359-38.551 3.9648-55.094 14.062-16.543 10.098-29.668 24.934-37.68 42.582-17.188 39.551-5.8086 87.75 29.688 125.78 19.555 20.949 12.867 42.285-0.60938 78.172-11.031 29.355-25.59 69.602-3.125 107.05-81.5 72.945-162.6 128.42-229.68 146.52-7.875 2.1172-14.219 7.9414-17 15.602-2.7852 7.6641-1.6523 16.203 3.0273 22.879 4.6797 6.6719 12.32 10.648 20.473 10.645 2.207-0.003906 4.4102-0.30078 6.543-0.875 75.75-20.43 164.41-81.039 251.86-159.44 133.45-121.97 250.05-261.18 346.71-413.95 6.4102-1.5781 13.188-0.55469 18.848 2.8438 5.6602 3.4023 9.7422 8.9062 11.355 15.309 1.6133 6.4023 0.62891 13.184-2.7422 18.859-90.422 145.6-198.92 279.16-322.89 397.5 7.5547 1.3828 15.211 2.1211 22.895 2.207 44.676 0 85.449-21.484 120.46-39.992 40.016-21.094 74.586-39.258 106.79-28.027 47.75 16.797 91.137 11.766 119.12-13.77 25.465-23.195 34.352-59.375 24.367-99.266-3.8828-15.375-3.4922-27.051 1.0469-32.031 5.0781-5.4688 20.559-9.8633 48.953-5.375 57.957 8.7891 99.172-24.805 110.13-62.988 9.375-32.766-2.7812-75.098-51.148-95.656h-0.003906c-4.6758-1.3125-8.8398-4.0195-11.934-7.7656-3.0938-3.7422-4.9688-8.3438-5.375-13.184 1.1211-9.2969 4.7461-18.113 10.492-25.508 5.7461-7.3945 13.391-13.09 22.125-16.477z"/>
</svg>
