<?xml version="1.0" encoding="UTF-8"?>
<svg width="1200pt" height="1200pt" version="1.1" viewBox="0 0 1200 1200" xmlns="http://www.w3.org/2000/svg">
 <path d="m1162.8 690c14.398-14.398 7.1992-39.602-12-43.199l-130.8-31.199c-6-1.1992-9.6016-7.1992-8.3984-13.199l21.602-73.199c7.1992-21.602-15.602-40.801-36-31.199l-178.8 88.801c-18 8.3984-36-13.199-22.801-28.801l216-249.6c14.398-16.801 2.3984-43.199-20.398-43.199h-88.801c-6 0-10.801-4.8008-10.801-10.801v-177.6c0-24-26.398-38.398-45.602-25.199l-150 92.398c-4.8008 3.6016-12 1.1992-14.398-3.6016l-46.801-75.602c-12-19.199-40.801-15.602-46.801 6l-97.199 315.6c-6 19.199-34.801 16.801-36-3.6016l-19.199-198c-2.3984-22.801-30-31.199-45.602-14.398l-50.398 57.602c-3.6016 4.8008-10.801 4.8008-15.602 0l-96-94.801c-14.398-14.398-39.602-7.1992-43.199 12l-31.199 130.8c-1.1992 6-7.1992 9.6016-13.199 8.3984l-76.801-18c-21.602-4.8008-39.602 18-28.801 37.199l160.8 313.2c6 12 0 26.398-13.199 31.199l-54 18c-21.602 7.1992-21.602 36-1.1992 44.398l182.4 75.602c28.801 12 57.602 25.199 86.398 39.602-19.199 36-36 73.199-51.602 111.6-18 46.801-33.602 91.199-45.602 141.6 0 2.3984-1.1992 3.6016-1.1992 6-4.8008 32.398 18 63.602 51.602 68.398 33.602 4.8008 63.602-18 68.398-51.602v-1.1992c6-40.801 16.801-86.398 27.602-128.4 12-43.199 26.398-85.199 44.398-126s38.398-79.199 63.602-115.2c12-16.801 25.199-32.398 38.398-46.801-22.801 66-48 154.8-52.801 228 4.8008 3.6016 9.6016 6 14.398 9.6016l160.8 115.2c18 13.199 42-3.6016 37.199-25.199l-13.199-55.199c-3.6016-13.199 6-26.398 19.199-27.602l350.41-28.801c21.602-2.3984 32.398-28.801 16.801-44.398l-56.398-55.199c-4.8008-3.6016-4.8008-10.801 0-15.602z"/>
</svg>
