<svg xmlns="http://www.w3.org/2000/svg" viewBox="0 0 66 66" xml:space="preserve"><path d="M64.7 9.5h-.1c-.2 0-.4.1-.4.3-5.8 23-23.7 28.4-31 27.3-.5-.1-.9-.3-1-.8-.3-.8-1.1-3.9-1-4.9.6.4 3.5 1.8 4.4 2 1.6.3 2.2-.7 2.5-2.2.1-.9.5-1.6 1.1-2.2.3-.3 1-1 .8-1.3-.2-.4-.9-.2-1.2.1-1.1 1-1 1.5-1.4 2.5-.1.3-.4.4-.6.1-.3-.3-.4-1-.4-1.5 0 0 .1.4.2-5.4 0-.9-.6-1.2-.8-.3-.1.5-.1 1-.1 1.5 0 .7 0 1.3-.1 2-.1-.9-.6-1.7-1-2.5-1-1.9-1.7-1.2-1.1-.2.7 1.1 1.2 2.8 1.1 3.1-.7-.5-1-1.2-1.8-1.7-.1-.1-.2-.1-.3 0-.1.1-.1.2-.1.4.1.2 1.3 1.4 1.8 2.5.1.1.1.3 0 .5-.2-.2-.4-.5-.6-.6-.1-.1-.3-.1-.5 0s-.1.3 0 .5c.3.6 1 1.1 1.4 1.8 0 .1.1.1 0 .2h-.2c-1-.6-2.1-1.5-4.2-2.2-1.1-.4-2 .1-2.2 1.2-.3 1.6-.2 3.3 0 4.9.1.5.2 1 .1 1.5 0 .3-.1.3-.4.2L27 36c-.8-.6-1.5-1.2-2.4-1.5-1.4-.6-2.1-.6-2.7-.7-1.1-.1-2.2-.1-3.3 0-.1 0-.2-.1-.2-.2s.1-.2.2-.2c.9-.1 1.9-.2 2.8-.2.1-.9-.9-2.3-1.6-2.9-.8-.8-1.1-1.7-1-2.8.1-.5.2-.9.3-1.4 0-.2.1-.5-.2-.6-.3-.1-.4.1-.6.3-.1.2-.2.5-.3.8-.1.3-.1.5-.2.8-.6-1.6-1.1-3.6-1.1-3.6-.1-.1-.1-.3-.3-.3-.2 0-.2.2-.3.3 0 .1.2 2 .3 2.3-.4-.5-1-1.4-1.5-1.8-.2-.1-.4-.3-.5-.1-.2.1-.1.4 0 .5.2.7.8 1 1.1 1.6-.4-.4-1-1-1.5-1.1-.1 0-.3 0-.4.1-.1.1 0 .2 0 .3.4.9 2 1.7 2.2 2.3-.5-.1-.6-.6-1.4-.7-.2 0-.4 0-.5.1-.1.2.1.3.2.4.7.6 1.4 1.2 2.2 1.7.7.4 1.3 1 1.6 1.7.1.2 0 .3-.2.3-1.7.1-3.5.7-5.4.1-.3-.1-.6-.3-.8-.6-2.3-3.6-9.3-.9-10.4-.1-.1.4-.3 1.2.1 2s2.2 2.9 3.9 4c1 .6 2.1 1 3.4.9.5 0 1-.2 1.5-.3.4-.1.7 0 .8.4.1.3.2.5.3.8.7 1.4 1.7 2.4 2.9 3.2.6.4.7.8.2 1.3-1.7 2-1.6 2.8-3.2 2.5-.4-.1-.7-.2-1-.4-.2-.1-.3-.1-.4.1-.1.2 0 .3.1.4.7.6 1 .3 1.6.7.1 0 .2.1.1.2 0 .1-.1.1-.2.1-.9.1-1.8.3-2.7.3-.3 0-.5 0-.8.1-.1.1-.2.1-.2.3 0 .1.1.2.2.2.3.1.5.1.8.1.6-.1 1.3 0 1.9 0-1.5.4-2.2.3-2.8 1-.2.1-.3.4-.1.5.2.2.4.1.5-.1.4-.5 1.3-.5 2.5-.7-.4.3-1 .9-1.4 1.2-.1.4-.2.7-.1 1 0 .1.1.2.2.3.1 0 .2-.1.3-.2.1-.2.1-.3.3-.4.8-.7 1.7-1.2 2.6-1.9 0 .4-.1.8-.2 1.3 0 .2 0 .4.1.7.1.2.3.2.5 0 0-.1.1-.9.4-1.5.4-.6.7-1.2.9-1.9.1-.2 2.3-3 2.5-3.3.5-.6.5-1.3.2-2-.5-.5-.9-1-1.3-1.6-.1-.1 0-.2 0-.3.1-.1.2 0 .2 0 .4.5.9 1 1.4 1.4 1.4.7 2.7 1.4 4.2 1.9 2.7 1 4 .2 5.4-.3.7-.3 1.5-.4 1.2.4-.7 1.9-1.1 3.9-1.2 5.9 0 1.2 1 2 2.2 1.5 1-.4 1.9-.9 2.7-1.6.6-.5 1.2-.9 1.9-1.1.4-.1.6.1 0 .9-.6.7-1.5 1.4-1.3 2.3 0 .1 0 .3.2.3s.2-.2.3-.3c.1-.3.3-.6.5-.8.4-.5.5-.3.3.2-.2.4-.4.7-.8 1-.7.5-1.3.7-1.1 1.8 0 .1.1.3.2.3.2 0 .2-.1.2-.2.4-1.3.8-.9 1.9-1.6.1-.1.2 0 .2.1 0 .3 0 .6-.1.9-.1.7-.4 1.4-.8 2-.3.5-.3.9-.1 1.4.1.2.2.3.4.3s.2-.2.2-.4c0-.4.1-.7.2-1 .4-.8.9-2.2 1.1-3 .2.6.6 1.9.5 2.7-.1.5.1 1 .4 1.4.1.1.2.2.4.3.3.1.4-.1.3-.3-.5-1.6-.1-3.4-1-5.1-.4-.8-.2-1.6.2-2.5.1-.2.1-.3.3-.1.6.7 1.9 1.9 2.8 2.2.2.1.4.1.5-.1.1-.2 0-.4-.1-.5 0 0-.9-.4-1.9-1.7-.4-.5-.7-1-.8-1.6-.3-1.6-2.8-3.1-6.2.3.5-1.3 1.2-2.4 1.5-3.8.2-.7.6-1.3 1.3-1.4C50.7 38.7 61.6 29.9 65 10c0-.3-.1-.5-.3-.5zM5.6 35.2c-.1.2-.7.2-1.2-.1-.5-.3-.8-.8-.7-1 .1-.2.7-.2 1.2.1.5.4.8.8.7 1zm.2-4.2c-.6 0-1.1-.2-1.1-.4 0-.3.5-.5 1.1-.6s1.1.2 1.1.4c0 .3-.5.5-1.1.6z"/></svg>