<svg xmlns="http://www.w3.org/2000/svg" viewBox="0 0 70 70" xml:space="preserve"><path d="m65.2478 28.0671-.1213.2205c-.0393-.0647-.0637-.1019-.0637-.1019l-3.3601 6.0999c-.1616.2985-.3997.5272-.6746.6847-.2305.104-.4762.1719-.7288.1719-.2822 0-.5745-.0604-.8364-.2015-.9272-.4738-1.2498-1.6427-.7056-2.5398l1.673-2.701c-3.1998-.5232-5.3199.23-6.7217 1.5662-3.5748 3.259-2.5861 10.2797-2.5861 10.2797-.7064.3301-1.4126.5201-2.106.625-.2607.0374-.5208.0699-.7764.0818-.0438.0023-.087.0026-.1306.0043-2.4.0735-4.5237-.8827-5.6492-1.5109 1.303-1.7244 2.2655-3.6635 2.8655-5.7147l.7876.1348c1.389.2375 2.6809-.7722 2.7852-2.177.0923-1.2451-.791-2.3511-2.0262-2.5371l-.8544-.129c.001-.1678.0142-.334.0101-.5022-.0145-.4971-.0511-.9561-.1106-1.4036.9103-1.1193 4.6742-5.1689 12.3883-6.4636.5492-.0925.9192-.6122.8276-1.1604-.0925-.5492-.6042-.9271-1.1614-.8276-6.8187 1.1443-10.8237 4.2729-12.6832 6.1459-.2706-.5135-.6387-.9652-1.085-1.3253 1.8312-1.7379 5.1993-5.7867 6.3973-12.9169.0925-.5492-.2784-1.0688-.8267-1.1614-.561-.0895-1.0698.2786-1.1614.8268-1.2771 7.6001-5.2804 11.397-6.4399 12.3564-.9128-.2039-1.7532-.2781-2.6184-.2874.2849-1.5881-1.0195-3.0201-2.6357-2.8672-1.1819.1121-2.113 1.0552-2.2095 2.2377l-.1121 1.3763c-1.9617.645-3.7856 1.6831-5.3398 3.0714-.6653-1.4109-1.7738-4.2329-1.5723-7.0145l-.009-.0013c.0481-.6635.1624-1.3246.3853-1.9628 0 0 2.611.3672 5.3877-.1553 3.5984-.6589 7.5072-2.7863 6.4712-9.0879l-2.7009 1.6731c-.887.5543-2.0662.2217-2.5398-.7054-.1411-.2621-.2017-.5443-.2017-.8265 0-.4397.1736-.8588.4688-1.1892.1116-.1088.2329-.2095.3748-.2888l6.1101-3.3599s-.0159-.0103-.0406-.0259l.1722-.0947s-10.2498-6.813-15.9644 9.8063c-.0012.0074.0011.0173-.0001.025-.0023.0066-.0048.0126-.0072.0193 0 0-.614 1.1123-1.0681 3.0239-.0009-.0016-.002-.0029-.0028-.0044-1.0816 4.5489-.2388 9.3228 1.8947 13.5454l-.4131.6047 12.9003 12.9003c.2318-.1813.4637-.3728.6954-.5643 4.0238 1.9327 8.5756 2.6425 12.8804 1.4614-.0164-.009-.0294-.0188-.0457-.0278 1.8179-.5039 2.8655-1.1458 2.8931-1.163.0371-.0022.08.0063.1156.0016 16.6295-5.7146 9.8063-15.9441 9.8063-15.9441zM11.5903 52.0437c-.9374 0-2.943.0303-7.2365.1007-.2921 0-.5643.131-.7559.3529-.1815.2217-.2621.5139-.2218.8062.0706.4233 1.7437 10.3606 13.5757 13.6562.0908.0303.1816.0403.2723.0403.2217 0 .4333-.0706.6147-.2117.252-.1914.3931-.4938.3931-.8063l-.0907-7.3874-6.5509-6.5509zM36.0203 46.309l1.2094-.8365-12.3865-12.3863-.7155 1.0281-4.505-5.0999c-.252-.2822-.635-.4031-.9978-.3125l-4.8376 1.1692c-.5342.131-.8667.6853-.7358 1.2195.1311.5442.6753.8767 1.2095.7458l4.2531-1.0281 4.4347 5.019-2.0762 3.0237-3.9105-4.8176c-.2418-.3024-.645-.4333-1.0179-.3425l-4.5251 1.0984c-.5342.1311-.8667.6753-.7358 1.2195.1311.5443.6754.877 1.2095.7357l3.9104-.9371 3.8702 4.7771-1.9452 2.822-4.0114-4.8679c-.252-.2924-.6449-.4233-1.0179-.3325l-4.5452 1.0984c-.5443.1311-.877.6753-.746 1.2195.1312.5442.6754.877 1.2196.7458l3.9305-.9575 3.9911 4.8176-3.6786 5.3315 6.9641 6.9641 5.15-3.5376 4.8378 3.9811-.9575 3.9407c-.131.5342.2015 1.0784.7457 1.2094.4838.1411 1.0684-.1713 1.2095-.7356l1.1086-4.5454c.0908-.3831-.0403-.7761-.3425-1.0181l-4.8679-4.0212 2.8219-1.9451 4.7972 3.8801-.9473 3.9004c-.1714.645.3225 1.2498.9775 1.2498.4536 0 .8668-.3125.9777-.7761l1.0985-4.5151c.0908-.3831-.0403-.776-.3427-1.0178l-4.8275-3.9104 3.0236-2.0763 5.0392 4.4344-1.0381 4.243c-.1311.5443.2015 1.0885.7458 1.2195.5442.1412 1.0884-.2015 1.2195-.7357l1.1689-4.8376c.0908-.3628-.0302-.7457-.3124-.9977l-5.0996-4.5052z"/></svg>