<?xml version="1.0" encoding="UTF-8"?>
<svg width="1200pt" height="1200pt" version="1.1" viewBox="0 0 1200 1200" xmlns="http://www.w3.org/2000/svg">
 <g>
  <path d="m901.67 651.67s1.6641 0 0 0c71.668-3.332 125-61.668 125-131.67 0-35-30-63.332-65-63.332h-36.668c-21.668 0-40 18.332-40 40v140c0 5 1.668 8.332 5 11.668 3.332 1.6641 8.332 3.332 11.668 3.332z"/>
  <path d="m98.332 565h-3.332c-25 3.332-43.332 28.332-45 58.332-1.668 31.668 16.668 56.668 43.332 63.332h5c13.332-1.668 31.668 0 50 1.668l30-126.67c-31.664 3.3359-60 5.0039-80 3.3359z"/>
  <path d="m655 743.33 6.668-6.668-298.34-201.66c-33.332 5-66.668 11.668-96.668 15l-35 148.33c21.668 3.332 45 6.668 70 10 100 16.668 216.67 35 325 35 10.004 1.668 20.004 0 28.336 0z"/>
  <path d="m265 396.67c-5-3.332-10-3.332-15-1.668-5 1.668-8.332 6.668-10 11.668l-90 391.66c-1.668 8.332 3.332 18.332 11.668 20 8.332 1.668 18.332-3.332 20-11.668l85-368.33 431.67 293.33-28.336 35.004c-46.668 41.668-56.668 86.668-63.332 120-5 30-8.332 36.668-20 40-8.332 1.668-15 11.668-11.668 20 1.668 8.332 8.332 13.332 16.668 13.332h3.332c35-8.332 40-38.332 45-66.668 6.668-30 13.332-68.332 53.332-103.33l1.668-1.668 41.668-50c3.332-3.332 5-8.332 3.332-13.332 0-5-3.332-8.332-6.668-11.668z"/>
  <path d="m1058.3 803.33c-35 0-41.668-13.332-55-36.668-13.332-25-31.668-58.332-90-76.668l-38.332-11.668c-3.332-1.668-5-3.332-8.332-6.668-10-8.332-15-21.668-15-35v-140c0-11.668 3.332-21.668 6.668-31.668-46.668-1.668-115 5-191.67 16.668l-236.67-236.66c-3.332-3.332-10-5-15-5-5 1.668-10 5-11.668 10l-63.332 166.67 28.332 20 56.668-150 201.67 201.67c-46.668 6.668-95 16.668-145 25l265 180c10 6.668 16.668 16.668 18.332 28.332v8.332c28.332-6.668 55-16.668 78.332-28.332l58.332 18.332c45 15 58.332 38.332 71.668 61.668 13.332 25 30 53.332 85 53.332 10 0 16.668-6.668 16.668-16.668s-8.332-15-16.668-15z"/>
  <path d="m1051.7 530c0 11.668-1.668 23.332-5 33.332 25 8.332 43.332 20 58.332 43.332 3.332 5 8.332 8.332 15 8.332 3.332 0 5 0 8.332-1.668 8.332-5 10-15 5-23.332-21.664-36.664-50-49.996-81.664-59.996z"/>
  <path d="m985 435c13.332-31.668 43.332-53.332 78.332-53.332 8.332 0 16.668-6.668 16.668-16.668s-8.332-16.668-16.668-16.668c-51.668 0-96.668 35-113.33 83.332h10c10 0.003907 18.332 1.668 25 3.3359z"/>
  <path d="m1136.7 421.67c-41.668-8.332-85 6.668-111.67 36.668 8.332 8.332 15 18.332 20 28.332 20-25 53.332-40 85-31.668 8.332 1.668 18.332-3.332 20-13.332s-3.332-18.336-13.332-20z"/>
 </g>
</svg>
