<svg xmlns="http://www.w3.org/2000/svg" viewBox="0 0 100.812 37.051" xml:space="preserve"><path d="M99.706 34.713c-.55.018-.822.072-1.062.12-.382.076-.712.141-2.228.024-1.532-.118-2.259-.022-2.962.07-.442.059-.86.114-1.473.114-1.272 0-2.407-.135-3.782-.458-1.056-.501-2.599-1.412-3.694-2.826-4.898-6.326-12.806-5.489-17.859-5.924-1.353-.117-2.663-.402-4.04-.764-.077-.02-.154-.041-.232-.062-.131-.035-.262-.07-.394-.106-3.62-.99-7.809-2.398-14.5-2.64-8.121-.292-13.153 1.38-14.559 1.924l-.19.211.024-.145c-.159.064-.24.101-.24.101C38.11 5.448 23.173.396 17.946 1.441c-.256.051-3.746 3.321-6.272 3.223C2.5 4.31 0 5.274 0 5.274c2.265 2.353 10.802 3.398 10.802 3.398s2.701 1.917 6.273 4.094c3.572 2.178 3.833 3.049 3.746 6.447 1.394-.174 4.269-.087 7.23.523 0 0 4.008 1.22 4.095 2.519.087 1.299-.522 2.36-1.655 3.057-1.027.632-8.785-3.472-10.215-4.239-.587 1.14-1.575 2.295-2.582 3.366.89.45 1.494 1.031 1.494 1.031 2.512 1.081 7.837 3.219 9.52 2.701 0 0-5.029 1.429-3.255 4.663 0 0-8.855-.045-11.207-2.224 0 0 .039-.72.276-1.514 0 0-.462.027-.492.028-.55.027-3.316.567-3.891 1.73-.125.253-.207.653.117 1.123.504.733 2.252 1.474 5.197 2.203 2.582.639 5.264 1.068 6.775 1.241 3.289.376 9.252.854 9.312.859.007 0 .015.001.022.001.147 0 .271-.113.283-.262.013-.156-.104-.293-.261-.306-.06-.005-6.013-.483-9.292-.857-1.613-.185-4.312-.636-6.704-1.228-3.678-.911-4.627-1.627-4.865-1.974-.179-.26-.135-.43-.076-.549.384-.776 2.555-1.335 3.321-1.408-.205.794-.292 1.101-.292 1.101 1.044 1.532 3.372 2.006 18.232 3.203.021.001.042.003.063.005.161.013.325.026.489.04.083.006.166.013.25.02.158.013.319.025.48.039.081.006.162.013.243.019.066.005.13.01.196.016 3.379.268 7.347.571 12.02.929 5.622.43 10.778.682 15.425.813.048.001.095.003.143.004.075.002.148.004.222.006.228.006.454.012.679.018.031.001.062.002.092.003 13.942.34 23.084-.419 26.087-.723 1.316.294 2.436.421 3.682.421.65 0 1.106-.06 1.547-.119.674-.089 1.372-.181 2.845-.067 1.592.123 1.958.05 2.381-.034.23-.045.467-.092.971-.109.157-.005.28-.137.274-.293-.002-.158-.138-.284-.291-.276zM17.045 7.137c-.558 0-1.009-.452-1.009-1.009 0-.558.452-1.009 1.009-1.009.557 0 1.009.452 1.009 1.009 0 .557-.452 1.009-1.009 1.009z"/></svg>