<svg xmlns="http://www.w3.org/2000/svg" viewBox="-160 50 700 700" style="enable-background:new -160 50 700 700" xml:space="preserve"><path d="M74.4 257.2c-8.7 2.4-13.8 11.5-11.5 20.2 2.4 8.7 11.4 13.9 20.1 11.4 8.7-2.4 13.8-11.5 11.5-20.2-2.4-8.8-11.4-13.9-20.1-11.4zM136.3 239.9c-8.7 2.4-13.8 11.5-11.5 20.2 2.4 8.8 11.4 13.9 20.1 11.4 8.7-2.4 13.8-11.5 11.5-20.2-2.4-8.7-11.4-13.8-20.1-11.4zM113.9 309.8c2.4-.7 3.6-4.3 2.5-8.2-1-3.8-3.9-6.4-6.3-5.7-2.4.7-3.6 4.3-2.5 8.2 1 3.9 3.9 6.4 6.3 5.7zM129.1 305.6c2.4-.7 3.6-4.3 2.5-8.2-1-3.8-3.9-6.4-6.3-5.7-2.4.7-3.6 4.3-2.5 8.2 1 3.8 3.8 6.4 6.3 5.7zM130.1 332.9c-11.2 3.1-23.7-1.7-23.2 0s13.7 9.2 24.9 6.1c11.2-3.1 16.2-15.7 15.7-17.4-.5-1.7-6.2 8.2-17.4 11.3z"/><path d="M421.4 513.7c18.9-68.6-37.8-184.6-158.9-254.8-12.3-7.1-24.1-12.3-35.2-15.9 12.4-6.1 19-21.6 14.8-37.1-4.7-17.2-20.9-27.6-36.2-23.3-6.4 1.8-11.7 5.9-15.2 11.3-23.2-36.6-68.3-55.4-112.1-43.2-43.9 12.3-73 51.7-74.3 95.2-5.8-2.8-12.4-3.6-18.9-1.8-15.3 4.3-23.9 21.6-19.2 38.8s20.9 27.6 36.2 23.3c1.3-.4 2.6-.8 3.9-1.4 6.4-2.9 13.9-.8 18.2 4.8 14.3 19.1 34.9 32.4 57.9 37.7 5.8 8.6 14 15.2 23.4 19-.7 19.6-4.4 39-11.1 57.5-9.7 26.8-19.2 57.3-27.7 90-30 114.9-14.3 125.8 7.2 131.5 3.7 1 7.3 1.8 11 1.8h73.7c6.8 0 12.8-4.9 13.7-11.6 1.1-8.2-5.3-15.2-13.2-15.2h-11c-15.1 0-25.6-15.1-20.5-29.5 5.2-14.8 10.8-33.2 16.8-56.2 4.9-18.8 9.2-37 12.8-54.6 3.6-17.2 24.7-23.5 36.8-11 54 55.6 159.4 57.7 148.4 80.2-.2.4-.5.6-.8.9-11.7 13-15 37.4-7 62v.1c1.3 4-1.6 8.1-5.8 8.1h-17.8c-6.8 0-12.8 4.9-13.7 11.6-1.1 8.2 5.3 15.2 13.2 15.2h58.9c5.4 0 10.7-.6 16-1.9.8-.2 1.4-.4 1.8-.5 20.9-7 21.1-44.5 16.9-59.3-2.1-7.4-1-25.6 0-33.3 2.4-16.2 16.1-35 17-38.4zM171.3 271.2c-8.1 10.1-10.8 23.7-7.3 36.5v.2c2.9 10.8 1.5 22-4.1 31.7s-14.7 16.5-25.5 19.3c-21 5.4-42.6-6.7-49.1-27.4-.2-.7-.4-1.4-.6-2-3.3-12.6-12.5-22.8-24.7-27.3-12.4-4.5-21.9-14.9-25.4-27.6-5.9-21.4 6.5-44 27.7-50.5.3-.1.7-.2 1-.3 10.7-3 22.2-1.5 31.8 4.2 1.4.8 3.1 1.1 4.6.6 1.6-.4 2.9-1.5 3.7-2.9 5.5-10.1 15-17.5 26.2-20.3 21.4-5.4 43.6 7.6 49.4 29 3.6 12.7.7 26.5-7.7 36.8z"/></svg>