<svg xmlns="http://www.w3.org/2000/svg" viewBox="0 0 200 200" xml:space="preserve"><path d="M189.4 91.1c0-.1-.1-.1-.2-.1-12.5 6.1-23.6 4.6-28 3.7l-.4-.4c4.3-1 9.8-3.6 16.1-10.1.1-.1.1-.2 0-.2-.1-.1-.2-.1-.2 0-6.1 6.3-12.4 8.6-16.7 9.6-1.1-.9-2-1.2-2-1.3 0 0 .2-.4-1.2-8-1.5-8.4-8-13-15-15.7-5.8-2.3-13.5 5.4-13.5 5.4s-7.7-.8-18.1-1.4l-1.3-2.8s-1.4-1.4-3.2.9c-.1.1-.6.7-1.4 1.5h-.5L97.4 65s-2.1-1.1-3.4 2.3c-.1.2-.9 1.9-2.2 4.6-16.8-.4-34 .4-38.5 4.7-4 3.8 1.1 6 9.4 6.6 5.4.4 14.4.4 23.1.2-1.7 3.1-3.5 6.4-5.6 9.9-16 6-32.3 12.8-32 15.6.1.5.2 1.1.5 1.6l-1.5.3c-4-.2-6.9-.4-6.9-.4s-1.8.4-.7.7c1 .3 7.8 2.3 10.1 1.7l.6-.3c2.7 2.6 8 4.4 14.9 3.5-8.3 11-17.4 20-25.9 22.3-4.7 1.3-14.1 1.9-14.1 1.9-.7.4-2.5 1.1-.7 1.5 0 0 15.8.5 18.1-1 7.5-7.2 8.5-5.6 8.5-5.6 13.1-14.6 12.6-11.5 12.6-11.5 2.5-2.8 4.8-5.7 7-8.7 9.7-2.6 27-7.5 35-9.7-.3.5-.7 1-1 1.5 0 0-5.4 7.7-17.7 15.5-3.1 1.1-7 1-7 1s-1 .7-.4 1c.6.3 4.4.2 7.9-.5 4.5-2.9 9.6-7.1 10.6-6.8 2.1-2.6 4.4-4.7 6.3-6.3-.7 3.3 0 6.4-5.3 17.3-6 5.4-13.3 14.1-19.9 20-2.9 1.5-8.6 1.9-8.6 1.9s-1.8 1.5-.2 1.5c1.6-.1 7.2.3 10.4-2 2.7-2.5 10-11.1 11.5-10.7 9.1-9.5 8.8-9.6 9.8-9.4 1 .3 4.5-12.9 6.3-17.5.7-1.8 4.2-4.7 7.5-7 .4 1.1.8 1.8 1.1 2 .6.3 1.6.2 2.7 0 .1.1.3.2.4.2.8.1 1.7-.2 2.7-.7.2.2.5.5.8.6 1.2.6 3-1.5 4.6-3.9.4.2.9.3 1.4.4 3.2 1.9 8 5.3 9.2 8.7.9 2.6 2.8 8.6 6.1 15.5 0 0 2.7-.2 7 10.1 0 0 1.4-1.2 6.7 8 1.9 2.2 9.3 2.6 9.3 2.6s.9-.6-.2-1.3c-1.2-.6-.7-.1-5-2.7-17.7-16.7-20.4-31.8-20.5-33.6-.1-1.5-6.5-6.6-9.9-8.8.1-.2.2-.5.4-.7 1 .3 2 .7 2.9 1 .4.4.8.7 1.2 1l.8-.1c1.3.6 2.3 1.2 2.5 1.7 1 1.9 2.6 7 6.3 11.8 0 0 1.3-.7 6.4 6.6 0 0 .9-1.2 6.6 5 1 .7 3 .8 4.8.7l1.8 6.1-1.1-6.1c1.2-.1 2.1-.3 2.1-.3l-.4-.9s-.6.1-2-.2l-3.7-20.3c1-1.5 3-4.9 2.8-7-.1-1.6-.7-2.9-1.4-4 1.5.3 3.5.5 6.6.5 5.4 0 12.7-1 20.5-5.1v-.4zm-84.8-8.4.9 1.5c-3.8 1.3-9.3 3.2-15.3 5.4 2.6-2.3 5-4.6 7.1-6.6 2.7-.1 5.2-.2 7.3-.3zm7.5 20.9c-.6.4-1.1.8-1.7 1.3.2-.4.4-.7.5-1l1.2-.3zm-4.6-31.4s0 .1.1.3h-.3c.1-.2.2-.3.2-.3zm-10.8-4s.8 1.5 2.1 3.9c-1.2 0-2.4-.1-3.7-.1 1-2.4 1.6-3.8 1.6-3.8zm-3.4 15c-1.9 1.7-4 3.6-6.2 5.5 1-1.9 1.9-3.7 2.7-5.3 1.2-.2 2.3-.2 3.5-.2zm39.7 16c.1-.4.2-.8.3-1.3.1.4.2 1 .5 1.6-.3-.1-.5-.2-.8-.3zm30.4 27.9c-.6-.2-1.3-.4-2.2-.7-16.5-9.9-17.8-21.1-18.8-22.9-.2-.3-.8-.7-1.8-1.2l6.8-1.2c1-.4 2.2-1 3.1-1.5.7-.3.3 4.6 2.4 7.3 1.5 1.9 3.5 1.4 5.1 1.8l5.4 18.4z"/></svg>