<?xml version="1.0" encoding="UTF-8"?>
<svg width="1200pt" height="1200pt" version="1.1" viewBox="0 0 1200 1200" xmlns="http://www.w3.org/2000/svg">
 <path d="m600 409.18c-10.562 0-19.254 5.9062-27.875 14.027-8.6211 8.1211-18.023 19.305-30.449 34.016l-0.67188 0.79297h-0.023437l-280.65 332.27c-0.13672 0.17188-0.27344 0.34766-0.40234 0.52734h680.14c-0.13672-0.18359-0.27734-0.36328-0.42188-0.53516l-281.33-333.06c-12.426-14.711-21.828-25.895-30.449-34.016-8.6211-8.1211-17.312-14.027-27.875-14.027zm0 21.879c1.9805 0 5.8516 1.4648 12.867 8.0781 7.0156 6.6094 16.324 17.508 28.742 32.207l61.902 73.293c-8.9023 7.3438-23.137 17.629-33.129 17.543-15.477-0.12891-22.012-23.93-37.93-23.59-15.914 0.33984-25.34 28.449-41.98 28.68-16.641 0.23437-23.762-27.922-41.211-26.508-17.453 1.418-25.359 35.016-41.633 37.523-9.9258 1.5312-22.164-5.3945-30.242-11.035l80.305-95.086 0.68359-0.80078-0.003906 0.003906h0.019531c12.414-14.699 21.723-25.598 28.742-32.207 7.0156-6.6094 10.887-8.0781 12.867-8.0781z"/>
</svg>
