<?xml version="1.0" encoding="UTF-8"?>
<svg width="1200pt" height="1200pt" version="1.1" viewBox="0 0 1200 1200" xmlns="http://www.w3.org/2000/svg">
 <g>
  <path d="m1173.1 400h-48.25v-73.5c0.039063-7.0391-2.7383-13.805-7.7188-18.781-4.9766-4.9805-11.742-7.7578-18.781-7.7188h-48.504v-262.5c0-13.398-7.1484-25.777-18.75-32.477-11.602-6.6992-25.898-6.6992-37.5 0-11.602 6.6992-18.75 19.078-18.75 32.477v262.5h-48.492c-7.043-0.039062-13.805 2.7383-18.785 7.7188-4.9766 4.9766-7.7578 11.742-7.7188 18.781v73.5h-48.246c-7.0938 0.007812-13.895 2.8281-18.91 7.8438-5.0117 5.0156-7.8359 11.812-7.8438 18.906v473.25l158.75 275 14.25 25h189.5c3.3242 0.03125 6.5234-1.2734 8.875-3.625 2.3516-2.3516 3.6562-5.5508 3.625-8.875v-760.75c-0.007812-7.0938-2.832-13.895-7.8477-18.906-5.0156-5.0156-11.812-7.8359-18.906-7.8438zm-273.25 87.5c-0.03125-3.3242 1.2734-6.5234 3.625-8.875s5.5508-3.6562 8.875-3.625h50c3.3281-0.03125 6.5234 1.2734 8.875 3.625s3.6602 5.5508 3.625 8.875v50c0.035156 3.3242-1.2734 6.5234-3.625 8.875s-5.5469 3.6562-8.875 3.625h-50c-3.3242 0.03125-6.5234-1.2734-8.875-3.625s-3.6562-5.5508-3.625-8.875zm0 150c-0.03125-3.3242 1.2734-6.5234 3.625-8.875s5.5508-3.6562 8.875-3.625h50c3.3281-0.03125 6.5234 1.2734 8.875 3.625s3.6602 5.5508 3.625 8.875v50c0.035156 3.3242-1.2734 6.5234-3.625 8.875s-5.5469 3.6562-8.875 3.625h-50c-3.3242 0.03125-6.5234-1.2734-8.875-3.625s-3.6562-5.5508-3.625-8.875zm75 200c0.035156 3.3242-1.2734 6.5234-3.625 8.875s-5.5469 3.6562-8.875 3.625h-50c-3.3242 0.03125-6.5234-1.2734-8.875-3.625s-3.6562-5.5508-3.625-8.875v-50c-0.03125-3.3242 1.2734-6.5234 3.625-8.875s5.5508-3.6562 8.875-3.625h50c3.3281-0.03125 6.5234 1.2734 8.875 3.625s3.6602 5.5508 3.625 8.875zm150 287.5h-75v-125c0.019531-6.625 2.6602-12.973 7.3438-17.656s11.031-7.3242 17.656-7.3438h25c6.625 0.019531 12.973 2.6602 17.656 7.3438 4.6875 4.6836 7.3242 11.031 7.3438 17.656zm0-287.5c0.035156 3.3242-1.2734 6.5234-3.625 8.875s-5.5469 3.6562-8.875 3.625h-50c-3.3242 0.03125-6.5234-1.2734-8.875-3.625s-3.6562-5.5508-3.625-8.875v-50c-0.03125-3.3242 1.2734-6.5234 3.625-8.875s5.5508-3.6562 8.875-3.625h50c3.3281-0.03125 6.5234 1.2734 8.875 3.625s3.6602 5.5508 3.625 8.875zm0-150c0.035156 3.3242-1.2734 6.5234-3.625 8.875s-5.5469 3.6562-8.875 3.625h-50c-3.3242 0.03125-6.5234-1.2734-8.875-3.625s-3.6562-5.5508-3.625-8.875v-50c-0.03125-3.3242 1.2734-6.5234 3.625-8.875s5.5508-3.6562 8.875-3.625h50c3.3281-0.03125 6.5234 1.2734 8.875 3.625s3.6602 5.5508 3.625 8.875zm0-150c0.035156 3.3242-1.2734 6.5234-3.625 8.875s-5.5469 3.6562-8.875 3.625h-50c-3.3242 0.03125-6.5234-1.2734-8.875-3.625s-3.6562-5.5508-3.625-8.875v-50c-0.03125-3.3242 1.2734-6.5234 3.625-8.875s5.5508-3.6562 8.875-3.625h50c3.3281-0.03125 6.5234 1.2734 8.875 3.625s3.6602 5.5508 3.625 8.875z"/>
  <path d="m576.08 566c-15.316-26.852-39.645-47.41-68.672-58.031-29.031-10.625-60.883-10.625-89.91 0-29.027 10.621-53.355 31.18-68.672 58.031l-345.75 601.75c-2.5469 4.3867-3.457 9.5391-2.5703 14.535 0.88672 4.9961 3.5156 9.5156 7.418 12.762 3.9023 3.2422 8.8281 4.9961 13.902 4.9531h918.25l-115.25-200.75z"/>
 </g>
</svg>
