<?xml version="1.0" encoding="UTF-8"?>
<svg width="1200pt" height="1200pt" version="1.1" viewBox="0 0 1200 1200" xmlns="http://www.w3.org/2000/svg">
 <g>
  <path d="m382.8 267c0 69.586-56.414 126-126 126-69.59 0-126-56.414-126-126s56.41-126 126-126c69.586 0 126 56.414 126 126"/>
  <path d="m1110.6 1014.8-376.2-699c-3.4062-6.4258-9.0391-11.387-15.84-13.957-6.8047-2.5703-14.312-2.5703-21.117 0-6.8008 2.5703-12.434 7.5312-15.84 13.957l-241.08 447.84-84-160.68c-3.3633-6.5508-9.0234-11.625-15.902-14.258-6.875-2.6289-14.48-2.6289-21.355 0-6.875 2.6328-12.539 7.707-15.902 14.258l-214.08 412.2c-4.9336 9.2734-4.5703 20.469 0.95703 29.402 5.4336 8.9219 15.117 14.375 25.562 14.398h968.4c10.625-0.058594 20.41-5.7734 25.68-15 5.2461-8.9492 5.5156-19.965 0.72266-29.16z"/>
 </g>
</svg>
