<svg xmlns="http://www.w3.org/2000/svg" viewBox="-10 -5 120 100" style="enable-background:new -10 -5 120 100" xml:space="preserve"><path d="M15.1 19.4s-3.1-4.9-4.4-7.8c-1.4-2.9-1-4.7-2.2-4.4-1.2.3-5 6.8-5 11.2 0 4.4 2.9 10.2 2.9 10.2s2.7-6.8 8.7-9.2zM7.3 60.3c-1.5 2.2.8 5.3 3.6 4.2 2.7-1 2-4.9 2-4.9l-5.6.7zM48.4 79.1s1.9 6.1 0 6.1-4.6 2-4.4 2.9c.2.8 4.1-.2 4.1-.2s-1.5 3.9 0 4.4c1.5.5 2.7-3.7 2.7-3.7s-.5 3.6.8 4.1c1.4.5 2.5-3.7 2.5-3.7 0 1.2 1 3.1 1.7 3.7.7.7 1.4-.5 1.4-2.2 0-1.7-1-4.1-1-4.1-.2-3.1 1.8-8.5 1.8-8.5-4.2 3.1-9.6 1.2-9.6 1.2zM27.9 74.7s-.9 1.8-1.8 2.4c-.9.6-7.4 2.9-9 3-.9 0-4.4 1.4-3.8 2 .6.6 2 .9 4.7.5.2 0 .4-.1.5-.1-1.2.3-3.4 1.1-3.5 2.2-.2 1.5 2 1.4 3 .9 1.1-.5 3.6-1.1 3.6-1.1s-2.1 2.1-2.1 2.9c0 .8 1.2.9 4.1-1.1 2.9-2 6.2-6 8.1-6.8 2-.8 1.8-3 1.8-3s-3.6-2-5.6-1.8z"/><path d="M92.2 32.6s-6.4-10.5-6.4-7.1c0 3.4 7.8 13.2 8.1 22 .3 8.8-11.5 12.9-17.6 12.9-2.4 0-5.4-.6-8.1-1.3 1.1-4 1.8-9.1.7-17-1.3-8.6-10.9-20.8-23.8-24.8 0 1.3 0 2.7-.2 4.3-.9 9.3-9.7 10-9.7 10 5.3-2.9 5.8-4.7 7-8.6.7-2.4.1-5.1-.3-6.5h-.1c-.5-2.8-2.8-4.9-4.7-5.5-4.1-1.4-9.2.3-11.3 2.7-.8.9-1.5 3.1-2 5.1-3.8 1.4-9.2 3.2-12.1 6.1-3.4 3.4-6.8 10.7-9.2 23.7-1.7 9.3 0 9.8 2.4 9.8S23 56.7 31.4 47.5c1.1-1.2 2.9-2 6.3-.7 0 0-2.7-.5-7 4.2s-16.1 8.4-16.1 8.4 1.1 3.6-1.6 5.4c0 0 12.2 3.4 19.4.5 0 0 7.2-2.5 7.7-9.7 0 0 .7 16.3-18.5 13.3 0 0 2.5 3.4 7.9 3.8 5.4.5 13.8 6.8 23.7 4.5 9.9-2.3 11.6-8.5 12.4-11.3.1-.4.3-.9.4-1.3 8.6 1.7 17 .9 26.6-5.4 12.2-7.6-.4-26.6-.4-26.6zM17.1 42.8c-2 1-4.4-1-4.4-1s.2-2.7 2.4-3.9c2.2-1.2 4.6 1 4.6 1s-.6 2.9-2.6 3.9z"/></svg>