<?xml version="1.0" encoding="UTF-8"?>
<svg width="1200pt" height="1200pt" version="1.1" viewBox="0 0 1200 1200" xmlns="http://www.w3.org/2000/svg">
 <path d="m1022.4 322.8c-21.602-32.398-49.199-64.801-81.602-96-14.398-14.398-30-27.602-46.801-40.801-67.199-54-141.6-96-207.6-118.8l-1.1992-1.1992h-2.3984c-32.398-10.801-63.602-16.801-88.801-16.801-10.801 0-24 1.1992-37.199 3.6016-74.398 14.398-171.6 66-256.8 138-3.6016 3.6016-8.3984 7.1992-12 10.801-50.398 44.398-91.199 92.398-118.8 141.6-12 21.602-22.801 42-31.199 63.602-13.199 33.602-19.199 67.199-19.199 99.602 0 34.801 6 66 19.199 96 25.199 60 76.801 109.2 152.4 146.4 61.199 28.801 126 44.398 181.2 52.801-14.398 50.398-40.801 108-70.801 192-46.793 138-22.793 157.2 199.21 157.2h22.801c12 0 24-1.1992 34.801-1.1992 164.4-13.199 160.8-85.199 160.8-216 0-51.602-8.3984-106.8-20.398-158.4 37.199-12 73.199-27.602 105.6-45.602 55.199-30 98.398-66 128.4-106.8 31.199-42 48-90 48-139.2-0.003906-51.602-20.402-106.8-57.605-160.8zm-195.6-52.801c8.3984-18 26.398-32.398 48-39.602 67.199 55.199 114 114 139.2 170.4-15.602 32.398-45.602 54-80.398 45.602-6-1.1992-13.199-3.6016-20.398-7.1992-70.801-36-102-94.801-94.801-144 2.3984-8.3984 4.7969-16.801 8.3984-25.199zm-356.4-138c46.801-22.801 91.199-37.199 123.6-37.199 6 0 13.199 1.1992 20.398 1.1992 40.801 4.8008 93.602 25.199 147.6 56.398 4.8008 10.801 8.3984 21.602 10.801 33.602 3.6016 16.801 0 34.801-7.1992 50.398-26.398 54-108 93.602-184.8 70.801-92.402-27.598-140.4-110.4-110.4-175.2zm-284.4 280.8c32.398-79.199 99.602-153.6 174-211.2 20.398 6 38.398 18 48 37.199 37.199 70.801-14.398 147.6-74.398 170.4-46.801 18-117.6 34.801-147.6 3.6016zm590.4 280.8c-18-56.398-37.199-97.199-46.801-102-13.199-7.1992-28.801-13.199-52.801-18-6-1.1992-12-2.3984-19.199-2.3984-10.801-1.1992-24-1.1992-39.602-1.1992-63.602 0-126 44.398-126 44.398-38.398 21.602-8.3984 43.199-7.1992 110.4-103.2-1.1992-193.2-20.398-189.6-90 3.6016-78 181.2-122.4 321.6-129.6 140.4-7.1992 325.2-21.602 325.2 68.398 0.003906 61.203-73.195 98.402-165.6 120z"/>
</svg>
