<svg xmlns="http://www.w3.org/2000/svg" viewBox="0 0 12.7 12.7"><path d="M10.180216 286.48111a.03034584.03034584 0 0 0-.02721.033 3.5040978 3.5040978 0 0 0 .115624.73392.60691697.60691697 0 0 0 .03608.10149 1.6145834 1.6145834 0 0 1 .14072.47604.96476076.96476076 0 0 1-.33948.92069 4.1684935 4.1684935 0 0 1-1.9993585 1.02216 4.3422544 4.3422544 0 0 0-2.1154645.88875 14.852263 14.852263 0 0 1-1.4056226.85113 3.8701534 3.8701534 0 0 0-.5524087.3965.60691697.60691697 0 0 0-.1883145.62513.10713382.10713382 0 0 1-.044461.11926L.5507371 294.738a.04359402.04359402 0 0 0 .0439249.0753l3.5090612-1.82826a.26783459.26783459 0 0 1 .2103037-.0163 2.7042281 2.7042281 0 0 0 1.5421379.0628.26783459.26783459 0 0 1 .1862253.0204 1.7265106 1.7265106 0 0 0 1.0226995.16632.1213834.1213834 0 0 0 .098322-.15483.97199829.97199829 0 0 0-.081073-.19354.10713382.10713382 0 0 1 .061736-.15433 5.8693531 5.8693531 0 0 0 1.81782-.93951 4.6185142 4.6185142 0 0 0 1.2889534-1.56096 85.093263 85.093263 0 0 0 .340552-1.14042 1.2316681 1.2316681 0 0 1 .417447-.88195 1.5563842 1.5563842 0 0 1 .547159-.16793 1.0580134 1.0580134 0 0 0 .603163-.22337.03034584.03034584 0 0 0-.01419-.0539.99015437.99015437 0 0 1-.361978-.13496 1.2753329 1.2753329 0 0 0-.72085-.14334.1213834.1213834 0 0 1-.129204-.09.74543996.74543996 0 0 0-.317009-.43732 2.6522272 2.6522272 0 0 1-.408554-.44728.03034584.03034584 0 0 0-.02826-.0137zm-5.5821541 5.73439a.08594354.08594354 0 0 1 .091546.091.08594354.08594354 0 1 1-.1715748 0 .08594354.08594354 0 0 1 .080029-.091z" transform="translate(0 -284.29998)"/></svg>