<svg xmlns="http://www.w3.org/2000/svg" viewBox="-100 0 688 456.439" style="enable-background:new -55 0 688 456.439" xml:space="preserve"><path d="M148.782 210.172c-3.653-5.739-6.948-11.943-9.793-18.506-7.463 1.786-14.417 5.365-20.322 10.469-1.702 5.708-5.04 10.853-9.82 14.967-.994.855-2.032 1.649-3.106 2.384-3.192 7.01-4.827 14.634-4.827 22.692 0 8.172 2.34 16.177 6.943 23.81 5.594 3.243 10.472 7.321 14.136 12.04 1.55 1.995 2.898 4.202 4.061 6.558 5.184.471 19.288.883 29.739-6.926 8.382-6.265 11.947-16.003 13.438-22.321-2.275.51-4.592.767-6.896.767-4.118 0-8.193-.817-11.903-2.458-6.226-2.754-10.634-7.567-12.41-13.552-2.281-7.681-1.386-15.719 2.454-22.054 2.094-3.46 4.959-6.131 8.306-7.87zM43.76 269c7.371-5.44 15.715-8.948 24.54-10.403-6.115-5.978-13.523-15.847-15.108-29.549-2.616-22.622 7.558-37.833 18.96-41.167 10.891-3.184 21.971.634 27.569 9.504 1.179 1.868.621 4.339-1.247 5.518-1.87 1.181-4.338.621-5.518-1.247-3.673-5.818-11.132-8.27-18.56-6.096-3.286.961-6.464 3.598-8.923 7.621 1.624 3.702 6.592 12.702 17.011 14.271 7.188 1.082 15.29-1.375 21.143-6.412 5.377-4.629 8.339-10.962 8.339-17.834 0-8.194-3.36-15.75-9.462-21.275-5.25-4.753-14.879-10.085-30.963-8.486-27.711 2.754-45.454 32.585-48.078 59.255-2.101 21.354 5.993 44.667 10.287 55.228 3.015-3.246 6.346-6.224 10.01-8.928z"/><path d="M121.871 337.269c12.14 1.607 26.011.917 39.247-2.005 8.313-15.839 14.494-35.688 19.446-51.601 3.061-9.836 5.668-18.205 8.251-24.284-3.611-.19-7.878-.892-11.663-2.759-1.703 7.549-5.979 19.53-16.572 27.447-9.798 7.323-21.715 8.757-29.542 8.757-.662 0-1.292-.011-1.892-.029 1.917 7.069 2.356 14.938 1.136 22.807-1.267 8.178-4.163 15.537-8.411 21.667zM339.218 210.172c3.346 1.739 6.211 4.41 8.308 7.869 3.84 6.335 4.735 14.373 2.454 22.054-1.776 5.984-6.184 10.797-12.41 13.552-3.71 1.641-7.786 2.458-11.903 2.458-2.298 0-4.609-.257-6.878-.764 1.506 6.331 5.083 16.087 13.42 22.317 10.505 7.851 24.567 7.415 29.736 6.932 1.163-2.359 2.513-4.567 4.064-6.564 3.665-4.719 8.542-8.796 14.136-12.04 4.603-7.633 6.943-15.638 6.943-23.81 0-8.058-1.636-15.682-4.828-22.693-1.074-.735-2.112-1.528-3.106-2.383-4.78-4.114-8.119-9.26-9.82-14.967-5.905-5.103-12.859-8.683-20.322-10.469-2.846 6.565-6.141 12.769-9.794 18.508zM384.372 211.039c5.853 5.038 13.956 7.498 21.142 6.412 10.42-1.568 15.388-10.569 17.012-14.271-2.459-4.023-5.638-6.66-8.923-7.621-7.429-2.171-14.887.277-18.56 6.096-1.179 1.868-3.649 2.426-5.518 1.247-1.868-1.179-2.426-3.649-1.247-5.518 5.598-8.869 16.679-12.688 27.569-9.504 11.402 3.334 21.576 18.546 18.96 41.167-1.581 13.665-9.101 23.599-15.153 29.545 8.839 1.451 17.203 4.959 24.585 10.408 3.664 2.704 6.995 5.682 10.01 8.928 4.294-10.561 12.388-33.874 10.287-55.228-2.624-26.669-20.366-56.501-48.079-59.256-16.08-1.6-25.713 3.732-30.963 8.486-6.102 5.525-9.462 13.081-9.462 21.275.001 6.871 2.963 13.205 8.34 17.834z"/><path d="M356.962 292.824c-7.827 0-19.743-1.433-29.542-8.757-10.596-7.919-14.871-19.905-16.573-27.453-3.792 1.866-8.067 2.568-11.663 2.76 2.584 6.079 5.192 14.45 8.253 24.289 4.952 15.913 11.133 35.762 19.446 51.601 13.237 2.922 27.108 3.612 39.247 2.005-4.249-6.131-7.145-13.49-8.412-21.667-1.22-7.869-.781-15.738 1.136-22.807-.6.018-1.23.029-1.892.029zM18.815 302.609l-6.607-1.009c-2.072-.315-4.146.193-5.837 1.436-1.69 1.243-2.795 3.069-3.112 5.143L.092 328.913c-.317 2.074.193 4.147 1.436 5.837 1.242 1.69 3.069 2.796 5.143 3.113l5.903.901c.332-13.678 2.4-25.709 6.241-36.155z"/><path d="M439.489 275.437c-8.787-6.485-19.167-9.81-30.044-9.606-14.69.271-29.26 6.985-37.118 17.104-5.953 7.665-8.521 19.713-6.704 31.442 1.823 11.761 7.504 21.458 15.998 27.307 9.326 6.421 22.033 7.765 33.989 3.596 9.575-3.339 16.696-9.704 19.202-17.095-.166-11.919-5.051-22.422-13.159-28.18-7.342-5.214-19.938-4.269-24.956 1.875-2.826 3.461-4.228 8.337-3.75 13.043.38 3.741 1.91 6.875 4.306 8.828 2.735 2.228 6.555 3.168 10.483 2.577 3.251-.489 5.538-1.917 6.286-3.037 1.228-1.837 3.71-2.332 5.548-1.104 1.837 1.227 2.331 3.711 1.104 5.548-2.203 3.298-6.595 5.729-11.749 6.503-6.151.922-12.247-.637-16.725-4.285-4.055-3.303-6.616-8.354-7.213-14.222-.688-6.772 1.373-13.841 5.513-18.912 7.637-9.354 25.027-10.976 35.784-3.338 10.359 7.356 16.543 20.562 16.543 35.325 0 16.904-8.43 31.733-23.129 40.686-7.491 4.563-21.305 8.635-36.644 8.635-16.071 0-33.817-4.467-47.735-17.519-17.395-16.312-27.446-48.614-35.522-74.569-3.991-12.826-7.438-23.902-10.558-28.635-8.704-13.205-21.798-15.842-21.93-15.867-2.163-.414-3.594-2.5-3.189-4.665.404-2.165 2.467-3.602 4.641-3.203.646.117 15.427 2.967 26.034 17.704 5.813.328 12.789-.672 15.819-4.479 4.636-5.825 7.45-18.494 7.721-34.759.241-14.45-3.092-27.127-8.292-31.544-10.824-9.192-27.455 3.222-27.622 3.348-1.76 1.335-4.27.99-5.604-.77-1.335-1.76-.99-4.269.77-5.604.89-.675 21.97-16.374 37.634-3.071 8.537 7.25 11.338 24.267 11.113 37.775-.013.761-.032 1.539-.057 2.328 18.448-23.625 32.201-63.238 25.34-107.346C344.651 62.468 300.339 0 244 0S143.349 62.468 136.382 107.253c-6.861 44.108 6.892 83.721 25.34 107.346-.025-.789-.044-1.568-.057-2.328-.225-13.508 2.576-30.525 11.113-37.775 15.663-13.303 36.745 2.396 37.634 3.071 1.76 1.335 2.105 3.844.77 5.604-1.336 1.76-3.845 2.105-5.604.77-.162-.122-16.856-12.489-27.622-3.348-5.201 4.417-8.533 17.094-8.292 31.544.271 16.265 3.085 28.934 7.721 34.759 3.696 4.645 12.499 4.654 15.819 4.479 10.607-14.737 25.388-17.587 26.034-17.704 2.18-.399 4.257 1.045 4.652 3.218.395 2.168-1.038 4.246-3.202 4.649-.185.036-13.243 2.69-21.929 15.867-3.12 4.732-6.566 15.809-10.558 28.635-8.076 25.955-18.127 58.257-35.522 74.569-13.916 13.05-31.665 17.518-47.735 17.519-15.341 0-29.152-4.071-36.644-8.635-14.699-8.952-23.129-23.782-23.129-40.686 0-14.763 6.184-27.969 16.543-35.325 10.754-7.638 28.146-6.016 35.784 3.338 4.14 5.07 6.201 12.14 5.513 18.912-.597 5.869-3.158 10.919-7.213 14.222-4.477 3.647-10.572 5.209-16.724 4.285-5.154-.774-9.546-3.206-11.749-6.503-1.227-1.837-.733-4.321 1.104-5.548 1.836-1.227 4.32-.734 5.548 1.104.748 1.12 3.034 2.548 6.286 3.037 3.928.589 7.749-.35 10.483-2.577 2.397-1.952 3.926-5.087 4.307-8.828.478-4.706-.924-9.582-3.75-13.043-5.019-6.144-17.613-7.09-24.956-1.875-8.108 5.758-12.993 16.261-13.159 28.18 2.505 7.391 9.626 13.756 19.202 17.095 11.957 4.168 24.663 2.825 33.989-3.596 8.494-5.848 14.175-15.546 15.998-27.307 1.817-11.729-.751-23.778-6.704-31.442-7.858-10.119-22.428-16.833-37.118-17.104-10.869-.203-21.257 3.121-30.044 9.606-22.023 16.254-30.907 43.904-27.16 84.532 3.542 38.399 32.265 79.728 86.961 79.728 55.632 0 102.724-50.986 111.803-98.605.414-2.17 2.511-3.594 4.678-3.18 2.17.414 3.594 2.508 3.18 4.678-1.82 9.544-5.052 19.177-9.49 28.542 6.988-3.759 15.917-7.124 25.516-7.124s18.528 3.366 25.516 7.124c-4.438-9.365-7.671-18.998-9.49-28.542-.414-2.17 1.01-4.265 3.18-4.678 2.166-.413 4.265 1.01 4.678 3.18 9.079 47.62 56.171 98.605 111.803 98.605 54.696 0 83.42-41.329 86.961-79.728 3.748-40.629-5.135-68.28-27.158-84.533zM292.8 198.292c5.56 0 10.068 6.229 10.068 13.912 0 7.684-4.508 13.912-10.068 13.912s-10.068-6.229-10.068-13.912c0-7.683 4.508-13.912 10.068-13.912zm-97.6 27.824c-5.56 0-10.068-6.229-10.068-13.912 0-7.683 4.508-13.912 10.068-13.912s10.068 6.229 10.068 13.912c0 7.684-4.508 13.912-10.068 13.912zM433.663 431.868c-10.057 6.868-21.46 11.569-33.922 13.967l1.782 4.435c.782 1.947 2.276 3.473 4.206 4.296 1.928.823 4.064.846 6.01.064l19.463-7.82c4.019-1.615 5.975-6.198 4.36-10.217l-1.899-4.725zM487.908 328.913l-3.167-20.734c-.317-2.074-1.422-3.9-3.112-5.143-1.69-1.242-3.765-1.753-5.837-1.436l-6.607 1.009c3.842 10.445 5.91 22.477 6.242 36.156l5.903-.901c2.074-.317 3.901-1.422 5.143-3.113s1.752-3.764 1.435-5.838zM475.84 372.916l-2.921-1.171c-2.542 11.985-7.342 23.626-13.974 33.919l3.242 1.3c1.948.78 4.083.756 6.011-.068 1.929-.825 3.421-2.352 4.202-4.299l7.807-19.468c.781-1.947.757-4.082-.068-6.011-.825-1.929-2.352-3.421-4.299-4.202z"/><path d="M329.138 439.106c-.69 1.981-.567 4.112.347 6.001.913 1.889 2.507 3.309 4.488 3.998l19.809 6.896c4.088 1.422 8.576-.745 10-4.835l1.573-4.518c-11.914-1.725-23.676-5.567-34.885-11.368l-1.332 3.826zM210.892 393.01l-3.358-2.846c-5.709 8.362-12.37 16.26-19.823 23.382-1.474 1.409-2.969 2.776-4.484 4.103l3.951 3.348c3.303 2.798 8.27 2.39 11.07-.915l13.56-16.003c2.798-3.304 2.388-8.269-.916-11.069zM157.531 435.281c-11.209 5.801-22.971 9.642-34.885 11.368l1.573 4.518c1.423 4.09 5.908 6.26 10 4.835l19.809-6.896c1.981-.689 3.575-2.109 4.488-3.998.914-1.889 1.037-4.02.347-6.001l-1.332-3.826zM52.438 436.594c-1.615 4.019.341 8.602 4.36 10.217l19.462 7.82c1.948.783 4.082.76 6.011-.064 1.93-.823 3.423-2.349 4.206-4.295l1.783-4.436c-12.463-2.398-23.865-7.099-33.922-13.967l-1.9 4.725zM12.16 372.916c-1.947.781-3.474 2.273-4.299 4.203-.825 1.929-.849 4.063-.068 6.011l7.807 19.468c.781 1.947 2.273 3.474 4.202 4.299 1.929.824 4.064.848 6.011.068l3.242-1.3c-6.632-10.294-11.432-21.934-13.974-33.919l-2.921 1.17zM280.467 390.164l-3.358 2.846c-3.304 2.8-3.715 7.766-.915 11.07l13.56 16.003c2.8 3.304 7.767 3.714 11.07.915l3.951-3.348c-1.515-1.327-3.01-2.694-4.484-4.103-7.454-7.123-14.116-15.021-19.824-23.383z"/></svg>