<svg xmlns="http://www.w3.org/2000/svg" viewBox="0 0 12.7 12.7"><path d="M2.2502199 287.55591a2.3183244 2.3183244 0 0 0-1.44140229.49015 1.2222565 1.2222565 0 0 0-.0694046.0694 4.9063694 4.9063694 0 0 1 1.28810869.25006 1.4931969 1.4931969 0 0 1 .921572.89461 3.4003303 3.4003303 0 0 0 .169488.38354 1.5299589 1.5299589 0 0 1 .078457-.11688.05333729.05333729 0 1 1 .085498.0634h.0005029a1.4235049 1.4235049 0 0 0 .043252 1.74336.39881973.39881973 0 0 1 .028164.46471.64365909.64365909 0 0 1-.5145997.29995.11956948.11956948 0 0 0-.062364.21726.76094784.76094784 0 0 0 .5026299.13519 2.2400201 2.2400201 0 0 0 .5634847-.22561 1.0987491 1.0987491 0 0 0 .4022447-.39611 3.1976841 3.1976841 0 0 1 .2360762-.29522.62921492.62921492 0 0 1 .1662692-.13097.58001918.58001918 0 0 0 .2786242-.67574.05352234.05352234 0 0 1 .1023969-.0312.68647305.68647305 0 0 1 .028164.19906 4.6769858 4.6769858 0 0 0 2.1243835.22562 1.7760026 1.7760026 0 0 1 1.0905571-1.22414.05334125.05334125 0 0 1 .038223.0996 1.6695488 1.6695488 0 0 0-1.0618899 1.34313.52276105.52276105 0 0 0 .020117.22823 1.0974883 1.0974883 0 0 0 1.0146144.76043 3.9136054 3.9136054 0 0 0 .1355904-.0644.05332537.05332537 0 0 1 .047276.0956 4.0200592 4.0200592 0 0 1-.3545669.1549.06197066.06197066 0 0 0-.016094.10712.63732655.63732655 0 0 0 .3992272.13097.23476704.23476704 0 0 0 .079463-.0151 5.6073312 5.6073312 0 0 1 1.3592232-.33264.14836884.14836884 0 0 0 .1309633-.15339 1.0623834 1.0623834 0 0 0-.01509-.13932.13962517.13962517 0 0 1 .188197-.1543 1.6639801 1.6639801 0 0 1 .647675.45425.25482273.25482273 0 0 1-.07041.39199 1.661075 1.661075 0 0 1-.557148.18347 6.5399142 6.5399142 0 0 1-1.4757017.0241 4.3598647 4.3598647 0 0 0-1.0303059.0825.85939167.85939167 0 0 0-.1824636.0583.21358647.21358647 0 0 0 .04627.40435 10.011151 10.011151 0 0 0 2.4071322.17784 7.2654887 7.2654887 0 0 0 1.465241-.32389 1.2378595 1.2378595 0 0 0 .669503-.83426.52276105.52276105 0 0 0-.106521-.45113 3.8209478 3.8209478 0 0 0-1.127472-.92942.91720885.91720885 0 0 1-.435036-.52445 2.4195662 2.4195662 0 0 0-1.5572784-1.55789 4.8851087 4.8851087 0 0 0-3.3173375.0734 1.2052029 1.2052029 0 0 1-1.3540933-.34511 7.8352086 7.8352086 0 0 0-1.06189-1.03644.81075498.81075498 0 0 0-.2640392-.14193 2.3183244 2.3183244 0 0 0-.6845906-.10813zm-.9221756.32539a.0817264.0817264 0 0 1 .084493.0815.0817264.0817264 0 1 1-.1632516 0 .0817264.0817264 0 0 1 .079463-.0815z" transform="translate(0 -284.29998)"/><path d="M2.7578791 291.58902a.3775934.3775934 0 0 1-.055322-.0875.09077003.09077003 0 0 1 .076446-.12845 2.0190564 2.0190564 0 0 0 .3965114-.0634 1.5299589 1.5299589 0 0 0 .069405.0915.29236586.29236586 0 0 1 .063369.21988h-.4810048a.09077003.09077003 0 0 1-.069405-.0322zM5.0485318 291.00511a4.7834397 4.7834397 0 0 0 2.1095973.22612 1.7760026 1.7760026 0 0 0-.015088.0946.62921492.62921492 0 0 0 .024141.27521 1.2039421 1.2039421 0 0 0 .068399.16697 5.0226343 5.0226343 0 0 1-2.5679692-.25287.52276105.52276105 0 0 1 .031182-.0181.68647307.68647307 0 0 0 .3485317-.49106zM.67222136 288.69686a7.4533232 7.4533232 0 0 0 1.31466344.42216.34122091.34122091 0 0 1 .2506612.22843 2.4938751 2.4938751 0 0 0 .6625622 1.04881 1.5299589 1.5299589 0 0 1 .1585241-.64053 3.5067841 3.5067841 0 0 1-.2092196-.45827 1.386743 1.386743 0 0 0-.8561909-.83084 4.7999157 4.7999157 0 0 0-1.33860305-.24865 1.2222565 1.2222565 0 0 0-.0975687.15198.23476704.23476704 0 0 0 .11476901.32691z" transform="translate(0 -284.29998)"/></svg>