<svg xmlns="http://www.w3.org/2000/svg" viewBox="-10.5 -10 70 70" xml:space="preserve"><path d="M5.8 23.8c0 7.5 4.4 14 10.8 17.1 1.5.7 3.1 1.3 4.9 1.6 1.1.2 2.3.3 3.5.3 1.5 0 2.9-.2 4.3-.5 1.5-.3 3-.9 4.4-1.6 6.3-3.1 10.5-9.6 10.5-17 0-5.6-2.5-10.7-6.4-14.2 2.9-2.7 2.2-6.2-.3-8.5C29 5.3 20.9 6.1 12.8 1c-1.6 1.3-2.5 2.9-2.5 4.6 0 1.5.7 2.8 1.9 4-3.9 3.6-6.4 8.6-6.4 14.2zm23.3 13.1s-2.2 6.1-4.7 0c0 0-2.2 6.1-4.7 0 0 0-2.2 6.1-4.7 0 0 0 1.7 2.1 4.7 0 0 0 1.7 2.1 4.7 0 0 0 1.7 2.1 4.7 0 0 0 1.7 2.1 4.7 0 0 0-2.2 6.2-4.7 0zm2.8-4.9s-2.2 6.9-4.7 0c0 0-2.2 6.9-4.7 0 0 0-2.2 6.9-4.7 0 0 0-2.2 6.9-4.7 0 0 0 1.7 2.4 4.7 0 0 0 1.7 2.4 4.7 0 0 0 1.7 2.4 4.7 0 0 0 1.7 2.4 4.7 0 0 0 1.7 2.4 4.7 0 0 0-2.2 6.9-4.7 0zm1.9-4.6s-2.1 5.9-4.6 0c0 0-2.1 5.9-4.6 0 0 0-2.1 5.9-4.6 0 0 0-2.1 5.9-4.6 0 0 0-2.1 5.9-4.6 0 0 0 1.7 2 4.6 0 0 0 1.7 2 4.6 0 0 0 1.7 2 4.6 0 0 0 1.7 2 4.6 0 0 0 1.7 2 4.6 0 0 0 1.7 2 4.6 0-.1 0-2.2 5.8-4.6 0zM18.2 12c2.9 0 5.4 1.8 6.3 4.4h.9c1-2.5 3.4-4.4 6.3-4.4 3.8 0 6.8 3 6.8 6.7s-3 6.7-6.8 6.7H18.2c-3.8 0-6.8-3-6.8-6.7 0-3.6 3.1-6.7 6.8-6.7z"/><path d="m26.9 20.8-1.7-1.9-1.6 1.9 1.6 3.2zM15.4 43.1c-.3-.1-.5-.3-.8-.4-.3.3-.5.7-.7 1-1 2-.8 4.2.5 4.8.7.3 1.5-.6 2.3-1 .2.4.6 1.5 1.1 1.5.5 0 .9-1.1 1.1-1.5.8.5 1.6 1.4 2.3 1 1-.5 1.4-1.9 1-3.5-.5 0-.9-.1-1.4-.2-1.9-.3-3.7-.8-5.4-1.7zM34.2 43c-1.5.8-3.1 1.3-4.8 1.7l-1.5.3c-.4 1.6 0 3.1 1 3.6.7.3 1.5-.6 2.3-1 .2.4.6 1.5 1.1 1.5.5 0 .9-1.1 1.1-1.5.8.5 1.6 1.4 2.3 1 1.3-.6 1.5-2.8.5-4.8-.2-.5-.5-.9-.9-1.3-.5.2-.8.3-1.1.5zM31.9 22.7c2 0 3.7-1.6 3.7-3.6s-1.6-3.6-3.7-3.6c-2 0-3.7 1.6-3.7 3.6s1.7 3.6 3.7 3.6zm-1.2-1.3c-.4 0-.7-.3-.7-.7s.3-.7.7-.7c.4 0 .7.3.7.7s-.3.7-.7.7zm.2-4.5c.6 0 1 .5 1 1 0 .6-.5 1-1 1-.6 0-1-.5-1-1 0-.6.5-1 1-1zM18.1 22.7c2 0 3.7-1.6 3.7-3.6s-1.6-3.6-3.7-3.6c-2 0-3.7 1.6-3.7 3.6s1.6 3.6 3.7 3.6zm1.2-1.3c-.4 0-.7-.3-.7-.7s.3-.7.7-.7c.4 0 .7.3.7.7s-.3.7-.7.7zm-.2-4.5c.6 0 1 .5 1 1 0 .6-.5 1-1 1s-1-.5-1-1c-.1-.6.4-1 1-1z"/></svg>