<svg xmlns="http://www.w3.org/2000/svg" viewBox="-55 147 500 500" style="enable-background:new -55 147 500 500" xml:space="preserve"><path d="M54 220c6.9-.7 12 2.6 15 9.7 5.1 12.2 4.4 25.7.8 28.7-1.3 1.1-3.8 1.6-6.7 1.5-10.8-.4-19.4-8.9-20.9-19.6-.7-5.3-.6-10.9 1.8-14.8 1.9-3.2 5.2-5 10-5.5zM6.2 303.7c24.1 0 26.6 11.2 31.1 19.3 10 18.2 2.4 21.6-15 24.2-25.6 3.7-30-43.5-16.1-43.5z"/><path d="M-46.9 369.4C-40.2 379-23 401.1-5.8 399c.8-.1 1-.1 1-.1.1 0 .5.3.9.5 1.8 1.2 4.9 3.1 12.5 5 8.8 2.1 28.4.5 47.3-2.2 3.4 9.7 7.8 18.9 13.2 27.4l13.2 78.7c2.7 16.2 2.5 41.2-3.9 56.3-.3.7-.6 1.5-1 2.2-4.8 10.5 2.6 22.6 14.2 22.6H126c8.2 0 15-6.3 15.7-14.4l8.1-66.2c.9-7.2 2.3-14.3 4.3-21.2l141.2 13.1 3.5 21c2.8 16.8 1.8 34-1.9 50.5-2 8.8-.7 17.3 10.6 17.3h50.6c3.3 0 6.3-1.8 8.2-4.9l1.3-5.4c6.8-27.9 20.6-53.4 40.1-74.1 9.6-10.2 17.1-22.4 21-35.8.9-3.1 1.6-6.1 2.2-9 6.3-11.8 10.7-25.7 13.2-41.7 5.1-32.2-9.8-75.8-66.8-101.4-15.8-7.1-31.8-14.9-47.8-23.1-40.1-33.5-88.4-55.7-140-64.1-7.9-1.3-13.3-2.2-13.9-2.3-19.6-3.4-37.8.7-49.9 3.5-3 .7-5.5 1.3-7.5 1.6-5.1.8-11.2-.6-18.9-2.3-4.6-1-9.8-2.2-15.7-3.1-.4-1.3-.9-2.6-1.4-3.8-5.6-13.2-16.4-20.1-29.9-18.7-9.5.9-16.7 5.2-20.9 12.3-2.5 4.1-3.8 9.1-4.1 15-32.5 12-43.4 36.7-46.6 46.9-1.4 4.5-2.7 10-4.1 15.9-2.7 11.5-6.3 27.3-10.9 30.3-.7.5-1.5 1-2.4 1.6-4.3 2.8-9.6 6.3-13.4 11-12.4 15 2.7 30.8 3.2 31.5zM157 478.7c4-11.1 9.3-21.7 16-31.5.1-.1.2-.2.2-.3 11.8-17.2 24.1-34.5 32.6-53.7-.5 1 1.5-4 1.7-4.8.9-2.8 1.6-5.6 2.3-8.5.5-2.4 1.1-4.8 1.5-7.3.3-1.6 1.1-8.1.9-5.5.9-9.8 1.5-19.5 1.1-29.4-.2-5.3-.6-10.5-1.2-15.7l-.3-2.4v-.1c-.5-2.9-.9-5.9-1.5-8.8-2.1-10.7-4.9-21.3-8.5-31.6-1.1-3.2-2.3-6.4-3.6-9.6-.2-.4-.3-.7-.5-1.1s-.5-1.1-.8-1.8c-2.4-5.2-5-10.4-7.8-15.4-2.1-3.8-4.4-7.5-6.8-11.1-.2-.7-.5-1.4-.7-2 1.9.3 4 .7 6.4 1 50.1 8.2 97.1 29.8 135.9 62.4.3.2.5.4.8.6 16.2 8.4 32.6 16.4 48.7 23.6 52.3 23.5 66.1 62.7 61.5 91.6-.8 5.2-1.9 10.2-3.1 15-5.8-42.5-45.2-68-73.4-76.6-60.4-18.4-78.8 46.4-70.4 102.5l5.6 33.4L157 478.7zM-38.5 365.3c.2-6 3.3-8.4 6.6-10.9 2.7-2 7.6-5.8 4.8-11.7-1.5-3.1-4.8-4.8-8.4-5.7 1.3-.9 2.6-1.7 3.8-2.5.9-.6 1.7-1.1 2.5-1.7 7.5-5.1 11-20 14.7-35.9 1.3-5.7 2.6-11 3.9-15.2 2.9-9.3 13-31.9 43.9-42.1 1.9-.6 3.2-2.4 3.2-4.5-.1-5.5.9-10.1 2.9-13.4 2.8-4.6 7.3-7.2 14-7.9 11.9-1.2 17.7 6.5 20.5 13.1.7 1.6 1.3 3.5 1.8 5.5.5 1.8 2 3.2 3.8 3.5 6.8.9 12.7 2.3 18 3.4 8.7 2 15.5 3.5 22.4 2.4 2.2-.4 4.9-1 8-1.7 7.6-1.7 17.8-4 29-4.4 41.1 22.7-26.6 126-82.6 154.3-23.7 4.3-53.7 7.8-63.4 5.5-6.1-1.5-8.2-2.8-9.7-3.8-2.2-1.4-4-2.4-8-1.9-9.8 1.3-22.6-11.6-31.7-24.4z"/><path d="M158.6 510.3c.6-5.1 1.5-10.1 2.8-15.1l31.3 2.9c-.7 3.6-1.3 7.2-1.8 10.8l-8.1 66.2c-.7 8.2-7.5 14.4-15.7 14.4h-21.5c2.7-3.8 4.5-8.3 4.9-13.2l8.1-66z"/></svg>