<svg xmlns="http://www.w3.org/2000/svg" viewBox="-2.696 -0.95 40 40" xml:space="preserve"><path d="m17.724 1.774.105-.233c.081-.175.104-.339.047-.502-.058-.175-.176-.304-.351-.385-.163-.094-.338-.105-.514-.023-.176.058-.314.163-.397.337l-.103.222c-.083.164-.095.339-.012.514.012.036.012.059.012.082l-.701 1.483c-.06-.012-.106-.012-.164-.012V1.482c.023-.035.046-.059.081-.07.129-.139.187-.303.187-.49V.677c0-.187-.058-.338-.187-.466-.139-.142-.303-.211-.49-.211s-.339.069-.467.21c-.141.128-.21.279-.21.466v.245c0 .187.069.351.21.49.012.011.035.035.058.07v1.821c-.035.012-.081.012-.127.023l-.679-1.401c0-.035 0-.059.013-.082.07-.174.07-.349-.013-.513l-.104-.233c-.081-.175-.222-.28-.397-.339-.175-.07-.349-.058-.513.024-.175.082-.292.222-.351.396-.058.164-.046.328.035.502l.117.233c.081.152.199.269.363.35.035.012.081.012.116.023l.63 1.308c-.314.152-.596.339-.841.584-.513.502-.77 1.062-.781 1.657 0 .141.012.269.035.397l-1.156 1.121c1.493-.654 2.567-.56 3.221.269v3.444c-.524.315-1.026.7-1.495 1.155-1.435 1.424-2.124 3.152-2.054 5.172.012.548.081 1.085.21 1.588h9.993l-4.073-6.818V3.829c-.059-.058-.13-.116-.211-.175-.058-.047-.117-.082-.175-.105l.642-1.401c.047-.011.093-.011.129-.023.163-.071.281-.187.362-.351zm-3.958 3.351c.141 0 .256.046.362.152.104.104.164.233.164.373 0 .152-.06.269-.164.362-.106.105-.222.164-.362.164-.151 0-.28-.059-.384-.164-.094-.093-.141-.21-.141-.362 0-.14.046-.269.141-.373.104-.106.233-.152.384-.152z"/><path d="M11.058 18.981c.339 1.344 1.074 2.533 2.195 3.573.374.361.77.665 1.19.922v13.507c.175.011.328.116.455.304.118.187.187.408.199.665h1.938c.012-.257.081-.479.198-.665.141-.199.303-.304.502-.304.083 0 .164.011.233.047.105.058.187.14.27.257.116.187.186.408.197.665h1.949c.012-.257.071-.479.199-.665.141-.199.305-.304.501-.304.199 0 .363.104.492.304.127.187.198.408.21.665H23.7c.012-.257.083-.479.199-.665.129-.199.305-.304.501-.304h.012v-14.15l-3.256-3.677-.105-.176-4.888-1.946-5.105 1.947zm4.857 4.507c.175 0 .351.059.513.175.105.094.21.223.315.374.223.361.326.805.326 1.318 0 .526-.104.97-.326 1.343-.222.362-.501.537-.829.537-.326 0-.607-.175-.83-.537-.222-.373-.337-.816-.337-1.343 0-.514.116-.957.337-1.318.106-.151.21-.28.316-.374.163-.117.339-.175.515-.175zm0 4.645c.328 0 .607.188.829.549.223.362.326.806.326 1.319 0 .525-.104.97-.326 1.343-.222.362-.501.537-.829.537-.326 0-.607-.175-.83-.537-.222-.373-.337-.817-.337-1.343 0-.514.116-.957.337-1.319.222-.361.503-.549.83-.549zm0 4.623c.328 0 .607.188.829.549.223.362.326.806.326 1.319 0 .525-.104.97-.326 1.343-.222.361-.501.537-.829.537-.326 0-.607-.176-.83-.537-.222-.373-.337-.817-.337-1.343 0-.514.116-.957.337-1.319.222-.361.503-.549.83-.549zm6.408-9.268c.314 0 .596.187.829.549.222.361.326.805.326 1.318 0 .526-.104.97-.326 1.343-.233.362-.515.537-.829.537-.326 0-.596-.175-.817-.537-.233-.373-.35-.816-.35-1.343 0-.514.116-.957.35-1.318.222-.363.491-.549.817-.549zm0 4.645c.314 0 .596.188.829.549.222.362.326.806.326 1.319 0 .525-.104.97-.326 1.343-.233.362-.515.537-.829.537-.326 0-.596-.175-.817-.537-.233-.373-.35-.817-.35-1.343 0-.514.116-.957.35-1.319.222-.361.491-.549.817-.549zm-4.027-4.096c.093-.151.188-.28.292-.374.163-.116.339-.175.513-.175.328 0 .607.187.829.549.222.361.34.805.34 1.318 0 .526-.118.97-.34 1.343-.222.351-.501.525-.817.537h-.012c-.326 0-.594-.175-.805-.537-.233-.373-.351-.816-.351-1.343 0-.514.118-.957.351-1.318zm.805 4.096h.012c.316.012.596.199.817.549.222.362.34.806.34 1.319 0 .525-.118.97-.34 1.343-.222.35-.501.525-.817.537h-.012c-.326 0-.594-.175-.805-.537-.233-.373-.351-.817-.351-1.343 0-.514.117-.957.351-1.319.211-.361.478-.549.805-.549zm0 4.623h.012c.316.012.596.199.817.549.222.362.34.806.34 1.319 0 .525-.118.97-.34 1.343-.222.35-.501.525-.817.537h-.012c-.326 0-.594-.176-.805-.537-.233-.373-.351-.817-.351-1.343 0-.514.117-.957.351-1.319.211-.361.478-.549.805-.549zm2.405 3.211c-.233-.373-.35-.817-.35-1.343 0-.514.116-.957.35-1.319.222-.361.491-.549.817-.549.314 0 .596.188.829.549.222.362.326.806.326 1.319 0 .525-.104.97-.326 1.343-.233.361-.515.537-.829.537-.326 0-.595-.175-.817-.537z"/><path d="M18.576 24.107c-.152.21-.222.455-.222.747 0 .291.069.536.222.734.141.199.314.304.524.304h.012c.198 0 .374-.104.526-.304.141-.198.21-.443.21-.734 0-.292-.069-.537-.21-.747-.152-.199-.328-.304-.526-.304H19.1c-.209 0-.383.105-.524.304zM16.45 24.107c-.15-.199-.326-.304-.536-.304-.21 0-.386.104-.525.304-.152.21-.222.455-.222.747 0 .291.069.536.222.734.139.199.314.304.525.304.21 0 .385-.104.536-.304.142-.198.211-.443.211-.734 0-.292-.069-.537-.211-.747zM21.577 24.854c0 .291.069.536.21.734.15.199.338.304.536.304.199 0 .374-.104.524-.304.142-.198.211-.443.211-.734 0-.292-.069-.537-.211-.747-.15-.199-.325-.304-.524-.304-.198 0-.386.104-.536.304-.141.21-.21.455-.21.747zM15.39 28.764c-.152.199-.222.443-.222.736 0 .291.069.536.222.734.139.21.314.315.525.315.21 0 .385-.105.536-.315.142-.198.211-.443.211-.734 0-.293-.069-.537-.211-.736-.15-.21-.326-.315-.536-.315-.211 0-.386.105-.525.315zM16.45 33.387c-.15-.21-.326-.315-.536-.315-.21 0-.386.105-.525.315-.152.199-.222.443-.222.735s.069.537.222.735c.139.199.314.304.525.304.21 0 .385-.104.536-.304.142-.198.211-.443.211-.735s-.069-.536-.211-.735zM23.059 29.5c0-.293-.069-.537-.211-.736-.15-.21-.325-.315-.524-.315-.198 0-.386.105-.536.315-.141.199-.21.443-.21.736 0 .291.069.536.21.734.15.21.338.315.536.315.199 0 .374-.105.524-.315.141-.197.211-.442.211-.734zM22.848 33.387c-.15-.21-.325-.315-.524-.315-.198 0-.386.105-.536.315-.141.199-.21.443-.21.735s.069.537.21.735c.15.199.338.304.536.304.199 0 .374-.104.524-.304.142-.198.211-.443.211-.735s-.07-.536-.211-.735zM19.849 29.5c0-.293-.069-.537-.21-.736-.152-.21-.328-.315-.524-.315h-.014c-.21 0-.384.105-.524.315-.152.199-.222.443-.222.736 0 .291.069.536.222.734.141.21.314.315.524.315h.014c.196 0 .372-.105.524-.315.14-.197.21-.442.21-.734zM19.101 33.072c-.21 0-.384.105-.524.315-.152.199-.222.443-.222.735s.069.537.222.735c.141.199.314.304.524.304h.012c.198 0 .374-.104.526-.304.141-.198.21-.443.21-.735s-.069-.536-.21-.735c-.152-.21-.328-.315-.526-.315h-.012z"/></svg>