<svg xmlns="http://www.w3.org/2000/svg" viewBox="0 0 800 800" style="enable-background:new 0 0 800 800" xml:space="preserve"><path d="M622.89 499.91c-9.67-5.73-17.07-13.1-22.24-22.94-7.39-14.07-14.83-28.11-22.25-42.17 1.24-.4 2.94-.94 5.29-1.69-22.14-15.43-43.11-31.49-63.54-50.35 4.2.93 6.98 1.55 10.92 2.42-12.85-16.7-29-24.94-48.23-28.12 2.51-.91 5.02-1.83 8.3-3.03-15.73-9.75-31.75-11.33-48.76-7.92 1.83-1.25 3.66-2.49 6.07-4.14-21.5-4.13-40.92-.42-59.61 9.24 1.52-2.03 3.03-4.06 5.22-6.99-23.52 7.42-44.99 16.96-67.22 28.78-2.18-10.46-5.87-20.13-5.93-29.82-.23-40.38 16.6-72.62 49.01-96.71 10.71-7.96 17.67-18.45 20.87-31.35 3.02-12.17 1.63-24.09-3.09-35.9 14.08-3.15 23.18-11.18 27.27-26.3-9.43 9.83-19.13 15.1-31.63 11.19-.46-.59-.93-1.18-1.39-1.78 4.47-3.92 8.93-7.84 13.4-11.77-5.77.5-11.01 1.46-16.15 2.79-3.31.85-5.79.36-8.59-1.88-15.06-12.01-31.84-14.72-49.72-7.48-15.98 6.47-26.95 18.5-35.12 33.42-1 1.82-3.36 3.99-5.19 4.08-49.05 2.6-98.12 4.87-147.17 7.42-6.9.36-14.58.23-20.43 3.22-11.35 5.8-21.7 13.58-32.31 20.77-1.1.74-1.93 3.43-1.42 4.55.52 1.13 2.81 1.64 4.41 2.01.84.19 1.9-.47 2.83-.83 15.98-6.11 32.28-9.11 49.61-9.45 48.77-.94 97.51-3.22 146.26-4.89 1.58-.05 3.3.44 4.76 1.12 17.26 7.98 25.82 29.2 18.87 47.47-.38-1.29-.71-2.21-.91-3.15-4.98-23.5-24.31-38.02-48.25-36.56-43.38 2.64-86.76 5.11-130.15 7.67-6.12.36-12.23.81-18.3 1.22-.15.86-.36 1.36-.3 1.82 3.71 29.02 16.6 52.92 41.83 68.25 34.07 20.69 70.74 25.51 108.92 12.9 10.57-3.49 20.54-8.82 30.9-13.35-1.38 3.25-2.84 6.72-4.34 10.18-10.62 24.53-22.62 48.44-24.37 76.02-1.63 25.72-2.39 51.19 3.22 76.55 19.15 86.43 99.25 132.18 156.04 141.2 8.48 1.35 17.1 1.72 25.5 2.53v36.67c-31.78 4.56-63.11 9.06-94.44 13.56 15.46 3.04 23.82 12.39 26.41 26.24 5.69-1.42 11.05-3.66 16.51-3.94 11.02-.58 15.83 6.4 12.45 16.85-.29.91-.63 1.79-.95 2.69.3.19.61.38.91.57 16.79-13.64 33.61-27.23 50.28-41.01 1.25-1.03 1.81-3.42 1.93-5.22.98-15.12 1.87-30.24 2.56-45.38.14-3.01 1.18-4.13 4.04-5.08 29.05-9.57 58.7-13.23 89.16-9.62 1.57.19 3.18.02 4.74.02v-9.74c-14.63-2.08-28.84-3.71-42.9-6.19-26.07-4.61-51.03-12.38-73.54-26.95-15.98-10.35-28.58-23.15-34.49-41.83-6.12-19.34-12.76-38.52-19.1-57.79-1.02-3.11-1.69-6.34-2.53-9.51 1.28.82 1.79 1.85 2.25 2.9 6.49 14.58 12.5 29.41 19.59 43.69 9.92 20 22.19 38.34 41.14 51.22 27.65 18.79 58.16 30 91.23 34.19 9.63 1.22 19.39 1.41 29.09 2.07.11-.48.22-.95.33-1.43-43.04-16.74-79.99-42.12-110.23-77.04 1.12.25 2.03.81 2.85 1.47 34.57 27.96 72.51 50.08 113.89 66.39 4.01 1.58 7.91 4.2 11.03 7.21 21.01 20.29 45.97 32.02 74.94 35.26 4.4.49 8.86.44 13.29.63.02-.37.05-.74.07-1.11l-20.22-13.65c8.37 2.21 16.15 5.47 24.02 8.49 1.7.65 3.98 1.08 5.58.5 3.48-1.27 6.7-3.26 10.46-5.18-11.77-5.46-23.05-10.37-34.02-15.9-10.99-5.54-21.85-11.4-32.42-17.68-10.58-6.29-20.96-12.98-31.03-20.05-10.08-7.07-19.85-14.62-29.45-22.35-9.43-7.59-18.47-15.67-27.69-23.53 1.03-.79 1.41-.85 1.63-.69 5.4 3.9 10.83 7.76 16.16 11.76 41.56 31.14 86.77 55.67 135.07 74.63 5.62 2.21 10.63.88 13.63-3.57 3.04-4.52 2.41-9.62-1.81-14.01-.53-.55-1.38-.78-3.25-1.8 10.48-1.82 16.04-6.75 17.95-15.8-1.68-.5-3.07-1-4.51-1.34-33.15-7.69-64.2-20.51-93.5-37.87zM307.64 179.45c.06-5.79 4.36-9.98 10.14-9.89 5.56.09 10.12 4.77 9.99 10.27-.13 5.6-4.7 9.96-10.35 9.86-5.8-.1-9.84-4.33-9.78-10.24z"/></svg>