<svg xmlns="http://www.w3.org/2000/svg" viewBox="-55 147 500 500" style="enable-background:new -55 147 500 500" xml:space="preserve"><path d="M268.3 273.3c-31.2-46.2-4.5-126.3-79.4-126.3 0 0-30 0-43.1 20-8.5 12.9-65 8.1-70.5 34.1 62.3-7 102.4 12.1 52.6 80.8C84.7 341.4 21.4 497.1 54 497.1l47.7-42c0 68.1 3.6 118.9 22.9 149.7h.1c2.3 3.3 4.7 6.4 7.4 9.2-12.5 6.5-18.5 14.3-21.4 20.7-2.7 6 2.3 12.5 9.1 12.3h152.8c6.8.3 11.7-6.3 9.1-12.3-2.8-6.4-8.8-14.1-21.4-20.7 2.7-2.8 5.1-5.9 7.4-9.2h-.2c19.3-30.8 22.9-81.6 22.9-149.7l45.6 43.1c32.4 0-29.5-168.3-67.7-224.9zm-89-104c3.5 0 6.3 2.8 6.3 6.3s-2.8 6.3-6.3 6.3-6.3-2.8-6.3-6.3c0-3.4 2.8-6.3 6.3-6.3zm60 415.3c-7.6 13.6-19.9 24.1-34.8 29-3.1 1-6 1.7-8.3 1.8-2.4-.1-5.4-.8-8.6-1.8-15-4.9-27.5-15.4-35.1-29.1-16.9-30.3-26.5-79-26.5-133.9 0-92 27-92.5 70-92.5 42.9 0 70 .5 70 92.5-.1 54.9-9.7 103.7-26.7 134z"/></svg>