<?xml version="1.0" encoding="UTF-8"?>
<svg width="1200pt" height="1200pt" version="1.1" viewBox="0 0 1200 1200" xmlns="http://www.w3.org/2000/svg">
 <g>
  <path d="m646.82 306.93c30.758 0.003906 60.254-12.211 82-33.957 21.75-21.746 33.969-51.242 33.973-81.996 0-30.754-12.215-60.25-33.961-82-21.746-21.75-51.242-33.969-81.996-33.969-30.758 0-60.254 12.219-82 33.965s-33.965 51.242-33.965 81.996 12.215 60.25 33.961 81.996c21.742 21.746 51.234 33.965 81.988 33.965z"/>
  <path d="m970.52 562.49-19.887-1.7031v-92.012c0-13.398-7.1484-25.777-18.75-32.477-11.602-6.6992-25.898-6.6992-37.5 0-11.602 6.6992-18.75 19.078-18.75 32.477v85.602l-115.7-9.8867c-16.484-6.25-30.277-18.055-38.992-33.379-25.148-47.082-52.816-92.773-82.883-136.87-21.594-21.891-51-34.301-81.746-34.5-34.648 0.007812-68.766 8.5-99.371 24.738l-3.0039 1.5-2.4531 1.3203c-2.0703-7.8555-6.6641-14.809-13.078-19.789-6.4141-4.9805-14.289-7.7109-22.406-7.7695h-60.664c-29.859 0-58.492 11.871-79.594 32.996-21.102 21.125-32.941 49.773-32.906 79.633 0 0 0.0625 52.68-0.63281 52.551-9.9453 0-19.484 3.9492-26.516 10.984-7.0312 7.0312-10.984 16.57-10.984 26.516 2.7031 24.082 7.0469 47.953 13 71.445 12.883 52.461 32.492 131.62 100.4 131.62h82.965l-16.133 112.5c-1.1055 11.09-4.8281 21.762-10.867 31.129l-85.125 136.49c-9.5312 15.438-12.281 34.121-7.5977 51.648 4.6836 17.531 16.383 32.355 32.344 40.984 10.711 4.2227 22.559 4.5859 33.508 1.0273 10.949-3.5586 20.316-10.816 26.496-20.527l108-151.5c10.133-16.449 17.125-34.633 20.625-53.633l13.496-58.867c0.84766-3.9648 3.168-7.457 6.4883-9.7812 3.3203-2.3242 7.3984-3.3008 11.414-2.7422 4.0117 0.5625 7.6641 2.6211 10.223 5.7656l79.129 79.504 33.746 186.38c1.5039 8.7422 6.0625 16.668 12.859 22.367s15.395 8.8047 24.266 8.7617h25.508c10.984-0.003907 21.438-4.7422 28.68-13.004 7.2461-8.2617 10.574-19.242 9.1406-30.137l-26.203-199.11c-3.2539-23.215-11.715-45.391-24.746-64.875l-64.875-96c-11.312-16.695-15.371-37.262-11.25-57l6.7578-36h-0.003907c0.94922-4.625 4.0977-8.4922 8.4297-10.359 4.332-1.8672 9.3047-1.5 13.316 0.98438 30.859 21.109 66.371 34.441 103.5 38.852h113.44v429.15c0 13.395 7.1484 25.777 18.75 32.477 11.605 6.6953 25.898 6.6953 37.5 0 11.605-6.6992 18.75-19.082 18.75-32.477v-430.02c19.199-2.1797 35.34-9.5039 39.387-29.738l4.4961-22.504c1.7969-8.8164 0.36328-17.988-4.043-25.836s-11.488-13.844-19.953-16.898z"/>
 </g>
</svg>
