<?xml version="1.0" encoding="UTF-8"?>
<svg width="1200pt" height="1200pt" version="1.1" viewBox="0 0 1200 1200" xmlns="http://www.w3.org/2000/svg">
 <path d="m865.31 144.38c0-3.75 0-7.5-1.875-11.25-35.625-75-112.5-123.75-195.94-123.75-119.06 0-215.62 96.562-215.62 215.62v483.75l-68.438-63.75c-10.312-121.88-111.56-212.81-239.06-208.12-4.6875 125.62 83.438 225.94 204.38 239.06l103.12 95.625v395.62c0 13.125 10.312 23.438 23.438 23.438s23.438-10.312 23.438-23.438v-46.875l97.5-90c123.75-9.375 216.56-111.56 210.94-239.06-124.69-4.6875-225 82.5-238.12 201.56l-69.375 64.688v-832.5c0-93.75 75.938-169.69 169.69-169.69 62.812 0 120 34.688 149.06 89.062-107.81 13.125-190.31 103.12-190.31 212.81v255l106.88-106.88 106.88 106.88 106.88-106.88 106.88 106.88v-255c0-110.62-83.438-200.62-190.31-212.81z"/>
</svg>
