<?xml version="1.0" encoding="UTF-8"?>
<svg width="1200pt" height="1200pt" version="1.1" viewBox="0 0 1200 1200" xmlns="http://www.w3.org/2000/svg">
 <path d="m379.22 386.76c-135.47 134.48-209.68 318.79-205.08 509.63 71.25-86.484 148.87-167.58 232.18-242.53 48-42.844 97.453-83.156 148.55-121.22 51.141-38.062 104.16-74.062 158.29-108v0.046875c7.0312-4.6875 16.5-2.7656 21.188 4.2656s2.7656 16.5-4.2656 21.188c-51.281 36.422-100.88 74.859-148.78 115.31-48 40.312-93.609 83.156-138.24 126.94-81.656 81.188-156.79 168.61-224.76 261.47 195.47 8.5312 385.5-65.859 523.31-204.79 132-132 184.55-261.37 245.16-410.86 9.375-23.156 18.938-46.688 29.062-70.922l-7.8281-1.125c-210.94-27.234-450-58.312-628.78 120.61z"/>
</svg>
