<svg xmlns="http://www.w3.org/2000/svg" viewBox="0 0 12.7 12.7"><path d="M6.8321489 286.48661a.02892853.02892853 0 0 0-.00264 0 3.4587684 3.4587684 0 0 0-1.993408 1.05162.05785706.05785706 0 0 1-.099503-.0459 1.5657861 1.5657861 0 0 1 .3825183-.86808.02892853.02892853 0 0 0-.028874-.0469 2.3974307 2.3974307 0 0 0-1.651641 1.57792.05785706.05785706 0 0 1-.1062067.009 1.1612591 1.1612591 0 0 1 .02217-1.11501.02892853.02892853 0 0 0-.037109-.0407 1.7773485 1.7773485 0 0 0-1.0304743 1.43926.05785706.05785706 0 0 1-.1097962.0195 1.6763172 1.6763172 0 0 1-.162398-.87737.02892853.02892853 0 0 0-.051018-.0201 2.1303923 2.1303923 0 0 0-.4520912 1.54082.05785706.05785706 0 0 1-.099503.0454 1.3763461 1.3763461 0 0 1-.2788717-.46394.02892853.02892853 0 0 0-.056693.009 3.4949088 3.4949088 0 0 0 .323714 1.50626 3.7620306 3.7620306 0 0 0-.7727171.83976.57857038.57857038 0 0 0 .5376583.89851 3.3302987 3.3302987 0 0 1 1.4397818.17475.57857038.57857038 0 0 1 .3850785.50775 6.0877474 6.0877474 0 0 1-.062895 1.34957.28928519.28928519 0 0 1-.178366.22321 1.6324861 1.6324861 0 0 0-.4814669.29848.08678558.08678558 0 0 0 .02481.14485 2.264239 2.264239 0 0 0 1.0284156.16443.57857038.57857038 0 0 0 .4794082-.32578 607.7 607.7 0 0 1 .4665283-.96501.28928519.28928519 0 0 1 .3948704-.12991 5.2347679 5.2347679 0 0 0 2.273837.60055.08678558.08678558 0 0 1 .039194.1629 1.2275882 1.2275882 0 0 0-.4520911.42683.08678558.08678558 0 0 0 .054634.13094 3.9133279 3.9133279 0 0 0 1.8191857-.0382.57857038.57857038 0 0 0 .2469095-.13453 2.9592937 2.9592937 0 0 0 .575823-.73252.2639332.2639332 0 0 1 .3407377-.11135 2.0423579 2.0423579 0 0 0 .951083.18507.02892853.02892853 0 0 0 .02784-.0264 1.1079219 1.1079219 0 0 0-.482523-1.0145.05785706.05785706 0 0 1 .03093-.10568 2.5386455 2.5386455 0 0 1 1.442368.4026.02892853.02892853 0 0 0 .04484-.0253 1.4963075 1.4963075 0 0 0-1.180996-1.40782.05785706.05785706 0 0 1-.01399-.10823 3.0362231 3.0362231 0 0 1 1.758851-.29331.02892853.02892853 0 0 0 .02639-.0469 1.9945876 1.9945876 0 0 0-1.792872-.7052.05785706.05785706 0 0 1-.04281-.1036 1.5569192 1.5569192 0 0 1 1.251624-.28816.02892853.02892853 0 0 0 .03093-.0438 1.6417382 1.6417382 0 0 0-1.7830792-.73355.05785706.05785706 0 0 1-.050015-.10106 1.4439362 1.4439362 0 0 1 1.1536782-.29949.02892853.02892853 0 0 0 .019-.0541 2.7573547 2.7573547 0 0 0-1.7588778-.31289.05785706.05785706 0 0 1-.056191-.0913 1.5186869 1.5186869 0 0 1 1.1969898-.63043.02892853.02892853 0 0 0 .01293-.0541 2.6640519 2.6640519 0 0 0-2.5485918-.0335.05785706.05785706 0 0 1-.074772-.084h-.00422a1.5784362 1.5784362 0 0 1 1.1562648-.68251.02892853.02892853 0 0 0 .010293-.0562 2.5374481 2.5374481 0 0 0-2.496016.54283.05785706.05785706 0 0 1-.096916-.0459 1.1883644 1.1883644 0 0 1 .5577699-.93614.02892853.02892853 0 0 0-.017419-.0536zm-1.9872321 1.37019a.07928739.07928739 0 0 1 .062367.13043 3.3222363 3.3222363 0 0 0-.7459015 1.52947.07917996.07917996 0 0 1-.1551663-.0304 3.4805962 3.4805962 0 0 1 .7809783-1.60268.07928739.07928739 0 0 1 .057722-.0268zm1.6738114.0103a.07918708.07918708 0 0 1 .050517.14332 3.7053657 3.7053657 0 0 0-1.3500709 1.62741.07947591.07947591 0 0 1-.1464038-.0619 3.8637256 3.8637256 0 0 1 1.4078196-1.69701.07918708.07918708 0 0 1 .037637-.0119zm1.6284413.41342a.07928712.07928712 0 0 1 .036607.1495 4.1229077 4.1229077 0 0 0-1.8114525 1.92022.07917994.07917994 0 0 1-.1438172-.066 4.2812676 4.2812676 0 0 1 1.8805238-1.99444.07928712.07928712 0 0 1 .038138-.009zm-4.7714103.26652a.07935791.07935791 0 0 1 .082981.099 1.9984316 1.9984316 0 0 0-.020587.90933.07926669.07926669 0 0 1-.1551663.0325 2.1567914 2.1567914 0 0 1 .021643-.98149.07935791.07935791 0 0 1 .070628-.0593zm-.9387047.26959a.07917995.07917995 0 0 1 .084538.067 3.1175319 3.1175319 0 0 0 .098447.483.07921324.07921324 0 0 1-.1520783.0438 3.2758918 3.2758918 0 0 1-.1035938-.50723.07917995.07917995 0 0 1 .072687-.0866zm6.624617.65468a.07921186.07921186 0 0 1 .027819.15517 2.5453769 2.5453769 0 0 0-1.8052501 2.0161.07934781.07934781 0 0 1-.1561957-.0268 2.7037369 2.7037369 0 0 1 1.9176329-2.14187.07921186.07921186 0 0 1 .0161-.003zm.7484881 1.19493a.07919514.07919514 0 0 1 .01742.15723 1.5854595 1.5854595 0 0 0-1.2779116 1.14077.07942175.07942175 0 0 1-.1531077-.0423 1.7438194 1.7438194 0 0 1 1.4057609-1.25524.07919514.07919514 0 0 1 .00713 0zm-8.307191.22577a.14001379.14001379 0 0 1 .1422864.14126.14001379.14001379 0 1 1-.2799275 0 .14001379.14001379 0 0 1 .1376411-.14126z" transform="translate(0 -284.29998)"/></svg>