<svg xmlns="http://www.w3.org/2000/svg" viewBox="0 0 100 100" xml:space="preserve"><path d="M94.3 20.7h-.2c-2 .5-10.2 3.5-15.2 5.7-.9-1-2.7-1.5-2.7-1.5.4.2 1.1 1.4 1.4 2-.1 0-.2.1-.2.1-1.6-.9-3.8-.2-3.8-.2 1.5 0 2.3 1 2.3 1C70.1 31.4 55.5 43 49.4 43c-.3 0-.5 0-.8-.1-3.3-.7-6.1-.8-7.9-.8-1.5 0-2.3.1-2.3.1 1.5-1.3 3.9-4.9 5.2-6.8.4-.6.7-2.8.2-3.2-.2-.2-.6-.3-.9-.3-.4 0-.7.1-.8.5-1.6 4.1-6.3 7.5-6.9 7.8-.7.4-2.4.8-4.2 2.3-1.7 1.5-1.7 4.4-1.7 4.4s-5.9 6.8-7.3 8.8c-1.5 2-2.4 3.9-2.4 3.9-1.5 2.5-1.1 2.9-.6 2.9.3 0 .6-.2.6-.2 2-3.1 9-8.8 9.9-8.8.1 0 .1 0 .1.1-.2 1.2-3.4 7.8-4.9 9.7-.6.7-.7 1.4-.7 2 0 .3.2.4.4.4.3 0 .7-.2.9-.5l7.6-9.4c1.9-1 6.7-6 6.7-6s.4-.1.9-.1c1.7 0 5.1.5 4.2 4.6-.6 2.5-.5 4.7-.3 6.9.3 2.5 1.1 3.9 2.3 6.1l1.4 2.4s1.3 2 2.9 3.2c1.5 1.2-1.2 1.7-2.9 4.4s0 1.7 0 1.7l2.9-1.2s2.7-3.3 2.8-4.8c.2-1.5-2.4-.5-2.8-3.3 0 0 .8-3.2 2.7-4.3.2-.1.5-.2.7-.2 1.7 0 4.4 2.1 5.7 3.1-.6 2.2-2.9 1.4-2.7 2.8.2 1.5 2.8 4.8 2.8 4.8l2.9 1.2s1.7 1 0-1.7-4.4-3.2-2.9-4.4c1.5-1.2 2.9-3.2 2.9-3.2l-.1-.9c-.4-3.5-2.1-9.7-2.1-9.7 0-5.9 13.9-14.2 13.9-14.2 4.8-11.8 17.6-19.7 19.9-21 .2-.1.3-.4.3-.6 0-.4-.3-.7-.7-.7zM32.8 48.3c-.6 0-1.1-.5-1.1-1.1 0-.6.5-1.1 1.1-1.1.6 0 1.1.5 1.1 1.1 0 .6-.5 1.1-1.1 1.1z"/><path d="M41.4 40.7c1.9 0 4.5.2 7.5.9h.5c.3 0 .6 0 1-.1-1.9-.9-4.4-2.1-7.1-3.4-.7 1-1.3 1.8-1.9 2.6zM22.9 33.2c1.2 1.8 4.2 4.8 7.6 7.9 1.3-1 2.5-1.5 3.4-1.9.3-.1.5-.2.6-.3.4-.2 2.2-1.5 3.8-3.4-5-2.6-9.7-5.3-11.5-7.1-.1-.1-.3-.3-.5-.4.6-1.4-.5-3.6-.5-3.6.2.5-.6 2.4-.7 2.8-.2-2-2.4-3.4-2.4-3.4 1 1.1.8 2.4.8 2.4v.3c-5.2-2-13.9-2.7-18.2-2.9-.4 0-.4.5-.1.6 4.8 1.6 15.3 5.2 17.7 9z"/></svg>