<svg xmlns="http://www.w3.org/2000/svg" viewBox="0 0 512 512"><path d="M372.525 128.062Q373.9 128 375.27 128a63.436 63.436 0 0 1 18.684 2.858l2.305-9.218a125.388 125.388 0 0 0-6.391-79.778 16.27 16.27 0 0 0-29.9-.008 125.211 125.211 0 0 0-6.3 18.6 140.625 140.625 0 0 1 15.032 44.177ZM88.884 369A40.052 40.052 0 0 0 80 368H56v24a40.045 40.045 0 0 0 40 40h1.345a130.771 130.771 0 0 1-8.461-63ZM328.155 441.569l-4.52-22.6L300.96 424l2.574 12.88L332.282 480h20.77l-23.708-35.562a8 8 0 0 1-1.189-2.869Z"/><path d="m438.029 176.294-36.546-24.356a44.872 44.872 0 0 0-5.431-3.1c-.1-.045-.189-.093-.281-.142a46.955 46.955 0 0 0-28.555-3.989 8 8 0 0 1-9.261-6.593l-5.05-30.9a124.784 124.784 0 0 0-14.692-41.64c-.026-.047-.053-.093-.078-.141a124.929 124.929 0 0 0-22.282-28.585 16.747 16.747 0 0 0-15.647-4.335A16.311 16.311 0 0 0 288 48.3a124.62 124.62 0 0 0 25.538 75.59l23.162 30.346a8 8 0 0 1 .142 9.514A46.979 46.979 0 0 0 328 191.27V224a8 8 0 0 1-4.422 7.155l-64 32a7.975 7.975 0 0 1-2.009.69l-66.19 13.24a108.722 108.722 0 0 0-85.74 87.7c-4.161 23.717-.315 48.5 11.124 71.674 1.978 4 4.208 8.014 6.627 11.917.075.121.147.244.215.368L140.738 480H272v-8a16.019 16.019 0 0 0-16-16h-32a8 8 0 0 1-8-8v-8a7.939 7.939 0 0 1 .081-1.132 62.389 62.389 0 0 0-39.857-67.24l-11.033-4.138 5.618-14.98 11.033 4.137A78.391 78.391 0 0 1 232.073 440h17.383l7.053-18.809a8 8 0 0 1 5.758-5l58.23-12.914-8.342-41.707 15.69-3.138 15.689 78.448L372.281 480H416a16.019 16.019 0 0 0-16-16h-8a8 8 0 0 1-7.155-4.422l-8-16A7.994 7.994 0 0 1 376 440v-88h16v11.066A89.757 89.757 0 0 0 408 312v-56a8 8 0 0 1 8-8h1.1a38.9 38.9 0 0 0 38.9-39.461 39.666 39.666 0 0 0-17.971-32.245ZM392 208a16 16 0 1 1 16-16 16.019 16.019 0 0 1-16 16Z"/></svg>