<svg xmlns="http://www.w3.org/2000/svg" viewBox="0 0 100 100" xml:space="preserve"><path d="M98.137 79.776c-.719-1.773-5.174-2.148-7.902-.389-8.941 5.766-11.678 4.689-15.549 1.167-5.766-5.248-3.848-9.736-3.368-14.122.905-8.294-2.138-25.784-16.843-36.796-5.933-4.443-11.403-4.794-17.611-11.076.442-1.881.995-4.689-.27-5.638-1.814-1.361-4.989-.584-5.705.197-3.627-1.813-5.373-1.743-5.589-2.363-.805-2.323-2.867-5.273-3.406-5.273-.628 0-2.094 1.257-2.402 2.905-.309 1.651.295 3.242-.038 3.553-1.336 1.254-3.332 2.666-4.368 4.479-1.037 1.814-.134 4.142-1.296 5.701-1.138 1.527-3.143 2.35-3.757 3.11-.414.512-.207 1.889.432 2.391.837.658 1.275-.16 3.112 1.136 1.836 1.296 3.773.992 5.138 1.137.706.074.667 2.221 0 3.368-1.304 2.239-3.762 1.296-5.557 1-1.617-.267-5.086-2.094-7.838-1.615-2.278.396-4.162 3.156-2.932 3.83 2.513 1.376 3.578-.597 4.309-.478 2.213.358 5.372 2.055 3.949 1.974-4.188-.239-7.261 3.832-5.026 4.249 3.53.659 3.291-1.257 5.863-.658 5.653 1.315 10.18 4.224 11.788 4.728 9.154 2.87 8.917 2.313 12.026 6.46 3.109 4.146 2.539 4.983 1.795 7.479-.838 2.812-3.609 9.456-2.573 13.343 1.036 3.888 2.167 6.787 2.139 8.083-.027 1.295.499 3.196-1.943 3.691-8.939 1.814-8.569 3.398-8.436 4.642.079.735 4.48.695 5.196.606 1.164-.147 4.903-1.713 9.2-3.822 3.586-1.763 2.785-1.037 3.951-3.563 1.133-2.457 2.655-6.739 3.757-7.904 1.943 10.041 6.658 9.563 6.932 12.568.194 2.137-7.969 2.719-8.616 4.793-.711 2.279-.258 2.331 3.888 2.331 3.11 0 10.301-4.081 10.364-5.247.204-3.659 2.591-10.139 3.758-11.208.373 2.544 3.415 7.709 4.341 8.805 2.955 3.505 5.636 5.253 11.337 5.253s9.315-1.52 11.92-3.238c3.044-2.01 6.93-6.868 5.83-9.589zM21.148 6.646c.831-.57 1.379-.891 3.051 3.754-1.503-.121-3.199.266-4.105.765-.398-3.257.503-4.141 1.054-4.519zm-5.997 11.228c.396-1.438.193-1.209.573-1.436.595-.356 1.738.145 3.229.342.408.054-2.086 2.388-2.449 2.388-.249 0-.263-.784-.696-1.173-.433-.39-.715.088-.657-.121zm3.556 11.457c-2.95-.148-3.563.015-6.147-1.827-1.118-.58 1.218-1.619-.549-2.92.572-.433 1.454-1.149 1.999-1.774.11.07-1.156 1.539-1 1.774.2.3 3.551-1.315 3.498-1.05-.55 2.779 1.419 4.256 2.145 4.647 1.465.788 3.452.802 5.951.802-.25.462-5.56.365-5.897.348zm.442-6.652.111-.073c1.182-.775 2.149-.555 2.799.619l.051.092-.049.093c-.284.535-.803.867-1.354.867-.587 0-1.297-.386-1.529-1.468l-.029-.13zm9.663 5.953c-1.924-1.682-3.071-2.962-3.708-4.548-.699-1.741-2.851-3.056-4.487-3.24-.999-.113-2.874.241-2.292-.407.583-.648 2.41-3.882 2.657-2.527.13.712-.436 1.623-.126 1.875.36.294 3.43.716 4.53 1.169.396.163 2.808 2.194 3.678 2.779 1.824 2.718 1.476 6.408-.252 4.899zm7.394-10.463c-.862 2.3-2.256 3.315-2.806 2.667-.521-.616.152-.98.354-1.238 1.937-2.481 2.112-4.923 1.61-5.381-1.419-1.295-5.636 1.621-6.154 1.427-.519-.195.485-.868 1.046-1.268 1.617-1.154 4.13-2.182 5.892-.767.633.508.671 2.923.058 4.56zm29.439 60.233c.52-.647 3.281-3.527 4.117-5.558 0 2.073 1.012 3.688 1.399 4.211-1.917 1.101-3.53 3.61-4.185 4.664-.582-1.101-1.331-1.85-1.331-3.317zm5.516 10.055c-.971-.714-1.982-2.817-2.501-3.66.513-2.728 2.505-4.579 4.412-4.928 1.058.749 1.555 1.896 1.749 2.308-1.82 1.227-3.466 5.152-3.66 6.28zm8.721 3.425c-1.227-.122-3.909-.149-4.845-.883-.844-1.765 1.475-7.046 3.121-7.1 1.225.562 1.59.317 1.899.86 1.137 1.421 1.362 5.651-.175 7.123zm7.089-.785c-1.555.453-1.229.519-2.462.453.713-1.101-.129-6.153-.776-7.644.4-.52 1.295-.583 1.942-.777 1.841 1.458 3.369 5.636 1.296 7.968zm6.372-3.547c-.454.519-1.359 1.037-2.073 1.426-.194-3.046-.972-5.117-3.304-7.386.647-.388.986-.622 1.555-.972 2.656 1.425 3.949 3.992 3.822 6.932z"/><path d="M20.706 23.89c.382 0 .734-.212.958-.569-.518-.868-1.178-1.004-2.076-.462.208.756.706 1.031 1.118 1.031z"/></svg>