<?xml version="1.0" encoding="UTF-8"?>
<svg width="1200pt" height="1200pt" version="1.1" viewBox="0 0 1200 1200" xmlns="http://www.w3.org/2000/svg">
 <g>
  <path d="m535.19 114.48c5.8555 5.8164 11.523 11.82 17.129 17.875 9.9414 10.738 23.324 25.789 36.836 42.805 13.359 16.824 27.684 36.617 38.902 56.77 10.371 18.629 21.941 44.195 21.941 70.848 0 82.625-68.496 147.22-150 147.22s-150-64.598-150-147.22c0-26.652 11.57-52.219 21.938-70.848 11.219-20.152 25.547-39.945 38.906-56.77 13.512-17.016 26.898-32.066 36.84-42.805 5.5547-6.0039 11.184-11.949 16.977-17.727 19.262-19.137 51.199-19.301 70.531-0.14844z"/>
  <path d="m800 350c20.914 0 34.074 13.078 47.281 27.207 7.0703 7.5742 17.109 18.48 29.129 31.984 23.988 26.953 56.102 64.516 88.328 106.72 32.09 42.027 65.086 89.688 90.281 136.75 24.422 45.621 44.98 96.926 44.98 144.55 0 166.7-133.8 302.78-300 302.78s-300-136.08-300-302.78c0-47.629 20.559-98.934 44.98-144.55 25.195-47.062 58.191-94.723 90.281-136.75 32.227-42.207 64.34-79.77 88.328-106.72 12.02-13.504 22.059-24.41 29.129-31.984 12.98-13.891 26.836-27.207 47.281-27.207z"/>
  <path d="m285.34 514.63-0.14844-0.14844c-20.285-20.098-52.18-18.238-71.824 1.4453-2.5273 2.5508-8.1914 8.3359-15.684 16.43-9.9414 10.738-23.328 25.789-36.84 42.805-13.359 16.824-27.688 36.621-38.906 56.773-10.367 18.625-21.938 44.191-21.938 70.84 0 82.633 68.496 147.23 150 147.23s150-64.594 150-147.23c0-26.648-11.57-52.215-21.938-70.84-11.219-20.152-25.547-39.949-38.906-56.773-13.512-17.016-26.898-32.066-36.84-42.805-5.5547-6.0039-11.184-11.949-16.977-17.727z"/>
 </g>
</svg>
