<svg xmlns="http://www.w3.org/2000/svg" xml:space="preserve" style="shape-rendering:geometricPrecision;text-rendering:geometricPrecision;image-rendering:optimizeQuality" viewBox="0 0 848 671" fill-rule="evenodd" clip-rule="evenodd"><defs><style>.fil0{fill:#000}</style></defs><path class="fil0" d="M659 32c-19-50-156-53-175 73-5 37 8 68 28 87 25 24 58 26 74 11 4-4 7-10 6-9s-6 4-16 6c-34 5-59-51-47-87 7-24 27-39 29-42 2-6-5-15-2-16 17-7 60 12 68 10 7-1 15-7 23-13s15-13 12-20zM713 32c29-2 58 13 54 45-3 40-50 120-23 151 21 24 76-1 100-17 2-1 3-2 4-2-42 74-144 52-141 26 0-6 10-2 13-31 1-10 9-27 12-42 1-24 7-25 3-44-3-18 22-53-11-70-8-4-46-16-11-16z"/><path class="fil0" d="M722 164c0 1-7-37-13-50-4-10-20-15-24-9 0 0 16-3 22 19 2 9 3 17 6 26 9 18 1 23-14 12-24-16-24 41-2 19 1 1 0 8 0 10 1 9 15 10 13 13-26 26-25-6-35-6-1 0-1 2 0 5 2 2 5 7 8 9 9 9 18 5 26 0 5 0-2 24-20 24-13-1-27-19-35-19-6-2-13-5-18-9-9-8-22-30-23-29s8 21 17 28c7 7 22 13 22 13-9 9-23 24-21 26 0 2-9 33-9 33-11 6-51 37-72 46-18 8-66 15-50 40 7 13-11 8 2 26 2 3-14 16-16 19-4 5-9 24-11 32-1 3-10 90-10 95 1 6 6 49 6 49-3 18-36-93-42-110-5-14 0-52-1-71-1-10-30-129-29-123-1 0 5 43 6 49 0 5 10 34 8 36-10 11-108-29-142-26-13 1-96 20-91 9 5-15 17-22 19-41 2-17-5-34-24-33-2 0-2 0 0 1 74 21-66 138-83 160-20 23-35 45-48 74-4 9-38-51-31-70 0-1 50-80 53-84 3-6-30-37-34-68-9-56-2-60 23-100 1-1-15 9-29 38-1 2-7 27-7 27-6-5-6-19-5-26 3-94 128-121 205-107 8 1 21 5 28 4 46-7 192-25 232-17-2 10-2 15 0 23 4 23 6 53 34 71 51 34 95-2 82-13-4-3-13 6-23 6-13 0-27-12-33-24-9-17-6-50-2-58 0-1 54-3 64-13 7-7 18-26 20-27 5-5 15-9 20-12 18-12 19-21 24-24 8-4 23-2 54 14 8 5 11 13 14 21 3 9-3 27-5 38 0 0-5 1-8 3-2 2-2 9-2 9 1-1 7-9 9-7 1 1 4 5 1 9 0 1 3 2 3 5 0 4 0 9-1 14-2 11-8 21-8 21zm-75-55c-2-1-11-12-9-15 1-2 12-2 17-1 3 1 15 10 10 15-2 4-15 2-18 1z"/><path class="fil0" d="M614 76c0-3-2-6-6-9-4-2-9-4-14-5-6-2-11-3-16-4s-10-2-13-1-5 3-4 8c1 4 5 10 8 14 3 5 6 7 10 9 3 3 8 6 12 7s6 1 7 1 1 0 3-2c1-2 5-6 8-9s5-6 5-9zM650 236c-6-5-16 25-17 31-2 10 3 15-9 18-30 13-47 38-73 47-11 6-59 21-49 24 16 18-2 24 1 27 12 12-2 18-7 28s15-9 17-11c5-5-1 11-1 13-1 4-2 5 0 4 12-5 18-25 24-36 6-12-4 24-2 23 15-7 23-32 31-45 6-11-11 40-11 40 1 1 1 0 2 0 17-9 29-55 29-54 1 6-3 31-3 31 13-5 21-40 23-55 3-12-2 38 2 35 10-11 12-36 17-51 3-13 3 30 3 29 12-16 13-44 18-51 4-6 4 23 6 19 9-13 10-56-1-66zM416 378c2 3 4 13 5 18 1 2-44-9-48-10-42-9-122-14-164-5-13 2-33 7-47 4-3-1-3-3 0-7 4-4 10-12 13-15 3-4 3-4 11-5 30-2 66-10 94-10 13 0 134 29 136 30zM470 594c1 0 2 10 3 12 1 3 2 6 4 9s5 8 7 11 2 4 6 8c5 4 12 11 15 14 1 2 6 6 2 8-2 0-8-2-9-4-4-1-9-10-10-10s-1 1 0 2c3 10 15 15 15 16s-6 3-7 4c-7 1-18 3-23 3-5 1-14-1-16-6-1-3 0-7 2-9 8-4 17-6 22-14 1-2 0-2-1-1-6 3-24 17-27 12-4-6-3-13-4-19-2-7-6-5-9-7-5-2-3-65-3-74 0-8-7-67-2-46 0 0 14 74 35 91zM395 402c-4 27-5 38-13 65-7 24-12 48-18 72-5 21-10 28-17 47-3 12 9 34 12 34 1 0 15-10 19-12 8-2-15 14-17 16-6 7 5 11 11 13 6 1 22 2 28-1 5-3-15-16-10-16 2 0 13 11 19 11 8-1-21-25-23-32-1-4-4-18-4-23-2-40 37-83 39-106 3-13 2-40 2-55 0-10-26-23-28-13zM147 390c-18 8-56 57-69 73-4 6 15 36 18 42 10 19 22 30 25 52 2 8 2 27 4 32s7 11 12 11c13 0 8 11 13 16 2 1 28-20 28-14-2 0-23 15-23 21 0 9 34 10 43 7 6 0-8-14-10-16-5-10 15 14 18 11 10 0-15-24-15-25-6-6-13-19-18-23-26-17-39-54-44-83-6-31 2-68 16-96 2-6 4-9 2-8zM24 499c3 5 9 10 13 17 7 11 6 19 7 31 1 13 16 58 16 58-3 18 14 29 25 41 3 4 11 12 7 17-6 0-16-11-20-16 0 0 0 3 2 7 3 3 6 7 8 9 3 5-1 8-6 8s-24-3-29-4c-4-2-9-5-11-8-5-4 15-12 19-14 6-3 9-5 5-4s-16 6-22 6c-8 2-7-12-18-26-4-8-6-88-9-108-2-16-10-38-11-50 0-4 1-12 6-14 3 5 7 32 18 50z"/><circle class="fil0" cx="652" cy="102" r="6"/><path class="fil0" d="M721 178c1-2 1-4 1-5s-2-2-4-2c-1-1-5-1-6-1-1 1-2 2-4 3-1 0-2-1-4-2s-4-3-6-4-4-1-6 0-4 2-6 4c-2 1-3 3-2 5 0 2 2 3 4 4 2 0 4-1 6-1 2-1 3-1 5 0 1 0 2 2 3 4 0 2 0 5 1 7 1 3 2 5 5 6 2 2 5 1 6 0 3-1 4-4 5-6 0-2 1-3 0-4s-4-1-6-1-5 0-6-1c-1 0-2-2-1-2 0-1 2 0 3 0 2 0 3 1 5 1 3 0 5 0 6-1s1-2 1-4z"/></svg>