<svg xmlns="http://www.w3.org/2000/svg" xml:space="preserve" style="shape-rendering:geometricPrecision;text-rendering:geometricPrecision;image-rendering:optimizeQuality" viewBox="0 0 846.66 846.66" fill-rule="evenodd" clip-rule="evenodd"><path d="M202.49 403.47c-77.65 61.83-98.5 48.89-104.97 43.86-6.47-5.04-20.13-34.51-45.3-32.36-25.16 2.16-13.66-53.2-13.66-53.2S-16.08 223 24.9 193.52c0 0 6.83 63.63 55.01 101.74 0 0-12.58-56.44 1.08-54.29 13.66 2.16 30.56 43.86 42.78 47.46 12.22 3.59 49.61-58.6 49.61-58.6s-57.16-35.59-42.42-61.48c14.74-25.88 65.07 32 65.07 32l8.99-9.35s-10.43-45.3 21.93-55.36c32.35-10.07 24.44 39.9 24.44 39.9s52.13-28.04 85.92 1.44 110.73 80.53 168.97 60.4c58.24-20.13 143.8-1.44 184.06 25.88 40.27 27.32 138.77 29.48 144.52 162.5l2.16 55.36-29.48-84.84s.08 6.55-2.35 16.78c-7.6 48.34-39.03 106.81-37.91 137.09 1.43 38.83 8.63 95.63-7.19 98.5-15.82 2.88-5.03 23.02-17.98 44.59-12.94 21.57-75.49 5.75-75.49 5.75s4.31-35.95 22.29-35.23c17.97.72 30.91-29.48 30.91-42.42 0-8.55-5.01-60.94-12.97-98.06 14.48-43.32 27.25-97.63 20.33-141.38-5.36 66.36-23.82 109.52-42.04 136.73-18.92 5.42-40.75 9.62-65.98 12.11-82.05 8.08-154.55.7-211.19-11.43-20.46-41.78-50.62-91.65-87.71-118.61 42.77 50.29 60.3 93.56 66.79 125.6-19.62 44.82-10.04 94.52-9.47 114.45.72 25.16 23.73 38.11 17.98 51.05-5.76 12.94-85.56 36.67-85.56 4.31 0-32.35 30.19-38.1 28.76-52.48-1.44-14.39-10.07-100.67-30.92-111.45-.43-.22-.86-.48-1.3-.77-20.29-44-52.94-102.21-94.13-132.15 40.16 47.23 58.07 88.26 65.47 119.62-42.77 28.54-60.24 79.43-70.08 97.65-11.96 22.16 1.49 44.87-9.96 53.2-11.45 8.34-92.43-11.02-76.25-39.04 16.17-28.02 45.2-17.9 51.14-31.08 5.95-13.17 41.62-92.2 28.96-111.97-7.54-11.76-2.26-50.8 3.25-80.49-1.51-2.34-2.45-3.68-2.45-3.68zm-18.46-130.84c-6.65 0-12.04 5.39-12.04 12.04 0 6.65 5.39 12.05 12.04 12.05 6.65 0 12.05-5.4 12.05-12.05s-5.4-12.04-12.05-12.04z"/></svg>