<svg xmlns="http://www.w3.org/2000/svg" viewBox="0 0 100 100" xml:space="preserve"><path d="M69.44 28.01c-.01.99-.82 1.51-1.32 1.25-.38-.2-.56-.82-.49-1.22.12-.79 1.05-2.02 1.37-2.42.04-.05.13-.04.14.03.1.34.3 1.23.3 2.36zM66.25 22.89c-.06.87-.81 1.28-1.24 1.02-.32-.19-.43-.75-.35-1.11.15-.69 1.05-1.71 1.35-2.04.04-.05.12-.03.13.03.06.31.19 1.1.11 2.1zM64.66 30.93c-.02.8-.59 1.44-1.35 1.28-.63-.13-.74-1.05-.61-1.45.32-1 1.26-2.19 1.53-2.52.03-.04.09-.03.1.02.1.34.37 1.42.33 2.67z"/><path d="m83.51 21.93 1.22.34.05-1.26c.02-.43-.2-1.29-1.91-2.21-.3-.16-.57-.24-.78-.3-.34-.09-.72-.2-1.46-.91 0 0 0-.01-.01-.02-.11-.31-.42-1.37.38-2.45 1.25-1.66 1.24-4.97-.01-6.57-1.08-1.37-2.62-2.32-2.69-2.36l-1.36-.84-.15 1.6s-.01.04-.01.11c-1.51-1.52-3.43-2.69-6.39-2.47l-2.19.16 1.55 1.55c.06.06.11.12.15.18-3-1.65-5.83-1.45-7.94.62l-1.24 1.22 1.69.46c.9.24 2.26.98 2.12 1.92-.21.29-1.03.93-1.54 1.32-1.3.97-1.99 1.56-1.99 2.37v1.36l1.21-.41c1.31-.41 2-.5 2.43-.5.35 0 .47.06.48.06.01.03.07.39-.49 1.4-.87.79-1.69 1.72-2.48 2.81-2.17 2.99-3.1 6.63-3.99 10.15-1.03 4.08-2.02 7.94-4.81 10.42-1.3.39-3.47 1.25-5.59 2.53-.86-.89-2.63-2.33-5.38-2.83-1.34-4.32-4.69-12.53-9.02-16.44-5.07-4.58-12.84-8.33-19.47-5.18-.56.27-.88.84-.82 1.46.04.43.26.8.6 1.04-.89.12-1.63.33-2.15.61-.79.43-1.01.99-1.06 1.38-.13 1.22.86 1.88 2.47 2.46-1.21.18-2.22.48-2.82.9-.64.44-.81.96-.84 1.32-.1 1.26 1.36 2.14 3.92 3.14-.47.17-.86.45-1.08.89-.24.47-.27.97-.09 1.44.39 1.04 1.65 1.58 2.78 2.04-.15.25-.25.54-.24.89.05 1.05 1.11 1.73 2.15 2.26.2.1.37.2.52.28-1.45.21-3.55.77-4.54 1.92-.42.48-.61 1.05-.56 1.64.1 1.19 1.37 1.38 3.7 1.71-1.02.46-1.82 1.08-2.4 1.73-.83.94-1.16 1.91-.9 2.68.24.7.83.94 3.71 1.52-.77.42-1.42 1.04-1.7 1.98-.21.72 0 1.24.21 1.54.62.91 1.94 1.01 3.21 1.11.2.01.46.03.69.06-.12.2-.26.41-.39.62-.58.88-1.13 1.71-.91 2.6.07.31.27.74.8 1.05.7.4 1.62.45 2.43.48.08.01.18.01.29.02-.11.15-.22.29-.32.42-.33.43-.61.8-.54 1.32l.09.47.33.25c.29.22.6.25.91.27-.01.05-.03.1-.05.15-.31 1.01-.9 2.89.65 3.56.33.15.95.2 1.73.2 1.08 0 2.46-.11 3.73-.24-.2.33-.4.66-.6 1-.82 1.38-1.62 3.09-.56 4.06.96.88 2.63.2 3.86-.52.11.3.3.55.55.75.53.41 1.54.7 3.34-.14.38.43 1.01.81 2.06.81.72 0 1.63-.18 2.8-.64.55.44 1.66 1.48 2.71 3.44l.25.47c1.36 2.55 3.4 6.35 6.1 7.98.45 1.65 2.1 7.77 2.36 9.11.07.37.09.63.08.79-.94-.26-1.94-.12-2.64.39-.6.43-.93 1.08-.93 1.84 0 .47 0 1.89 1.01 2.17l.47.13.39-.3c.33-.24 1.39-.84 2.24-.66 1.75.36 5.09.22 6.35.1 2.2-.21 4.13.09 4.48.49.22.26.53.39.86.39.1 0 .21-.01.32-.04.43-.12.74-.47.82-.92.28-1.6-.36-2.81-1.72-3.25-.9-.29-2.29-.18-3.52-.09-.48.04-1.03.08-1.22.06l-.24-.02c-1.18-.11-2.03-.19-2.48-2.52-.47-2.45-1.27-5.91-1.63-7.47 2.19-1.15 3.97-3.75 5.71-6.29 1.25-1.84 2.44-3.57 3.56-4.41 3.31-2.45 12.36-12.08 17.6-19.87 6.13-9.09 2.31-17.96 2.14-18.33-.01-.03-.03-.06-.04-.08-.09-.42-.21-.86-.39-1.32.5-.12.97-.33 1.35-.62.85-.66 1.33-1.63 1.39-2.79.09-1.6-.64-3.38-1.85-4.54-.94-.91-1.57-1.96-1.83-2.55.6-.08 1.87.08 2.96.39zm-6.83-4.08c.71 0 1.29.58 1.29 1.29 0 .72-.58 1.3-1.29 1.3-.72 0-1.3-.58-1.3-1.3 0-.71.58-1.29 1.3-1.29zM26.81 33.62c-3.43-2.06-12.25-4-6.5-4.93 5.58-.91 11.69 7.71 12.05 8.24-.25-.15-2.32-1.37-5.55-3.31zm-5.72-8.39c-4.57-1.53-6.97-5.67-.54-3.23 6.63 2.52 14.08 12.75 14.08 12.75 1.22 1.89-4.67-6.55-13.54-9.52zM67 52.65c-.92 8.37-13 12.2-13 12.2s-4.4 1.83-6.13 1.27c-1.37-.44 1.68-2.13 3.37-3.49.15-.11-.01-.34-.17-.24-2.65 1.62-8.72 5.14-10.65 4.27-1.19-.53 2.22-3 4.15-4.3.08-.05.01-.16-.07-.12-2.5 1.29-7.85 3.92-9.48 3.59-2.16-.42 7.35-6.28 11.06-9.02 3.71-2.75 5.39-4.03 7.33-3.46 1.93.58 6.49-3.71 7.25-5.24.76-1.54 7.27-3.83 6.34 4.54zm12.71-15.61c-.34.83-.86 1.4-1.24 1.72-.13-.25-.31-.6-.55-1.08-.2-.38-.55-.64-.97-.72-.42-.08-.84.04-1.16.33-.55.5-1.79 1.61-2.84 2.48-.28-.56-.57-1.12-.73-1.41-.17-.33-.47-.55-.82-.62-.35-.07-.72.02-1 .26-.09.07-.23.19-.39.32-.02-.26-.06-.54-.12-.84-.09-.43-.43-.77-.86-.86-.43-.1-.88.07-1.15.42-1.22 1.62-3.7 3.32-5.85 4.18.65-1.04 1.24-2.39 1.05-3.72-.06-.46-.38-.84-.83-.98-.44-.14-.94-.01-1.25.34-1.75 1.92-2.86 3.13-5.09 3.05 2.32-2.82 3.27-6.54 4.19-10.16.85-3.34 1.72-6.79 3.67-9.47.78-1.08 1.58-1.95 2.37-2.64 2.83-2.5 5.64-2.77 7.89-2.65.23.01.45.04.66.09-1.08.22-2.09.75-2.81 1.47-1.01 1.02-1.48 2.74-1.17 4.28.27 1.29 1.04 2.26 2.17 2.71 1.52.61 2.87.38 3.69.24-.01.39-.05.89-.08 1.3-.09 1.18-.19 2.51-.05 3.65.16 1.41 1 2.53 2.29 3.07.19.08.38.15.58.2.87 1.85 1 3.58.4 5.04z"/><path d="M62.804 55.313c1.005-1.458-1.777 1.081-4.006 2.58-1.997 1.342-4.136 2.507-3.798 3.048.583.934 3.643-.733 5.417-2.608 1.253-1.325 1.958-2.399 2.387-3.02zM55.905 57.265c.941-1.219-1.594.854-3.6 2.051-1.797 1.071-3.709 1.982-3.441 2.468.462.838 3.198-.464 4.826-2.009 1.15-1.091 1.813-1.99 2.215-2.51z"/></svg>