<svg xmlns="http://www.w3.org/2000/svg" xml:space="preserve" style="shape-rendering:geometricPrecision;text-rendering:geometricPrecision;image-rendering:optimizeQuality" viewBox="0 0 333 333" fill-rule="evenodd" clip-rule="evenodd"><path d="M233 77c10-1 10-10 4-12-15-6-42 10-34-35-13 6-19 2-18-17-10 9-20 9-27-5-2 15-10 18-23 11 3 14-2 23-16 21 9 9 10 17-9 20 12 10 12 18-2 23 13 5 21 11 7 24 18-1 21 6 11 19 16 4 19 9 5 17-8-9-18-17-31-23 2 13-18 14-1 29-9 6-6 16 2 21-4 13 10 10 14 20 5-3 10-21 15-24 12-4 16 11-3 13 14 11 4 16-6 17 11 10 12 17-6 16 11 9 9 13-4 17 10 5 12 11-1 19 14 3 12 10 3 16 12 1 15 6 5 14 10 0 11 5 6 14 11-4 16 0 9 12 12-5 16-1 10 10 8-6 10-5 10 6 5-7 11-4 14 3 4-7 9-8 13 2 2-6 4-11 12-3-1-8 3-10 9-3 0-8 2-11 9-6 1-5 3-9 9-9-3-5-4-9 5-9-4-5-6-10 4-11-5-3-6-7 0-12-4-3-6-5-4-12-4 0-10-2-7-11-5 2-10 0-9-9-4 4-10 9-13-3-4 10-9 7-14 2 2 8-1 12-9 9 3 8-2 10-7 13 5 3 8 5 3 11 4 2 7 6 5 11 5-1 9 0 11 6 4-4 6-7 12-3-1-5 2-7 7-7-1-4-3-7 0-11-5-1-8-3-9-7-2 5-5 6-8 6 7 1 9 6 6 9-5 3-17-3-11-14 7-15 32-6 29 14-1 14-14 23-26 23-16 0-51-19-33-58 14-28 75-40 69-96-2-27-33-35-52-52-13-12-8-32 2-22 6 5 25 4 37 1 11 5 19 6 26 5zm-52-35c3 0 5 3 5 6s-2 5-5 5-6-2-6-5 3-6 6-6z"/></svg>