<svg xmlns="http://www.w3.org/2000/svg" viewBox="0 0 100 100" xml:space="preserve"><path d="M79.438 76.162c-2.222-1.758-4.125-3.795-5.674-6.127.122-.182.146-.279.22-.328.184-.135.379-.244.574-.379 8.492-5.516 12.238-13.46 11.628-23.43-.195-3.209-1.025-6.37-1.623-9.556-.427-2.331.135-3.441 2.331-4.331 2.71-1.111 4.613-3.002 5.541-5.822.719-2.196.035-3.246-2.257-3.16-2.43.073-4.578-.513-6.726-1.708-5.296-2.942-11.52-.403-13.546 5.283-1.415 4.003-2.878 7.993-4.453 11.935-1.818 4.503-4.857 8.005-9.006 10.567-3.454 2.137-7.31 2.794-11.19 3.417-4.845.793-9.58 1.88-14.01 4.161-1.317.684-2.575 1.453-3.771 2.281-3.527 1.904-5.845 1.38-7.065-1.072-1.416-2.831-.793-6.091 1.599-8.238.525-.476 1.061-.952 1.635-1.367 2.734-1.988 4.308-4.709 5.223-7.918.769-2.673 1.696-5.297 2.624-8.14-6.077 1.28-10.824 4.6-14.412 8.187-2.123-3.014-5.711-6.943-12.081-8.7C6.013 43.519 11.004 45.825 9.771 51c-.085.377-.208.768-.366 1.17-1.282 4.711-.586 9.715 2.135 13.669 1.477 2.147 3.283 3.673 5.321 4.746 2.501 1.294 5.357 1.904 8.408 2.075.525.024 1.062.061 1.586.073h35.498c1.014 1.024 1.978 2.11 2.918 3.209 2.233 2.599 5.088 3.905 8.518 3.954 1.429.024 2.867.012 4.295.012 1.086.013 2.197.062 2.624-1.257.403-1.231-.439-1.841-1.27-2.489zm1.465-51.326c.965.098 1.611.646 1.685 1.732.049.964-.793 1.782-1.758 1.721-1.025-.049-1.636-.586-1.696-1.636-.049-.988.72-1.817 1.769-1.817zm12.186 47.842c-3.641-1.109-6.443-3.299-8.296-6.656-.088-.16-.818-1.848-1.487-3.41-1.836 2.74-4.279 5.157-7.314 7.247 2.977 2.886 7.392 6.554 14.144 6.554.764-.118 1.564-.026 2.349-.005 1.208.033 2.303-.213 2.495-1.607.179-1.328-.775-1.783-1.891-2.123z"/></svg>