<?xml version="1.0" encoding="UTF-8"?>
<svg width="1200pt" height="1200pt" version="1.1" viewBox="0 0 1200 1200" xmlns="http://www.w3.org/2000/svg">
 <g>
  <path d="m453.32 410.21c-27.324-10.824-55.379-16.754-82.859-18.215-33.035-1.7148-65.375 3.0469-94.801 13.598l-165.67 61.27c-27.805 10.285-39.77 40.078-26.711 66.551l77.762 157.7c14.051 27.758 34.223 53.328 59.375 74.664 28.535 24.156 63.602 42.996 103.52 53.543 101.14 26.688 204.85-11.566 254.7-90.191-72.18-44.977-222.34-135.61-293.79-157.34 27.227-0.57422 213.31 67.355 314.65 113.14 34.766-107.24-28.332-228.04-146.18-274.71z"/>
  <path d="m1029.3 120.31-227.14 21.469c-40.152 4.2109-80.41 16.766-117.82 37.223-31.105 17.051-60.324 39.637-85.922 67.488-39.445 42.898-65.16 92.902-77.641 144.21 68.102 42.312 114.62 108.28 130.4 180.09 92.941-102.66 209.18-219.35 234.45-230.86-62.723 57.875-166.67 213.41-230.06 312.41-1.6094 14.102-4.4883 28.164-8.6641 42.086 101.2 54.504 235.61 38.711 333.6-45.133 40.402-34.559 70.441-76.055 89.902-120.07 17.125-38.855 26.062-79.824 26.652-119.93l0.96094-226.64c0.16797-38.027-30.602-65.941-68.723-62.34z"/>
  <path d="m629.96 739.74c-4.8945 6.6016-10.547 14.867-10.547 14.867-4.1875 6.6133-8.8203 12.926-13.633 19.078 12.973 62.867 19.922 128.75 19.922 196.66 0 37.223-2.2188 73.789-6.2266 109.64h117.14c-11.23-119.84-41.305-231.82-86.027-330.66-7.0117-2.9258-13.891-6.1289-20.633-9.5859z"/>
 </g>
</svg>
