<svg xmlns="http://www.w3.org/2000/svg" viewBox="0 0 64 64" style="enable-background:new 0 0 64 64" xml:space="preserve"><path d="M42 8c0-1.847.665-3.659 1.259-4.908-4.339.457-7.816 2.54-10.056 4.308 3.196 1.06 6.367 2.431 9.301 4.04C42.216 10.551 42 9.474 42 8zM51.931 26.386l-.71 1.249-9.79-9.79 1.015-.677c.118-.079 1.18-.773 2.891-1.663C37.938 10.451 27.76 7 20 7 4.226 7 3 10.827 3 12c0 1.578 3.403 3.885 7.724 6.311C13.384 15.671 18.839 14 25 14v2c-5.249 0-10.011 1.305-12.432 3.327 1.794.969 3.676 1.943 5.498 2.885C29.284 28.013 42 34.588 42 42c0 4.262-2.317 6-8 6-5.658 0-18.567-5.784-21.098-6.944-.39-.179-.902.138-.902.584 0 .459.25.877.652 1.091C18.741 45.965 26 50.545 26 54c0 3.161-1.661 4.749-2.651 5.414-.215.144-.349.414-.349.703 0 .487.396.883.883.883.557 0 1.107-.146 1.591-.422l.466-.266c3.515-2.009 6.617-4.813 8.973-8.109l1.518-2.124.413-.066C37.584 49.894 55 46.9 55 29c0-1.683-.492-3.413-1.45-5.158-.573.828-1.121 1.673-1.619 2.544zM20 11c-1.066 0-2.052.018-2.964.052l-.072-1.999C17.897 9.019 18.908 9 20 9v2zm26 32c0-20.757-11.832-25-15-25v-2c3.591 0 17 4.583 17 27h-2z"/><path d="M29.324 30.657c-2.391-1.467-4.982-2.895-7.562-4.262.155.855.238 1.725.238 2.605 0 1.4-.785 3.495-1.4 4.922 3.554-.348 6.534-1.802 8.724-3.265zM60.91 13.124c-.038-.036-.136-.096-.245-.088-7.118.383-13.595 3.729-16.059 5.156l6.188 6.188c2.595-4.216 6.061-7.935 10.081-10.807.079-.054.125-.145.125-.24 0-.102-.049-.17-.09-.209z"/></svg>