<svg xmlns="http://www.w3.org/2000/svg" viewBox="0 0 100 100"><path style="color:#000;enable-background:accumulate" d="M45.402391 974.16823c-3.7281-1.8493-6.60241-1.9739-10.19732.3758.59571.8543.46636 1.5468.18942 2.4114.98177.9629 1.17102 2.0131.66298 3.1005-.37852.6253-.96151 1.0417-1.67324 1.378 1.47362 1.6313 3.21568 2.3681 4.76717 2.8813.91136.3012 1.72784.5226 2.43094.8455.35155.1614.72126.3372 1.01026.7203.28903.3834.37617 1.0058.25256 1.4719-.088.3191-.34571.587-.66298.689-2.09251.652-4.01279.025-5.588-.9395-.77498-.4746-1.49859-1.0144-2.20995-1.5659.64046 2.2778 1.28824 5.0938 1.92581 9.5206.54514 3.7854-.54643 7.53037-2.58879 10.36607-2.04237 2.8369-5.10042 4.8231-8.52408 4.8231-.59303 0-1.16689-.056-1.73638-.1567.63177 2.3113 2.3678 4.374 4.76716 5.1675.79828 3.1674 2.86646 4.4388 6.18785 3.852.29142.8688.58991 1.756.88393 2.631.0158 1.7727.0406 3.7419-.12628 5.418-1.23622 1.0867-1.29739 3.2301-.12512 4.3844 1.17225 1.1543 3.33245 1.0778 4.41872-.1565 1.06996-.8386 1.66392-1.9761 1.89424-3.1004v-7.0152c.40401.035 1.51063.4683 2.02052.6262.0165 1.7208.0398 3.6369-.12628 5.2613-1.23621 1.0867-1.29739 3.2301-.12512 4.3844 1.17226 1.1543 3.33246 1.0778 4.41873-.1565 1.06996-.8386 1.66392-1.9761 1.89424-3.1004v-6.1383c2.88683 2.1094 6.49988 1.9121 10.1026.1253.67322.1668 1.35198.2667 2.02053.3131.0197 1.4934.0363 3.1748-.12629 4.5724-1.23621 1.0867-1.29738 3.2301-.12512 4.3844s3.33246 1.0778 4.41873-.1565c1.06996-.8386 1.66392-1.9761 1.89424-3.1004-.0113-2.4698.0323-5.0568-.0315-7.485.45351-.3472.89722-.7288 1.32597-1.1901l.72612 2.1296c.0158 1.7727.0406 3.7419-.12628 5.418-1.23622 1.0867-1.29739 3.2301-.12512 4.3844 1.17225 1.1543 3.33245 1.0778 4.41873-.1565 1.06994-.8386 1.66392-1.9761 1.89424-3.1004v-7.0152c-.0636-1.0433-.50407-1.9856-.85241-3.0065 2.11452-.035 3.21855-1.3715 3.88319-4.0087 4.04104-1.0021 5.0513-3.0065 5.0513-7.0151 3.34102-2.4858 4.58818-4.3205 4.35675-8.26787 1.96943 2.12247 1.39361 5.37307 3.18864 6.26347 1.644-1.9952.13522-5.24597-3.50435-9.01947.003-.011-.003-.021 0-.031.99707-3.9929-.008-6.9892-3.03078-8.9881 1.01026-4.0087-1.01026-7.0152-6.06156-7.0152-3.03078-5.0108-6.06157-6.013-11.11287-3.0065-2.02052-5.0108-5.0513-6.013-10.10261-3.0065-4.28584-2.8198-8.12053-1.9593-12.12312-.0004zm-26.26678 0c-3.03078 0-5.93266.062-4.04104 4.0087-.98357 2.927-.037 3.9559 2.80978 4.0087-3.91128 2.927-10.3348402 3.1761-9.8816102 4.8855 3.2353002 1.0076 7.2682902-1.4748 10.2604602-3.445-1.45517 2.6171-2.33753 5.6772-3.18863 11.5876-.95411 7.57147 3.48845 13.34837 9.09234 13.96767v-3.6642c-.80937-.2551-1.61475-.7558-2.58879-1.4092-.43807-.2952-.58168-.9748-.28414-1.4094.29755-.4346.98261-.5456 1.42068-.2505 1.36937.919 2.14067 1.2627 2.62037 1.2527.47969-.01 1.086-.3178 2.24151-1.2841.64105-.4236 1.05544-.2918 1.45272.1859.26186.4309.26699 1.0471-.15832 1.3489-.9556.7991-1.79157 1.3866-2.68351 1.6286v3.5702c5.60368-.7163 10.04644-7.3115 9.09235-13.93637-.83674-5.8106-1.68891-8.8429-2.52565-11.431 2.81683 1.9643 6.22328 4.1823 9.09234 3.2884.46236-1.7438-5.62336-2.4556-9.85004-5.6685 3.09519-1.5707 4.05606-2.3876 2.27309-4.2279 1.01026-2.0043 0-3.0065-3.03078-2.0043-2.02052-3.0065-3.1803-3.1101-6.06157-1.0022-2.13867-1.9145-4.16291-1.8477-6.06156-.0002zm1.51539 12.026c.83693 0 1.51539.8971 1.51539 2.0044 0 1.1066-.67846 2.0043-1.51539 2.0043-.83693 0-1.51539-.8977-1.51539-2.0043 0-1.1073.67846-2.0044 1.51539-2.0044zm9.09235 0c.83693 0 1.51539.8971 1.51539 2.0044 0 1.1066-.67846 2.0043-1.51539 2.0043-.83693 0-1.5154-.8977-1.5154-2.0043 0-1.1073.67847-2.0044 1.5154-2.0044z" overflow="visible" transform="translate(0 -952.36218)"/></svg>