<?xml version="1.0" encoding="UTF-8"?>
<svg width="1200pt" height="1200pt" version="1.1" viewBox="0 0 1200 1200" xmlns="http://www.w3.org/2000/svg">
 <path d="m1085.5 335.5-100 100c-9.4375 9.3594-22.211 14.578-35.5 14.5h-300v600h150c17.863 0 34.371 9.5312 43.301 25 8.9336 15.469 8.9336 34.531 0 50-8.9297 15.469-25.438 25-43.301 25h-400c-17.863 0-34.371-9.5312-43.301-25-8.9336-15.469-8.9336-34.531 0-50 8.9297-15.469 25.438-25 43.301-25h150v-300h-300c-13.289 0.078125-26.062-5.1406-35.5-14.5l-100-100c-9.4648-9.3867-14.789-22.168-14.789-35.5s5.3242-26.113 14.789-35.5l100-100c9.4375-9.3594 22.211-14.578 35.5-14.5h300v-350c0-17.863 9.5312-34.371 25-43.301 15.469-8.9336 34.531-8.9336 50 0 15.469 8.9297 25 25.438 25 43.301v50h300c13.289-0.078125 26.062 5.1406 35.5 14.5l100 100c9.4648 9.3867 14.789 22.168 14.789 35.5s-5.3242 26.113-14.789 35.5z"/>
</svg>
