<?xml version="1.0" encoding="UTF-8"?>
<svg width="1200pt" height="1200pt" version="1.1" viewBox="0 0 1200 1200" xmlns="http://www.w3.org/2000/svg">
 <path d="m897.48 254.76c-7.6211-6.6367-17.379-10.301-27.48-10.32h-371.4v-150h-84v150h-264.6c-11.141 0-21.82 4.4219-29.699 12.301-7.875 7.875-12.301 18.559-12.301 29.699v312c0 11.137 4.4258 21.82 12.301 29.695 7.8789 7.8789 18.559 12.305 29.699 12.305h264.6v465h84v-465h371.4c10.102-0.023437 19.859-3.6875 27.48-10.32l180-156c9.207-7.9805 14.492-19.559 14.492-31.742 0-12.18-5.2852-23.762-14.492-31.738z"/>
</svg>
