<svg xmlns="http://www.w3.org/2000/svg" viewBox="0 0 100 100"><path d="M63.748698 971.36227c-5.43917.046-12.9678 1.9026-17.33056 4.9688-5.33006 3.7325-9.84923 9.9737-12.23149 20.2812-1.91437 7.74633-1.56839 15.38213 1.72054 19.75003 5.65023-.3712 12.79569-.6555 19.30136-.4375-5.52288-4.5469-7.39127-10.3988-7.25756-17.56253-.0291-9.4042 7.41348-15 14.82795-15 6.96147.06 12.98292 5.6893 12.88842 13-.0443 5.72513-4.66524 9.92803-9.91658 10.00003-3.86287-.055-8.81178-2.1402-8.91553-7.00003.012-3.4179 2.27613-6.7663 5.94369-7 .52311-.01 1.00104.4716 1.00104 1s-.47793 1.01-1.00104 1c-2.58389.4032-3.81164 2.1726-3.94161 5 .0869 3.54803 4.10317 4.92403 6.91345 5.00003 4.15393-.085 7.88782-3.7511 7.945781-8.00003-.0251-5.3606-4.55816-11-10.91762-11-6.44788 0-12.88287 4.6227-12.85715 12.9688-.0323 6.38283 1.10231 13.05133 8.54015 17.68743 10.330739.4959 17.719439 1.8254 22.773719 2.625 3.622701-1.5245 6.118391-4.1742 7.78937-8 1.71466-3.9255 2.5026-9.064 2.5026-15.25003 0-13.3656-12.51764-24.0313-27.77893-24.0312zm-45.735137 1c-1.65858 0-3.00313 1.3431-3.00313 3s1.34455 3 3.00313 3c.59787 0 1.15869-.1992 1.62669-.5 1.92801 1.5462 3.44429 3.6637 3.4098 5.9375-.0532 2.3056-1.4329 5.3535-2.09593 10.1875-.37363-.053-.78261-.094-1.18874-.094-.58486.01-1.18456.1249-1.81439.2813.087-2.7692-.50124-4.9363-1.34515-7.0625-.88646-2.2334-2.73222-4.4208-5.91241-7.5.18193-.3868.31283-.7944.31283-1.25 0-1.6569-1.3445495-3-3.0031295-3s-3.00313 1.3431-3.00313 3 1.34455 3 3.00313 3c.46283 0 .89106-.1257 1.28258-.3125 3.0970895 3.0036 4.7355995 4.9984 5.4431695 6.7813.74291 1.8716 1.40489 3.8601 1.15746 7-.16002.067-.31086.1478-.46924.2187-.89952 8.26373-.58523 17.83863 2.47133 25.28133 3.12374 7.606 8.84011 13.0022 19.301347 13.0312h57.810221c-.672391-1.924-2.13834-4.398-4.410841-6.7188-2.40769-2.4191-5.88888-4.6967-9.63504-6-8.34215-1.2926-22.74908-3.8874-46.07925-2.2187-2.51776-.2143-4.76029-1.7063-6.06882-3.6563-3.744467-5.5541-3.293327-13.0509-5.255477-19.75003-.18057-.1675-.39608-.3318-.65693-.4687.62315-4.7755 2.09036-7.7341 2.1585-10.6875-.1-3.42-1.90212-5.6714-4.19187-7.5938.0934-.2898.15641-.5852.15641-.9062.0525-1.7066-1.59672-2.9573-3.00312-2.9998z" style="text-indent:0;text-transform:none;direction:ltr;block-progression:tb;baseline-shift:baseline;color:#000;enable-background:accumulate" overflow="visible" transform="translate(0 -952.36218)"/></svg>