<?xml version="1.0" encoding="UTF-8"?>
<svg width="1200pt" height="1200pt" version="1.1" viewBox="0 0 1200 1200" xmlns="http://www.w3.org/2000/svg">
 <path d="m1165.2 810-104.4-177.6c-4.8008-8.3984-12-14.398-21.602-16.801l-193.2-52.801 184.8-10.797c10.801 0 20.398-6 26.398-14.398l104.4-136.8c12-15.602 9.6016-38.398-7.1992-50.398-15.602-12-38.398-9.6016-50.398 7.1992l-94.801 123.6-219.6 10.797 146.4-73.199c10.801-4.8008 18-15.602 19.199-27.602l40.801-292.8c2.3984-19.199-10.801-38.398-31.199-40.801-19.199-2.3984-38.398 10.801-40.801 31.199l-37.199 273.6-162 81.602c1.1992-12 1.1992-22.801 1.1992-31.199 0-24-7.1992-46.801-20.398-64.801 2.3984-4.8008 6-9.6016 8.3984-15.602 24-58.801-2.3984-106.8-21.602-124.8-14.398-14.398-37.199-13.199-51.602 1.1992-14.398 14.398-13.199 37.199 1.1992 51.602 0 0 14.398 16.801 6 43.199-14.398-6-31.199-9.6016-48-9.6016-16.801 0-33.602 3.6016-48 9.6016-8.3984-25.199 3.6016-40.801 6-43.199 14.398-14.398 14.398-37.199 1.1992-51.602-14.398-14.398-37.199-14.398-51.602-1.1992-19.199 19.199-45.602 66-21.602 124.8 2.3984 6 6 10.801 8.3984 15.602-13.199 19.199-20.398 40.801-20.398 64.801 0 8.3984 0 19.199 1.1992 31.199l-162-81.602-37.191-274.8c-2.3984-19.199-21.602-33.602-40.801-31.199-20.398 3.5977-33.598 21.598-31.199 41.996l39.602 292.8c1.1992 12 8.3984 21.602 19.199 27.602l147.6 73.199-220.8-10.801-94.797-123.6c-12-15.602-34.801-19.199-50.398-7.1992-15.602 12-19.199 34.801-7.1992 50.398l104.4 136.8c6 8.3984 16.801 13.199 26.398 14.398l186 9.6016-193.2 52.801c-9.6016 2.3984-16.801 8.3984-21.602 16.801l-104.4 178.8c-9.6016 16.801-4.8008 39.602 13.199 49.199 6 3.6016 12 4.8008 18 4.8008 12 0 24-6 31.199-18l97.199-165.6 156-43.199-159.6 194.4c-8.3984 9.6016-10.801 22.801-6 34.801l86.398 252c4.8008 15.602 19.199 24 33.602 24 3.6016 0 8.3984-1.1992 12-2.3984 19.199-6 28.801-27.602 22.801-45.602l-80.398-232.8 98.398-118.8c18 96 82.801 212.4 242.4 212.4 159.6 0 223.2-116.4 242.4-212.4l98.398 118.8-80.398 232.8c-6 19.199 3.6016 39.602 22.801 45.602 3.6016 1.1992 8.3984 2.3984 12 2.3984 15.602 0 28.801-9.6016 33.602-24l86.398-252c3.6016-12 1.1992-25.199-6-34.801l-159.6-193.2 156 43.199 97.199 165.6c7.1992 12 19.199 18 31.199 18 6 0 12-1.1992 18-4.8008 18-12 22.801-33.598 13.199-50.398zm-480-45.602c9.6016 12 1.1992 30-14.398 30h-141.6c-15.602 0-24-18-14.398-30l61.199-75.602-61.199-75.602c-9.6016-12-1.1992-30 14.398-30h141.6c15.602 0 24 18 14.398 30l-61.199 75.605z"/>
</svg>
