<svg xmlns="http://www.w3.org/2000/svg" data-name="Layer 1" viewBox="-6.5 -6 60 60"><path d="M47.26 37.52a1 1 0 0 1-1.3-.7l-2.91-9.69h-8.11a12.7 12.7 0 0 1 .31 3.93l5 3.57a1 1 0 0 1 .42 1l-2.08 11.51a1 1 0 0 1-1 .86h-.19a1 1 0 0 1-.84-1.21l2-10.83-3.69-2.63a10.16 10.16 0 0 1-3.47 5 11.81 11.81 0 0 1-14.7 0 10.16 10.16 0 0 1-3.47-5l-3.74 2.61 2 10.83a1 1 0 0 1-.87 1.23h-.19a1 1 0 0 1-1-.86L7.32 35.67a1 1 0 0 1 .42-1l5-3.57a12.7 12.7 0 0 1 .31-3.93H5l-3 9.65a1 1 0 0 1-1 .75 1 1 0 0 1-.3 0 1 1 0 0 1-.7-1.3l3.17-10.48a1.06 1.06 0 0 1 1-.75h9.52a18.34 18.34 0 0 1 1.1-2.33l-9.66-.8a1.07 1.07 0 0 1-.78-.46L.18 15.19A1 1 0 1 1 1.91 14l3.9 5.84 10.27.86a16 16 0 0 1 1.55-1.7l-9.72-4.48a1 1 0 0 1-.6-1L8.35 1a1 1 0 0 1 1.13-1 1 1 0 0 1 .95 1.12l-1 11.79 9 4.11a4.48 4.48 0 0 1-.72-2.42c0-2.88 2.8-5.22 6.26-5.22s6.26 2.34 6.26 5.22a4.48 4.48 0 0 1-.69 2.4l9-4.11-1-11.79a1 1 0 0 1 1-1.12 1 1 0 0 1 1.13 1l1 12.52a1 1 0 0 1-.6 1l-9.7 4.5a16 16 0 0 1 1.55 1.78l10.27-.86 3.9-5.92a1 1 0 0 1 1.44-.29 1 1 0 0 1 .29 1.45l-4.17 6.26a1.07 1.07 0 0 1-.78.46l-9.66.8a18.34 18.34 0 0 1 1.1 2.32h9.52a1.06 1.06 0 0 1 1 .75L48 36.22a1 1 0 0 1-.74 1.3Z"/></svg>