<?xml version="1.0" encoding="UTF-8"?>
<svg width="1200pt" height="1200pt" version="1.1" viewBox="0 0 1200 1200" xmlns="http://www.w3.org/2000/svg">
 <path d="m541.44 520.37-199.87-475.47c-0.035156-0.078126-0.066406-0.15625-0.097656-0.23828-3.8281-9.4688 0.74609-20.242 10.215-24.07l0.24219-0.097656c9.5078-3.8398 20.336 0.66797 24.309 10.121l197.54 469.92c12.277 2.4297 24.812 3.1367 37.238 2.1211l198.45-472.07c3.9727-9.4531 14.801-13.961 24.309-10.121l0.24219 0.097656c9.4648 3.8242 14.039 14.602 10.215 24.07-0.03125 0.078126-0.0625 0.16016-0.097656 0.23828l-194.56 462.83c6.5039 10.375 14.367 19.789 23.355 28l472.71-190.99c9.6016-3.8789 20.527 0.76172 24.406 10.363 3.8789 9.6016-0.75781 20.527-10.359 24.406l-458.06 185.07c-4.6992 17.281-5.8984 35.27-3.5977 52.91l457.89 186.82c9.4531 3.8594 13.988 14.648 10.133 24.105-0.03125 0.078125-0.066406 0.16016-0.10156 0.23828l-0.10156 0.24219c-4.0039 9.4375-14.848 13.906-24.34 10.031l-454.86-185.59c-13.367 9.3438-24.938 21.035-34.141 34.504l191.62 455.86c0.035156 0.078125 0.066406 0.16016 0.097656 0.23828 3.8242 9.4688-0.75 20.246-10.215 24.07l-0.24219 0.097656c-9.5078 3.8398-20.336-0.66797-24.309-10.117l-193.42-460.11c-15.855-1.8945-31.965-0.96875-47.57 2.7773l-192.24 457.3c-3.9727 9.4531-14.801 13.961-24.309 10.121l-0.24219-0.097656c-9.4688-3.8242-14.043-14.602-10.215-24.07 0.03125-0.078124 0.0625-0.16016 0.097656-0.23828l196.67-467.86c-10.473-12.137-23.078-22.375-37.262-30.16l-453.91 183.39c-9.6016 3.8789-20.531-0.75781-24.41-10.359-3.8789-9.6016 0.76172-20.531 10.363-24.41l470.02-189.9c0.28906-8.9141-0.30859-17.852-1.7852-26.676l-464.39-189.48c-9.4531-3.8555-13.992-14.648-10.133-24.102 0.03125-0.082032 0.066407-0.16016 0.10156-0.24219l0.10156-0.23828c4.0039-9.4375 14.848-13.906 24.34-10.035l466.12 190.18c8.9609-6.7695 17.039-14.629 24.051-23.391zm272.86 555.87c56.41-113.54 148.39-205.53 261.94-261.94l23.953-11.902-8.5234-25.355c-40.398-120.17-40.398-250.26 0-370.43l8.5234-25.352-23.953-11.902c-113.54-56.41-205.53-148.39-261.94-261.94l-11.902-23.957-25.355 8.5273c-120.17 40.398-250.26 40.398-370.43 0l-25.352-8.5273-11.902 23.957c-56.41 113.54-148.39 205.53-261.94 261.94l-23.957 11.902 8.5273 25.352c40.398 120.18 40.398 250.26 0 370.43l-8.5273 25.355 23.957 11.902c113.54 56.41 205.53 148.39 261.94 261.94l11.902 23.953 25.352-8.5234c120.18-40.398 250.26-40.398 370.43 0l25.355 8.5234zm-452.08 69.918-26.449-53.234c-52.77-106.22-138.82-192.27-245.04-245.04l-53.234-26.445 18.941-56.344c37.793-112.42 37.793-234.11 0-346.54l-18.941-56.34 53.234-26.449c106.21-52.77 192.27-138.82 245.04-245.04l26.449-53.234 56.34 18.941c112.42 37.793 234.12 37.793 346.54 0l56.344-18.941 26.445 53.234c52.77 106.21 138.82 192.27 245.04 245.04l53.234 26.449-18.941 56.34c-37.793 112.42-37.793 234.12 0 346.54l18.941 56.344-53.234 26.445c-106.22 52.77-192.27 138.82-245.04 245.04l-26.445 53.234-56.344-18.941c-112.42-37.793-234.11-37.793-346.54 0zm377.08-209.85c47.031-81.969 115.04-149.97 197-197-24.703-91.215-24.703-187.39 0-278.6-81.969-47.031-149.97-115.04-197-197-91.215 24.703-187.39 24.703-278.6 0-47.031 81.969-115.04 149.97-197 197 24.703 91.215 24.703 187.39 0 278.6 81.969 47.031 149.97 115.04 197 197 91.215-24.703 187.39-24.703 278.6 0zm-520.4-178.45c34.434-102.42 34.434-213.29 0-315.71 96.77-48.078 175.17-126.48 223.25-223.25 102.42 34.434 213.29 34.434 315.71 0 48.078 96.77 126.48 175.17 223.25 223.25-34.434 102.42-34.434 213.29 0 315.71-96.77 48.078-175.17 126.48-223.25 223.25-102.42-34.434-213.29-34.434-315.71 0-48.078-96.77-126.48-175.17-223.25-223.25zm448.98 6.0117c24.449-38.742 57.25-71.543 95.992-95.992-10.105-44.68-10.105-91.07 0-135.75-38.742-24.449-71.543-57.25-95.992-95.992-44.68 10.105-91.07 10.105-135.75 0-24.449 38.742-57.25 71.543-95.992 95.992 10.105 44.68 10.105 91.07 0 135.75 38.742 24.449 71.543 57.25 95.992 95.992 44.68-10.105 91.07-10.105 135.75 0zm-275.75-77.762c18.777-55.867 18.777-116.34 0-172.21 52.781-26.223 95.543-68.984 121.77-121.77 55.867 18.777 116.34 18.777 172.21 0 26.223 52.781 68.984 95.543 121.77 121.77-18.777 55.867-18.777 116.34 0 172.21-52.781 26.223-95.543 68.984-121.77 121.77-55.867-18.777-116.34-18.777-172.21 0-26.223-52.781-68.984-95.543-121.77-121.77z"/>
</svg>
