<svg xmlns="http://www.w3.org/2000/svg" viewBox="0 0 100 100" xml:space="preserve"><path d="M84.073 27.021c-.6-4.926-2.812-8.45-6.925-10.313-.537-.25-1.213-.012-1.487.513-1.7 3.237-1.938 6.575-.625 10.05-4.513.988-7.55 4.287-9.551 9.175-25.738 7.512-36.35 22.05-26.213 46.226-5.038-3.712-7.262-14.3-6.799-19.638 1.136-12.964 14.925-20.051 16.525-30.226.612-3.825.75-7.262 0-10.025-2.65-10.037-8.938-16.387-20.952-16.676-5.886-.136-12.449 1.976-19.562 7.126-.425.3-.413.938 0 1.25 12.562 9.6.487 19.414-2.975 38.977-1.175 6.514-.288 13.139 2.4 19.301C13.21 84.937 23.959 93.9 44.185 93.9h32.002c1.287 0 2.325-1.025 2.325-2.326 0-1.274-1.038-2.324-2.325-2.324H70.11c7.288-11.9 6.875-19.413-.5-22.963-.287-.139-.588-.263-.887-.389l-.025-.012c-1.875-.764-3.662-1.101-5.339-1.101-6.086 0-10.85 4.325-13.312 8.113-.112.187-.312.287-.525.287-.125 0-.262-.038-.375-.125-.263-.2-.325-.574-.15-.851 2.725-4.149 7.913-8.675 14.362-8.675 1.851 0 3.738.363 5.613 1.112.362-1.412.825-2.763 1.414-4.049-.251-.014-.513-.025-.776-.025-2.625 0-5.013.975-5.025.987-.537.225-1.1.337-1.675.337-1.025 0-2.013-.361-2.8-1.024-1.238-1.063-1.763-2.713-1.375-4.288l2.025-8.138c.087-.312.411-.513.724-.425l.038.012.038.013c.312.075.5.399.425.712l-2.037 8.125c-.275 1.113.112 2.288.975 3.039.562.475 1.274.724 1.987.724.4 0 .8-.074 1.175-.237.038-.012 2.626-1.088 5.525-1.088.738 0 1.487.062 2.213.238.1.024.2.051.3.074.075.013.15.038.225.062.301.088.601.2.888.339.112.05.238.112.351.174 0 0 .012 0 .012.013 1.713.913 2.926 2.575 3.7 5.025.413 1.3 1.613 2.125 2.9 2.125.301 0 .613-.05.912-.149 1.601-.501 2.488-2.214 1.976-3.801-1.263-3.988-3.476-6.862-6.575-8.537-.187-.112-.387-.213-.587-.301-.063-.038-.126-.062-.188-.088-.05-.024-.088-.05-.137-.062-.051-.024-.088-.037-.138-.062-.138-.051-.274-.112-.4-.163-.138-.05-.274-.1-.412-.138v-.012c-1.688-.588-3.412-.8-5.025-.8-.587 0-1.163.024-1.725.074-.4.05-.725-.324-.625-.725l.6-2.413c.075-.3.388-.5.7-.425l.062.012c.274.05.475.3.475.575 0 .05-.012.1-.025.138l-.337 1.375c-.024.088.038.149.112.149.263-.012.513-.012.763-.012 2.15 0 4.138.362 5.95 1.074 1.751-1.8 3.824-3.425 6.176-4.901 3.388.963 6.938 1.338 10.649 1.063 1.463-.1 2.588-1.326 2.601-2.789.073-10.319-3.54-16.844-10.928-19.432zm1.801 11.613c-1.176 0-2.125-.95-2.125-2.125s.949-2.125 2.125-2.125c1.174 0 2.125.95 2.125 2.125 0 1.176-.951 2.125-2.125 2.125z"/></svg>