<svg xmlns="http://www.w3.org/2000/svg" viewBox="0 0 100 100" xml:space="preserve"><path d="M46.3 30.7c.7 0 1.4 0 2.1.1 1.7-5.5-7.7-9.8-7.7-9.8s-5.1 5.1-5.9 8.2c-.4 1.6.4 3.1 1.3 4.2 2.8-1.6 6.1-2.7 10.2-2.7zM83.9 59.2s-2-.4-3.1.3c1 1 2 1.8 3.1 2.5.3-1 0-2.8 0-2.8zM80 58.6c.2-.1.3-.3.4-.5.6-1.3.3-4.5.3-4.5s-3-.6-4.7.3c1.3 1.8 2.6 3.3 4 4.7zM88.8 58.3c.1-.3-.3-.4-.5-.2l-2.6 5c.6.3 1.1.6 1.7.9l1.4-5.7zM89.9 64.9l2.1-4c.1-.3-.2-.5-.4-.3l-3.3 3.7c.6.3 1.1.5 1.6.6zM94.6 62.1l-4 3c.5.1 1.1.2 1.6.3.2 0 .5 0 .9-.1l1.8-2.9c.2-.2-.1-.5-.3-.3zM70.5 45.4c.7 1 1.3 2 2 3.1 1 1.7 2 3.3 3 4.7.4-.2.9-.5 1.1-.9 1.2-1.7 1.6-6.5 1.6-6.5s-5-2.1-7.7-.4zM22 45.3c.8-.4 1.6-.8 2.4-1.3.3-.2.5-.3.8-.5.4-.2 1.1-.9 1.8-1.8-1.5-1.3-4.7-1.1-4.7-1.1s-.8 3.1-.4 4.4c0 .1.1.2.1.3zM19.2 46c.6 0 1.3-.1 2-.4-.8-1.3-2.1-2.3-2.1-2.3s-.7 1.4-.9 2.5c.1 0 .2.1.3.1.2.1.5.1.7.1zM28.1 40.5c1.8-2 4.1-4.7 7.3-6.7-1.8-3.3-8.7-2.9-8.7-2.9s-1.4 5.2-.7 7.5c.3 1 1.2 1.6 2.1 2.1zM55.3 32.3s2.5.9 5.9 3.4c4.2-3.5-.4-12.3-.4-12.3s-7.2 1-9.7 2.9c-1.4 1.1-1.6 3.1-1.5 4.5 1.8.4 3.7.8 5.7 1.5z"/><path d="M69.7 44.3c1.3-.4 3-1.2 3.6-2.7 1-2.6-.3-8.8-.3-8.8s-9.1-1.1-10.8 3.6c2.3 1.8 4.9 4.4 7.5 7.9zM93.5 66.7c-.6 0-1.2.1-1.2.1-1.6-.2-3.2-.6-4.8-1.3h-.1c-.7-.3-1.4-.7-2.2-1.1-.4-.2-.7-.4-1.1-.7 0 0-.1 0-.1-.1-.4-.2-.7-.5-1.1-.7-1-.7-1.9-1.5-2.9-2.4-.2-.2-.4-.4-.7-.6-1.8-1.8-3.6-3.9-5.3-6.4-.9-1.3-1.9-2.8-2.8-4.3-.6-1-1.2-1.9-1.8-2.8-.4-.6-.9-1.2-1.3-1.8-2.1-2.8-4.3-5-6.3-6.6-.3-.3-.7-.5-1-.8-.3-.2-.6-.5-.9-.7-2.6-1.8-4.5-2.7-5.1-2.9-1.8-.6-3.4-1-5-1.3-.3 0-.6-.1-.9-.1-.3 0-.6-.1-.8-.1H45c-.3 0-.6 0-.8.1h-.1c-.3 0-.6.1-.9.1H43c-.2 0-.5.1-.7.1h-.2c-.3.1-.6.1-.8.2-.1 0-.1 0-.2.1-.2.1-.4.1-.6.2-.1 0-.2.1-.2.1-.3.1-.5.2-.8.3-.1 0-.1.1-.2.1-.2.1-.4.2-.6.2-.1 0-.2.1-.3.1l-.6.3c-.1 0-.2.1-.2.1-.2.1-.4.2-.5.3-.1.1-.2.1-.3.2-.2.1-.3.2-.4.3-.1 0-.1.1-.2.1-2.7 1.8-4.8 4-6.4 5.9-.2.2-.3.4-.5.5-.5.5-.9 1-1.3 1.5-.7.8-1.3 1.4-1.9 1.7-1.1.6-2.3 1.4-3.5 1.9-.2.1-.5.2-.7.3-.8.3-1.6.5-2.5.5-.3 0-.6 0-.9-.1-1.5-.2-3-.8-4.4-.8-.6 0-1.2.1-1.8.4-2.5 1.3-4.8 3-4.8 3C6 50.6 5 53.6 5 53.6l3.8-.5c-1.3.5-3.4 1.3-3.4 1.3.6.8 1.6 1.3 2.7 1.3h.2l3.2-.2c.4-.1.9-.1 1.5-.1h1c1 0 2.1 0 3.6-.4h.3c1.4 0 3.9 1.8 4.9 2.4l4 2.4h-.1l.3.9c1.1 3 0 5.1 0 5.1s-3.7 6.1-5 8.4c0 0-1.3 1.1-1.8 2.6h5.6s.8-2.9.8-4.1c0-1.2 6.1-4.1 6.2-6.6.2-2.5.5-3.6 2.8-4.4 2.5 1.1 5.5 1.8 8.8 1.8 4.1 0 6.7-.8 8.7-1.8.4 1.7.8 3.2 1.1 4 1.1 2.7 3.1 0 3.9 5 0 0-.8 4.1-2.1 5.4-.9.9-1.2 2-1.4 2.6 0 .2.1.4.4.4h6.4s.5-1.5 0-3.5 1.3-2.8.2-7.9c-1-5.1.8-1.7.3-7 1-.3 2-.4 2.9-.4 2.4 0 4.3.8 5.6 1.6 8.8 5.3 14.8 7.2 18.7 7.2 2.6 0 4.2-.8 5-2.1.2-.2-.2-.3-.6-.3zM11.9 51c-.5 0-.9-.4-.9-.9s.4-.9.9-.9.9.4.9.9-.4.9-.9.9z"/><path d="M43.6 66.6c-1-.2-2.3.7-2.4-.6v-1.3c-1.9-.3-3.8-.7-5.7-1.5-.1 0-.2.1-.3.1.5 1.4 1.1 3.1 1.8 4.3 1.5 2.9 4.9 3.1 6.1 3.1.9 0 1.1-2 1.2-3.1.1-.5-.2-.9-.7-1zM47.3 65.3c.3 2.2 0 6.4-.8 7.4s-2.1 1.5-2.1 2.9h5.8s1.3-.9 1.3-1.9-.2-1.8 0-6.1c.1-1.4.3-2.8.4-3.9-1.5.5-3 .9-4.8 1 .1.2.1.4.2.6z"/></svg>