<svg xmlns="http://www.w3.org/2000/svg" viewBox="0 0 100 100" xml:space="preserve"><path d="M83.804 69.004c.441-1.682 1.139-6.502-3.642-10.885 0 0-9.851-11.926-6.41-20.447 0 0 2.381 1.108 4.392.739 0 0 4.475 2.873 7.84 3.489 0 0 1.684.411 0-.903 0 0-4.228-3.078-4.679-5.253 0 0-1.026-7.881-7.553-7.101 0 0-5.5.369-6.157 7.429 0 0-2.216 16.377 7.225 25.982 0 0 1.822 2.22-2.795 0 0 0-26.581-16.738-52.558-3.564 0 0-3.785 1.899 2.804 2.638 0 0-6.158-.114-8.621 1.913 0 0-5.12 2.741 5.853 5.836-3.351.253-5.279.549-5.279.864 0 .923 16.414 1.672 36.66 1.672 20.247 0 36.661-.749 36.661-1.672-.001-.264-1.346-.514-3.741-.737z"/></svg>