<svg xmlns="http://www.w3.org/2000/svg" viewBox="0 0 12.7 12.7"><path d="M11.061701 287.87028a.03630727.03630727 0 0 0-.01854.004.39945567.39945567 0 0 0-.17882.19577.13442084.13442084 0 0 1-.123401.082 9.3419626 9.3419626 0 0 0-.300676.004.88245291.88245291 0 0 0-.09786 1.31344.04924983.04924983 0 0 1-.07107.0682.98056648.98056648 0 0 1 .01339-1.37555 9.3419626 9.3419626 0 0 0-.4787739.035.79787982.79787982 0 0 1-.2481423.37801.0492154.0492154 0 0 1-.063864-.0749.69976625.69976625 0 0 0 .2047766-.29196 9.3419626 9.3419626 0 0 0-.6165961.0891 1.4681074 1.4681074 0 0 0 .1060966 1.1912.8642315.8642315 0 0 1 .1051695.53195.04905678.04905678 0 0 1-.096826-.0122.76611793.76611793 0 0 0-.092706-.47181 1.5662209 1.5662209 0 0 1-.1306121-1.21894 9.3419626 9.3419626 0 0 0-.3258091.0683 2.79313 2.79313 0 0 0-.1075386 2.45367.04938833.04938833 0 0 1-.090646.0392 2.8912436 2.8912436 0 0 1 .071074-2.46311 9.3419626 9.3419626 0 0 0-.2330003.0598 2.8945247 2.8945247 0 0 1-.6403906.0981 2.2808046 2.2808046 0 0 0-.055623.68672.04915105.04915105 0 0 1-.097856.007 2.3789181 2.3789181 0 0 1 .053563-.69123 2.8945247 2.8945247 0 0 1-.3512517-.0196 17.111479 17.111479 0 0 0-.2731729-.0297 6.1107482 6.1107482 0 0 1-.2257899 1.41823.04924133.04924133 0 1 1-.094766-.0268 6.0126346 6.0126346 0 0 0 .2228028-1.40105 17.111479 17.111479 0 0 0-.6915847-.0515 3.2631869 3.2631869 0 0 0-.4786706.78052.83916492.83916492 0 0 0 .018541.74447.04936652.04936652 0 0 1-.087556.0456.93727848.93727848 0 0 1-.020601-.83024 3.3613004 3.3613004 0 0 1 .4469446-.74658 17.111479 17.111479 0 0 0-.9949385-.0179 3.9509471 3.9509471 0 0 0-.010301 0 1.7007913 1.7007913 0 0 0 .020601 1.52739.04927164.04927164 0 0 1-.087555.0452v.00029a1.7989048 1.7989048 0 0 1-.042233-1.57401 3.9509469 3.9509469 0 0 0-.5364572.0376 1.9097459 1.9097459 0 0 0-.1377195 1.43288.23549.23549 0 0 0 .027812.0607 1.2080976 1.2080976 0 0 1 .1831453.82573.04940519.04940519 0 0 1-.097856-.0137 1.1099842 1.1099842 0 0 0-.1680034-.75869.33360357.33360357 0 0 1-.040172-.0859 2.0078594 2.0078594 0 0 1 .1125859-1.44261 3.9509469 3.9509469 0 0 0-1.0441755.33196 2.1499995 2.1499995 0 0 0-.1369984.1114.32148725.32148725 0 0 0 .077255.33815.04905678.04905678 0 0 1-.067984.0699.41960081.41960081 0 0 1-.1261828-.29646 2.1499995 2.1499995 0 0 0-.3381699.45561 1.1090039 1.1090039 0 0 1 .3007786.1269.04920094.04920094 0 1 1-.051503.0838 1.0108903 1.0108903 0 0 0-.2963493-.12112 2.1499995 2.1499995 0 0 0-.1471961.38603 5.5572422 5.5572422 0 0 1-.058714.17309.40438489.40438489 0 0 1 .3273542.16985 2.9496794 2.9496794 0 0 1 .1737717-.39997.10356427.10356427 0 0 1 .1917979.0744 7.7218302 7.7218302 0 0 0-.1420458.65954 1.6120694 1.6120694 0 0 0 .3835957.54786.04908641.04908641 0 0 1-.066954.0717 1.710183 1.710183 0 0 1-.3432172-.44857 7.7218302 7.7218302 0 0 0-.010301.0624 15.81397 15.81397 0 0 1-.1499773.64531.44664633.44664633 0 0 0 .2819285.22451.04910765.04910765 0 0 1-.024722.095.54475991.54475991 0 0 1-.2898599-.19098 15.81397 15.81397 0 0 1-.2415499.82447.80458365.80458365 0 0 0 .020601.55039 2.7192622 2.7192622 0 0 0 .1240196.26337.23549.23549 0 0 0 .2076609.12393h.3612433a.09321665.09321665 0 0 0 .070044-.15492.75709184.75709184 0 0 1-.1478141-.25365.33360357.33360357 0 0 1 0-.20957 5.3747168 5.3747168 0 0 1 .1652222-.45138 11.233536 11.233536 0 0 1 .8442401-.97432.61815034.61815034 0 0 1 .1796431-.12801 1.5310957 1.5310957 0 0 0 .940345-1.07656.04905678.04905678 0 0 1 .094766.0226 1.6292092 1.6292092 0 0 1-.2653444.57998 2.9763585 2.9763585 0 0 0 .761526.38364.85257962.85257962 0 0 1-.1694454-.32337.04911473.04911473 0 0 1 .094766-.0258.75446607.75446607 0 0 0 .2840916.41082 2.9763585 2.9763585 0 0 0 .5141047.0843.59731758.59731758 0 0 1-.1500803-.42801.04914996.04914996 0 1 1 .097856.005.49920402.49920402 0 0 0 .2054977.43041 2.9763585 2.9763585 0 0 0 .9115033-.12126 6.6112178 6.6112178 0 0 1 .147093-.66645.04935317.04935317 0 0 1 .094766.0261 6.5131042 6.5131042 0 0 0-.1499773.6856 26.632903 26.632903 0 0 0-.1586298 1.57737 1.4767035 1.4767035 0 0 0 .035022.4928.15012595.15012595 0 0 0 .145754.11492h.5040101a.18093528.18093528 0 0 0 .059744-.35167.16287552.16287552 0 0 1-.1081567-.16985 1.6758374 1.6758374 0 0 1 .1139251-.45942 2.9135233 2.9135233 0 0 1 .4975207-1.06529 21.804863 21.804863 0 0 0 .033992-.0471 2.3679836 2.3679836 0 0 0 .6301929-1.24683.04911091.04911091 0 0 1 .096826.0165 2.4660972 2.4660972 0 0 1-.4959757 1.11488 3.0396542 3.0396542 0 0 0 1.055507-.92208.9026972.9026972 0 0 1 .61505-.388 1.3962595 1.3962595 0 0 0 .306547-.0825.33360357.33360357 0 0 1 .292744.0231 1.2437433 1.2437433 0 0 1 .309329.25873.06476196.06476196 0 0 0 .09168.006.54375766.54375766 0 0 0 .119694-.1521.33360357.33360357 0 0 1 .148432-.1431.47729386.47729386 0 0 0 .186029-.16153.06476196.06476196 0 0 0 .0103-.0614 2.1520755 2.1520755 0 0 0-.192519-.35857.33360357.33360357 0 0 1-.04841-.11647 1.4546778 1.4546778 0 0 0-.291405-.61504.45743253.45743253 0 0 0-.255971.0593.04905679.04905679 0 0 1-.04841-.0852.55554611.55554611 0 0 1 .219198-.0702 1.4546778 1.4546778 0 0 0-.144827-.13154.33360357.33360357 0 0 1-.105376-.14493.50018656.50018656 0 0 0-.221463-.25998.03630727.03630727 0 0 0-.01751-.005zm.577659 1.08249a.08185704.08185704 0 0 1 .0824.0832.08185704.08185704 0 1 1-.163574 0 .08185704.08185704 0 0 1 .08137-.0832z" transform="translate(0 -284.29998)"/><path d="M9.6541188 291.12136a1.5777295 1.5777295 0 0 1-.5574705.61301 8.2968498 8.2968498 0 0 1-.1896347-.34294 3.1377679 3.1377679 0 0 0 1.2028054-.95705 7.4183268 7.4183268 0 0 1-.02987.84367 3.6449552 3.6449552 0 0 0 .09477.65164 2.3076868 2.3076868 0 0 0 .615772 1.09051.16287552.16287552 0 0 0 .114646.0473h.08034a.18094097.18094097 0 0 1 0 .36188h-.479495a.23549001.23549001 0 0 1-.15935-.0618 8.2968498 8.2968498 0 0 1-.9135639-1.10473 1.3534532 1.3534532 0 0 0 .3417751-.48492.04905678.04905678 0 0 0-.089616-.0376 1.2553396 1.2553396 0 0 1-.307268.44061 8.2968498 8.2968498 0 0 1-.2307342-.36213 1.675843 1.675843 0 0 0 .5949647-.65283.04913061.04913061 0 1 0-.087555-.0446zM4.8530953 291.74405a.04915952.04915952 0 0 1 .049443-.0848.83572144.83572144 0 0 0 .3338436.10893 3.2590545 3.2590545 0 0 0 .076225-.33539 1.3226997 1.3226997 0 0 0-.5652989-.0553.04905678.04905678 0 0 1-.011331-.0974 1.4208133 1.4208133 0 0 1 .5919775.0547 3.2590545 3.2590545 0 0 0 .025752-.24744 3.0744718 3.0744718 0 0 1-.3771063-.22608 1.6292092 1.6292092 0 0 1-.6721165.48659.52003679.52003679 0 0 0-.047383.0264 4.8848231 4.8848231 0 0 1 .2321764 1.44633.23549001.23549001 0 0 0 .029872.11193 2.1647033 2.1647033 0 0 0 .3050018.42138.23549001.23549001 0 0 0 .1730507.0756h.3287963a.09321665.09321665 0 0 0 .046353-.1742.13442084.13442084 0 0 1-.028842-.0216 3.1077961 3.1077961 0 0 1-.2307342-.25712.33360358.33360358 0 0 1-.073135-.19313 2.1887054 2.1887054 0 0 1 .064894-.64012 3.2590545 3.2590545 0 0 0 .1031094-.27958.933835.933835 0 0 1-.3547539-.1196zM3.6279377 288.84185a2.1883131 2.1883131 0 0 0 .1687244 2.40847.04923876.04923876 0 0 0 .078285-.0597 2.0901995 2.0901995 0 0 1-.1615139-2.30049.04907483.04907483 0 0 0-.085495-.0482zM2.4172009 290.88841a.76910427.76910427 0 0 0-.2876967-.18673 5.5572423 5.5572423 0 0 0 .1896347-.44522.3062714.3062714 0 0 1 .3208648.19657 2.8309692 2.8309692 0 0 1-.2228028.43538zM2.0444209 290.87241a5.5572423 5.5572423 0 0 0 .042233-.0821.67099071.67099071 0 0 1 .2761601.18265 2.8309692 2.8309692 0 0 1-.2155924.2783.96651368.96651368 0 0 1-.2840915.25773.61882553.61882553 0 0 0-.1406037-.28194.81178034.81178034 0 0 0 .3223069-.3547zM1.7718661 291.55685a.96651368.96651368 0 0 1-.664082.0522.41171886.41171886 0 0 0 .1110408-.27402.81178034.81178034 0 0 0 .4124375-.0617.52071194.52071194 0 0 1 .1406037.2835zM.72480642 290.96381a.62066796.62066796 0 0 0 .25020245.30452.81178034.81178034 0 0 0 .14503293.0495.3136053.3136053 0 0 1-.1183543.25608.7263418.7263418 0 0 1-.47084205-.55632.10104623.10104623 0 0 1 .19396097-.0538z" transform="translate(0 -284.29998)"/></svg>