<?xml version="1.0" encoding="UTF-8"?>
<svg width="1200pt" height="1200pt" version="1.1" viewBox="0 0 1200 1200" xmlns="http://www.w3.org/2000/svg">
 <path d="m1066.8 285.6c-99.602-111.6-252-154.8-368.4-123.6 18-34.801 42-68.398 72-99.602 13.199-13.199 1.1992-34.801-16.801-31.199-94.801 18-177.6 73.199-223.2 147.6-88.801-37.199-204-38.398-306 7.1992-18 7.1992-13.199 33.602 6 36 49.199 3.6016 97.199 15.602 140.4 33.602-115.2 37.199-220.8 160.8-241.2 310.8-2.3984 18 19.199 28.801 32.398 15.602 62.398-63.602 136.8-118.8 206.4-145.2-72 82.801-84 213.6-37.199 327.6 7.1992 16.801 32.398 14.398 36-3.6016 30-144 102-235.2 193.2-255.6 105.6 278.4 49.199 523.2 18 620.4-7.1992 21.602 9.6016 44.398 32.398 44.398h156c18 0 33.602-14.398 33.602-33.602 1.1992-96-6-382.8-132-668.4 97.199-24 204 14.398 296.4 126 12 14.398 34.801 3.6016 32.398-14.398-13.199-130.8-90-240-189.6-276 62.398-10.801 144-4.8008 242.4 13.199 16.812 3.5977 28.812-16.801 16.812-31.199z"/>
</svg>
