<?xml version="1.0" encoding="UTF-8"?>
<svg width="1200pt" height="1200pt" version="1.1" viewBox="0 0 1200 1200" xmlns="http://www.w3.org/2000/svg">
 <path d="m532.96 1005.4h84.602c13.895 0 25.008-11.113 25.008-25.008v-83.555h210.88c17.375 0 26.051-32.305 13.727-51.07l-83.555-129.06h31.621c14.941 0 22.402-27.973 11.809-44.293l-85.98-132.89h30.227c12.336 0 18.406-22.754 9.7305-36.133l-196.13-302.59c-5.3867-8.1602-13.895-8.1602-19.453 0l-195.95 302.59c-8.6875 13.379-2.6055 36.133 9.7305 36.133h30.227l-85.98 132.89c-10.598 16.332-3.1328 44.293 11.809 44.293h31.621l-83.555 129.06c-12.336 18.758-3.6484 51.07 13.727 51.07h210.88v83.555c-0.007812 13.898 11.113 25.012 25.012 25.012z"/>
</svg>
