<?xml version="1.0" encoding="UTF-8"?>
<svg width="1200pt" height="1200pt" version="1.1" viewBox="0 0 1200 1200" xmlns="http://www.w3.org/2000/svg">
 <path d="m156 893.88 212.28-258.48h-169.32c-5.168-0.011719-9.8203-3.125-11.812-7.8906-1.9883-4.7656-0.92969-10.262 2.6914-13.949l230.16-230.16h-110.64c-3.9688 0.082031-7.8125-1.3789-10.727-4.0703-2.918-2.6914-4.6797-6.4062-4.9141-10.367-0.23828-3.9609 1.0664-7.8594 3.6406-10.883l275.28-320.88c6.8398-7.9961 16.836-12.602 27.359-12.602s20.52 4.6055 27.359 12.602l274.92 320.76c2.5742 3.0195 3.8789 6.918 3.6406 10.879-0.23828 3.9609-1.9961 7.6797-4.9141 10.371-2.9141 2.6914-6.7617 4.1484-10.727 4.0703h-110.28l230.16 230.16c3.6211 3.6836 4.6797 9.1797 2.6914 13.945-1.9922 4.7695-6.6445 7.8789-11.812 7.8945h-169.32l212.28 258.6c2.8906 3.5352 4.332 8.0352 4.0312 12.59-0.30078 4.5586-2.3242 8.8281-5.6562 11.949-3.3359 3.1211-7.7305 4.8594-12.297 4.8633h-358.08v216c0 9.5469-3.793 18.703-10.543 25.453-6.7539 6.7539-15.91 10.547-25.457 10.547h-72c-9.5469 0-18.703-3.793-25.457-10.547-6.75-6.75-10.543-15.906-10.543-25.453v-216h-357.96c-4.5781 0.027344-8.9961-1.6914-12.355-4.8086-3.3555-3.1133-5.3984-7.3945-5.7109-11.961-0.3125-4.5703 1.125-9.0859 4.0273-12.633z"/>
</svg>
