<?xml version="1.0" encoding="UTF-8"?>
<svg width="1200pt" height="1200pt" version="1.1" viewBox="0 0 1200 1200" xmlns="http://www.w3.org/2000/svg">
 <path d="m1080 457.2c0-63.602-48-115.2-109.2-121.2 6-14.398 9.6016-30 9.6016-46.801 0-67.199-54-121.2-121.2-121.2-14.398 0-28.801 2.3984-42 7.1992-2.4023-63.598-56.402-115.2-121.2-115.2-43.199 0-81.602 22.801-103.2 57.602-21.602-34.801-60-57.602-103.2-57.602-67.199 0-121.2 54-121.2 121.2 0 4.8008 0 9.6016 1.1992 13.199-16.801-8.3984-36-13.199-55.199-13.199-67.199 0-121.2 54-121.2 121.2 0 26.398 8.3984 51.602 24 72-55.199 12-96 60-96 118.8 0 39.602 19.199 74.398 48 96-10.801 18-16.801 39.602-16.801 61.199 0 67.199 54 121.2 121.2 121.2 9.6016 0 19.199-1.1992 27.602-3.6016 21.602 34.801 60 58.801 104.4 58.801 32.398 0 62.398-13.199 84-33.602 10.801 22.801 27.602 40.801 49.199 54v192l-94.801 84c-6 6-2.3984 15.602 6 15.602h69.602c2.3984 0 4.8008-1.1992 6-2.3984l40.801-40.801v33.602c0 4.8008 3.6016 8.3984 8.3984 8.3984h55.199c4.8008 0 8.3984-3.6016 8.3984-8.3984v-33.602l40.801 40.801c1.1992 1.1992 3.6016 2.3984 6 2.3984h69.602c8.3984 0 12-9.6016 6-15.602l-94.801-84-1.1992-194.4c21.602-13.199 38.398-33.602 48-57.602 22.801 24 54 39.602 90 39.602 58.801 0 108-42 118.8-97.199 9.6016 2.3984 20.398 3.6016 31.199 3.6016 67.199 0 121.2-54 121.2-121.2 0-27.602-9.6016-52.801-25.199-73.199 19.199-19.199 31.199-49.199 31.199-81.602z"/>
</svg>
