<svg xmlns="http://www.w3.org/2000/svg" viewBox="0 0 128 128" xml:space="preserve"><path d="M20.641 64.173s.61.114 1.485-.04c.875-.154 1.991-.574 2.377-.998.386-.425 1.208-2.095 1.632-4.373.425-2.278.932-4.368.662-5.526-.27-1.158-.306-2.396-.229-3.361.077-.965.517-1.225.723-.813s.476.657 1.055 1.661 1.66 3.397 1.931 4.092c.27.695.579.579.772 1.197.193.618 1.428 2.741 1.969 3.32.541.579 1.158 2.625 1.351 3.127.193.502.656 2.084.656 2.084s.657-.543.966-.543h.695s.463-1.138.772-1.292c.309-.155.772-.395.772-.395s.425-1.105.849-1.259c.425-.154 1.004-.359 1.004-.359s.039-.701.232-.778c.193-.077.656-.235.656-.235s.772-1.16 1.621-1.777c.849-.618 2.78-2.279 3.783-2.703 1.004-.425 2.818-1.545 4.401-2.278 1.583-.734 3.629-1.969 4.633-2.432 1.004-.463 6.332-2.471 10.617-1.815 4.285.656 7.76 1.66 9.42 2.394 1.66.734 5.752 4.247 7.992 6.332 2.239 2.085 6.602 6.139 8.339 7.046s6.756 4.034 10.115 4.343c3.359.309 6.833.425 9.652-.888 2.818-1.313 7.065-3.976 8.416-4.826 1.351-.849 2.625-1.699 3.475-1.853.849-.154 1.815-.116.502 1.042-1.313 1.158-5.019 5.289-6.061 6.447-1.042 1.158-6.061 5.675-10.887 6.911-4.826 1.235-7.644 1.892-11.389 1.313-3.745-.579-10.501-1.853-12.007-2.394-1.506-.541-1.93-.27-2.085-.116-.154.154-1.274 1.3-1.531 1.506-.257.206-.309.309-.309.309s1.621 1.879 2.162 2.857c.541.978 1.416 2.033 1.905 2.342.489.309 1.776 1.544 2.033 1.853.257.309.051 1.055.18 1.621.129.566.746 2.548 1.39 3.449.643.901 1.132 1.93 1.184 2.214.051.283.077.824-.721 1.57-.798.746-2.702 2.135-3.063 2.289-.36.152-2.188.562-2.548.562h-1.03l-.103-.745s-.438-.166-.618-.063c-.18.103-.283.11-.669.135-.386.026-.798.003-.798-.048 0-.051.026-.899.669-1.542.643-.644 1.596-1.453 1.596-1.453s.232-1.422.103-2.039c-.129-.618-.463-1.11-1.184-1.83-.721-.721-1.158-1.983-1.544-2.369-.386-.386-1.853-1.288-1.853-1.288s.051.489.154.9c.103.412.051 1.081-.643 1.801-.695.721-1.287 1.544-1.441 2.11-.154.566-.154 2.059-.154 2.342 0 .283-.721 1.789-1.004 2.227-.283.437-.669.862-.669.862h-3.577l-3.269-.065s.077-1.203.721-1.77c.644-.566 1.441-1.271 1.57-1.683.129-.412.232-2.218.489-2.656.257-.438 1.287-3.142 1.364-3.657.077-.515.154-2.601.154-2.601s-.463-.31-.901-.387c-.438-.077-.952-.644-1.21-.901-.257-.257-.515-.489-.515-.489s-3.784 2.11-4.993 2.522c-1.21.412-3.449 1.107-3.449 1.107s-.026 1.467.154 2.11c.18.644 1.184 3.706 1.287 4.272.103.566.232 2.471.232 2.908 0 .438-.129.824-.36.824-.232 0-8.442.154-8.648.154-.206 0-.18-.257-.026-.54.154-.283.406-.888 1.603-1.39.923-.387 1.234-1.383 1.26-1.795.026-.412.251-.779-.058-1.062-.309-.283-.721-1.441-.978-1.776-.257-.335-.772-1.132-1.055-1.441-.283-.309-1.416-1.474-1.416-1.474S49.014 84 48.782 84h-.515s-.927 1.692-1.055 1.924c-.129.232-1.21 1.425-1.518 1.914-.309.489-1.287 2.077-1.467 2.694-.18.618-.669 2.375-1.055 2.993-.387.618-.593 1.475-.593 1.475h-7.747l-.193-1h-.579s-.039-.425.077-.579c.116-.155.618-.618.618-.618s.077-.377.232-.531c.154-.155 1.37-.874 1.757-1.125s1.95-1.894 2.239-2.222c.29-.328.869-.889.965-1.237.097-.347.309-1.101.425-1.892.116-.792.637-2.317.849-2.761.212-.444.27-.618.27-.618s-1.062-.29-2.297-.174c-1.235.116-2.432.058-3.61-.097-1.177-.154-3.629-.926-4.189-1.023-.56-.096-1.641.154-2.278.463-.637.309-1.911.927-2.374 1.042-.463.116-2.007.482-2.374.734-.367.251-1.197 1.293-1.467 1.564-.27.27-.618.888-.946 1.119-.328.232-.656.29-.656.29s-.618.695-1.255.946c-.637.251-2.085.406-2.799.348-.714-.058-1.428-.734-1.486-.849-.058-.116-.039-.251.367-.386.405-.135 1.255-.733 1.255-.733s-.135-.618-.116-.849c.019-.232-.077-.734-.077-.734s-.656.193-1.042.483-1.409.83-1.467 1.042c-.058.212-.058.637 0 .907s0 .328-.328.251c-.328-.077-2.22-1.757-2.49-2.78s-.347-2.471 0-3.05.502-.965.502-1.197c0-.232-.077-.521-.077-.521s-1.313-.405-2.451-.946c-1.139-.541-1.679-1.023-1.853-1.178-.174-.154-.154-.328.579-.367.733-.039 3.166-.405 4.208-.695 1.042-.289 1.641-.483 1.641-.483s.289-.251.618-.367c.328-.116 1.834-.637 2.162-.888.328-.251.985-1.062 1.158-1.39.174-.328.367-.985.367-.985s-3.031.348-5.038.946c-2.008.598-3.378 1.158-5.695 1.853-2.316.695-2.432.83-3.185.927-.753.097-1.506-.232-1.042-.405s2.432-1.1 3.32-1.641c.888-.541 3.011-1.911 4.073-2.471 1.062-.56 2.818-1.506 3.88-1.892 1.062-.386 1.853-.734 1.853-.734s-2.934.154-4.922.579c-1.988.425-5.27 1.216-5.945 1.409-.676.193-2.046.483-2.529.56-.483.077-.888-.154-.483-.405s4.054-2.22 5.289-2.76c1.235-.54 3.533-1.525 5.714-2.123 2.181-.598 2.818-.849 3.899-1.004 1.081-.154 2.066-.328 2.066-.328l.425-.251c-.003.002.129-.017.244-.001z"/></svg>