<?xml version="1.0" encoding="UTF-8"?>
<svg width="1200pt" height="1200pt" version="1.1" viewBox="0 0 1200 1200" xmlns="http://www.w3.org/2000/svg">
 <path d="m1054.5 683.68c-23.109-40.781-53.578-76.875-89.906-106.45 66.281-65.625 113.86-147.74 137.76-237.89 2.4844-9.2344 1.2188-19.078-3.5625-27.328-4.7812-8.2969-12.656-14.344-21.891-16.781-90-24.375-184.92-24.234-274.87 0.375-18.141-112.08-85.734-210.05-184.08-266.81-11.156-6.4219-24.844-6.4219-36 0-98.344 56.766-165.94 154.74-184.08 266.81-89.953-24.562-184.87-24.703-274.87-0.375-19.219 5.1094-30.609 24.844-25.453 44.062 23.906 90.141 71.484 172.26 137.76 237.94-87.984 71.719-139.03 179.26-139.03 292.78 0 12.891 6.8906 24.75 18 31.219 98.344 56.766 216.94 66.328 323.06 25.969 23.719 90.234 71.062 172.45 137.16 238.26 14.062 14.062 36.844 14.062 50.906 0 66.094-65.812 113.44-148.08 137.11-238.26 106.12 40.359 224.76 30.797 323.06-25.969 11.156-6.4688 18-18.328 18-31.219-0.09375-65.297-16.969-129.47-49.078-186.32zm-151.36-147.28c-22.547-12-46.266-21.703-70.781-28.922l165.28-95.531c-24 46.688-56.016 88.781-94.5 124.45zm-96.422-167.16c50.109-15.516 102.52-22.125 154.92-19.641l-164.95 95.25c5.8594-24.797 9.2344-50.109 10.031-75.609zm-206.76-266.81c84.234 57.047 134.76 152.06 134.95 253.74 0.1875 38.672-7.0312 76.969-21.281 112.92-9.8906-5.3906-20.578-9.1406-31.594-11.25-20.531-24-50.484-37.828-82.078-37.828s-61.547 13.828-82.078 37.828c-10.969 2.1094-21.516 5.8125-31.359 11.109-25.734-64.875-28.5-136.55-7.875-203.26 20.672-66.656 63.469-124.26 121.31-163.26zm-206.72 266.81c0.89062 25.594 4.3594 50.953 10.359 75.844l-165.32-95.484c52.406-2.4844 104.86 4.125 154.97 19.641zm-190.97 42.703 164.95 95.25v0.046875c-24.375 7.2656-48 17.016-70.453 29.062-38.484-35.625-70.5-77.719-94.5-124.36zm-33.188 436.78v0.046875c7.2656-101.44 64.266-192.71 152.26-243.74 33.375-19.453 70.172-32.344 108.42-37.969 0.28125 11.25 2.3438 22.359 6.0469 32.953-10.547 29.766-7.5 62.672 8.25 90 15.797 27.328 42.797 46.406 73.828 52.172 7.2656 8.4375 15.797 15.75 25.312 21.562-43.359 54.703-104.06 92.953-172.08 108.42-68.062 15.469-139.36 7.2188-202.03-23.391zm394.87 189.71c-28.359-44.109-48.844-92.859-60.469-144 21.703-13.547 41.953-29.297 60.469-46.922zm36-330.42c-12.844-0.046875-24.75-6.8906-31.219-18-6.4219-11.109-18.234-18-31.078-18-12.891 0-24.797-6.8438-31.219-18-6.4219-11.109-6.4219-24.844 0-36 6.4219-11.109 6.4219-24.797 0-35.953-6.4219-11.109-6.4219-24.844 0-36s18.328-18 31.219-18c12.844 0 24.703-6.8906 31.078-18.047 6.4219-11.156 18.328-18.047 31.219-18.047s24.797 6.8906 31.219 18.047c6.4219 11.109 18.234 18 31.078 18 12.891 0 24.797 6.8438 31.219 18 6.4219 11.109 6.4219 24.844 0 36-6.4219 11.109-6.4219 24.797 0 35.953 6.4219 11.109 6.4219 24.844 0 36s-18.328 18-31.219 18c-12.844 0-24.703 6.8906-31.078 18.047-6.4688 11.109-18.375 17.953-31.219 18zm36 330.42v-190.5c18.516 17.484 38.812 33.094 60.469 46.5-11.625 51.141-32.109 99.891-60.469 144zm107.67-199.64c-33.562-19.125-63.141-44.578-87.094-74.859 9.5625-5.9062 18.188-13.219 25.5-21.75 31.031-5.7656 58.031-24.797 73.828-52.172 15.75-27.328 18.797-60.234 8.25-90 3.6562-10.547 5.6719-21.562 6-32.719 69.047 10.172 132.52 43.594 179.95 94.781 47.438 51.234 75.938 117.09 80.766 186.71-91.453 44.438-198.98 40.688-287.21-9.9844z"/>
</svg>
