<svg xmlns="http://www.w3.org/2000/svg" viewBox="-10 -5 110 100" style="enable-background:new -10 -5 110 100" xml:space="preserve"><path d="M64.722 68.205c.056-.249.085-.51.085-.779 0-.65-.175-1.257-.475-1.757.493-.175.911-.563 1.161-1.077.668.263 1.449.271 2.211.015 1.409-.476 2.41-1.74 2.549-3.084 1.328.143 2.765-.888 3.543-2.643.536-1.208.68-2.573.428-3.736.637.03 1.282-.197 1.849-.67.723-.602 1.24-1.532 1.456-2.619.284-1.428 0-2.869-.714-3.866 1.21-.774 2.045-2.603 2.045-4.686 0-1.645-.516-3.165-1.372-4.112.533-1.003.821-2.253.821-3.581 0-2.999-1.506-5.456-3.392-5.603.132-.534.2-1.095.2-1.659 0-2.996-1.879-5.434-4.19-5.434-.255 0-.508.03-.757.089.165-1.821-.441-4.129-1.953-5.461-1.489-1.313-3.301-1.216-4.616-.428-.089-2.682-2.04-4.833-4.425-4.833-1.427 0-2.74.773-3.563 2.039-.686-1.492-1.971-2.462-3.382-2.462-1.671 0-3.142 1.361-3.681 3.288-.581-.447-1.243-.686-1.921-.686-2.054 0-3.738 2.153-3.85 4.855-.332-.156-.684-.236-1.043-.236-1.706 0-3.093 1.808-3.093 4.029 0 .345.035.688.102 1.02-1.004.104-1.797 1.238-1.797 2.617 0 .305.039.604.114.886-.125.13-.226.291-.298.472l-.681-4.811s-.215-3.733.756-4.799c.961-1.053 1.819.234 1.819.234l-.47-4.745s-.668-3.421 1.666-4.853 3.478.819 3.478.819-1.307-4.871 1.709-6.708c3.016-1.837 4.777 1.674 4.777 1.674S50.573.467 54.352.467c3.434 0 4.432 3.277 4.432 3.277s1.959-4.808 5.297-3.529c3.339 1.279 3.288 4.817 3.288 4.817s2.884-5.258 6.604-2.215 1.981 6.78 1.981 6.78 4.131-3.764 7.096.306 1.203 7.653.249 8.473c0 0 2.884-.207 4.124 3.421 1.24 3.628-.976 6.761-2.312 7.346 0 0 4.091-.037 4.813 5.042.624 4.385-2.81 5.843-2.81 5.843s2.458 1.981 1.79 5.843c-.667 3.863-4.461 3.169-4.461 3.169s3.419 1.63 2.473 6.257c-.947 4.628-3.904 3.223-3.904 3.223s1.526 2.575-.19 4.916c-1.717 2.341-4.674.351-4.674.351s.763 2.926-2.099 3.979c-2.861 1.053-4.292-.819-4.292-.819s-.954 3.043-3.911 2.692c-1.554-.182-2.475-.593-3.124-1.434zm-.762-3.612c.276-.38.738-.433.82-.88l.135-.728.54.344c.547.349 1.276.409 1.999.165 1.198-.404 2.029-1.554 1.851-2.562l-.176-1.003.79.337c1.051.448 2.362-.385 3.051-1.938.556-1.252.583-2.689.071-3.66l-.798-1.511 1.365.661c.099.048.181.081.259.104.567.17 1.163.026 1.678-.403.53-.442.91-1.13 1.07-1.938.261-1.313-.141-2.681-.977-3.325l-1.054-.812 1.229-.244c1.201-.238 2.106-1.914 2.106-3.897 0-1.499-.513-2.848-1.339-3.521l-.432-.353.329-.493c.567-.851.892-2.063.892-3.327 0-2.458-1.18-4.457-2.63-4.457-.135 0-.277.021-.433.066l-.982.28.458-1.103c.259-.625.396-1.333.396-2.048 0-2.361-1.458-4.281-3.25-4.281-.415 0-.821.104-1.209.309l-1.013.536.387-1.267c.454-1.488-.009-3.919-1.423-5.167-1.409-1.243-3.301-.875-4.317.199l-1.093 1.156.329-1.724c.051-.268.077-.539.077-.804 0-2.135-1.565-3.871-3.489-3.871-1.411 0-2.674.934-3.22 2.379l-.536 1.421-.342-1.508c-.363-1.599-1.534-2.715-2.847-2.715-1.461 0-2.72 1.381-2.929 3.213l-.126 1.107-.662-.769c-.527-.612-1.197-.95-1.885-.95-1.608 0-2.917 1.789-2.917 3.988 0 .197.014.409.042.647l.172 1.438-.929-.903c-.372-.361-.809-.552-1.263-.552-1.188 0-2.154 1.29-2.154 2.876 0 .517.107 1.028.309 1.476l.716 1.591-1.332-.794c-.121-.072-.248-.108-.378-.108-.556 0-1.009.66-1.009 1.472 0 .304.063.596.184.844l.202.417c.484-.029.972-.043 1.462-.043 1.008 0 2.002.061 2.979.18.076-1.909 1.511-3.398 3.285-3.398.404 0 .806.083 1.184.24.584-1.255 1.735-2.065 3.005-2.065 1.031 0 1.977.519 2.614 1.397.426-.661 1.022-1.127 1.719-1.333.839-.249 1.724-.088 2.49.452.74.521 1.293 1.361 1.55 2.324.973-.299 2.104.006 3.021.854.756.699 1.27 1.675 1.44 2.703 1.025-.152 2.123.308 2.975 1.278.896 1.02 1.358 2.44 1.251 3.76.913.325 1.746 1.181 2.248 2.342.707 1.631.614 3.527-.167 4.718.545.618.929 1.501 1.061 2.476.188 1.389-.144 2.731-.854 3.588.365.671.562 1.482.562 2.341 0 1.68-.789 3.159-1.901 3.684.094.908-.128 1.925-.625 2.778-.541.926-1.33 1.53-2.118 1.657-.035 1.276-.747 2.347-1.729 2.705.491.501.803 1.265.803 2.117-.001.707-.216 1.35-.568 1.835zm-.913-4.975c.007 0 .015-.001.022-.001.811-.042 1.445-.822 1.445-1.776 0-.117-.01-.236-.029-.351l-.134-.784.649.093c.615.087 1.34-.39 1.807-1.19.435-.746.584-1.636.389-2.325l-.183-.645.549-.113c.91-.188 1.596-1.352 1.596-2.708 0-.773-.226-1.516-.621-2.038l-.376-.498.461-.375c.659-.534.996-1.672.84-2.83-.123-.908-.53-1.698-1.091-2.114l-.589-.438.546-.514c.799-.751.944-2.375.337-3.776-.449-1.036-1.221-1.748-2.015-1.859l-.545-.076.145-.649c.238-1.063-.113-2.324-.894-3.212-.75-.854-1.772-1.198-2.604-.878l-.6.23-.011-.771c-.012-.917-.434-1.846-1.127-2.487-.814-.753-1.83-.948-2.586-.496l-.581.347-.09-.785c-.102-.891-.556-1.7-1.216-2.164-.558-.393-1.198-.51-1.803-.331-.595.176-1.085.62-1.379 1.249-.038.082-.072.166-.103.25l-.392 1.096-.454-1.06c-.407-.952-1.281-1.567-2.226-1.567-1.055 0-1.992.747-2.333 1.858l-.184.6-.466-.287c-.367-.226-.783-.345-1.206-.345-1.257 0-2.31 1.044-2.348 2.328 0 .017-.002.034-.003.05 11.617 1.872 20.515 11.94 20.515 24.042.004 2.49-.371 4.946-1.112 7.3M39.735 29.116c-12.951 0-23.488 10.408-23.488 23.201 0 7.252 3.343 13.955 9.172 18.39.016.012.032.026.046.041 8.67 8.541 29.416 5.954 29.624 5.927.016-.002.033-.003.049-.003.803 0 1.508-.521 1.508-1.116 0-.035 0-.069-.005-.103-.027-.2.033-.403.159-.535s.3-.172.456-.106c.204.085.429.13.652.13.875 0 1.588-.654 1.588-1.457 0-.13-.02-.26-.058-.385-.064-.21-.023-.448.106-.607.129-.16.322-.213.494-.137.191.084.394.127.604.127.798 0 1.447-.617 1.447-1.375 0-.351-.139-.615-.256-.776-.121-.167-.153-.404-.082-.61.071-.205.233-.342.415-.35.954-.043 1.701-.898 1.701-1.946 0-1.029-.724-1.883-1.647-1.943-.259-.017-.458-.288-.444-.606s.237-.563.494-.545h.001c.022.001.058.003.08.003.682 0 1.237-.707 1.237-1.576 0-.838-.514-1.529-1.17-1.573-.148-.01-.284-.106-.366-.258-.082-.153-.1-.343-.05-.515.059-.199.089-.406.089-.618 0-.049-.001-.098-.005-.146 0-.009-.001-.019-.001-.028-.076-.974-.789-1.739-1.652-1.739h-1.589c-.177 0-.338-.122-.418-.315-.08-.193-.065-.426.04-.601.109-.184.167-.393.167-.606 0-.663-.544-1.203-1.214-1.203h-2.398c-.211 0-.396-.172-.453-.422-.056-.25.03-.515.21-.648.305-.225.487-.599.487-1 0-.664-.492-1.205-1.097-1.205-.259 0-.47-.258-.47-.576s.21-.577.47-.577c1.123 0 2.036 1.058 2.036 2.357 0 .322-.055.632-.159.917h1.373c1.188 0 2.153 1.057 2.153 2.355 0 .125-.009.248-.026.37h.888c.854 0 1.614.489 2.088 1.243.467-1.841.704-3.738.704-5.657-.001-12.79-10.538-23.198-23.49-23.198zm0 0c-12.951 0-23.488 10.408-23.488 23.201 0 7.252 3.343 13.955 9.172 18.39.016.012.032.026.046.041 5.382 5.301 15.417 6.315 22.304 6.315 4.208 0 7.241-.378 7.32-.389.016-.002.033-.003.049-.003.803 0 1.508-.521 1.508-1.116 0-.035 0-.069-.005-.103-.027-.2.033-.403.159-.535.086-.09.195-.137.305-.137.051 0 .102.01.151.031.204.085.429.13.652.13.875 0 1.588-.654 1.588-1.457 0-.13-.02-.26-.058-.385-.064-.21-.023-.448.106-.607.09-.112.21-.171.334-.171.054 0 .107.011.16.034.191.084.394.127.604.127.798 0 1.447-.617 1.447-1.375 0-.351-.139-.615-.256-.776-.121-.167-.153-.404-.082-.61.071-.205.233-.342.415-.35.954-.043 1.701-.898 1.701-1.946 0-1.029-.724-1.883-1.647-1.943-.259-.017-.458-.288-.444-.606.013-.307.222-.546.467-.546.009 0 .018.001.026.001h.001c.022.001.058.003.08.003.682 0 1.237-.707 1.237-1.576 0-.838-.514-1.529-1.17-1.573-.148-.01-.284-.106-.366-.258-.082-.153-.1-.343-.05-.515.059-.199.089-.406.089-.618 0-.049-.001-.098-.005-.146 0-.009-.001-.019-.001-.028-.076-.974-.789-1.739-1.652-1.739h-1.589c-.177 0-.338-.122-.418-.315-.08-.193-.065-.426.04-.601.109-.184.167-.393.167-.606 0-.663-.544-1.203-1.214-1.203H55.02c-.211 0-.396-.172-.453-.422-.056-.25.03-.515.21-.648.305-.225.487-.599.487-1 0-.664-.492-1.205-1.097-1.205-.259 0-.47-.258-.47-.576s.21-.577.47-.577c1.123 0 2.036 1.058 2.036 2.357 0 .322-.055.632-.159.917h1.373c1.188 0 2.153 1.057 2.153 2.355 0 .125-.009.248-.026.37h.888c.854 0 1.614.489 2.088 1.243.467-1.841.704-3.738.704-5.657 0-12.789-10.537-23.197-23.489-23.197M9.004 22.279c.007-.92.057-1.808.15-2.665-.67.599-1.506 1.646-2.008 3.378.555-.243 1.191-.49 1.858-.713zm12.027 14.39v-1.834s6.255-10.474 6.373-13.644c.118-3.17-1.879-11.24-7.516-10.375-5.637.864-8.221 2.017-9.278 6.052-1.057 4.035-.705 8.502 0 12.249 1.879-3.314-.031-8.413 3.289-11.961 1.314-1.405 3.757-1.005 3.757-1.005.156-.453.52-.767.945-.767.567 0 1.027.564 1.027 1.261s-.46 1.261-1.027 1.261c-.373 0-.697-.244-.877-.608-.062.005-.124.002-.188-.008-.566-.088-2.211-.128-3.02.735-.94 1.005-1.387 2.165-1.627 3.415 1.765-.086 2.922.499 2.126 2.464-1.585 3.916-4.462 9.032-6.518 11.842s-19.177 23.728 1.938 35.162c9.117 4.937 16.125 4.585 19.254 4.032-1.796-.861-3.428-1.936-4.789-3.271-6.096-4.65-9.592-11.702-9.592-19.351 0-5.953 2.153-11.414 5.723-15.649zM41.115 87.19c-1.438.072-.44-5.692 1.263-3.387.353-2.738-1.82-2.017-1.82-2.017s-.184-2.718.222-3.943c-.97-.119-1.833-.241-1.833-.241s.468 6.369-.385 8.531c-.052.13-.133.244-.239.345-.677-.151-1.348-.178-1.847-.153-1.438.072-.439-5.548 1.264-3.242.352-2.738-1.82-2.018-1.82-2.018s-.195-2.757.21-3.981c-.804-.186-1.818-.449-1.818-.449s.465 6.472-.388 8.633-9.571-.096-9.982 3.867c2.192-1.033 2.055 0 3.875 0h1.035c-.141.25-.237.534-.271.865 2.192-1.033 2.055 0 3.875 0h8.104c2.306 0 2.975-1.561 5.167 0-.296-2.522-3.175-2.882-4.612-2.81z"/></svg>