<svg xmlns="http://www.w3.org/2000/svg" viewBox="0 0 50 50" xml:space="preserve"><path fill-rule="evenodd" clip-rule="evenodd" d="M5.118 20.294c.619.054 1.077.599 1.022 1.217-.054.618-.599 1.076-1.217 1.022-.618-.054-1.076-.599-1.022-1.217.055-.619.599-1.077 1.217-1.022m16.87 14.722c-3.788-.725-6.037-1.665-9.243-3.614-.995 1.922-.628 3.762.409 5.105.844 1.095 2.158 1.844 3.532 2 1.685.194 3.448-.447 4.589-2.322l.713-1.169zm24.821-4.628c-2.669 1.886-5.719 3.213-8.868 4.062l1.92 2.575c1.252 1.681 3.121 2.037 4.812 1.571 1.233-.341 2.36-1.128 3.066-2.199.909-1.38 1.101-3.136-.107-4.849l-.823-1.16zm-8.581-6.149c2.233-.582 3.784-1.332 5.597-2.622.606-.065 1.225-.105 1.821-.236-1.331-3.715-4.474-6.513-7.974-8.172l-2.907 5.033 3.463 5.997zm-2.584.516-3.037-5.261h-6.295l-2.573 4.456c3.765 1.054 8.037 1.359 11.905.805zm-9.33-7.767h6.291l2.72-4.712c-3.813-1.247-8.078-1.413-11.961-.396l2.95 5.108zm-2.161 1.255-3.207-5.554c-2.998 1.238-5.727 3.34-7.257 6.247.588.205 1.172.364 1.771.527 1.813 1.685 3.499 2.747 5.865 3.678l2.828-4.898zM10.618 29.001c2.245.7 3.467 1.879 5.478 2.788 4.846 2.195 11.172 3.013 17.25 2.205 6.018-.799 11.84-3.194 15.819-7.422.846-.894 1.139-2.003.458-3.099-.579-.926-1.682-1.346-2.731-1.034-.935.278-1.602.378-2.572.482-2.123 1.51-4.287 2.341-6.833 2.878-5.269 1.111-11.501.592-16.524-1.35-2.369-.916-4.319-2.041-6.179-3.771-2.13-.58-4.288-1.499-6.201-2.6-1.776-1.024-4.018-1.275-5.866-.292-3.191 1.696-3.593 6.37-1.09 8.831.907.892 2.192 1.517 3.885 1.564 1.559.044 3.365.277 5.106.82z"/></svg>