<svg xmlns="http://www.w3.org/2000/svg" viewBox="0 0 100 100" xml:space="preserve"><path fill-rule="evenodd" clip-rule="evenodd" d="M94.787 26.075c-1.5-1.382-3.681-1.407-5.709-1.647-.335-.04-.744-.246-1.097-.22-.491.037-.883.424-1.318.549-2.035.581-4.633-.138-6.148-1.208v-.11h-.988c-.909.014-1.592 1.343-2.525 1.537-1.338.279-2.425-.178-3.514.11-.966.255-2.079.728-2.965 1.318-1.502 1-2.152 2.866-3.403 4.282-.684.773-2.167 2.031-3.074 2.416-2.027.859-3.685.051-5.601-.33-4.208-.836-8.285-.585-11.528.33-1.351.38-2.886 1.182-4.393 1.208-1.414.024-2.838-.798-4.612-.769-2.099.035-4.324.841-6.039 1.647-1.525.717-2.772 1.981-4.282 2.635-1.537.666-3.363 1.118-5.051 1.757-1.719.65-3.496 1.131-5.161 1.757-5.947 2.234-13.544 2.96-15.262 9.003v2.416c.404 1.398 1.387 2.512 1.867 3.733.583-.039.588.515.878.769 2.281 1.984 4.693 2.694 8.016 3.513.938.232 2.102 1.055 3.074.659-3.364-1.506-7.759-2.587-10.102-5.161-.421-.462-1.217-1.537-1.208-2.195.043-3.144 6.144-2.24 8.235-2.306 3.104-.098 6.711.092 9.772 0 1.478-.045 3.524.013 3.953 1.208 1.114.227 2.029 1.331 3.404 1.537.512.076 1.007-.055 1.538 0 2.424.249 4.414 1.708 5.49 2.745-.998.986-2.403 1.118-3.514 1.866-1.036.697-1.806 1.608-3.074 1.977-.961.279-1.935.246-3.075.658-.688.594-1.495 1.068-1.537 2.306-.777.504-1.001 1.562-1.867 1.977.207.673-.019.925-.329 1.318.523.223.723-.438.878-.22-1.135 1.2-2.107 2.396-2.306 4.281.667 1.456 1.43 2.817 2.086 4.282 1.126.997 3.311.936 4.721 1.648.588-.367 1.803-.433 2.635-.221.756-1.479-.45-1.555-1.208-2.086-.499-.349-1.17-1.377-1.977-1.098-.207-2.338-.026-4.745.549-7.247.899-1.387 3.342-1.964 5.49-1.428-.289.718-.966 1.146-1.098 1.867-.256 1.401.491 1.761.878 2.636.411.926.829 2.092.988 3.073.114.704.354 1.593.329 2.196-.011.27-.291 1.338-.549.879.271.954-.736 1.94-.22 2.854 1.042.679 2.796.645 3.953 1.208h.439c.016-1.598 2.397-1.8 3.075-.659 1.238.08 2.485.149 3.843.109.187-1.05 1.326-1.969 2.525-1.316-.213-1.8-2.431-1.596-3.514-2.526-3.221.414-4.412-1.02-6.039-2.635-.258-1.692-1.565-2.987-1.208-4.502.281-1.191 1.648-3.511 2.526-4.062 1.013-.638 2.37-.501 3.074-1.428.649-.854.396-1.874.659-2.855.402-1.501 1.781-2.33 2.305-4.062 1.805-.234 3.792-.692 5.6-1.318 1.468-.507 2.794-1.375 3.953-1.756 1.376-.453 1.341.012 2.305.549 1.288.715 2.271.98 2.965 2.196.929-.123 1.191.419 1.756.659.041-1.875-1.876-2.362-2.415-3.295.414.184 1.562-.167 2.087.219-.05-.975-.826-1.222-1.757-1.316.47-.227 1.144-.247 1.537-.549 1.039 1.674 3.198 2.665 5.709 2.744.804.025 1.638-.42 2.307.11.138.481.876 1.024 1.208 1.647.581-.69.556-2.639-.659-2.637.149-.326.76-.192 1.209-.219-.796-2.147-2.721-.02-3.954-.219-1.183-.192-2.004-1.504-3.513-1.647-.355-1.762 1.762-2.42 1.865-4.393 3.835-1.765 8.452-2.748 10.762-6.039 1.683.536 3.197.84 5.27 1.208 2.721.483 4.485 2.633 6.809 2.525 1.391-.064 2.453-1.103 3.184-2.196-.702-.637-.892-.998-1.318-1.757-.326.108-.387.313-.219-.11-.405-.04-.459.273-.55.549-.321-.093.067-.354 0-.549-.341-.014-.559.179-.769.549-.242-.11.271-.378.11-.769-.398.005-.353.452-.659.549-.173-.326.353-1.222 0-1.757-.352-.023-.267.392-.438.549-.246-.047-.045-.542-.109-.769-.418.131-.568.53-.769.878-.248-.082-.044-.616-.11-.878-.231-.027-.601.657-.439.33.241-1.174 2.448.269 2.855-.659-.043-.507-.666-.433-1.099-.549-.941-.815-1.896-1.619-3.403-1.866-.122-1.586.13-2.799.549-3.843.161.048-.044.141 0 .33.403.037.331-.4.438-.659.122.507.392.189.33.878.529.09.214-.664.659-.659.284.142-.085.657.109.659.571.169.173-.632.658-.549.258.255.361.665.439 1.098.359-.08.429-.45.44-.879.163.422.384.787.438 1.318.652-.19.565-1.118 1.1-1.428-.005.479.095.857.219 1.208.541-.155.552-.839.659-1.428.352.667.73-.291.769.33.289.033.359-.152.328-.439.219.185.177.63.44.769.508-.015.071-1.144.657-.769.067-.554.234.33.33.439.685-.779.702-2.226 1.647-2.745v-1.208c-.442-.782-.767-1.43-1.205-2.41zm-13.157.498-.88.935s-.88-.22-.88-.88.109-.55.88-.99h.88v.935z"/></svg>