<svg xmlns="http://www.w3.org/2000/svg" viewBox="0 0 100 100" xml:space="preserve"><path d="m80.54 54.638-.004-.003c-2.123-1.357-5.029-1.586-8.356-.739-.002-.007-.002-.012-.003-.018 2.194-2.741 2.437-5.122 2.323-9.062-.146-5.143-3.133-7.578-6.585-11.007-.941-1.38-2.264-4.729-.853-6.309 1.557-1.743 4.031-1.38 7.562.688 3.062 1.875 5.654-.216 5.062-2.5-.586-2.258-2.387-4.336-3.824-6.111-1.444-1.784-2.73-4.005-4.591-5.525L76.097 1.87l-7.586 10.709c-.858-.246-1.82-.354-2.921-.269-.018 0-.033.001-.052.001-.009 0-.019.001-.027.002-7.515.399-13.192 5.656-14.073 15.124-.729 6.253 1.431 11.796-.582 12.751S26.636 50.82 26.636 50.82c-4.53 1.9-7.317 4.179-8.537 7.01-3.896.441-8.042 4.319-9.306 7.876-2.099 5.899.214 12.89 2.28 18.45.516 1.389 1.657 3.028 3.357 3.028 1.879 0 3.909-1.551 3.053-3.999-1.242-3.556-2.639-7.2-3.005-10.974-.357-3.686-.334-6.774 3.128-8.415-.063 1.786.6 5.333 4.599 7.138 4.438 2.097 7.803 3.608 6.869 6.262-1.594 4.672-3.098 12.056 3.587 14.337 4.161 1.419 8.323 2.838 12.484 4.258 3.154 1.077 4.781-3.573 1.591-4.662-2.146-.732-4.292-1.465-6.438-2.195-2.015-.688-4.031-1.377-6.047-2.063-2.164-.739-.218-4.479.245-5.835 1.804 3.561 7.36 4.396 10.798 5.57 1.721.586 3.442 1.175 5.166 1.763 2.705.922 4.994-2.679 2.345-4.337-1.066-.666-2.535-.934-3.707-1.332-2.237-.764-4.475-1.525-6.711-2.291-1.051-.356-3.222-.637-3.626-1.879-.506-1.56 1.116-5.071 1.323-5.321 3.75-9.624 25.834-12.062 28.75-12.507s4.133-2.299 6.746-2.384c1.549-.052 3.465 1.173 2.826 2.657-1.054 2.438-4.277 2.45-6.191 3.936-2.025 1.315-.495 4.84 2.997 3.496 4.842-2.221 7.88-4.66 8.126-8.206.163-2.295-.858-4.32-2.798-5.563z"/></svg>