<?xml version="1.0" encoding="UTF-8"?>
<svg width="1200pt" height="1200pt" version="1.1" viewBox="0 0 1200 1200" xmlns="http://www.w3.org/2000/svg">
 <g>
  <path d="m509.09 100c-74.645 0-135.74 58.047-140.59 131.46-14.395 18.188-23.039 41.215-23.039 66.262 0 58.996 47.824 106.82 106.82 106.82h54.582c21.605 27.641 55.258 45.453 93.145 45.453s71.539-17.812 93.148-45.453h54.582c58.996 0 106.82-47.824 106.82-106.82 0-58.992-47.82-106.82-106.82-106.82h-106.86c-20.176-53.141-71.57-90.91-131.79-90.91z"/>
  <path d="m450 500c-17.562 0-33.84 9.2148-42.875 24.273l-300 500c-9.2656 15.445-9.5117 34.688-0.63672 50.363 8.8789 15.672 25.5 25.363 43.512 25.363h900c18.016 0 34.637-9.6914 43.512-25.363 8.875-15.676 8.6328-34.918-0.63672-50.363l-300-500c-9.0352-15.059-25.309-24.273-42.875-24.273h-75c-20.84 0-39.5 12.93-46.816 32.445l-8.1328 21.684-32.422-37.055c-9.4922-10.848-23.207-17.074-37.629-17.074z"/>
 </g>
</svg>
