<svg xmlns="http://www.w3.org/2000/svg" viewBox="0 0 100 100" xml:space="preserve"><path d="m41.498 73.285 18.008-24.56 8.386-29.779-4.347-5.278L9.357 62.419 4 77.942V94h5.515l18.32-15.637 6.832-.367zM8.584 61 60 14.91V10h-5.771l-12.11 12.702-19.251 4.952L2.995 53.643 4.318 61zM87.607 31.604 90.921 36H92.3l-4.278-6.468-5.933.045-8.145 4.921-6.625-7.82-5.518 20.035 4.135-5.234 9.666 2.628 5.105-9.427z"/><path d="M55.039 89.657 48 86.896v-6.899l4.55-7.314.902-13.112-10.594 14.491 1.812 6.349.057 4.775L36 83.722V80h-4v7.173l-2.352 1.38-.692 1.655 7.082-3.035 7.25.826-2.621 1.936-1.233 4.309L43.997 91h4.417l3.589 2.158 11.729-1.613 2.204.575-3.513-3.51zM96.578 41.076l-7.039-4.346-2.346-2.83-5.657 2.83-4.486 7.245 6.831-4.002 10.214 4.14 1.658 2.623.136 1.989 1.656-3.921-.967-3.728zm-9.685-3.416c-.517 0-.933-.417-.933-.93 0-.515.416-.932.933-.932.515 0 .932.417.932.932-.001.514-.418.93-.932.93z"/></svg>