<?xml version="1.0" encoding="UTF-8"?>
<svg width="1200pt" height="1200pt" version="1.1" viewBox="0 0 1200 1200" xmlns="http://www.w3.org/2000/svg">
 <g>
  <path d="m133.2 358.8c18 0 24 4.8008 40.801 18 21.602 16.801 55.199 43.199 115.2 43.199s92.398-26.398 115.2-43.199c16.801-13.199 22.801-18 40.801-18s24 4.8008 40.801 18c20.398 16.801 54 43.199 114 43.199s92.398-26.398 115.2-43.199c16.801-13.199 22.801-18 40.801-18s24 4.8008 40.801 18c21.602 16.801 55.199 43.199 115.2 43.199s92.398-26.398 115.2-43.199c16.801-13.199 22.801-18 40.801-18 33.602 0 60-26.398 60-60 0-33.602-26.398-60-60-60-60 0-92.398 26.398-115.2 43.199-16.801 13.199-22.801 18-42 18-18 0-24-4.8008-40.801-18-21.602-16.801-55.199-43.199-115.2-43.199s-92.398 26.398-115.2 43.199c-15.602 13.199-21.602 18-39.602 18s-24-4.8008-40.801-18c-21.602-16.801-55.199-43.199-115.2-43.199s-92.398 26.398-115.2 43.199c-15.602 13.199-21.602 18-40.801 18-18 0-24-4.8008-40.801-18-21.602-16.801-55.199-43.199-115.2-43.199-33.602 0-60 26.398-60 60 0 33.598 27.602 60 61.199 60z"/>
  <path d="m1066.8 508.8c-60 0-92.398 26.398-115.2 43.199-16.801 13.199-22.801 18-40.801 18s-24-4.8008-40.801-18c-21.602-16.801-55.199-43.199-115.2-43.199s-92.398 26.398-115.2 43.199c-16.801 13.199-22.801 18-40.801 18s-24-4.8008-40.801-18c-21.602-16.801-55.199-43.199-115.2-43.199s-92.398 26.398-115.2 43.199c-16.801 13.199-22.801 18-40.801 18s-24-4.8008-40.801-18c-21.602-16.801-55.199-43.199-115.2-43.199-33.602 0-60 26.398-60 60 0 33.602 26.398 60 60 60 18 0 24 4.8008 40.801 18 21.602 16.801 55.199 43.199 115.2 43.199s92.398-26.398 115.2-43.199c16.801-13.199 22.801-18 40.801-18s24 4.8008 40.801 18c21.602 16.801 55.199 43.199 115.2 43.199s92.398-26.398 115.2-43.199c16.801-13.199 22.801-18 40.801-18s24 4.8008 40.801 18c21.602 16.801 55.199 43.199 115.2 43.199s92.398-26.398 115.2-43.199c16.801-13.199 22.801-18 40.801-18 33.602 0 60-26.398 60-60 0-33.602-26.402-60-60-60z"/>
  <path d="m1066.8 780c-60 0-92.398 26.398-115.2 43.199-16.801 13.199-22.801 18-40.801 18s-24-4.8008-40.801-18c-21.602-16.801-55.199-43.199-114-43.199-60 0-92.398 26.398-115.2 43.199-16.801 13.199-22.801 18-40.801 18s-24-4.8008-40.801-18c-21.598-16.801-55.199-43.199-115.2-43.199s-92.398 26.398-115.2 43.199c-16.801 13.199-22.801 18-40.801 18s-24-4.8008-40.801-18c-21.602-16.801-55.199-43.199-115.2-43.199-33.602 0-60 26.398-60 60s26.398 60 60 60c18 0 24 4.8008 40.801 18 21.602 16.801 55.199 43.199 115.2 43.199s92.398-26.398 115.2-43.199c16.801-13.199 22.801-18 40.801-18s24 4.8008 40.801 18c21.602 16.801 55.199 43.199 115.2 43.199s92.398-26.398 115.2-43.199c16.801-13.199 22.801-18 40.801-18s24 4.8008 40.801 18c21.602 16.801 55.199 43.199 115.2 43.199s92.398-26.398 115.2-43.199c16.801-13.199 22.801-18 40.801-18 33.602 0 60-26.398 60-60s-27.602-60-61.199-60z"/>
 </g>
</svg>
