<?xml version="1.0" encoding="UTF-8"?>
<svg width="1200pt" height="1200pt" version="1.1" viewBox="0 0 1200 1200" xmlns="http://www.w3.org/2000/svg">
 <g>
  <path d="m961.74 649.72c-17.863 15.723-30.758 27.086-59.164 27.086-28.41 0-41.301-11.359-59.148-27.086-20.004-17.613-44.914-39.543-92.18-39.543-7.1367 0-13.727 0.55078-19.914 1.4648-117.62-85.883-32.016-190.4-32.016-190.4 0 46.539 23.719 125.92 117.57 125.92 69.926 0 105.32-55.5 105.32-113.67 0-72.727-9.0273-173.31-164.98-173.31-113.31 0-199.92 50.738-331.15 206.23-76.074 90.148-107.71 173.14-179.72 190.31-2.6328-2.2227-5.2969-4.5312-8.0938-6.9961-20.004-17.625-44.906-39.551-92.164-39.551v137.47c47.266 0 72.16 21.93 92.164 39.551 17.848 15.723 30.73 27.074 59.125 27.074 28.375 0 41.27-11.352 59.109-27.074 19.996-17.625 44.898-39.551 92.137-39.551 47.266 0 72.168 21.93 92.164 39.551 17.855 15.723 30.75 27.074 59.141 27.074 28.398 0 41.301-11.359 59.148-27.074 20.004-17.625 44.914-39.551 92.164-39.551 47.273 0 72.176 21.93 92.18 39.543 17.848 15.723 30.742 27.086 59.148 27.086 28.41 0 41.301-11.359 59.164-27.086 20.004-17.613 44.914-39.543 92.164-39.543v-137.48c-47.258 0-72.168 21.922-92.172 39.547z"/>
  <path d="m902.58 864.25c-47.258 0-72.16-21.93-92.164-39.543-17.863-15.723-30.758-27.086-59.164-27.086-28.383 0-41.285 11.359-59.148 27.074-20.004 17.625-44.898 39.551-92.164 39.551-47.258 0-72.16-21.93-92.156-39.543-17.855-15.723-30.75-27.086-59.148-27.086-28.375 0-41.27 11.352-59.109 27.074-19.996 17.625-44.898 39.551-92.137 39.551-47.258 0-72.148-21.93-92.148-39.551-17.855-15.715-30.742-27.074-59.141-27.074v142.2h907.81l0.003906-142.2c-28.398 0-41.301 11.359-59.148 27.086-20.008 17.613-44.918 39.539-92.184 39.539z"/>
 </g>
</svg>
