<svg xmlns="http://www.w3.org/2000/svg" viewBox="0 0 293.5 155.255" xml:space="preserve"><path d="M46.201 46.575C42.921 39.684 44 30.255 44 30.255c40.166-.833 36.5-13.833 35.5-14.167-4.333 1.667-19.334-2.667-24.334-2.667-3.853-3.082-10.685-1.324-12.749-1.171-5.202 5.624-14.756 19.819 3.784 34.325zM151.729 125.259c39.599 21.958 30.286 4.062 25.265-2.421-6.098.323-15.54 1.009-25.265 2.421z"/><path d="M253.67 24.755c-3.7-.08-7.41.17-11.09.48-5.14.43-10.271 1-15.38 1.64-6.19.77-12.37 1.63-18.53 2.54-6.84 1.01-13.67 2.08-20.49 3.18-7.1 1.14-14.189 2.35-21.279 3.56-6.98 1.19-13.95 2.42-20.91 3.67-6.48 1.16-12.95 2.31-19.42 3.52-5.59 1.05-11.2 2.03-16.78 3.11-4.33.84-8.68 1.61-13.01 2.45-5.34 1.03-10.641 2.04-16.021 2.83-3.02.44-6.04.95-9.069 1.29-7.23.82-14.69 1.44-21.58-1.41-6.261-2.58-13.03-8.2-15.771-14.56-6.149-14.3 6.63-25.43 7.561-25.44-.04 0-.11-.14-.16-.22.01.05.04.12.08.22-.811-2.04-5.65-2.03-7.15-2.03C22.83 10.755 15 6.925 8.33 5.255c-7.16-1.33 3.17 9 8.5 15.17 8.34 5.66 7.5 6.83 7.84 13.83-12.84 23.5-5 46.17-2 55.5 11.64 25.22 38.521 34.78 64.561 37.6 3.96-7.32 13.55-21.67 31.779-31.36 0 0-27.77 20.83-31.37 37.3-.159 5.2-1.13 11.91 2.931 15.78 3.649 3.489 9.47 1.12 13.02-1.4 5.73-4.07 9.32-10.46 13.11-16.23.76-1.17 1.53-2.32 2.31-3.47 16.08-.95 28.17-3.41 30.3-4.07.2 0 14.2-3.04 25.641-3.18 57.38 1.19 62.93 1.99 65.84-1.72.66-4.89-50.81-10.33-52.79-11.92 3.04-3.43 16.33-11 42.33-7 27.34 7.34 42-7.33 48.67-34.66 8.668-44.67-8.672-38-25.332-40.67zm-167.22 99.46c-1.391-.32-85.24-8.44-61.22-86.38-.591 2.61-15.771 72.55 63.76 80.73-.9 1.49-1.58 1.48-2.54 5.65zm34.07.93s1.16-5.6 2.79-7c0 0 35.37-7.44 54.921-2.09.229.46-27.111 1.89-57.711 9.09z"/></svg>