<?xml version="1.0" encoding="UTF-8"?>
<svg width="1200pt" height="1200pt" version="1.1" viewBox="0 0 1200 1200" xmlns="http://www.w3.org/2000/svg">
 <g>
  <path d="m794.15 555h-594.75c-13.801 0-25-11.199-25-25s11.199-25 25-25h594.75c33.102 0 60.551-10.148 79.301-29.352 15.949-16.352 25.102-39.102 25.102-62.5 0-40.199-26.75-80.699-86.449-80.699-13.801 0-25-11.199-25-25s11.199-25 25-25c89.602 0 136.45 65.75 136.45 130.7 0 36.352-14.352 71.852-39.352 97.398-19.801 20.254-55.848 44.453-115.05 44.453z"/>
  <path d="m986.85 634.75h-958.55c-13.801 0-25-11.199-25-25s11.199-25 25-25h958.55c50.25 0 92.051-15.648 120.9-45.148 24.75-25.301 38.898-60.551 38.898-96.75 0-62.699-41.5-126-134.2-126-13.801 0-25-11.199-25-25 0-13.801 11.199-25 25-25 120.9 0 184.2 88.551 184.2 176 0 49.102-19.398 97.102-53.148 131.7-26.801 27.449-75.801 60.199-156.65 60.199z"/>
  <path d="m581.2 484.4c-2.8516 0-5.4492-0.050782-7.6992-0.050782l-424.1 0.003906c-13.801 0-25-11.199-25-25 0-13.801 11.199-25 25-25l424.45 0.050782c8.0508 0.10156 22.051 0.30078 27.199-0.35156 9.3516-0.30078 15.699-1.5508 20.551-10.852 7.1992-13.648 4.8984-32.301 1.3008-37.449-6.8008-9.5-18.148-15.602-30.199-15.852-13.801-0.39844-24.648-11.852-24.301-25.699 0.39844-13.551 11.449-24.301 25-24.301h0.69922c27.602 0.80078 53.648 14.648 69.75 37.148 15.949 23.051 16.75 61.352 2.0508 89.352-12.398 23.75-34.648 37.352-61.102 37.352-1.5469 0.5-13.496 0.64844-23.598 0.64844z"/>
  <path d="m812.05 933.1c-13.801 0-25-11.199-25-25 0-13.801 11.199-25 25-25 59.699 0 86.449-40.551 86.449-80.699 0-23.398-9.1484-46.148-25.102-62.5-18.75-19.199-46.199-29.352-79.301-29.352h-594.7c-13.801 0-25-11.199-25-25s11.199-25 25-25h594.75c59.25 0 95.25 24.148 115.05 44.449 25 25.602 39.352 61.102 39.352 97.398 0 64.953-46.902 130.7-136.5 130.7z"/>
  <path d="m593.45 895.65c-13.551 0-24.602-10.75-25-24.301-0.35156-13.801 10.5-25.301 24.301-25.699 12.051-0.30078 23.398-6.3516 30.352-16.102 3.3516-4.8984 5.6484-23.551-1.5-37.199-4.8516-9.25-11.25-10.5-16.801-10.5-9.1992-1-23.051-0.80078-30.852-0.64844l-424.55 0.050781c-13.801 0-25-11.199-25-25s11.199-25 25-25l424.15-0.050781c10.602 0.050781 29.5 0 35.398 1 22.352 0.10156 44.551 13.25 56.949 36.949 14.699 28.051 13.898 66.301-1.8516 89.102-16.199 22.801-42.301 36.602-69.898 37.398h-0.69531z"/>
 </g>
</svg>
