<svg xmlns="http://www.w3.org/2000/svg" viewBox="0 0 100 100" xml:space="preserve"><path d="M20.22 62.969c.828-2.975 2.808-6.934 4.052-9.117 3.117-5.468 6.779-15.661 23.845-16.83 0 0 13.266.233 17.416-2.279 0 0 1.636-.818 2.629-2.104 0 0-1.109.409-2.746 0 0 0 2.221-.467 4.324-1.986 0 0-1.52.292-2.805 0 0 0 2.396-.644 4.676-2.046 0 0 1.168-.643 1.636-1.694 0 0-3.565 1.694-6.546-.409 0 0 2.864-2.338 6.955-3.975 0 0 .672-2.805 1.725-4.675 1.051-1.87 2.775-1.52 3.564-2.163.789-.643 4.042-3.175 5.64-6.058 1.598-2.884 3.351.312 3.624 2.025.272 1.715.156 4.364-.74 7.442 0 0 .896.584 2.143-2.222 1.246-2.805 1.598 3.546-.545 6-2.144 2.455-3.078 11.649-2.923 19.286s1.071 9.467 1.071 9.467-2.221-1.227-2.805-3.038c0 0-.877 5.786-.117 8.649 0 0-1.754-1.229-2.046-2.514 0 0-.526 4.559-2.806 6.662 0 0-1.752 1.871-1.461 3.625 0 0-1.636-1.813-1.051-3.508 0 0-2.241 2.553-2.787 8.553-.545 6-1.402 10.986-.311 14.025 1.091 3.039 1.83 3.975 2.221 4.402 0 0 2.883-.662 2.883 2.572h-7.676s-3.447-4.539-2.454-11.494-2.688-8.707-2.104-14.26c0 0-6.721 2.572-20.571-3.156 0 0 3.391 11.104-10.091 16.17 0 0-2.183 1.09 2.415 8.416 0 0 .867 1.422 1.978 1.859 1.11.439 4.237-.303 2.718 2.465h-6.545s-9.001-12.078-5.436-14.416c0 0 2.396-4.383 1.11-8.648-1.286-4.268-1.694-4.793-3.272-3.215s-4.151 5.08-4.578 7.188c0 0-.623 5.65-.391 8.223 0 0-.896.037-1.52-1.793 0 0-1.52 5.766-.974 9.078 0 0-1.246-.703-1.324-2.145 0 0-4.987 5.807-9.117 6.195 0 0-1.714-5.025.507-10.441 0 0-1.364.273-2.221-.35 0 0 3.467-3.078 5.571-6.391 0 0-1.676.195-2.884-.35 0 0 5.475-3.664 6.644-6.877 1.169-3.213.899-1.988 1.5-4.148z"/></svg>