<svg xmlns="http://www.w3.org/2000/svg" viewBox="-55 147 500 500" style="enable-background:new -55 147 500 500" xml:space="preserve"><path d="M345 175.6c0-15.8-33.4-28.6-74.5-28.6s-69 18.6-74.5 28.6c-2.8 5.1-4.4 9.8-5.2 14.2L105 201.9c-2.7.4-2.7 4.2 0 4.6l94 13.4c8 12.6 17.1 22.1 4.8 31.8-33.9 26.7-51.3 78.6-42.1 158.9l-27.5-8.6c-.1-3.7-.3-7.4-.6-11.1-.2-2.7-.5-6.2-1.8-9.3-1.6-4-4.4-6.5-6.4-8.3-1.5-1.4-4.6-3.4-9.6-6.5-2-1.2-4.6-2.9-6.4-4.1V220.2c-9.7-2.5-16.5-8.6-16.5-15.9 0-7.2 6.8-13.4 16.5-15.9V147H45v500h64.4V433.3c3.3-.1 6.6-.1 9.9 0 1.3 0 3.7.1 6-1.3 2.1-1.3 3.3-3.2 4.1-4.7 2.1-3.9 3.4-8.3 4-12.9l29.7 9.3c5.1 42.2 7.1 56.8 9.5 72.1 2.6 16.6-45.5 118.4-42.9 127.9 2.6 9.5 21.8 11.1 49.7 17.4 40.4 9.1 43.5 9.7 43.2-11.2-.1-4.6.1-9.2.4-13.7.5-6.7 1.6-16.8 3.4-27.1 5.1-28.9 7.6-58.2 7.1-87.6v-.6c-.2-13.1-.5-26.3-2.3-39.2-1.8-13.1-4.8-26-7.6-38.8-8.5-39-19.4-88.4 13.4-119.4 4.8-4.5 12 2.7 7.2 7.2-33.2 31.4-16 84.9-7.8 123.1 6.5 30.3 8.1 61.2 7.5 92.1 9.7-25.9 23.7-55.4 44.2-86.9 17.5-26.9 23.8-83.8 16.8-107.9s-26-44.1 1-66.7c18.5-15.5 35.1-32.9 14.1-67.3 15.4-5.4 25-13.1 25-21.5zM119 421.2c-3.2-.1-6.4-.1-9.6 0V377c2.8 1.8 7 4.4 7.9 5.2 1.6 1.5 2.8 2.6 3.3 3.9.6 1.4.8 3.7.9 5.7.9 10.8 1.4 22-2.5 29.4zm112-213.9c-17.9 0-17.9-27.6 0-27.6s17.9 27.6 0 27.6z"/><ellipse cx="230.3" cy="195.1" rx="7.1" ry="7"/></svg>