<?xml version="1.0" encoding="UTF-8"?>
<svg width="1200pt" height="1200pt" version="1.1" viewBox="0 0 1200 1200" xmlns="http://www.w3.org/2000/svg">
 <path d="m1068 302.4c0-1.1992-1.1992-1.1992-1.1992-2.3984-61.199-75.602-156-124.8-260.4-124.8-184.8 0-334.8 150-334.8 334.8v337.2c0 42-34.801 76.801-76.801 76.801s-76.801-34.801-76.801-76.801v-541.2c0-36-15.602-70.801-42-94.801-27.602-25.199-62.398-37.199-98.398-33.602-67.203 4.8008-118.8 63.602-118.8 134.4v572.4c0 73.199 26.398 140.4 69.602 192l1.1992 1.1992c55.199 66 138 106.8 230.4 106.8 165.6 0 306-109.2 352.8-259.2v-1.1992c10.801-34.801 16.801-72 16.801-110.4v-302.4c0-42 34.801-76.801 76.801-76.801s76.801 34.801 76.801 76.801v506.4c0 36 15.602 70.801 42 94.801 27.602 25.199 62.398 37.199 98.398 33.602 66-6 117.6-64.801 117.6-134.4l-0.003906-500.4c0-78-27.598-151.2-73.199-208.8zm-859.2 58.801c-30 0-54-24-54-54s24-54 54-54 54 24 54 54-24 54-54 54z"/>
</svg>
